<?xml version="1.0" encoding="utf-8"?>
<!-- Uploaded to: SVG Repo, www.svgrepo.com, Generator: SVG Repo Mixer Tools -->
<svg fill="#000000" width="800px" height="800px" viewBox="0 0 32 32" version="1.1" xmlns="http://www.w3.org/2000/svg">
<title>safari</title>
<path d="M24.836 7.164l-7.29 10.382-10.382 7.29 7.29-10.382zM17.098 17.098l-2.198-2.198-5.175 7.373 7.372-5.176zM25.778 20.15c0.049-0.112 0.159-0.189 0.287-0.189 0.044 0 0.086 0.009 0.123 0.025l-0.002-0.001 1.15 0.487c0.119 0.046 0.202 0.159 0.202 0.292 0 0.173-0.14 0.312-0.312 0.312-0.048 0-0.094-0.011-0.135-0.031l0.002 0.001-1.15-0.487c-0.113-0.049-0.191-0.159-0.191-0.288 0-0.044 0.009-0.086 0.026-0.124l-0.001 0.002zM4.497 11.118c0.049-0.113 0.159-0.191 0.288-0.191 0.044 0 0.086 0.009 0.124 0.026l-0.002-0.001 1.15 0.489c0.107 0.051 0.179 0.158 0.179 0.283 0 0.173-0.14 0.312-0.312 0.312-0.040 0-0.078-0.007-0.113-0.021l0.002 0.001-1.15-0.487c-0.113-0.049-0.191-0.159-0.191-0.288 0-0.044 0.009-0.086 0.026-0.124l-0.001 0.002zM19.979 25.848c0.035-0.015 0.075-0.023 0.118-0.023 0.13 0 0.242 0.080 0.289 0.193l0.001 0.002 0.467 1.158c0.017 0.037 0.027 0.081 0.027 0.127 0 0.173-0.14 0.312-0.312 0.312-0.134 0-0.248-0.084-0.292-0.202l-0.001-0.002-0.469-1.158c-0.015-0.035-0.023-0.075-0.023-0.118 0-0.13 0.080-0.242 0.193-0.289l0.002-0.001zM11.319 4.413c0.034-0.014 0.075-0.023 0.117-0.023 0.13 0 0.242 0.080 0.289 0.193l0.001 0.002 0.469 1.158c0.015 0.035 0.024 0.077 0.024 0.12 0 0.173-0.14 0.313-0.313 0.313-0.131 0-0.244-0.081-0.29-0.196l-0.001-0.002-0.467-1.158c-0.015-0.035-0.023-0.075-0.023-0.118 0-0.13 0.080-0.242 0.193-0.289l0.002-0.001zM6.152 19.978c0.015 0.035 0.023 0.075 0.023 0.118 0 0.13-0.080 0.242-0.193 0.289l-0.002 0.001-1.158 0.467c-0.037 0.017-0.081 0.027-0.127 0.027-0.173 0-0.312-0.14-0.312-0.312 0-0.134 0.084-0.248 0.202-0.292l0.002-0.001 1.158-0.469c0.035-0.015 0.075-0.023 0.118-0.023 0.13 0 0.242 0.080 0.289 0.193l0.001 0.002zM27.587 11.318c0.014 0.035 0.023 0.075 0.023 0.117 0 0.13-0.080 0.242-0.193 0.289l-0.002 0.001-1.158 0.469c-0.034 0.014-0.074 0.022-0.116 0.022-0.173 0-0.313-0.14-0.313-0.313 0-0.13 0.079-0.241 0.192-0.288l0.002-0.001 1.158-0.467c0.035-0.015 0.075-0.023 0.118-0.023 0.13 0 0.242 0.080 0.289 0.193l0.001 0.002zM11.851 25.778c0.112 0.049 0.19 0.159 0.19 0.287 0 0.044-0.009 0.086-0.025 0.123l0.001-0.002-0.487 1.15c-0.051 0.107-0.158 0.179-0.283 0.179-0.173 0-0.312-0.14-0.312-0.312 0-0.040 0.007-0.078 0.021-0.113l-0.001 0.002 0.487-1.15c0.049-0.113 0.159-0.191 0.288-0.191 0.044 0 0.086 0.009 0.124 0.026l-0.002-0.001zM20.882 4.497c0.113 0.049 0.191 0.159 0.191 0.288 0 0.044-0.009 0.086-0.026 0.124l0.001-0.002-0.489 1.15c-0.046 0.119-0.159 0.202-0.292 0.202-0.173 0-0.312-0.14-0.312-0.312 0-0.048 0.011-0.094 0.031-0.135l-0.001 0.002 0.487-1.15c0.049-0.113 0.159-0.191 0.288-0.191 0.044 0 0.086 0.009 0.124 0.026l-0.002-0.001zM26.622 16c0 0 0 0 0-0 0-0.173 0.14-0.312 0.312-0.312 0 0 0 0 0 0h1.25c0.171 0.001 0.31 0.141 0.31 0.312s-0.138 0.311-0.31 0.312h-1.25c-0.173-0-0.312-0.14-0.312-0.312v0zM3.504 16c0 0 0 0 0-0 0-0.173 0.14-0.312 0.312-0.312h1.25c0.001 0 0.002 0 0.003 0 0.173 0 0.312 0.14 0.312 0.312s-0.14 0.312-0.312 0.312c-0.001 0-0.002 0-0.003 0h-1.25c-0.173 0-0.312-0.14-0.312-0.312v0zM23.51 23.51c0.057-0.057 0.135-0.092 0.221-0.092s0.165 0.035 0.221 0.092v0l0.884 0.885c0.064 0.057 0.104 0.14 0.104 0.233 0 0.173-0.14 0.312-0.312 0.312-0.092 0-0.175-0.040-0.233-0.104l-0-0-0.885-0.884c-0.057-0.057-0.092-0.135-0.092-0.221s0.035-0.165 0.092-0.221v0zM7.164 7.165c0.056-0.056 0.134-0.091 0.221-0.091s0.164 0.035 0.221 0.091v0l0.885 0.883c0.057 0.057 0.092 0.135 0.092 0.221 0 0.173-0.14 0.313-0.313 0.313-0.086 0-0.165-0.035-0.221-0.092v0l-0.883-0.885c-0.056-0.056-0.091-0.134-0.091-0.221s0.035-0.164 0.091-0.221v0zM8.49 23.51c0.057 0.057 0.092 0.135 0.092 0.221s-0.035 0.165-0.092 0.221v0l-0.885 0.884c-0.057 0.064-0.141 0.104-0.233 0.104-0.173 0-0.312-0.14-0.312-0.312 0-0.092 0.040-0.176 0.104-0.233l0-0 0.884-0.885c0.057-0.057 0.135-0.092 0.221-0.092s0.165 0.035 0.221 0.092v0zM24.836 7.164c0.056 0.056 0.091 0.134 0.091 0.221s-0.035 0.164-0.091 0.221v0l-0.884 0.885c-0.057 0.057-0.135 0.092-0.221 0.092-0.173 0-0.313-0.14-0.313-0.313 0-0.086 0.035-0.165 0.092-0.221v0l0.885-0.883c0.056-0.056 0.134-0.091 0.221-0.091s0.164 0.035 0.221 0.091v0zM16 26.622c0.173 0 0.312 0.14 0.312 0.312 0 0 0 0 0 0v0 1.25c-0.001 0.171-0.141 0.31-0.312 0.31s-0.311-0.138-0.312-0.31v-1.25c0-0.173 0.14-0.312 0.312-0.312 0 0 0 0 0 0v0zM16 3.504c0.173 0 0.312 0.14 0.312 0.312v0 1.25c-0.001 0.171-0.141 0.31-0.312 0.31s-0.311-0.138-0.312-0.31v-1.25c0-0.173 0.14-0.312 0.312-0.312 0 0 0 0 0 0v0zM16 30.058c7.764 0 14.058-6.294 14.058-14.058s-6.294-14.058-14.058-14.058c-7.764 0-14.058 6.294-14.058 14.058v0c0 7.764 6.294 14.058 14.058 14.058h0zM16 30.996c0 0 0 0-0 0-8.282 0-14.996-6.714-14.996-14.996s6.714-14.996 14.996-14.996c8.282 0 14.996 6.714 14.996 14.996 0 0 0 0 0 0v0c-0 8.282-6.714 14.995-14.996 14.996h-0z"></path>
</svg>