<?xml version="1.0" encoding="UTF-8"?>
<svg version="1.1" xmlns="http://www.w3.org/2000/svg" width="260" height="260">
<path d="M0 0 C0.72328491 0.17280487 1.44656982 0.34560974 2.19177246 0.52365112 C2.93189575 0.70090729 3.67201904 0.87816345 4.43457031 1.06079102 C6.00996869 1.4222057 7.58582753 1.7816183 9.16210938 2.13916016 C12.4340639 2.88371779 15.70334803 3.63873372 18.97119141 4.40112305 C24.09157439 5.59025943 29.22415981 6.71954811 34.36035156 7.83813477 C36.03492727 8.20395077 37.70948806 8.5698351 39.3840332 8.93579102 C41.8059003 9.46496431 44.22777754 9.99408427 46.64987183 10.5222168 C48.87584297 11.00911983 51.1006523 11.50100401 53.32519531 11.99438477 C54.59266602 12.27338623 55.86013672 12.5523877 57.16601562 12.83984375 C59.99707031 13.56079102 59.99707031 13.56079102 60.99707031 14.56079102 C61.15114539 17.6826024 61.23955029 20.7831173 61.28515625 23.90722656 C61.3029715 24.88950226 61.32078674 25.87177795 61.33914185 26.88381958 C61.49418216 35.99055437 61.58118658 45.09838839 61.64913559 54.2061491 C61.69520534 60.32280199 61.7623423 66.43752585 61.88183594 72.55322266 C61.99698244 78.46794016 62.05710359 84.38093031 62.07965851 90.29670143 C62.09735449 92.54335447 62.13400486 94.7899473 62.1906662 97.03595543 C62.47479617 108.86454374 62.59477757 118.09877271 54.37002182 127.22278118 C53.42436629 128.1959165 52.46395672 129.15495348 51.48864746 130.09836674 C49.33756071 132.2074105 47.36460745 134.46394423 45.3683815 136.7184639 C43.97424314 138.28992004 42.54507838 139.8222242 41.09082031 141.33813477 C40.58292969 141.86777832 40.07503906 142.39742187 39.55175781 142.94311523 C39.03871094 143.47694824 38.52566406 144.01078125 37.99707031 144.56079102 C37.47886719 145.10622559 36.96066406 145.65166016 36.42675781 146.21362305 C28.53293793 154.49387069 20.19099784 161.7585944 10.99707031 168.56079102 C10.1346875 169.20661133 9.27230469 169.85243164 8.38378906 170.51782227 C-0.17796126 176.72544157 -9.47398272 181.92907761 -18.94042969 186.62329102 C-19.75382812 187.02676758 -20.56722656 187.43024414 -21.40527344 187.84594727 C-28.33084788 189.75178204 -34.08555046 186.34804223 -40.00292969 183.12329102 C-40.83671143 182.67445557 -41.67049316 182.22562012 -42.52954102 181.76318359 C-68.91594239 167.33095393 -94.08661903 146.58205931 -111.00292969 121.56079102 C-111.52756302 120.88639481 -112.05219635 120.2119986 -112.59272766 119.51716614 C-114.64132969 115.22243676 -114.39767627 111.329811 -114.34350586 106.62988281 C-114.34394394 105.63428848 -114.34438202 104.63869415 -114.34483337 103.6129303 C-114.34274655 100.32842265 -114.31941997 97.04442804 -114.29589844 93.76000977 C-114.29030212 91.48029357 -114.28603219 89.20057376 -114.28303528 86.92085266 C-114.27158939 80.92518119 -114.24212414 74.92972828 -114.20892334 68.93414307 C-114.17821711 62.81427975 -114.16452874 56.69438106 -114.14941406 50.57446289 C-114.11725442 38.56980966 -114.06606093 26.56531852 -114.00292969 14.56079102 C-109.59209842 12.99847864 -105.22943837 11.8952921 -100.64672852 10.95678711 C-99.93510056 10.8101915 -99.2234726 10.66359589 -98.49028015 10.51255798 C-96.14777047 10.03174929 -93.80406486 9.55720063 -91.45996094 9.08422852 C-90.65070349 8.92057423 -89.84144604 8.75691994 -89.00766563 8.58830643 C-84.71385286 7.72100724 -80.41897707 6.85919048 -76.12329102 6.0012207 C-71.73900512 5.1242426 -67.35919051 4.22675928 -62.98006153 3.3244381 C-59.56841324 2.6257913 -56.15359 1.94371455 -52.73779869 1.26564407 C-51.125036 0.94253679 -49.51346148 0.6134262 -47.90329933 0.27759933 C-31.79063993 -3.07216588 -16.10073846 -3.90792986 0 0 Z M-34.07128906 13.41943359 C-34.83323578 14.14969254 -35.5951825 14.87995148 -36.38021851 15.63233948 C-38.8909679 18.05186081 -41.37017974 20.50078549 -43.84667969 22.95532227 C-45.58365887 24.65895803 -47.32100991 26.36221475 -49.05871582 28.06510925 C-52.69787166 31.64282112 -56.31933361 35.2374784 -59.93164062 38.84228516 C-64.54500359 43.43973718 -69.21720656 47.9718462 -73.90761566 52.49048328 C-77.51940807 55.99029377 -81.08706542 59.53269696 -84.64424133 63.08792686 C-86.34794077 64.77672529 -88.06713407 66.45005022 -89.8021698 68.10663795 C-101.05011995 78.4840697 -101.05011995 78.4840697 -105.13513947 92.63988018 C-105.0162005 96.35330978 -104.62217421 99.89636705 -104.00292969 103.56079102 C-98.41728319 98.90987142 -93.25641616 93.95090739 -88.13012695 88.80151367 C-87.27079056 87.9423233 -86.41145416 87.08313293 -85.52607727 86.19790649 C-83.1900379 83.8612933 -80.85622727 81.52249655 -78.52341199 79.18266726 C-76.07754953 76.73051773 -73.62882043 74.28123415 -71.18040466 71.83163452 C-66.55330016 67.2014324 -61.92874884 62.568689 -57.30512804 57.93500841 C-52.03740658 52.65607688 -46.76681669 47.38001318 -41.49599373 42.10417867 C-30.66179608 31.2595522 -19.83117437 20.41136166 -9.00292969 9.56079102 C-11.82991051 6.7338102 -14.05717219 6.94263852 -18.00292969 6.56079102 C-19.23644165 6.41159714 -20.46995361 6.26240326 -21.74084473 6.10868835 C-27.36986398 6.16369653 -30.27587648 9.62991324 -34.07128906 13.41943359 Z M11.37524414 26.8203125 C10.26291519 27.93602936 9.14793111 29.04910449 8.03051758 30.159729 C5.01413806 33.17267347 2.03612149 36.22110046 -0.93625045 39.27738452 C-4.05229792 42.46858695 -7.20249776 45.62570739 -10.34919739 48.78663635 C-16.29831024 54.77300654 -22.21618141 60.78929514 -28.12337238 66.81700522 C-34.85178425 73.67967309 -41.61441449 80.50818672 -48.38010061 87.33407867 C-62.29272328 101.37204094 -76.16192542 115.45223359 -90.00292969 129.56079102 C-88.30310309 133.73309267 -86.55805655 135.00566415 -83.00292969 138.56079102 C-43.73292969 99.29079102 -4.46292969 60.02079102 35.99707031 19.56079102 C33.00772983 16.57145053 30.23187519 16.37248236 26.09238243 16.08793831 C19.70319331 17.06397732 15.65957785 22.34963698 11.37524414 26.8203125 Z M-84.76464844 17.55688477 C-85.88291016 17.78569336 -87.00117187 18.01450195 -88.15332031 18.25024414 C-89.90418945 18.62052734 -89.90418945 18.62052734 -91.69042969 18.99829102 C-92.86927734 19.2412793 -94.048125 19.48426758 -95.26269531 19.73461914 C-98.17753467 20.33646856 -101.09042488 20.94774376 -104.00292969 21.56079102 C-104.00292969 29.15079102 -104.00292969 36.74079102 -104.00292969 44.56079102 C-99.70314088 40.87525775 -95.68425624 37.36436183 -91.72558594 33.38110352 C-90.33823242 31.98891602 -90.33823242 31.98891602 -88.92285156 30.56860352 C-87.9703212 29.60772193 -87.01784791 28.64678375 -86.06542969 27.68579102 C-85.08584732 26.70118182 -84.10603132 25.71680501 -83.12597656 24.73266602 C-80.74932717 22.34430899 -78.37505613 19.95363889 -76.00292969 17.56079102 C-79.53780564 16.38249903 -81.14778373 16.80413627 -84.76464844 17.55688477 Z M49.10925961 44.32555389 C48.27688054 45.15885475 47.44450148 45.99215561 46.5868988 46.85070801 C45.89345504 47.54287013 45.89345504 47.54287013 45.18600231 48.24901533 C43.62510941 49.8082506 42.06783614 51.37105269 40.51049805 52.93383789 C39.39727888 54.04733889 38.28383994 55.1606202 37.17019653 56.2736969 C34.13711692 59.3064884 31.10714063 62.34236362 28.07768893 65.37877846 C24.91506716 68.54763151 21.74963249 71.71367205 18.58448792 74.88000488 C12.58659452 80.88101226 6.59125581 86.88456526 0.59681803 92.88902426 C-6.22577857 99.72277991 -13.0511989 106.55371225 -19.87686455 113.38440228 C-33.92204311 127.44004674 -47.96365017 141.49925454 -62.00292969 155.56079102 C-60.66960874 159.56075387 -58.50714699 160.39861438 -55.00292969 162.56079102 C-51.56606911 161.0731805 -49.28236119 159.11934538 -46.6116333 156.51094055 C-45.73947678 155.66321075 -44.86732025 154.81548096 -43.96873474 153.94206238 C-43.01025636 153.00042745 -42.05193331 152.0586344 -41.09375 151.11669922 C-40.07870704 150.12565642 -39.06334343 149.13494196 -38.04768372 148.14453125 C-34.71706765 144.89207004 -31.39772859 141.62824341 -28.08105469 138.36157227 C-27.51583697 137.80489483 -26.95061926 137.24821739 -26.36827374 136.67467093 C-21.03373672 131.41860849 -15.70462609 126.15708337 -10.38580704 120.88511372 C-3.59522845 114.15530536 3.21890055 107.45143276 10.06706882 100.78022319 C14.88746497 96.08020167 19.67857532 91.3515406 24.44935727 86.60117215 C27.29605611 83.7682523 30.15391355 80.94933567 33.04415131 78.1607914 C35.76664888 75.53295093 38.45083765 72.87114997 41.11089516 70.18016815 C42.55062236 68.74180611 44.02726207 67.34068404 45.50498962 65.94139099 C50.03511287 61.28755152 52.44580061 57.9384718 52.62885499 51.44161242 C52.56455603 48.46238008 52.33520597 45.52057974 51.99707031 42.56079102 C50.68811843 42.44697462 50.68811843 42.44697462 49.10925961 44.32555389 Z M49.64025021 98.79456329 C48.76777315 99.66842304 48.76777315 99.66842304 47.87767029 100.55993652 C47.21157745 101.22465469 46.54548462 101.88937286 45.85920715 102.57423401 C44.75653755 103.68229652 44.75653755 103.68229652 43.6315918 104.81274414 C42.47557465 105.96854225 42.47557465 105.96854225 41.29620361 107.14768982 C38.73448144 109.71011193 36.17632528 112.27606426 33.61816406 114.84204102 C31.84861119 116.61345779 30.07883825 118.38465476 28.30885315 120.15563965 C24.11733418 124.35059429 19.92804895 128.54777108 15.73982626 132.74601603 C10.50557182 137.9925248 5.26788257 143.23560036 0.03027344 148.47875977 C-9.31689826 157.83667279 -18.66099113 167.19765393 -28.00292969 176.56079102 C-27.67292969 177.22079102 -27.34292969 177.88079102 -27.00292969 178.56079102 C-20.52315366 176.68904594 -15.02037326 174.13947272 -9.31542969 170.56079102 C-8.14923096 169.83666016 -8.14923096 169.83666016 -6.95947266 169.09790039 C5.0636931 161.4980965 15.76575326 152.41164384 25.99707031 142.56079102 C26.56989746 142.00987793 27.14272461 141.45896484 27.73291016 140.89135742 C35.36495087 133.50677547 42.5205742 125.99596255 48.99707031 117.56079102 C49.85171875 116.67520508 49.85171875 116.67520508 50.72363281 115.77172852 C52.65416401 112.41994737 52.31377514 109.06104406 52.18457031 105.31079102 C52.17103516 104.56571289 52.1575 103.82063477 52.14355469 103.05297852 C52.10834235 101.22193686 52.05453882 99.39126932 51.99707031 97.56079102 C50.81473167 97.44866398 50.81473167 97.44866398 49.64025021 98.79456329 Z " fill="#FB1A20" transform="translate(157.0029296875,37.439208984375)"/>
<path d="M0 0 C0.77995331 0.13134338 1.55990662 0.26268677 2.36349487 0.39801025 C12.01091439 2.07548003 21.52872558 4.31041187 31.0625 6.53125 C34.92519854 7.42311033 38.78874103 8.31128463 42.65234375 9.19921875 C43.60617447 9.4189183 44.56000519 9.63861786 45.54273987 9.86497498 C51.64669971 11.26743836 57.75771177 12.63186406 63.87890625 13.95703125 C64.63480042 14.12075226 65.39069458 14.28447327 66.16949463 14.45315552 C69.6803073 15.21184686 73.19232588 15.96455257 76.70556641 16.71191406 C77.92034668 16.97327148 79.13512695 17.23462891 80.38671875 17.50390625 C81.44205811 17.72828369 82.49739746 17.95266113 83.5847168 18.18383789 C85.9375 18.78125 85.9375 18.78125 86.9375 19.78125 C87.06383677 21.34891939 87.12151275 22.92217187 87.15196228 24.49462891 C87.17356918 25.51479095 87.19517609 26.534953 87.21743774 27.58602905 C87.2358371 28.71521759 87.25423645 29.84440613 87.27319336 31.0078125 C87.30714455 32.7812352 87.30714455 32.7812352 87.34178162 34.59048462 C87.53967922 45.55456153 87.65624495 56.51989329 87.74500179 67.48535156 C87.80591987 74.84985611 87.89293831 82.21202757 88.04858398 89.57519531 C88.18448255 96.00430574 88.26955995 102.43180032 88.29540926 108.86232948 C88.31065998 112.26012522 88.34915427 115.65364005 88.44828606 119.05010986 C88.82464951 133.67388485 88.80201082 144.60084022 78.36273861 155.63116455 C77.15976238 156.81385638 75.93982129 157.97959524 74.70178413 159.12553406 C71.97279723 161.68658816 69.54643396 164.48336034 67.0625 167.28125 C66.18207031 168.22355469 65.30164063 169.16585937 64.39453125 170.13671875 C62.12467161 172.57979502 59.93219392 175.0725745 57.75 177.59375 C54.7206344 181.0163801 51.53042539 184.04286507 48.0390625 186.98828125 C45.77551946 188.91944529 43.61465618 190.94086373 41.4375 192.96875 C27.59073034 205.41813924 11.97170777 215.8744209 -4.625 224.28125 C-5.26759766 224.60770508 -5.91019531 224.93416016 -6.57226562 225.27050781 C-8.37892408 226.15684652 -10.22064038 226.97059334 -12.0625 227.78125 C-13.14917969 228.27882812 -14.23585938 228.77640625 -15.35546875 229.2890625 C-21.02338489 230.04159931 -24.83493873 227.7117891 -29.8125 225.15625 C-30.8223999 224.65351563 -31.8322998 224.15078125 -32.87280273 223.6328125 C-48.06685162 215.91701927 -61.98965823 206.68423005 -75.0625 195.78125 C-75.62743164 195.31783203 -76.19236328 194.85441406 -76.77441406 194.37695312 C-89.01682652 184.32093208 -101.23446445 173.38612303 -110.78237915 160.68057251 C-113.00458915 157.74106845 -113.00458915 157.74106845 -115.62460327 155.19711304 C-125.62857707 143.96967411 -124.38313465 131.48551527 -124.07643938 117.12059832 C-124.0132585 113.65484983 -124.00800063 110.18898335 -123.9961853 106.7227478 C-123.96529576 100.18106925 -123.88350568 93.64109311 -123.78269041 87.10015905 C-123.67030746 79.64435374 -123.6157832 72.18846035 -123.56573606 64.7320168 C-123.46164676 49.41411392 -123.28614212 34.0979028 -123.0625 18.78125 C-110.68447976 16.31790194 -98.30585664 13.85760866 -85.92646027 11.40118504 C-80.17788873 10.26040616 -74.42952805 9.11858653 -68.68164062 7.97436523 C-63.13191308 6.86963145 -57.58164313 5.76766185 -52.0309906 4.66758537 C-49.91617897 4.24795327 -47.80156277 3.82733506 -45.68714905 3.40570259 C-42.71968252 2.81414116 -39.7515329 2.22612825 -36.78320312 1.63891602 C-35.91429443 1.46484726 -35.04538574 1.2907785 -34.15014648 1.11143494 C-22.51230721 -1.18048935 -11.76666645 -1.99063154 0 0 Z M-44.82421875 12.71875 C-46.83698491 13.12391138 -48.85007933 13.52744504 -50.86347961 13.92944336 C-56.09611081 14.97864295 -61.32406394 16.04950773 -66.55126953 17.12536621 C-71.9123261 18.22462422 -77.27762676 19.30275482 -82.64257812 20.3828125 C-93.12007968 22.49528056 -103.59274883 24.63072261 -114.0625 26.78125 C-114.27343265 41.30704474 -114.43118416 55.83259952 -114.52880955 70.35961533 C-114.57507324 77.10598929 -114.63805852 83.85140771 -114.74145508 90.59716797 C-114.83961142 97.11359986 -114.8931356 103.62904192 -114.91639519 110.14615631 C-114.93295953 112.62604597 -114.96530679 115.10588453 -115.01407051 117.58535004 C-115.70622251 135.11773192 -115.70622251 135.11773192 -107.29446411 149.70101929 C-106.18964188 150.73073349 -106.18964188 150.73073349 -105.0625 151.78125 C-104.03932413 153.01288926 -103.03004723 154.25660591 -102.05078125 155.5234375 C-101.16451837 156.57251977 -100.27260606 157.61685649 -99.375 158.65625 C-98.88008057 159.23012451 -98.38516113 159.80399902 -97.87524414 160.39526367 C-88.77985679 170.79706139 -78.9876406 180.31154641 -68.0625 188.78125 C-66.62583984 189.94333984 -66.62583984 189.94333984 -65.16015625 191.12890625 C-53.38474567 200.49874745 -40.64026711 208.60870592 -27.3125 215.59375 C-26.36636841 216.10929443 -26.36636841 216.10929443 -25.40112305 216.63525391 C-20.84785397 218.92194991 -17.94647168 219.12184503 -13.0625 217.78125 C-9.83910804 216.39668848 -6.80303427 214.75569866 -3.75 213.03125 C-2.87843262 212.54390381 -2.00686523 212.05655762 -1.10888672 211.55444336 C13.42809456 203.24440313 26.54437531 192.9975082 38.9375 181.78125 C39.57880859 181.20165527 40.22011719 180.62206055 40.88085938 180.02490234 C47.96538724 173.58927317 54.81532404 167.15077158 60.9375 159.78125 C61.98817404 158.57705599 63.04188429 157.37550819 64.09765625 156.17578125 C64.67628418 155.51634521 65.25491211 154.85690918 65.85107422 154.17749023 C67.00590028 152.86166241 68.16239173 151.54729372 69.32080078 150.23461914 C69.85817871 149.6183667 70.39555664 149.00211426 70.94921875 148.3671875 C71.66791138 147.54806885 71.66791138 147.54806885 72.40112305 146.71240234 C72.90812744 146.07512207 73.41513184 145.4378418 73.9375 144.78125 C74.61982193 143.97751953 75.30214386 143.17378906 76.00514221 142.34570312 C78.95230372 137.85416496 78.46451217 133.01908948 78.39160156 127.81884766 C78.39218567 126.72557159 78.39276978 125.63229553 78.39337158 124.50588989 C78.39059093 120.90203809 78.35949822 117.29901935 78.328125 113.6953125 C78.32066259 111.19282483 78.31496966 108.6903313 78.31097412 106.18783569 C78.29727631 100.28051795 78.2657698 94.37346628 78.22557616 88.46628511 C78.17639983 81.07783685 78.15497918 73.68935137 78.1328125 66.30078125 C78.08994205 53.12745314 78.02246177 39.95437044 77.9375 26.78125 C67.57955743 24.41017449 57.21676501 22.06167846 46.84751415 19.74052429 C42.03084695 18.66160143 37.21606342 17.575473 32.4050293 16.47167969 C27.74697467 15.40328327 23.08470879 14.35537985 18.41909218 13.32052612 C16.65526255 12.92574025 14.89296076 12.52405165 13.13243675 12.11477661 C-7.16612262 7.40681104 -24.52497765 8.49112158 -44.82421875 12.71875 Z " fill="#FB1A20" transform="translate(149.0625,16.21875)"/>
</svg>
