<svg width="121" height="89" viewBox="0 0 121 89" fill="none" xmlns="http://www.w3.org/2000/svg">
<path d="M82.9843 61.9079C82.3972 41.9113 89.6609 22.5927 100.774 9.32324" stroke="#091A50" stroke-width="0.33875" stroke-miterlimit="10"/>
<path d="M89.7512 22.2566C90.8073 11.8529 82.7586 17.6182 98.586 8.75024C101.097 7.34892 97.9903 9.40994 94.6055 17.1C93.3804 19.9948 88.9738 28.1608 86.7248 35.7469C83.4153 46.6544 86.7542 39.7708 85.4303 29.0471C85.0108 24.1201 83.7928 19.4969 87.3288 15.7759C89.0073 17.9919 89.7764 20.8236 89.7512 22.2566Z" fill="#0E336A"/>
<path d="M106.877 6.78877C107.46 5.477 107.556 3.51933 107.604 1.74516C110.989 0.128348 114.21 -0.213684 115.782 0.111028C110.169 3.39103 108.639 7.42469 105.643 11.8547C97.1914 23.7663 88.683 29.3754 84.6797 43.1712C87.709 31.2869 88.9193 29.3765 93.7294 18.0272C96.3365 11.7966 100.59 5.413 106.654 2.22254C107.08 3.63031 107.168 5.5871 106.877 6.78877Z" fill="#0E3E86"/>
<path d="M28.7034 84.041C27.4444 63.8231 17.8889 59.11 11.8516 54.0562" stroke="#091A50" stroke-width="0.238593" stroke-miterlimit="10"/>
<path d="M15.9388 59.8119C15.1439 59.683 13.5173 59.8941 11.9002 60.7608C11.5725 59.3647 11.7356 57.2949 11.0664 54.9902C14.6312 57.3175 16.4568 57.1267 22.7464 64.2827C19.2892 60.7775 13.4076 64.3059 12.1021 61.3941C13.1004 60.6824 14.8284 59.759 15.9388 59.8119Z" fill="#0E336A"/>
<path d="M11.245 50.8406C10.5094 50.7234 9.55137 51.0473 8.49702 51.468C7.81596 49.8386 7.69143 48.1172 7.84235 47.2183C9.05592 48.7147 10.3869 49.237 11.8015 49.8039C19.4028 52.8159 18.6322 58.9317 23.2772 64.8851C14.8163 55.1608 11.3725 57.4514 8.69182 51.8958C9.52172 51.3027 10.5936 50.887 11.245 50.8406Z" fill="#0E3E86"/>
<path d="M28.7051 84.0417C29.2189 66.5398 22.8614 49.6313 13.1348 38.0171" stroke="#091A50" stroke-width="0.296499" stroke-miterlimit="10"/>
<path d="M22.7824 49.3374C21.8582 40.2316 28.9027 45.2776 15.0497 37.5162C12.8517 36.2896 15.5712 38.0934 18.5335 44.8243C19.6057 47.358 23.4628 54.5052 25.431 61.145C28.3278 70.6917 25.4052 64.6669 26.5639 55.2811C26.9313 50.9688 27.9972 46.9223 24.9023 43.6655C23.4335 45.6046 22.7601 48.0831 22.7824 49.3374Z" fill="#0E336A"/>
<path d="M7.79407 35.7988C7.2835 34.6505 7.19959 32.9371 7.15808 31.3843C4.19517 29.9692 1.37635 29.6698 0 29.9542C4.91269 32.825 6.25138 36.3554 8.87392 40.2329C16.2713 50.6583 23.7181 55.5678 27.2219 67.6426C24.5706 57.2409 23.5112 55.5687 19.3012 45.6353C17.0193 40.1818 13.2962 34.5948 7.98946 31.8021C7.61587 33.0346 7.53908 34.7471 7.79407 35.7988Z" fill="#0E3E86"/>
<path d="M98.824 39.9276V82.2342C98.824 83.297 98.3763 84.257 97.6558 84.9352C97.6469 84.947 97.635 84.9558 97.6261 84.9646C96.9531 85.5899 96.0458 85.9716 95.0496 85.9716H28.7998C27.8036 85.9716 26.8963 85.5899 26.2232 84.9646C26.2143 84.9558 26.2025 84.947 26.1936 84.9352C25.4731 84.257 25.0254 83.297 25.0254 82.2342V39.9276C25.0254 37.5701 26.072 35.3329 27.8866 33.8062L57.7292 8.71881C60.1487 6.68422 63.7007 6.68422 66.1202 8.71881L95.9628 33.8062C97.7774 35.3329 98.824 37.5701 98.824 39.9276Z" fill="#0485A4"/>
<g opacity="0.5">
<path d="M82.5542 5.25518L33.5195 14.0737L43.3805 67.8344L92.4151 59.0158L82.5542 5.25518Z" fill="#808080"/>
</g>
<path d="M81.605 3.05889L32.5703 11.8774L42.4312 65.6381L91.4659 56.8195L81.605 3.05889Z" fill="#DFDFDF"/>
<path d="M78.2853 36.8655L48.1524 42.284C47.5505 42.3924 46.9738 41.9969 46.8644 41.4006L46.2993 38.3197C46.1899 37.7237 46.5893 37.1526 47.1915 37.0443L77.3244 31.6258C77.9263 31.5174 78.5029 31.9129 78.6124 32.5092L79.1775 35.5901C79.2866 36.1861 78.8872 36.7572 78.2853 36.8655Z" fill="#DFDFDF"/>
<path d="M77.9884 36.5716L47.8555 41.9901C47.2536 42.0984 46.677 41.703 46.5675 41.1067L46.0024 38.0257C45.893 37.4297 46.2924 36.8587 46.8946 36.7504L77.0275 31.3318C77.6294 31.2235 78.2061 31.619 78.3155 32.2152L78.8806 35.2962C78.9897 35.8922 78.5903 36.4632 77.9884 36.5716Z" fill="#E7ECF3"/>
<path d="M79.7267 44.7405L49.5938 50.159C48.9919 50.2674 48.4152 49.8719 48.3058 49.2756L47.7407 46.1947C47.6313 45.5987 48.0307 45.0276 48.6329 44.9193L78.7658 39.5008C79.3677 39.3924 79.9444 39.7879 80.0538 40.3842L80.6189 43.4652C80.728 44.0614 80.3286 44.6322 79.7267 44.7405Z" fill="#DFDFDF"/>
<path d="M79.4298 44.4475L49.2969 49.8661C48.6951 49.9744 48.1184 49.5789 48.009 48.9827L47.4438 45.9017C47.3344 45.3057 47.7338 44.7347 48.336 44.6263L78.4689 39.2078C79.0708 39.0995 79.6475 39.4949 79.7569 40.0912L80.322 43.1722C80.4311 43.7685 80.0317 44.3392 79.4298 44.4475Z" fill="#E7ECF3"/>
<g opacity="0.5">
<path d="M81.172 52.6157L51.0391 58.0345C50.4372 58.1429 49.8606 57.7474 49.7511 57.1511L49.186 54.0702C49.0766 53.4742 49.476 52.9031 50.0782 52.7948L80.2111 47.3763C80.813 47.2679 81.3897 47.6634 81.4991 48.2597L82.0642 51.3406C82.1733 51.9366 81.7739 52.5077 81.172 52.6157Z" fill="#000007"/>
</g>
<path d="M80.8752 52.3218L50.7423 57.7406C50.1404 57.8489 49.5637 57.4534 49.4543 56.8572L48.8891 53.7762C48.7797 53.1802 49.1791 52.6092 49.7813 52.5008L79.9142 47.0823C80.5161 46.974 81.0928 47.3695 81.2022 47.9657L81.7673 51.0467C81.8764 51.6427 81.4771 52.2137 80.8752 52.3218Z" fill="#0E3E86"/>
<path d="M68.3352 26.6199C70.0281 22.0846 67.6875 17.0491 63.1073 15.3728C58.5271 13.6965 53.4418 16.0141 51.7489 20.5494C50.056 25.0847 52.3966 30.1201 56.9767 31.7965C61.5569 33.4728 66.6423 31.1551 68.3352 26.6199Z" fill="#0E3E86"/>
<path d="M67.6793 26.0313C69.0397 21.8552 66.7237 17.3778 62.5063 16.0307C58.2889 14.6836 53.7671 16.9769 52.4067 21.1529C51.0462 25.329 53.3623 29.8064 57.5797 31.1535C61.7971 32.5006 66.3188 30.2073 67.6793 26.0313Z" fill="#E7ECF3"/>
<path d="M60.4797 25.9666C62.4483 25.6125 63.6947 23.4197 63.2635 21.0688C62.8323 18.7179 60.8868 17.0991 58.9181 17.4532C56.9494 17.8072 55.7031 20 56.1343 22.351C56.5655 24.7019 58.511 26.3206 60.4797 25.9666Z" fill="#C6141C"/>
<path d="M60.5926 26.5874C58.5032 26.9632 56.6729 27.7492 55.3301 28.7459C56.8986 30.0219 59.0488 30.632 61.2612 30.2341C63.4737 29.8363 65.2699 28.5166 66.2854 26.7759C64.6745 26.31 62.6821 26.2116 60.5926 26.5874Z" fill="#9F0610"/>
<path d="M51.5438 46.7553C51.6242 47.1936 51.3307 47.6132 50.888 47.693C50.4453 47.7726 50.0213 47.4819 49.941 47.0436C49.8606 46.6053 50.1542 46.1854 50.5968 46.1059C51.0395 46.0263 51.4635 46.3173 51.5438 46.7553Z" fill="#091A50"/>
<path d="M54.2685 46.2656C54.3488 46.7039 54.0553 47.1237 53.6126 47.2033C53.1699 47.2829 52.7459 46.9922 52.6656 46.5539C52.5852 46.1155 52.8788 45.6957 53.3214 45.6161C53.7641 45.5366 54.1881 45.8272 54.2685 46.2656Z" fill="#091A50"/>
<path d="M56.9911 45.7753C57.0715 46.2137 56.7779 46.6335 56.3353 46.7131C55.8926 46.7926 55.4686 46.502 55.3882 46.0636C55.3079 45.6253 55.6014 45.2055 56.0441 45.1259C56.4868 45.0463 56.9108 45.337 56.9911 45.7753Z" fill="#091A50"/>
<path d="M59.7157 45.2857C59.7961 45.724 59.5025 46.1438 59.0599 46.2234C58.6172 46.303 58.1932 46.0123 58.1129 45.574C58.0325 45.1356 58.326 44.7158 58.7687 44.6362C59.2114 44.5564 59.6354 44.8473 59.7157 45.2857Z" fill="#091A50"/>
<path d="M62.4403 44.7958C62.5207 45.2342 62.2272 45.654 61.7845 45.7336C61.3418 45.8131 60.9178 45.5225 60.8375 45.0841C60.7571 44.6458 61.0506 44.226 61.4933 44.1464C61.936 44.0669 62.36 44.3575 62.4403 44.7958Z" fill="#091A50"/>
<path d="M65.1649 44.3061C65.2453 44.7444 64.9518 45.1642 64.5091 45.2438C64.0664 45.3234 63.6424 45.0327 63.5621 44.5944C63.4817 44.1561 63.7753 43.7362 64.2179 43.6567C64.6606 43.5771 65.0846 43.868 65.1649 44.3061Z" fill="#091A50"/>
<path d="M67.8896 43.8159C67.9699 44.2542 67.6764 44.674 67.2337 44.7536C66.791 44.8331 66.367 44.5425 66.2867 44.1042C66.2063 43.6658 66.4999 43.246 66.9425 43.1664C67.3852 43.0869 67.8092 43.3775 67.8896 43.8159Z" fill="#091A50"/>
<path d="M70.6142 43.3261C70.6945 43.7644 70.401 44.1843 69.9583 44.2638C69.5156 44.3434 69.0919 44.0528 69.0113 43.6144C68.9309 43.1761 69.2245 42.7565 69.6671 42.6767C70.1098 42.5971 70.5338 42.8878 70.6142 43.3261Z" fill="#091A50"/>
<path d="M25.0254 42.9561L58.2063 56.8394C60.5836 57.8341 63.2661 57.8341 65.6434 56.8394L98.8243 42.9561V69.8599H25.0257L25.0254 42.9561Z" fill="#BDDDFF"/>
<path d="M57.7292 61.2147L26.2232 87.6996C26.2143 87.6907 26.2025 87.6819 26.1936 87.6702C25.4731 86.992 25.0254 86.032 25.0254 84.9692V42.6626L56.6678 60.6128L57.7292 61.2147Z" fill="#6ABFD2"/>
<path d="M98.823 42.6626V84.9692C98.823 86.032 98.3753 86.992 97.6548 87.6702C97.6459 87.6819 97.634 87.6907 97.6251 87.6996L66.1191 61.2147L67.1806 60.6128L98.823 42.6626Z" fill="#6ABFD2"/>
<path d="M98.823 42.9561V85.2626C98.823 86.3254 98.3753 87.2855 97.6548 87.9636C97.6459 87.9754 97.634 87.9842 97.6251 87.993L66.1191 61.5081L67.1806 60.9063L98.823 42.9561Z" fill="#0485A4"/>
<path d="M57.7292 61.5081L26.2232 87.993C26.2143 87.9842 26.2025 87.9754 26.1936 87.9636C25.4731 87.2855 25.0254 86.3254 25.0254 85.2626V42.9561L56.6678 60.9063L57.7292 61.5081Z" fill="#0485A4"/>
<path d="M57.729 61.5081L26.223 87.993C26.2141 87.9842 26.2023 87.9754 26.1934 87.9637L56.6675 60.9062L57.729 61.5081Z" fill="#BDDDFF"/>
<path d="M97.6567 87.9637C97.6478 87.9754 97.636 87.9842 97.6271 87.993L66.1211 61.5081L67.1826 60.9062L97.6567 87.9637Z" fill="#BDDDFF"/>
<path d="M97.6255 87.6993C96.9525 88.3247 96.0452 88.7063 95.049 88.7063H28.7992C27.803 88.7063 26.8957 88.3247 26.2227 87.6993L57.7286 61.2144C60.1481 59.1798 63.7001 59.1798 66.1196 61.2144L97.6255 87.6993Z" fill="#6ABFD2"/>
<path d="M97.6255 87.9933C96.9525 88.6186 96.0452 89.0003 95.049 89.0003H28.7992C27.803 89.0003 26.8957 88.6186 26.2227 87.9933L57.7286 61.5084C60.1481 59.4738 63.7001 59.4738 66.1196 61.5084L97.6255 87.9933Z" fill="#0694B4"/>
<path d="M44.5724 44.4552C29.5159 37.3456 6.40466 17.2833 6.66825 8.226C6.82628 2.79162 22.9348 6.47443 34.0784 10.07" stroke="#091A50" stroke-width="0.316542" stroke-miterlimit="10" stroke-dasharray="0.95 0.95"/>
<path d="M43.1778 43.2777C29.1762 34.2999 8.87877 11.447 10.323 2.49925C10.8956 -1.04763 17.8517 0.242999 25.5577 2.96694" stroke="#091A50" stroke-width="0.316542" stroke-miterlimit="10" stroke-dasharray="0.95 0.95"/>
<path d="M82.0898 67.0151C97.1461 59.9055 120.258 39.8432 119.994 30.7856C119.858 26.1307 108.021 28.165 97.6249 31.1039" stroke="#091A50" stroke-width="0.316542" stroke-miterlimit="10" stroke-dasharray="0.95 0.95"/>
<path d="M83.4824 65.8372C97.484 56.8595 117.781 34.0066 116.337 25.0588C115.765 21.5119 108.809 22.8026 101.103 25.5265" stroke="#091A50" stroke-width="0.316542" stroke-miterlimit="10" stroke-dasharray="0.95 0.95"/>
</svg>
