<svg width="90" height="90" viewBox="0 0 90 90" fill="none" xmlns="http://www.w3.org/2000/svg">
<path fill-rule="evenodd" clip-rule="evenodd" d="M37.5584 33.8611C39.7615 32.3891 42.3516 31.6035 45.0012 31.6035C48.553 31.6072 51.9583 33.0197 54.4698 35.5313C56.9812 38.0428 58.3937 41.4482 58.3973 45C58.3973 47.6496 57.6116 50.2397 56.1395 52.4427C54.6675 54.6458 52.5752 56.3628 50.1273 57.3768C47.6794 58.3907 44.9858 58.656 42.3871 58.139C39.7885 57.6221 37.4015 56.3462 35.5279 54.4726C33.6544 52.599 32.3786 50.212 31.8617 47.6133C31.3448 45.0146 31.6102 42.321 32.6242 39.8731C33.6382 37.4253 35.3553 35.3331 37.5584 33.8611ZM53.616 57.8929C51.0659 59.5965 48.0679 60.5056 45.0012 60.5053C40.8905 60.5004 36.9497 58.8652 34.0431 55.9584C31.1366 53.0516 29.5018 49.1106 29.4972 45C29.4972 41.9332 30.4066 38.9353 32.1104 36.3854C33.8142 33.8355 36.2359 31.8481 39.0693 30.6745C41.9026 29.501 45.0204 29.194 48.0282 29.7924C51.036 30.3908 53.7988 31.8677 55.9673 34.0363C58.1357 36.2049 59.6123 38.9679 60.2105 41.9758C60.8086 44.9836 60.5013 48.1013 59.3275 50.9346C58.1537 53.7678 56.1661 56.1893 53.616 57.8929ZM48.7823 3.84903C48.6665 4.02243 48.6047 4.22627 48.6047 4.43479C48.6047 4.71451 48.7158 4.98277 48.9136 5.18056C49.1114 5.37835 49.3796 5.48947 49.6594 5.48947H49.6613C49.8698 5.48909 50.0735 5.42691 50.2467 5.31079C50.4199 5.19466 50.5548 5.02981 50.6343 4.83706C50.7138 4.64431 50.7345 4.4323 50.6935 4.22784C50.6526 4.02338 50.552 3.83563 50.4044 3.68833C50.2569 3.54102 50.0689 3.44076 49.8644 3.40022C49.6599 3.35969 49.4479 3.38068 49.2553 3.46057C49.0627 3.54045 48.8981 3.67563 48.7823 3.84903ZM39.5956 3.68901C39.3978 3.8868 39.2867 4.15506 39.2867 4.43479C39.2867 4.71451 39.3973 4.98277 39.5951 5.18056C39.7929 5.37835 40.0611 5.48947 40.3408 5.48947H46.246C46.5258 5.48947 46.794 5.37835 46.9918 5.18056C47.1896 4.98277 47.3007 4.71451 47.3007 4.43479C47.3007 4.15506 47.1896 3.8868 46.9918 3.68901C46.794 3.49122 46.5258 3.3801 46.246 3.3801H40.3414C40.0616 3.3801 39.7934 3.49122 39.5956 3.68901ZM44.3974 84.564C44.5761 84.6835 44.7862 84.7473 45.0012 84.7475C45.2897 84.7473 45.5663 84.6326 45.7703 84.4286C45.9743 84.2245 46.0889 83.9479 46.0891 83.6594C46.0889 83.4444 46.025 83.2343 45.9055 83.0557C45.7859 82.877 45.6161 82.7378 45.4175 82.6556C45.2188 82.5735 45.0003 82.552 44.7895 82.594C44.5787 82.636 44.385 82.7396 44.233 82.8916C44.081 83.0436 43.9775 83.2372 43.9356 83.4481C43.8936 83.6589 43.9151 83.8774 43.9973 84.076C44.0795 84.2747 44.2187 84.4445 44.3974 84.564ZM43.2254 81.0034C43.751 80.652 44.3689 80.4643 45.0012 80.464C45.8486 80.4648 46.6612 80.8016 47.2607 81.4006C47.8601 81.9996 48.1976 82.8119 48.199 83.6594C48.1992 84.2916 48.012 84.9097 47.6609 85.4355C47.3099 85.9613 46.8108 86.3712 46.2268 86.6134C45.6428 86.8556 45.0001 86.9191 44.38 86.796C43.7598 86.6729 43.1902 86.3687 42.7429 85.9218C42.2957 85.4749 41.991 84.9055 41.8675 84.2855C41.7439 83.6654 41.8069 83.0227 42.0487 82.4385C42.2904 81.8543 42.6999 81.3549 43.2254 81.0034ZM64.4913 8.86992V77.3211H25.5096V8.86992H64.4913ZM24.6149 6.7602H65.3883C65.7098 6.76066 66.018 6.88895 66.2454 7.11631C66.4728 7.34367 66.6007 7.6519 66.6012 7.97344V78.2176C66.6009 78.5392 66.4731 78.8475 66.2456 79.0749C66.0182 79.3024 65.7099 79.4302 65.3883 79.4305H24.6149C24.2932 79.4301 23.9848 79.3023 23.7572 79.0749C23.5296 78.8476 23.4015 78.5393 23.4008 78.2176V7.97309C23.4016 7.65145 23.5299 7.34325 23.7574 7.11593C23.985 6.88862 24.2933 6.76071 24.6149 6.7602ZM68.3008 5.02189V84.9779C68.3 85.7501 67.9929 86.4907 67.4469 87.0367C66.9009 87.5828 66.1605 87.8899 65.3883 87.8906H24.6149C23.8425 87.89 23.1018 87.5829 22.5555 87.0369C22.0091 86.4908 21.7017 85.7504 21.7006 84.9779V5.02189C21.7018 4.2495 22.0093 3.5091 22.5556 2.9631C23.1019 2.41709 23.8425 2.11007 24.6149 2.10938H65.3883C66.1605 2.11012 66.9009 2.41721 67.4469 2.96325C67.9929 3.5093 68.3 4.24967 68.3008 5.02189ZM24.6149 0H65.3883C66.7196 0.0018135 67.9959 0.531476 68.9374 1.47286C69.8788 2.41425 70.4086 3.69053 70.4105 5.02189V84.9777C70.4086 86.3092 69.8789 87.5855 68.9375 88.527C67.996 89.4684 66.7197 89.9981 65.3883 90H24.6149C23.2834 89.9985 22.0068 89.4689 21.0651 88.5274C20.1234 87.586 19.5936 86.3095 19.5918 84.9779V5.02207C19.5936 3.69049 20.1234 2.41398 21.0651 1.47251C22.0067 0.531042 23.2833 0.00148829 24.6149 0ZM36.9688 45.8689L35.9411 47.2537L36.7249 47.6631L37.3956 46.1389L38.1446 47.6631L38.9023 47.2537L37.8572 45.8689L39.4685 45.747L39.3553 44.9282L37.6656 45.3986L37.8485 43.7263H36.9775L37.1604 45.3986L35.4969 44.9282L35.3749 45.747L36.9688 45.8689ZM42.2593 45.8689L41.2315 47.2537L42.0154 47.6631L42.686 46.1389L43.4351 47.6631L44.1928 47.2537L43.1476 45.8689L44.7589 45.747L44.6457 44.9282L42.956 45.3986L43.1389 43.7263H42.268L42.4509 45.3986L40.7873 44.9282L40.6654 45.747L42.2593 45.8689ZM47.5497 45.8689L46.522 47.2537L47.3058 47.6631L47.9765 46.1389L48.7255 47.6631L49.4832 47.2537L48.4381 45.8689L50.0494 45.747L49.9361 44.9282L48.2465 45.3986L48.4294 43.7263H47.5584L47.7413 45.3986L46.0778 44.9282L45.9558 45.747L47.5497 45.8689ZM52.8401 45.8689L51.8124 47.2537L52.5963 47.6631L53.2669 46.1389L54.016 47.6631L54.7737 47.2537L53.7285 45.8689L55.3398 45.747L55.2266 44.9282L53.5369 45.3986L53.7198 43.7263H52.8489L53.0318 45.3986L51.3682 44.9282L51.2463 45.747L52.8401 45.8689ZM44.9045 62.8689L43.8767 64.2537L44.6606 64.6631L45.3312 63.1389L46.0803 64.6631L46.838 64.2537L45.7929 62.8689L47.4042 62.747L47.2909 61.9282L45.6012 62.3986L45.7842 60.7263H44.9132L45.0961 62.3986L43.4325 61.9282L43.3106 62.747L44.9045 62.8689Z" fill="url(#paint0_linear_1084_1809)"/>
<defs>
<linearGradient id="paint0_linear_1084_1809" x1="19.5918" y1="45" x2="70.4105" y2="45" gradientUnits="userSpaceOnUse">
<stop stop-color="#2563EB"/>
<stop offset="1" stop-color="#97C6FF"/>
</linearGradient>
</defs>
</svg>
