<svg width="220" height="154" viewBox="0 0 220 154" fill="none" xmlns="http://www.w3.org/2000/svg">
<path d="M209.021 54.0213H201.047V44.186H209.021V54.0213ZM201.469 53.5993H208.598V44.6081H201.469V53.5993Z" fill="#80B2FF"/>
<path d="M207.633 45.9424H203.727V46.5554H207.633V45.9424Z" fill="#0041A6"/>
<path d="M207.635 47.3804H202.574V47.9934H207.635V47.3804Z" fill="#0041A6"/>
<path d="M207.635 48.8193H202.574V49.4323H207.635V48.8193Z" fill="#0041A6"/>
<path d="M207.635 50.2573H202.574V50.8703H207.635V50.2573Z" fill="#0041A6"/>
<path d="M207.635 51.6958H202.574V52.3088H207.635V51.6958Z" fill="#0041A6"/>
<path d="M210.016 45.5508H202.465V54.964H210.016V45.5508Z" fill="#80B2FF"/>
<path d="M208.84 47.0962H204.934V47.7092H208.84V47.0962Z" fill="#005CEA"/>
<path d="M208.842 48.5347H203.781V49.1477H208.842V48.5347Z" fill="#005CEA"/>
<path d="M208.842 49.9731H203.781V50.5861H208.842V49.9731Z" fill="#005CEA"/>
<path d="M208.842 51.4111H203.781V52.0241H208.842V51.4111Z" fill="#005CEA"/>
<path d="M208.842 52.8496H203.781V53.4626H208.842V52.8496Z" fill="#005CEA"/>
<path d="M166.435 17.0869H165.73V17.6151H166.435V17.0869Z" fill="#97C6FF"/>
<path d="M166.435 37.4654H165.73V36.3626H166.435V37.4654ZM166.435 35.2597H165.73V34.1569H166.435V35.2597ZM166.435 33.0541H165.73V31.9512H166.435V33.0541ZM166.435 30.8484H165.73V29.7456H166.435V30.8484ZM166.435 28.6428H165.73V27.5399H166.435V28.6428ZM166.435 26.4371H165.73V25.3343H166.435V26.4371ZM166.435 24.2314H165.73V23.1286H166.435V24.2314ZM166.435 22.0258H165.73V20.9229H166.435V22.0258ZM166.435 19.8201H165.73V18.7173H166.435V19.8201Z" fill="#97C6FF"/>
<path d="M166.435 38.5684H165.73V39.0965H166.435V38.5684Z" fill="#97C6FF"/>
<path d="M160.681 17.0874H159.977V17.6156H160.681V17.0874Z" fill="#97C6FF"/>
<path d="M12.3449 64.2387H11.6406V63.1818H12.3449V64.2387ZM12.3583 62.151L11.656 62.0994C11.6837 61.7243 11.7491 61.3513 11.8507 60.9909L12.5287 61.1815C12.4398 61.4967 12.3826 61.8228 12.3583 62.151ZM12.89 60.2663L12.2642 59.9438C12.4364 59.6106 12.643 59.2933 12.8785 59.0006L13.4277 59.4411C13.2215 59.6972 13.0405 59.9749 12.89 60.2663ZM14.1186 58.7383L13.6677 58.198C13.9567 57.9576 14.2707 57.7454 14.6011 57.5676L14.9353 58.1867C14.6462 58.3423 14.3715 58.5279 14.1186 58.7383ZM15.8453 57.8092L15.6421 57.1357C16.0012 57.0277 16.3734 56.9555 16.7485 56.9212L16.8127 57.6216C16.4846 57.6517 16.1591 57.7148 15.8453 57.8092ZM154.362 57.601H153.304V56.8976H154.362V57.601ZM152.245 57.601H151.187V56.8976H152.245V57.601ZM150.129 57.601H149.07V56.8976H150.129V57.601ZM148.012 57.601H146.954V56.8976H148.012V57.601ZM145.895 57.601H144.837V56.8976H145.895V57.601ZM143.779 57.601H142.72V56.8976H143.779V57.601ZM141.662 57.601H140.604V56.8976H141.662V57.601ZM139.545 57.601H138.487V56.8976H139.545V57.601ZM137.429 57.601H136.37V56.8976H137.429V57.601ZM135.312 57.601H134.254V56.8976H135.312V57.601ZM133.195 57.601H132.137V56.8976H133.195V57.601ZM131.079 57.601H130.02V56.8976H131.079V57.601ZM128.962 57.601H127.904V56.8976H128.962V57.601ZM126.846 57.601H125.787V56.8976H126.846V57.601ZM124.729 57.601H123.671V56.8976H124.729V57.601ZM122.612 57.601H121.554V56.8976H122.612V57.601ZM120.496 57.601H119.437V56.8976H120.496V57.601ZM118.379 57.601H117.321V56.8976H118.379V57.601ZM116.262 57.601H115.204V56.8976H116.262V57.601ZM114.146 57.601H113.087V56.8976H114.146V57.601ZM112.029 57.601H110.971V56.8976H112.029V57.601ZM109.912 57.601H108.854V56.8976H109.912V57.601ZM107.796 57.601H106.737V56.8976H107.796V57.601ZM105.679 57.601H104.621V56.8976H105.679V57.601ZM103.562 57.601H102.504V56.8976H103.562V57.601ZM101.446 57.601H100.387V56.8976H101.446V57.601ZM99.3292 57.601H98.2708V56.8976H99.3292V57.601ZM97.2125 57.601H96.1542V56.8976H97.2125V57.601ZM95.0958 57.601H94.0375V56.8976H95.0958V57.601ZM92.9792 57.601H91.9208V56.8976H92.9792V57.601ZM90.8626 57.601H89.8043V56.8976H90.8626V57.601ZM88.7459 57.601H87.6876V56.8976H88.7459V57.601ZM86.6293 57.601H85.5709V56.8976H86.6293V57.601ZM84.5126 57.601H83.4543V56.8976H84.5126V57.601ZM82.396 57.601H81.3376V56.8976H82.396V57.601ZM80.2793 57.601H79.221V56.8976H80.2793V57.601ZM78.1626 57.601H77.1044V56.8976H78.1626V57.601ZM76.0461 57.601H74.9877V56.8976H76.0461V57.601ZM73.9294 57.601H72.8711V56.8976H73.9294V57.601ZM71.8127 57.601H70.7544V56.8976H71.8127V57.601ZM69.6961 57.601H68.6377V56.8976H69.6961V57.601ZM67.5794 57.601H66.5211V56.8976H67.5794V57.601ZM65.4627 57.601H64.4044V56.8976H65.4627V57.601ZM63.3461 57.601H62.2878V56.8976H63.3461V57.601ZM61.2294 57.601H60.1711V56.8976H61.2294V57.601ZM59.1128 57.601H58.0544V56.8976H59.1128V57.601ZM56.9961 57.601H55.9378V56.8976H56.9961V57.601ZM54.8794 57.601H53.8211V56.8976H54.8794V57.601ZM52.7629 57.601H51.7045V56.8976H52.7629V57.601ZM50.6462 57.601H49.5879V56.8976H50.6462V57.601ZM48.5295 57.601H47.4712V56.8976H48.5295V57.601ZM46.4129 57.601H45.3545V56.8976H46.4129V57.601ZM44.2962 57.601H43.2379V56.8976H44.2962V57.601ZM42.1795 57.601H41.1212V56.8976H42.1795V57.601ZM40.0629 57.601H39.0047V56.8976H40.0629V57.601ZM37.9463 57.601H36.888V56.8976H37.9463V57.601ZM35.8297 57.601H34.7713V56.8976H35.8297V57.601ZM33.713 57.601H32.6547V56.8976H33.713V57.601ZM31.5963 57.601H30.538V56.8976H31.5963V57.601ZM29.4797 57.601H28.4213V56.8976H29.4797V57.601ZM27.363 57.601H26.3047V56.8976H27.363V57.601ZM25.2463 57.601H24.188V56.8976H25.2463V57.601ZM23.1297 57.601H22.0715V56.8976H23.1297V57.601ZM21.013 57.601H19.9547V56.8976H21.013V57.601ZM18.8963 57.601H17.838V56.8976H18.8963V57.601ZM155.444 57.5877L155.396 56.8859C155.725 56.8634 156.051 56.8077 156.367 56.7204L156.555 57.3984C156.194 57.4981 155.82 57.5619 155.444 57.5877ZM157.606 56.9905L157.286 56.3639C157.578 56.215 157.857 56.0358 158.114 55.831L158.553 56.3814C158.258 56.6154 157.94 56.8204 157.606 56.9905ZM159.36 55.5968L158.821 55.1441C159.033 54.8922 159.22 54.6187 159.377 54.3311L159.996 54.6677C159.816 54.9965 159.603 55.3091 159.36 55.5968ZM160.433 53.6301L159.76 53.424C159.856 53.111 159.92 52.7863 159.952 52.4588L160.653 52.5263C160.617 52.9007 160.543 53.2721 160.433 53.6301ZM160.679 51.4366H159.975V50.3797H160.679V51.4366ZM160.679 49.3227H159.975V48.2658H160.679V49.3227ZM160.679 47.2088H159.975V46.1519H160.679V47.2088ZM160.679 45.095H159.975V44.0381H160.679V45.095ZM160.679 42.9812H159.975V41.9243H160.679V42.9812ZM160.679 40.8673H159.975V39.8104H160.679V40.8673ZM160.679 38.7535H159.975V37.6965H160.679V38.7535ZM160.679 36.6396H159.975V35.5826H160.679V36.6396ZM160.679 34.5257H159.975V33.4688H160.679V34.5257ZM160.679 32.4118H159.975V31.3549H160.679V32.4118ZM160.679 30.2981H159.975V29.2412H160.679V30.2981ZM160.679 28.1842H159.975V27.1273H160.679V28.1842ZM160.679 26.0703H159.975V25.0134H160.679V26.0703ZM160.679 23.9565H159.975V22.8995H160.679V23.9565ZM160.679 21.8427H159.975V20.7857H160.679V21.8427ZM160.679 19.7288H159.975V18.6719H160.679V19.7288Z" fill="#97C6FF"/>
<path d="M12.3449 65.3066H11.6406V65.8348H12.3449V65.3066Z" fill="#97C6FF"/>
<path d="M170.669 17.0869H169.965V17.6151H170.669V17.0869Z" fill="#97C6FF"/>
<path d="M170.669 28.5906H169.965V27.493H170.669V28.5906ZM170.669 26.3955H169.965V25.2979H170.669V26.3955ZM170.669 24.2003H169.965V23.1028H170.669V24.2003ZM170.669 22.0051H169.965V20.9075H170.669V22.0051ZM170.669 19.81H169.965V18.7124H170.669V19.81Z" fill="#97C6FF"/>
<path d="M170.845 30.5672H169.965V29.688H170.669V29.8638H170.845V30.5672Z" fill="#97C6FF"/>
<path d="M196.244 61.5942H195.54V60.545H196.244V61.5942ZM196.244 59.4957H195.54V58.4465H196.244V59.4957ZM196.244 57.3973H195.54V56.3481H196.244V57.3973ZM196.244 55.2988H195.54V54.2496H196.244V55.2988ZM196.244 53.2003H195.54V52.1511H196.244V53.2003ZM196.244 51.1019H195.54V50.0527H196.244V51.1019ZM196.244 49.0034H195.54V47.9542H196.244V49.0034ZM196.244 46.905H195.54V45.8558H196.244V46.905ZM196.244 44.8065H195.54V43.7573H196.244V44.8065ZM196.244 42.7081H195.54V41.6589H196.244V42.7081ZM196.244 40.6096H195.54V39.5604H196.244V40.6096ZM196.244 38.5111H195.54V37.4619H196.244V38.5111ZM196.244 36.4127H195.54V35.3635H196.244V36.4127ZM195.536 34.3288C195.523 34.0069 195.47 33.6883 195.38 33.3815L196.055 33.1826C196.162 33.5446 196.224 33.9204 196.24 34.2997L195.536 34.3288ZM194.996 32.5013C194.833 32.2252 194.636 31.9691 194.41 31.7399L194.912 31.2465C195.178 31.5165 195.411 31.8184 195.603 32.1439L194.996 32.5013ZM193.657 31.1421C193.383 30.9743 193.088 30.8409 192.782 30.7453L192.992 30.0739C193.353 30.1867 193.701 30.3443 194.025 30.5423L193.657 31.1421ZM191.836 30.5737C191.76 30.5694 191.684 30.5671 191.607 30.5671H190.806V29.8638H191.607C191.697 29.8638 191.788 29.8664 191.876 29.8714L191.836 30.5737ZM189.755 30.5671H188.704V29.8638H189.755V30.5671ZM187.654 30.5671H186.603V29.8638H187.654V30.5671ZM185.553 30.5671H184.502V29.8638H185.553V30.5671ZM183.451 30.5671H182.401V29.8638H183.451V30.5671ZM181.35 30.5671H180.299V29.8638H181.35V30.5671ZM179.249 30.5671H178.198V29.8638H179.249V30.5671ZM177.148 30.5671H176.097V29.8638H177.148V30.5671ZM175.046 30.5671H173.996V29.8638H175.046V30.5671ZM172.945 30.5671H171.895V29.8638H172.945V30.5671Z" fill="#97C6FF"/>
<path d="M196.243 62.6479H195.539V63.1761H196.243V62.6479Z" fill="#97C6FF"/>
<path d="M161.323 17.0421C161.337 16.8616 161.346 16.6799 161.346 16.496C161.346 12.6462 158.221 9.52539 154.367 9.52539C150.512 9.52539 147.387 12.6462 147.387 16.496C147.387 16.68 147.396 16.8617 147.41 17.0421H161.323Z" fill="#80B2FF"/>
<path d="M184.253 17.0421C184.267 16.8616 184.276 16.6799 184.276 16.496C184.276 12.6462 181.151 9.52539 177.296 9.52539C173.441 9.52539 170.316 12.6462 170.316 16.496C170.316 16.68 170.326 16.8617 170.34 17.0421H184.253Z" fill="#80B2FF"/>
<path d="M176.223 17.0426C176.277 16.6171 176.305 16.1834 176.305 15.7432C176.305 10.1036 171.728 5.53174 166.08 5.53174C160.433 5.53174 155.855 10.1036 155.855 15.7432C155.855 16.1833 155.883 16.617 155.937 17.0426H176.223Z" fill="#80B2FF"/>
<path d="M49.3715 96.404H1.81296C0.811669 96.404 0 95.5934 0 94.5934V67.6446C0 66.6446 0.811669 65.834 1.81296 65.834H49.3715C50.3728 65.834 51.1845 66.6446 51.1845 67.6446V94.5934C51.1844 95.5934 50.3727 96.404 49.3715 96.404Z" fill="#4D93FF"/>
<path d="M51.1844 71.6079H0V76.8829H51.1844V71.6079Z" fill="#0046B3"/>
<path d="M11.7239 90.5386H4.19816C3.71979 90.5386 3.33203 90.9258 3.33203 91.4036C3.33203 91.8813 3.71979 92.2686 4.19816 92.2686H11.7239C12.2023 92.2686 12.59 91.8813 12.59 91.4036C12.59 90.9259 12.2023 90.5386 11.7239 90.5386Z" fill="#D1F5FF"/>
<path d="M23.2943 90.5386H15.7686C15.2902 90.5386 14.9023 90.9258 14.9023 91.4036C14.9023 91.8813 15.2902 92.2686 15.7686 92.2686H23.2943C23.7727 92.2686 24.1604 91.8814 24.1604 91.4037C24.1605 90.9259 23.7727 90.5386 23.2943 90.5386Z" fill="#D1F5FF"/>
<path d="M34.8685 90.5386H27.3428C26.8644 90.5386 26.4766 90.9259 26.4766 91.4037C26.4766 91.8814 26.8643 92.2686 27.3428 92.2686H34.8685C35.3469 92.2686 35.7348 91.8814 35.7348 91.4037C35.7348 90.9259 35.3469 90.5386 34.8685 90.5386Z" fill="#D1F5FF"/>
<path d="M46.4428 90.5386H38.917C38.4386 90.5386 38.0508 90.9258 38.0508 91.4037C38.0508 91.8814 38.4386 92.2686 38.917 92.2686H46.4428C46.9211 92.2686 47.309 91.8814 47.309 91.4037C47.3089 90.9259 46.9211 90.5386 46.4428 90.5386Z" fill="#D1F5FF"/>
<path d="M3.85052 67.3857C3.32253 67.3857 2.89453 67.8132 2.89453 68.3405V68.6759C2.89453 69.2032 3.32253 69.6306 3.85052 69.6306C4.3785 69.6306 4.8065 69.2032 4.8065 68.6759V68.3405C4.8065 67.8132 4.3785 67.3857 3.85052 67.3857Z" fill="#D1F5FF"/>
<path d="M5.91016 68.508C5.91016 69.128 6.41339 69.6305 7.03414 69.6305H11.0176C11.6383 69.6305 12.1414 69.128 12.1414 68.5081C12.1414 67.8882 11.6382 67.3857 11.0176 67.3857H7.03414C6.41339 67.3856 5.91016 67.8881 5.91016 68.508Z" fill="#D1F5FF"/>
<path d="M5.38765 79.7202H10.5325C11.3571 79.7202 12.0256 80.3878 12.0256 81.2114V85.6412C12.0256 86.4647 11.3572 87.1323 10.5325 87.1323H5.38765C4.56307 87.1323 3.89453 86.4648 3.89453 85.6412V81.2114C3.89464 80.3879 4.56307 79.7202 5.38765 79.7202Z" fill="#FFBD73"/>
<path d="M88.0202 30.2907C88.7445 27.4362 88.8635 24.5529 88.4501 21.8043L89.3244 21.6731L91.051 21.4153L91.073 21.4106C90.6045 18.2645 89.5279 15.2652 87.9158 12.5763L85.6417 13.9293C84.1826 11.4967 82.2587 9.34049 79.9308 7.63181L81.5094 5.50149C79.0476 3.66534 76.1817 2.27662 73.0211 1.47677L72.3684 4.04871C69.5002 3.32281 66.623 3.20652 63.8708 3.61934L63.4765 1C60.3261 1.46764 57.3206 2.55252 54.6306 4.15286L55.9854 6.42419C53.5494 7.88137 51.3906 9.80264 49.6794 12.1275L47.5464 10.5509C45.708 13.0094 44.3172 15.8715 43.5163 19.0281L46.0918 19.6799C45.3651 22.5442 45.2483 25.4177 45.6618 28.1662L43.8059 28.4431L43.0489 28.5626L43.0391 28.5601C43.5073 31.706 44.5936 34.7078 46.196 37.3942L48.4704 36.0412C49.9295 38.4739 51.8629 40.6323 54.1908 42.3412L52.6121 44.4715C55.074 46.3076 57.9302 47.6939 61.0909 48.4939L61.7435 45.9218C64.6114 46.6476 67.4987 46.7666 70.2508 46.3538L70.5541 48.39L70.6449 48.9729C73.7953 48.5053 76.7911 47.4179 79.481 45.8177L78.1265 43.5464C80.5623 42.0892 82.7237 40.1583 84.4446 37.8359L86.5776 39.4125C88.4065 36.9515 89.7945 34.099 90.5956 30.9425L88.0202 30.2907ZM64.1711 36.3548C57.8789 34.7624 54.0769 28.388 55.6712 22.1041C57.2633 15.83 63.6462 12.0332 69.9383 13.6256C76.2207 15.2155 80.0226 21.5897 78.4306 27.8639C76.8362 34.1478 70.4535 37.9447 64.1711 36.3548Z" stroke="#0046B3" stroke-width="0.422571" stroke-miterlimit="10"/>
<path d="M35.8238 33.6345C34.8566 32.4217 33.6843 31.4532 32.399 30.7504L32.6225 30.3426L33.0645 29.5377L33.0696 29.5271C31.5999 28.7207 29.9981 28.2157 28.356 28.0337L28.1992 29.4167C26.7134 29.2524 25.1953 29.3706 23.7365 29.8006L23.3454 28.461C21.7904 28.9064 20.2944 29.6636 18.9515 30.7317L19.823 31.8244C18.6044 32.7938 17.6389 33.9611 16.9351 35.2446L15.7102 34.575C14.9026 36.0427 14.4003 37.6465 14.2148 39.2824L15.5998 39.439C15.4351 40.923 15.5536 42.4388 15.9841 43.8959L14.6427 44.2864C15.0888 45.8393 15.8468 47.3335 16.9164 48.6745L18.0107 47.8041C18.9812 49.0211 20.1501 49.9855 21.4354 50.6882L20.9602 51.5533L20.7692 51.9083L20.765 51.9116C22.2346 52.718 23.8406 53.2198 25.4785 53.4051L25.6354 52.022C27.1214 52.1863 28.6433 52.0649 30.1023 51.6348L30.4934 52.9746C32.0484 52.5291 33.5404 51.7752 34.8832 50.7071L34.0117 49.6144C35.2302 48.6451 36.2 47.4745 36.9038 46.1909L37.855 46.7128L38.1286 46.8605C38.9362 45.3928 39.4343 43.7923 39.6199 42.1564L38.235 41.9997C38.3996 40.5158 38.278 38.9958 37.8515 37.5355L39.1928 37.145C38.7428 35.5953 37.9878 34.1053 36.9183 32.7642L35.8238 33.6345ZM30.7695 45.5497C28.0963 47.6761 24.2095 47.2364 22.0802 44.5668C19.9543 41.9012 20.3946 38.0196 23.0679 35.8932C25.7369 33.7701 29.6236 34.2098 31.7495 36.8754C33.8789 39.545 33.4386 43.4266 30.7695 45.5497Z" stroke="#0046B3" stroke-width="0.422571" stroke-miterlimit="10"/>
<path d="M207.764 119.132C206.648 117.733 205.296 116.615 203.812 115.804L204.07 115.333L204.58 114.405L204.586 114.392C202.89 113.462 201.042 112.879 199.147 112.669L198.966 114.265C197.251 114.075 195.499 114.212 193.816 114.708L193.365 113.162C191.57 113.676 189.844 114.55 188.294 115.782L189.3 117.043C187.894 118.162 186.779 119.509 185.967 120.99L184.554 120.217C183.622 121.911 183.042 123.762 182.828 125.65L184.426 125.83C184.236 127.543 184.373 129.292 184.87 130.973L183.322 131.424C183.837 133.216 184.711 134.94 185.946 136.488L187.208 135.484C188.328 136.888 189.677 138.001 191.16 138.812L190.612 139.81L190.392 140.22L190.387 140.223C192.082 141.154 193.936 141.733 195.826 141.947L196.007 140.351C197.722 140.54 199.478 140.4 201.162 139.904L201.613 141.45C203.407 140.936 205.129 140.066 206.679 138.833L205.673 137.572C207.079 136.454 208.198 135.103 209.01 133.622L210.108 134.224L210.424 134.395C211.356 132.701 211.93 130.854 212.145 128.966L210.546 128.785C210.736 127.073 210.596 125.319 210.104 123.634L211.652 123.183C211.132 121.395 210.261 119.675 209.027 118.128L207.764 119.132ZM201.932 132.882C198.847 135.336 194.362 134.829 191.905 131.748C189.452 128.672 189.96 124.193 193.045 121.739C196.125 119.289 200.61 119.796 203.063 122.872C205.52 125.953 205.012 130.432 201.932 132.882Z" stroke="#0046B3" stroke-width="0.422571" stroke-miterlimit="10"/>
<path d="M207.992 154H9.2557C8.60536 154 8.07812 153.473 8.07812 152.824C8.07812 152.174 8.60536 151.648 9.2557 151.648H207.992C208.643 151.648 209.17 152.174 209.17 152.824C209.17 153.473 208.643 154 207.992 154Z" fill="#003C99"/>
<path d="M188.978 145.673H29.4757C27.3296 145.673 25.5898 143.936 25.5898 141.793V42.9398C25.5898 40.7966 27.3296 39.0591 29.4757 39.0591H188.978C191.124 39.0591 192.864 40.7965 192.864 42.9398V141.793C192.864 143.936 191.124 145.673 188.978 145.673Z" fill="#B3D1FF"/>
<path d="M29.4731 144.953C27.7282 144.953 26.3086 143.535 26.3086 141.792V42.9397C26.3086 41.197 27.7282 39.7793 29.4731 39.7793H188.976C190.721 39.7793 192.14 41.197 192.14 42.9397V141.792C192.14 143.535 190.721 144.953 188.976 144.953H29.4731Z" fill="black"/>
<path d="M187.386 43.3691H31.2422V140.867H187.386V43.3691Z" fill="#78ADFF"/>
<path d="M204.306 145.673V148.27C204.306 148.402 204.299 148.533 204.283 148.661C204.09 150.343 202.659 151.649 200.923 151.649H15.3745C13.6383 151.649 12.2087 150.343 12.0159 148.661C11.9993 148.533 11.9922 148.402 11.9922 148.27V145.673H204.306Z" fill="#599AFF"/>
<path d="M204.282 148.661C204.09 150.342 202.659 151.648 200.923 151.648H15.3742C13.6381 151.648 12.2085 150.342 12.0156 148.661H204.282Z" fill="#406EFF"/>
<path opacity="0.3" d="M153.028 122.623H66.5768C64.213 122.623 62.2969 120.709 62.2969 118.349V68.3251C62.2969 65.9644 64.213 64.0508 66.5768 64.0508H153.028C155.392 64.0508 157.308 65.9644 157.308 68.3251V118.349C157.308 120.709 155.392 122.623 153.028 122.623Z" fill="#F0F6FF"/>
<path d="M124.203 107.429H110.245C109.064 107.429 108.098 106.464 108.098 105.285C108.098 104.105 109.064 103.14 110.245 103.14H124.203C125.384 103.14 126.35 104.105 126.35 105.285C126.35 106.464 125.384 107.429 124.203 107.429Z" fill="#FF9F34"/>
<path d="M134.338 90.343H103.882C102.701 90.343 101.734 89.378 101.734 88.1986C101.734 87.0191 102.701 86.0542 103.882 86.0542H134.338C135.519 86.0542 136.485 87.0192 136.485 88.1986C136.485 89.378 135.519 90.343 134.338 90.343Z" fill="white"/>
<path d="M134.338 98.4162H103.882C102.701 98.4162 101.734 97.4512 101.734 96.2718C101.734 95.0924 102.701 94.1274 103.882 94.1274H134.338C135.519 94.1274 136.485 95.0925 136.485 96.2718C136.485 97.4513 135.519 98.4162 134.338 98.4162Z" fill="white"/>
<path d="M109.035 96.4621C109.035 96.8791 108.697 97.2171 108.279 97.2171C107.862 97.2171 107.523 96.8791 107.523 96.4621C107.523 96.0451 107.862 95.707 108.279 95.707C108.697 95.707 109.035 96.0452 109.035 96.4621Z" fill="#F0F6FF"/>
<path d="M111.625 96.4621C111.625 96.8791 111.287 97.2171 110.869 97.2171C110.452 97.2171 110.113 96.8791 110.113 96.4621C110.113 96.0451 110.452 95.707 110.869 95.707C111.287 95.707 111.625 96.0452 111.625 96.4621Z" fill="#F0F6FF"/>
<path d="M114.219 96.4621C114.219 96.8791 113.881 97.2171 113.463 97.2171C113.045 97.2171 112.707 96.8791 112.707 96.4621C112.707 96.0451 113.045 95.707 113.463 95.707C113.881 95.707 114.219 96.0452 114.219 96.4621Z" fill="#F0F6FF"/>
<path d="M116.809 96.4621C116.809 96.8791 116.47 97.2171 116.053 97.2171C115.635 97.2171 115.297 96.8791 115.297 96.4621C115.297 96.0451 115.635 95.707 116.053 95.707C116.47 95.707 116.809 96.0452 116.809 96.4621Z" fill="#F0F6FF"/>
<path d="M119.403 96.4621C119.403 96.8791 119.064 97.2171 118.647 97.2171C118.229 97.2171 117.891 96.8791 117.891 96.4621C117.891 96.0451 118.229 95.707 118.647 95.707C119.064 95.707 119.403 96.0452 119.403 96.4621Z" fill="#F0F6FF"/>
<path d="M121.993 96.4621C121.993 96.8791 121.654 97.2171 121.236 97.2171C120.819 97.2171 120.48 96.8791 120.48 96.4621C120.48 96.0451 120.819 95.707 121.236 95.707C121.654 95.707 121.993 96.0452 121.993 96.4621Z" fill="#F0F6FF"/>
<path d="M124.586 96.4621C124.586 96.8791 124.248 97.2171 123.83 97.2171C123.413 97.2171 123.074 96.8791 123.074 96.4621C123.074 96.0451 123.413 95.707 123.83 95.707C124.248 95.707 124.586 96.0452 124.586 96.4621Z" fill="#F0F6FF"/>
<path d="M127.176 96.4621C127.176 96.8791 126.838 97.2171 126.42 97.2171C126.003 97.2171 125.664 96.8791 125.664 96.4621C125.664 96.0451 126.003 95.707 126.42 95.707C126.838 95.707 127.176 96.0452 127.176 96.4621Z" fill="#F0F6FF"/>
<path d="M129.77 96.4621C129.77 96.8791 129.431 97.2171 129.014 97.2171C128.596 97.2171 128.258 96.8791 128.258 96.4621C128.258 96.0451 128.596 95.707 129.014 95.707C129.431 95.707 129.77 96.0452 129.77 96.4621Z" fill="#F0F6FF"/>
<path d="M118.173 81.1648C120.65 81.1648 122.658 79.1593 122.658 76.6854C122.658 74.2115 120.65 72.2061 118.173 72.2061C115.696 72.2061 113.688 74.2115 113.688 76.6854C113.688 79.1593 115.696 81.1648 118.173 81.1648Z" fill="white"/>
<path d="M118.18 76.5052C118.618 76.5052 119.023 76.2922 119.281 75.967C119.472 75.7315 119.584 75.4287 119.584 75.0922C119.584 74.3185 118.955 73.6792 118.18 73.6792C117.395 73.6792 116.766 74.3185 116.766 75.0922C116.766 75.4287 116.878 75.7315 117.069 75.967C117.327 76.2923 117.731 76.5052 118.18 76.5052Z" fill="#005CEA"/>
<path d="M120.666 79.0235C120.666 79.9151 115.68 79.9151 115.68 79.0235L115.681 77.9844C115.878 76.5638 120.26 76.5042 120.667 77.9844L120.666 79.0235Z" fill="#005CEA"/>
<path d="M108.49 95.8763V95.7613C108.49 95.2961 108.111 94.9175 107.645 94.9175C107.179 94.9175 106.8 95.296 106.8 95.7613V95.8763H106.672V97.397C106.672 97.6598 108.624 97.6598 108.624 97.397V95.8763H108.49ZM107.101 95.7613C107.101 95.4694 107.282 95.2043 107.645 95.2043C108.008 95.2043 108.195 95.4525 108.195 95.7613V95.8763H107.101V95.7613ZM107.789 96.6424V97.0815C107.789 97.1604 107.721 97.2168 107.642 97.2168C107.563 97.2168 107.507 97.1605 107.507 97.0815V96.6424C107.428 96.5973 107.371 96.5184 107.371 96.417C107.371 96.2705 107.496 96.1467 107.642 96.1467C107.789 96.1467 107.913 96.2706 107.913 96.417C107.913 96.5183 107.856 96.5973 107.789 96.6424Z" fill="#4D4D4D"/>
<path d="M104.83 88.0425C105 88.0425 105.158 87.9593 105.259 87.8324C105.334 87.7405 105.377 87.6223 105.377 87.4909C105.377 87.1889 105.132 86.9395 104.83 86.9395C104.523 86.9395 104.277 87.189 104.277 87.4909C104.277 87.6223 104.321 87.7405 104.396 87.8324C104.496 87.9594 104.654 88.0425 104.83 88.0425Z" fill="#4D4D4D"/>
<path d="M105.8 89.0259C105.8 89.3739 103.844 89.3739 103.844 89.0259L103.854 88.6204C103.931 88.0659 105.642 88.0427 105.8 88.6204L105.8 89.0259Z" fill="#4D4D4D"/>
<path d="M116.063 88.8279H108.154C107.807 88.8279 107.523 88.5447 107.523 88.1986C107.523 87.8526 107.807 87.5693 108.154 87.5693H116.063C116.409 87.5693 116.693 87.8526 116.693 88.1986C116.693 88.5447 116.409 88.8279 116.063 88.8279Z" fill="#F0F6FF"/>
<path d="M111.161 84.2366H103.525C103.178 84.2366 102.895 83.9534 102.895 83.6073C102.895 83.2612 103.178 82.978 103.525 82.978H111.161C111.508 82.978 111.791 83.2612 111.791 83.6073C111.791 83.9534 111.508 84.2366 111.161 84.2366Z" fill="#F0F6FF"/>
<path d="M126.492 88.8279H118.583C118.237 88.8279 117.953 88.5447 117.953 88.1986C117.953 87.8526 118.237 87.5693 118.583 87.5693H126.492C126.839 87.5693 127.122 87.8526 127.122 88.1986C127.122 88.5447 126.839 88.8279 126.492 88.8279Z" fill="#F0F6FF"/>
<path d="M77.8945 87.917V99.0406C77.8945 100.277 93.0396 100.277 93.0396 99.0406V87.917H77.8945Z" fill="white"/>
<path d="M85.4674 93.9856C86.5001 93.9856 87.3372 93.1496 87.3372 92.1183C87.3372 91.087 86.5001 90.251 85.4674 90.251C84.4348 90.251 83.5977 91.087 83.5977 92.1183C83.5977 93.1496 84.4348 93.9856 85.4674 93.9856Z" fill="#005CEA"/>
<path d="M85.4656 97.7421C85.0423 97.7421 84.6992 97.3994 84.6992 96.9767V92.6938H86.2321V96.9767C86.2319 97.3994 85.8888 97.7421 85.4656 97.7421Z" fill="#005CEA"/>
<path d="M91.7097 87.1246H90.1769V86.3753C90.1769 83.7802 88.0628 81.6689 85.4642 81.6689C82.8657 81.6689 80.7516 83.7802 80.7516 86.3753V87.1246H79.2188V86.3753C79.2188 82.9361 82.0204 80.1382 85.4642 80.1382C88.9081 80.1382 91.7096 82.9362 91.7096 86.3753L91.7097 87.1246Z" fill="white"/>
<path d="M196.029 58.7832C190.703 64.4807 182.205 69.1502 173.111 71.1396C173.108 71.7462 173.093 75.1068 173.024 90.5965C172.931 111.26 192.622 121.357 195.679 122.907C198.641 121.545 218.581 111.463 218.673 90.8003C218.743 75.3106 218.758 71.95 218.76 71.3434C209.684 69.2728 201.304 64.5281 196.029 58.7832Z" fill="white"/>
<path d="M195.982 61.0249C190.491 66.055 182.885 70.0083 174.52 72.1633L174.438 90.5935C174.4 99.0267 177.755 106.656 184.409 113.27C188.781 117.615 193.378 120.31 195.711 121.522C195.811 121.471 195.921 121.414 196.029 121.358V61.0678C196.014 61.0534 195.997 61.0394 195.982 61.0249Z" fill="#80B2FF"/>
<path d="M196.027 61.0679V121.358C198.453 120.098 202.862 117.493 207.084 113.371C213.797 106.817 217.22 99.2179 217.257 90.7847L217.34 72.3541C209.019 70.1315 201.469 66.1262 196.027 61.0679Z" fill="#4D93FF"/>
<path d="M212.788 79.541C206.42 80.5216 197.749 86.3218 192.279 93.296C191.511 90.0076 188.067 87.0055 186.265 86.3493L180.805 91.83C184.214 93.3643 187.939 97.7115 188.433 102.162L193.887 103.006C196.187 98.4696 202.126 87.6187 213.941 81.7841C213.713 80.896 212.879 79.6677 212.788 79.541Z" fill="#0046B3"/>
</svg>
