<?xml version="1.0" encoding="UTF-8"?>
<svg version="1.1" xmlns="http://www.w3.org/2000/svg" width="640" height="480">
<path d="M0 0 C0.75210251 -0.00979385 1.50420502 -0.01958771 2.27909851 -0.02967834 C41.90232252 -0.43924244 75.45558201 7.42945469 104.99609375 35.23828125 C105.599375 35.77710938 106.20265625 36.3159375 106.82421875 36.87109375 C124.64717877 53.44478087 134.07366843 77.71493733 139.74609375 100.80078125 C139.94493164 101.60225586 140.14376953 102.40373047 140.34863281 103.22949219 C143.55253241 117.0178011 144.3771728 130.76887678 144.30859375 144.86328125 C144.30585953 146.03816605 144.30585953 146.03816605 144.30307007 147.23678589 C144.14262408 188.36583441 133.15203543 228.00632973 103.5234375 257.77246094 C76.400949 283.80241953 40.53791126 291.80709263 4.0078125 291.44921875 C-25.15492901 290.80845324 -59.05983022 281.73159005 -80.00390625 260.23828125 C-80.66390625 259.90828125 -81.32390625 259.57828125 -82.00390625 259.23828125 C-82.00390625 258.57828125 -82.00390625 257.91828125 -82.00390625 257.23828125 C-82.66390625 257.23828125 -83.32390625 257.23828125 -84.00390625 257.23828125 C-84.00390625 256.57828125 -84.00390625 255.91828125 -84.00390625 255.23828125 C-84.66390625 255.23828125 -85.32390625 255.23828125 -86.00390625 255.23828125 C-91.00390625 249.76209077 -91.00390625 249.76209077 -91.00390625 247.23828125 C-91.66390625 247.23828125 -92.32390625 247.23828125 -93.00390625 247.23828125 C-112.92173734 222.30268887 -123.04083639 188.53137951 -123.20703125 156.875 C-123.21273132 156.00293411 -123.2184314 155.13086823 -123.2243042 154.2323761 C-123.23369411 152.39280383 -123.24026406 150.5532152 -123.24414062 148.71362305 C-123.2537483 145.97087103 -123.28478872 143.22890188 -123.31640625 140.48632812 C-123.41270636 124.57398727 -121.91589073 108.83413596 -117.25390625 93.55078125 C-116.99714111 92.68759277 -116.74037598 91.8244043 -116.47583008 90.93505859 C-106.93635531 59.74886589 -88.26499635 31.96627318 -59.12109375 16.0859375 C-40.98189139 6.53586405 -20.61887589 0.22214322 0 0 Z M-45.57666016 66.67871094 C-67.74110381 90.8980859 -72.04558236 124.3996127 -71.15625 155.953125 C-70.08104158 179.13902957 -63.19009222 204.94916917 -47.00390625 222.23828125 C-46.23175781 223.0890625 -45.45960938 223.93984375 -44.6640625 224.81640625 C-30.71890723 239.53262066 -12.54107087 247.00007499 7.60351562 247.64306641 C27.6157781 247.88509196 45.81020779 242.82264251 60.99609375 229.23828125 C62.10017578 228.27341797 62.10017578 228.27341797 63.2265625 227.2890625 C83.5300708 208.3833861 91.26885461 179.05951654 92.28125 152.1484375 C92.78695141 128.79767502 89.80224023 106.19847917 78.99609375 85.23828125 C78.50625 84.27535156 78.01640625 83.31242187 77.51171875 82.3203125 C74.36211994 76.52355088 70.77506502 71.49433708 66.37109375 66.61328125 C65.91589355 66.10418213 65.46069336 65.59508301 64.99169922 65.07055664 C62.23475784 62.13624771 59.85124849 60.42127097 55.99609375 59.23828125 C55.99609375 58.57828125 55.99609375 57.91828125 55.99609375 57.23828125 C25.63023281 34.7890321 -19.83137904 40.02902885 -45.57666016 66.67871094 Z " fill="#000000" transform="translate(229.00390625,94.76171875)"/>
<path d="M0 0 C1.10069824 0.29801514 1.10069824 0.29801514 2.22363281 0.60205078 C24.9456201 6.99889874 46.1683913 19.46781692 58.5078125 40.25 C65.70536742 53.51460383 69 65.86003436 69 81 C52.83 81 36.66 81 20 81 C18.02 73.575 18.02 73.575 16 66 C9.42139897 53.24556944 -0.44146267 46.38358726 -14 42 C-21.25272876 39.86836371 -28.28817419 39.66566504 -35.8125 39.6875 C-36.91142578 39.67138672 -38.01035156 39.65527344 -39.14257812 39.63867188 C-53.36493134 39.630291 -67.88368072 43.43949033 -78.5390625 53.3671875 C-84.48341227 60.01087254 -87.85713363 68.03116675 -88 77 C-87.05048765 86.60062484 -83.8281559 93.17633851 -76.37890625 99.30859375 C-59.77740514 111.1122883 -37.98114085 114.26826508 -18.54980469 118.61962891 C19.60084674 127.19704876 19.60084674 127.19704876 35.1875 135.9375 C35.96593262 136.36224609 36.74436523 136.78699219 37.54638672 137.22460938 C43.54870031 140.57695868 49.01919566 144.22939474 54 149 C54.77472656 149.73476562 55.54945313 150.46953125 56.34765625 151.2265625 C70.33597317 165.56517116 74.38906925 184.4081003 74.21484375 203.86328125 C73.37553202 225.7010256 64.86911616 245.83871492 49 261 C21.16123271 285.39357134 -16.51106505 289.34110969 -52 288 C-77.81619863 286.19209764 -105.60181118 278.02826378 -124 259 C-124.763125 258.29875 -125.52625 257.5975 -126.3125 256.875 C-140.60352474 241.58692703 -147 223.69360879 -147 203 C-130.83 203 -114.66 203 -98 203 C-97.01 205.97 -96.02 208.94 -95 212 C-89.33218413 226.09944301 -79.85174815 233.56303473 -66.3125 239.6875 C-46.4053265 247.52895335 -23.57329071 247.36250892 -3.625 239.75 C6.4469099 235.22847056 15.11658901 228.15435527 19.375 217.8125 C22.2945699 208.8575167 22.01374412 200.65920119 18.15625 192.0625 C16.77882737 189.60547585 15.13336141 187.8285955 13 186 C13 185.34 13 184.68 13 184 C12.34 184 11.68 184 11 184 C11 183.34 11 182.68 11 182 C10.30003906 181.73703125 9.60007812 181.4740625 8.87890625 181.203125 C5.77281172 179.90505565 2.90007358 178.34827785 -0.0625 176.75 C-5.60725968 173.90500095 -11.18060354 171.82379864 -17.15625 170.07421875 C-18.02020889 169.81837509 -18.88416779 169.56253143 -19.77430725 169.29893494 C-28.66216565 166.72089548 -37.65493577 164.67383428 -46.68725586 162.67480469 C-112.05857091 148.12076491 -112.05857091 148.12076491 -130 121 C-141.17303779 101.8687019 -143.77750711 80.21150647 -138.1484375 58.75390625 C-131.05138884 36.10682008 -116.06029667 19.99453022 -95.19628906 9.05419922 C-67.77530768 -4.81596897 -29.74563327 -8.12638435 0 0 Z " fill="#000000" transform="translate(540,98)"/>
<path d="M0 0 C16.17 0 32.34 0 49 0 C49 68.31 49 136.62 49 207 C32.83 207 16.66 207 0 207 C0 138.69 0 70.38 0 0 Z " fill="#000000" transform="translate(29,174)"/>
<path d="M0 0 C6.36220807 4.37851476 11.25667052 9.32705644 13 17 C14.09723303 25.99942087 13.45186507 33.56190268 8 41 C1.92363678 47.65573738 -5.19301531 50.83655055 -14.125 51.3125 C-20.92038125 51.2329554 -27.12302946 48.75119946 -32.875 45.25 C-38.65557345 39.12939282 -41.63238275 32.55845385 -42.3125 24.125 C-42.04603212 16.0055669 -38.76752968 8.70537957 -33 3 C-23.22789554 -3.83708003 -10.86764365 -5.75232292 0 0 Z " fill="#000000" transform="translate(68,97)"/>
</svg>
