<?xml version="1.0" encoding="UTF-8"?>
<svg version="1.1" xmlns="http://www.w3.org/2000/svg" width="512" height="512">
<path d="M0 0 C0.68336426 -0.02980957 1.36672852 -0.05961914 2.07080078 -0.09033203 C5.25366764 -0.127591 7.11384333 0.02442781 9.69628906 1.95092773 C12.04031279 5.01992361 11.95016467 6.69150392 11.828125 10.5234375 C11.79138672 11.76706055 11.75464844 13.01068359 11.71679688 14.29199219 C11.64891819 15.63239081 11.57656745 16.97256962 11.5 18.3125 C11.46302002 18.98220825 11.42604004 19.6519165 11.38793945 20.34191895 C11.14279142 24.50868962 10.81622128 28.66410713 10.43798828 32.82080078 C10.24717724 34.96928355 10.08265403 37.11890671 9.91796875 39.26953125 C9.79586839 40.65118378 9.67222913 42.03270138 9.546875 43.4140625 C9.44213867 44.64463379 9.33740234 45.87520508 9.22949219 47.14306641 C8.39528009 50.76747785 7.40297633 52.05410124 4.5 54.3125 C1.53907136 55.37539746 -0.06347963 55.41643342 -3.125 54.6875 C-6.16627809 52.92676005 -6.9937171 51.48475768 -8.5 48.3125 C-8.79296875 44.76171875 -8.79296875 44.76171875 -8.6875 41 C-8.64689453 39.11861328 -8.64689453 39.11861328 -8.60546875 37.19921875 C-8.57066406 36.24660156 -8.53585938 35.29398438 -8.5 34.3125 C-20.55357733 49.79799865 -30.30739947 66.28603675 -37.1875 84.6875 C-37.44861572 85.38053223 -37.70973145 86.07356445 -37.97875977 86.78759766 C-39.97502863 92.32884662 -41.54695581 97.97193974 -43.10864258 103.64697266 C-43.45459347 104.89852898 -43.45459347 104.89852898 -43.80753326 106.17536926 C-44.37275604 108.2207849 -44.9365243 110.26660238 -45.5 112.3125 C-44.01661636 112.30250725 -44.01661636 112.30250725 -42.50326538 112.29231262 C-33.17513427 112.2314484 -23.84704354 112.18650185 -14.51875877 112.15706348 C-9.72319628 112.14142003 -4.92779433 112.12020584 -0.13232422 112.08618164 C4.49719187 112.05354115 9.1265537 112.03563705 13.75617599 112.02786827 C15.52079063 112.02233319 17.28539701 112.01152446 19.04994583 111.99530983 C21.52518078 111.97347305 23.99978159 111.97053566 26.47509766 111.97192383 C27.20158508 111.961138 27.92807251 111.95035217 28.67657471 111.9392395 C34.03905006 111.9716954 38.17522732 113.14234403 42.14453125 116.84765625 C45.23051586 120.88317458 46.62194238 122.91773799 46.64717102 127.95440674 C46.65790398 129.42220833 46.65790398 129.42220833 46.66885376 130.91966248 C46.67154266 131.99708206 46.67423157 133.07450165 46.67700195 134.18457031 C46.68357315 135.31639236 46.69014435 136.44821442 46.69691467 137.61433411 C46.71668234 141.37309835 46.72831801 145.13182258 46.73828125 148.890625 C46.74235678 150.17211174 46.7464323 151.45359848 46.75063133 152.77391815 C46.76935252 158.8565214 46.78391479 164.93910451 46.7922433 171.02173066 C46.80201104 178.03945591 46.82831711 185.05686535 46.86874419 192.07447934 C46.9025682 198.15494038 46.91439045 204.23526889 46.91844749 210.31581879 C46.92332469 212.90101004 46.93497067 215.48619765 46.95348549 218.07132721 C46.97778312 221.68875877 46.97692849 225.30536371 46.9699707 228.92285156 C46.98918579 230.52683556 46.98918579 230.52683556 47.00878906 232.16322327 C46.96632678 238.21605435 46.53601941 241.70464638 42.5 246.3125 C38.08292577 250.29864016 35.02746931 251.43368652 29.14387512 251.45967102 C28.03222992 251.46682632 26.92058472 251.47398163 25.7752533 251.48135376 C23.94481224 251.48538712 23.94481224 251.48538712 22.07739258 251.48950195 C20.79257996 251.49607315 19.50776733 251.50264435 18.184021 251.50941467 C13.92087042 251.53044016 9.65771955 251.54081711 5.39453125 251.55078125 C3.92524382 251.55482967 2.45595658 251.55894662 0.98666954 251.56313133 C-5.91819322 251.58218139 -12.82304531 251.59641159 -19.72792929 251.6047433 C-27.68910615 251.61450893 -35.65000446 251.64081135 -43.61108321 251.68124419 C-49.77003116 251.71144681 -55.92889947 251.72621618 -62.08792001 251.72952431 C-65.76367164 251.73187052 -69.43912565 251.74077404 -73.11479759 251.76598549 C-77.220182 251.79368914 -81.32494786 251.78942247 -85.43041992 251.7824707 C-86.6405928 251.79528076 -87.85076569 251.80809082 -89.09761047 251.82128906 C-96.03554734 251.77849447 -100.62905768 251.11110805 -106.5 247.3125 C-110.3894984 242.52542505 -111.61807803 238.71945825 -111.64044189 232.67132568 C-111.64615204 231.74341721 -111.65186218 230.81550873 -111.65774536 229.85948181 C-111.65942215 228.34300804 -111.65942215 228.34300804 -111.66113281 226.79589844 C-111.66609772 225.72551834 -111.67106262 224.65513824 -111.67617798 223.55232239 C-111.69079083 220.0088334 -111.6976004 216.46538918 -111.703125 212.921875 C-111.70887745 210.45810953 -111.71463517 207.99434406 -111.72039795 205.53057861 C-111.73090563 200.36234326 -111.73674974 195.19412344 -111.74023438 190.02587891 C-111.74571662 183.41053269 -111.76974013 176.79539255 -111.79820633 170.18011093 C-111.81685082 165.0893901 -111.8220393 159.99871871 -111.82357025 154.90796661 C-111.82659352 152.46957524 -111.83461102 150.03118467 -111.84775543 147.59282684 C-111.86485224 144.17728605 -111.86292643 140.76224617 -111.85644531 137.34667969 C-111.8656601 136.3437941 -111.87487488 135.34090851 -111.8843689 134.30763245 C-111.84722033 128.04285929 -111.52819032 121.64347103 -107.08342361 116.75428391 C-101.94971234 112.28242605 -97.61751157 112.17255571 -91.11328125 112.21484375 C-90.29627243 112.2162587 -89.47926361 112.21767365 -88.63749695 112.21913147 C-86.02912732 112.22472706 -83.42084366 112.23727871 -80.8125 112.25 C-79.04362103 112.25501557 -77.27474072 112.25957838 -75.50585938 112.26367188 C-71.17053981 112.27469504 -66.83528448 112.29195662 -62.5 112.3125 C-62.4075576 111.41335625 -62.4075576 111.41335625 -62.31324768 110.49604797 C-62.18634804 109.30171394 -62.18634804 109.30171394 -62.05688477 108.08325195 C-61.9746315 107.29819778 -61.89237823 106.51314362 -61.80763245 105.70429993 C-57.74188705 74.09368911 -39.78256253 44.81083764 -20.5 20.3125 C-22.14548828 20.36470703 -22.14548828 20.36470703 -23.82421875 20.41796875 C-25.27863045 20.44611865 -26.7330588 20.47341752 -28.1875 20.5 C-28.90873047 20.52513672 -29.62996094 20.55027344 -30.37304688 20.57617188 C-34.97505239 20.63921305 -37.84086265 20.14850437 -41.5 17.3125 C-43.42863839 14.77020394 -43.50902291 13.52904982 -43.375 10.3125 C-42.32312045 6.70605584 -41.48377609 5.5856291 -38.5 3.3125 C-35.57765555 2.71926408 -32.94850781 2.34410874 -30 2.125 C-29.19191895 2.05168457 -28.38383789 1.97836914 -27.55126953 1.90283203 C-25.93490807 1.75817461 -24.31786024 1.62096768 -22.70019531 1.49169922 C-20.86834697 1.34250074 -19.03911863 1.16155383 -17.2109375 0.97265625 C-11.48688588 0.39709734 -5.74966843 0.13594127 0 0 Z M-94.5 129.3125 C-94.5 163.9625 -94.5 198.6125 -94.5 234.3125 C-53.58 234.3125 -12.66 234.3125 29.5 234.3125 C29.5 199.6625 29.5 165.0125 29.5 129.3125 C19.6 129.3125 9.7 129.3125 -0.5 129.3125 C-0.7093244 136.56614336 -0.7093244 136.56614336 -0.88793945 143.82055664 C-1.09919019 149.6672163 -1.54763342 154.20476721 -4.5 159.3125 C-8.05931293 161.46151912 -10.40368739 162.33487373 -14.5625 162.25 C-20.37261069 160.39570935 -24.49271063 156.55196129 -28.7890625 152.38671875 C-30.42377293 151.13976998 -30.42377293 151.13976998 -32.34375 151.36328125 C-36.53608798 153.20882134 -39.89050839 156.42094156 -43.4296875 159.28125 C-46.66673032 161.42280504 -48.6546829 162.11205823 -52.5 162.3125 C-56.33331054 161.14301543 -58.75047456 160.31700173 -61.17504883 157.06762695 C-62.67242594 153.95395444 -62.92348774 151.79647806 -63.01171875 148.35546875 C-63.04483154 147.35281982 -63.07794434 146.3501709 -63.11206055 145.31713867 C-63.13695557 144.05748291 -63.16185059 142.79782715 -63.1875 141.5 C-63.3421875 135.4671875 -63.3421875 135.4671875 -63.5 129.3125 C-73.73 129.3125 -83.96 129.3125 -94.5 129.3125 Z M-46.5 129.3125 C-46.5 132.6125 -46.5 135.9125 -46.5 139.3125 C-45.778125 138.879375 -45.05625 138.44625 -44.3125 138 C-43.384375 137.443125 -42.45625 136.88625 -41.5 136.3125 C-40.7575 135.755625 -40.015 135.19875 -39.25 134.625 C-35.23323605 132.70790811 -31.85559505 132.28682762 -27.5 133.3125 C-24.20407168 135.34465212 -21.40617401 137.76959775 -18.5 140.3125 C-18.17 140.3125 -17.84 140.3125 -17.5 140.3125 C-17.5 136.6825 -17.5 133.0525 -17.5 129.3125 C-27.07 129.3125 -36.64 129.3125 -46.5 129.3125 Z " fill="#000000" transform="translate(131.5,121.6875)"/>
<path d="M0 0 C0.78391113 -0.00241196 1.56782227 -0.00482391 2.37548828 -0.00730896 C4.02967396 -0.00633128 5.68389266 0.00704374 7.33789062 0.03198242 C9.86701821 0.06629795 12.39265163 0.05263976 14.921875 0.03320312 C16.53126484 0.04010183 18.14064568 0.04977444 19.75 0.0625 C20.5042627 0.05754013 21.25852539 0.05258026 22.03564453 0.04747009 C25.53512391 0.12579694 27.52241781 0.3647469 30.35839844 2.48950195 C32.33641076 5.27979848 32.28615825 6.99458297 32.125 10.37890625 C32.08890625 11.36375 32.0528125 12.34859375 32.015625 13.36328125 C31.96921875 14.1109375 31.9228125 14.85859375 31.875 15.62890625 C32.53886719 15.82226562 33.20273438 16.015625 33.88671875 16.21484375 C42.65707381 18.80113824 42.65707381 18.80113824 46.875 20.62890625 C47.2875 20.19578125 47.7 19.76265625 48.125 19.31640625 C51.27572286 16.27820921 53.3628409 14.75484701 57.6875 13.69140625 C63.83855276 14.21187994 67.79774386 19.47990954 71.875 23.62890625 C72.86419468 24.57735005 73.85644805 25.52261289 74.8515625 26.46484375 C85.79741079 36.98221323 85.79741079 36.98221323 85.9375 43.56640625 C84.48263647 47.75983642 81.92834235 50.47285207 78.875 53.62890625 C79.41640625 54.76779297 79.41640625 54.76779297 79.96875 55.9296875 C80.4328125 56.92355469 80.896875 57.91742188 81.375 58.94140625 C81.8390625 59.92753906 82.303125 60.91367187 82.78125 61.9296875 C83.875 64.62890625 83.875 64.62890625 83.875 67.62890625 C84.53886719 67.5825 85.20273437 67.53609375 85.88671875 67.48828125 C93.15973679 67.19099 93.15973679 67.19099 96.9375 69.50390625 C100.69212579 73.62188292 99.95067587 77.33159548 99.875 82.62890625 C100.42462402 82.73122559 100.97424805 82.83354492 101.54052734 82.93896484 C107.22210595 84.08591615 112.24536514 85.83183431 117.5 88.25390625 C118.27851318 88.6087207 119.05702637 88.96353516 119.85913086 89.32910156 C137.01329167 97.24075652 151.81374364 107.27090869 166.875 118.62890625 C166.76800781 117.45972656 166.66101563 116.29054688 166.55078125 115.0859375 C166.42880909 113.53782937 166.30776408 111.989648 166.1875 110.44140625 C166.11466797 109.67248047 166.04183594 108.90355469 165.96679688 108.11132812 C165.62169987 103.38146914 165.73055529 100.475436 168.875 96.62890625 C172.00442465 95.06419392 175.48582223 94.93188667 178.875 95.62890625 C182.29938257 97.96287719 182.83497652 99.43174624 183.66796875 103.53515625 C183.81801586 105.06470109 183.9486053 106.59624531 184.0625 108.12890625 C184.17247314 109.34102783 184.17247314 109.34102783 184.28466797 110.57763672 C184.42932539 112.19399818 184.56653232 113.81104601 184.69580078 115.42871094 C184.84499926 117.26055928 185.02594617 119.08978762 185.21484375 120.91796875 C185.79040266 126.64202037 186.05155873 132.37923782 186.1875 138.12890625 C186.21730957 138.81227051 186.24711914 139.49563477 186.27783203 140.19970703 C186.31535563 143.40518019 186.06827465 145.3349379 184.29296875 148.03515625 C178.96141822 151.54932849 172.37712172 150.670282 166.2734375 150.17578125 C165.47394684 150.11489319 164.67445618 150.05400513 163.85073853 149.99127197 C162.17133593 149.86064061 160.49224429 149.72595397 158.81347656 149.58740234 C156.25157788 149.37903458 153.6886783 149.19282527 151.125 149.0078125 C149.4868718 148.8776463 147.84884626 148.74618024 146.2109375 148.61328125 C145.44937347 148.56000671 144.68780945 148.50673218 143.90316772 148.45184326 C139.49648968 148.06468622 136.42973202 147.30020877 132.875 144.62890625 C130.94636161 142.08661019 130.86597709 140.84545607 131 137.62890625 C132.05382137 134.01580441 132.84103696 132.85444654 135.875 130.62890625 C138.80800961 130.14268142 141.66241694 130.25116635 144.625 130.37890625 C145.41777344 130.39695313 146.21054687 130.415 147.02734375 130.43359375 C148.97708348 130.48057543 150.92619878 130.55231581 152.875 130.62890625 C136.40276186 117.89923941 119.26655661 108.20746533 99.875 100.62890625 C99.73835937 101.73363281 99.60171875 102.83835937 99.4609375 103.9765625 C98.875 107.62890625 98.875 107.62890625 97.5 110.06640625 C93.23729867 112.60372847 88.71400966 111.92925857 83.875 111.62890625 C83.75382813 112.2321875 83.63265625 112.83546875 83.5078125 113.45703125 C83.34023438 114.25625 83.17265625 115.05546875 83 115.87890625 C82.75636719 117.06226562 82.75636719 117.06226562 82.5078125 118.26953125 C81.88336237 120.59772804 80.95564493 122.48593241 79.875 124.62890625 C80.05863922 127.56713382 80.67426477 128.44698994 82.875 130.44140625 C85.65962732 133.48709238 85.875 135.53914943 85.875 139.62890625 C82.63279685 145.55401066 77.78852371 150.11832997 73.0625 154.87890625 C72.28068359 155.69359375 71.49886719 156.50828125 70.69335938 157.34765625 C66.32154748 161.75964352 63.1584545 164.86798854 56.875 165.62890625 C53.67804524 164.46078817 51.5835228 163.42245179 49.3125 160.87890625 C47.91641231 159.37117115 47.91641231 159.37117115 45.6875 159.75390625 C42.64254678 160.70122503 39.69555465 161.80692975 36.7421875 163.0078125 C34.875 163.62890625 34.875 163.62890625 31.875 163.62890625 C31.92140625 164.3765625 31.9678125 165.12421875 32.015625 165.89453125 C32.31324701 174.01536043 32.31324701 174.01536043 30 177.25390625 C24.59858259 180.74894105 18.57258218 179.8907384 12.3269043 179.92407227 C10.08124427 179.94126276 7.83706567 179.98514625 5.59179688 180.02929688 C4.15886497 180.03942626 2.72592057 180.0479416 1.29296875 180.0546875 C-0.65959839 180.07656128 -0.65959839 180.07656128 -2.65161133 180.09887695 C-6.67429945 179.55458268 -8.28539736 178.46784829 -11.125 175.62890625 C-12.38737731 173.10415163 -12.22356404 171.31690159 -12.1875 168.50390625 C-12.17847656 167.59382812 -12.16945313 166.68375 -12.16015625 165.74609375 C-12.14855469 165.04742187 -12.13695312 164.34875 -12.125 163.62890625 C-12.929375 163.54640625 -13.73375 163.46390625 -14.5625 163.37890625 C-19.08434205 162.4269395 -22.97202701 160.61310446 -27.125 158.62890625 C-27.99125 159.59828125 -28.8575 160.56765625 -29.75 161.56640625 C-31.99100112 163.79158854 -33.12269669 164.62810714 -36.1875 165.69140625 C-43.41106909 165.53771329 -48.64976887 158.61458929 -53.47436523 153.86987305 C-54.44993906 152.91741477 -55.43440234 151.97397771 -56.42749023 151.03979492 C-65.74492472 142.27379729 -65.74492472 142.27379729 -65.96875 137.1875 C-65.10753576 133.55524922 -64.51943417 132.31340807 -61.8125 129.87890625 C-60.0305427 127.99637779 -60.0305427 127.99637779 -59.125 125.62890625 C-60.13012621 121.26786685 -62.09062468 117.5880199 -64.125 113.62890625 C-64.125 112.96890625 -64.125 112.30890625 -64.125 111.62890625 C-64.87265625 111.6753125 -65.6203125 111.72171875 -66.390625 111.76953125 C-67.37546875 111.805625 -68.3603125 111.84171875 -69.375 111.87890625 C-70.34953125 111.9253125 -71.3240625 111.97171875 -72.328125 112.01953125 C-75.125 111.62890625 -75.125 111.62890625 -77.2644043 110.11230469 C-79.82472158 106.69496478 -79.71842281 103.61239846 -79.69140625 99.50390625 C-79.69760483 98.71999512 -79.70380341 97.93608398 -79.71018982 97.12841797 C-79.71728026 95.47429647 -79.71412739 93.82010348 -79.70141602 92.16601562 C-79.68754267 89.63668476 -79.72163353 87.11105003 -79.75976562 84.58203125 C-79.76071682 82.97265535 -79.75885799 81.36327482 -79.75390625 79.75390625 C-79.76716446 78.99964355 -79.78042267 78.24538086 -79.79408264 77.46826172 C-79.72592958 73.62080394 -79.45260207 71.97188363 -76.75292969 69.14550781 C-73.79353577 67.4376153 -72.19201367 67.19866552 -68.8125 67.37890625 C-67.92949219 67.415 -67.04648438 67.45109375 -66.13671875 67.48828125 C-65.47285156 67.5346875 -64.80898437 67.58109375 -64.125 67.62890625 C-63.93164062 66.96503906 -63.73828125 66.30117187 -63.5390625 65.6171875 C-60.95276801 56.84683244 -60.95276801 56.84683244 -59.125 52.62890625 C-59.558125 52.20480469 -59.99125 51.78070313 -60.4375 51.34375 C-63.30389785 48.324743 -64.96493398 46.30610864 -65.9375 42.19140625 C-64.73065672 36.89986266 -61.92232012 34.39710582 -58.125 30.62890625 C-56.87933247 29.36023439 -55.63462676 28.09061778 -54.390625 26.8203125 C-51.72190503 24.11266365 -49.04902061 21.4095273 -46.35546875 18.7265625 C-45.78207764 18.15429932 -45.20868652 17.58203613 -44.61791992 16.99243164 C-42.36955532 14.93893756 -41.07374356 14.62173035 -38 14.19140625 C-33.73174061 14.6733065 -33.35162804 15.14286993 -30.4375 17.94140625 C-28.52582209 19.72549578 -28.52582209 19.72549578 -26.125 20.62890625 C-21.76337827 19.62491031 -18.08440009 17.66342876 -14.125 15.62890625 C-13.465 15.62890625 -12.805 15.62890625 -12.125 15.62890625 C-12.17140625 14.96503906 -12.2178125 14.30117187 -12.265625 13.6171875 C-12.30171875 12.73417969 -12.3378125 11.85117188 -12.375 10.94140625 C-12.42140625 10.07128906 -12.4678125 9.20117188 -12.515625 8.3046875 C-11.43483413 0.90127006 -6.59297958 -0.11588947 0 0 Z M4.875 16.62890625 C4.7925 18.03140625 4.71 19.43390625 4.625 20.87890625 C4.44710972 23.90304107 4.10377708 25.32181917 2.27734375 27.7734375 C-0.77599879 30.13171019 -3.61661861 30.97760939 -7.3125 32.06640625 C-11.85329009 33.45024005 -16.00482938 34.93019051 -20.0625 37.44140625 C-24.37784723 40.00948483 -27.13230405 40.37781064 -32.125 39.62890625 C-35.125 37.62890625 -35.125 37.62890625 -37.125 35.62890625 C-40.00937779 36.92190319 -41.99719421 38.28831988 -44.125 40.62890625 C-42.92118552 43.12252196 -41.67071278 45.31033708 -40.125 47.62890625 C-39.00262916 54.23842342 -41.22528136 58.37234175 -44.34448242 64.18579102 C-46.94417879 69.06849943 -48.69201515 73.96912953 -50.203125 79.30078125 C-51.125 81.62890625 -51.125 81.62890625 -54.125 83.62890625 C-56.16796875 84.04296875 -56.16796875 84.04296875 -58.3125 84.25390625 C-59.570625 84.37765625 -60.82875 84.50140625 -62.125 84.62890625 C-62.125 87.92890625 -62.125 91.22890625 -62.125 94.62890625 C-58.495 95.28890625 -54.865 95.94890625 -51.125 96.62890625 C-50.733125 98.21703125 -50.34125 99.80515625 -49.9375 101.44140625 C-48.03807471 108.41796834 -45.37562567 115.07755927 -41.49609375 121.19921875 C-39.50760796 124.7229742 -39.36991919 127.68658959 -40.125 131.62890625 C-42.125 134.62890625 -42.125 134.62890625 -44.125 136.62890625 C-42.63402342 140.42411935 -40.36799151 142.23933356 -37.125 144.62890625 C-36.25875 143.80390625 -35.3925 142.97890625 -34.5 142.12890625 C-32.37192212 140.10216541 -31.29346239 139.65055226 -28.328125 139.26953125 C-24.43371329 139.70646525 -21.93290542 141.00067294 -18.5 142.87890625 C-12.98769347 145.81624458 -7.57716346 147.97821795 -1.55078125 149.70703125 C1.0402243 150.69169681 2.26222435 151.38662784 3.875 153.62890625 C4.55453435 156.63234431 4.65144404 159.54383395 4.875 162.62890625 C8.175 162.62890625 11.475 162.62890625 14.875 162.62890625 C15.1225 161.04078125 15.37 159.45265625 15.625 157.81640625 C16.10160406 154.75819689 16.37433894 153.13302015 18.57421875 150.91796875 C21.30944387 149.38549967 23.9077343 148.6226258 26.9375 147.81640625 C32.6266064 146.17359687 37.32776474 143.93042564 42.33984375 140.80078125 C45.42538862 139.37448932 47.50916459 139.28369236 50.875 139.62890625 C54.25 141.62890625 54.25 141.62890625 56.875 143.62890625 C59.75937779 142.33590931 61.74719421 140.96949262 63.875 138.62890625 C63.58625 138.05140625 63.2975 137.47390625 63 136.87890625 C62.443125 135.76515625 62.443125 135.76515625 61.875 134.62890625 C61.318125 133.70078125 61.318125 133.70078125 60.75 132.75390625 C59.35493184 129.36588357 59.24339717 126.26433768 60.58007812 122.80322266 C61.56688576 120.79832087 62.61192595 118.83758567 63.6875 116.87890625 C66.52323513 111.52094363 68.83437395 106.52087188 70.109375 100.546875 C71.15571995 97.92567413 72.46140733 97.04258196 74.875 95.62890625 C77.55584404 94.98804755 80.11345677 94.85903485 82.875 94.62890625 C82.875 91.32890625 82.875 88.02890625 82.875 84.62890625 C81.451875 84.48453125 80.02875 84.34015625 78.5625 84.19140625 C75.76397096 83.90749751 73.5656142 83.52577765 70.875 82.62890625 C70.1015625 80.546875 70.1015625 80.546875 69.5 77.81640625 C67.69448521 70.52782811 65.16546395 63.39495755 61.25 56.95703125 C59.41159427 53.84427609 59.30366566 52.19974586 59.875 48.62890625 C61.35555565 46.07906041 63.02261393 43.94438884 64.875 41.62890625 C62.895 39.64890625 60.915 37.66890625 58.875 35.62890625 C56.38138429 36.83272073 54.19356917 38.08319347 51.875 39.62890625 C46.26961798 40.19883146 42.99391174 39.02572004 38.125 36.31640625 C32.18602002 33.13033694 26.42758945 31.1365817 19.875 29.62890625 C18.885 29.29890625 17.895 28.96890625 16.875 28.62890625 C15.885 22.68890625 15.885 22.68890625 14.875 16.62890625 C11.575 16.62890625 8.275 16.62890625 4.875 16.62890625 Z " fill="#000000" transform="translate(220.125,0.37109375)"/>
<path d="M0 0 C1.12802536 -0.01029488 1.12802536 -0.01029488 2.27883911 -0.02079773 C4.74989011 -0.03901008 7.22030293 -0.03523684 9.69140625 -0.02954102 C11.41723842 -0.03410506 13.14306876 -0.0394113 14.86889648 -0.04542542 C18.48005574 -0.05434523 22.09099371 -0.0519458 25.70214844 -0.04199219 C30.32244675 -0.03049587 34.94198153 -0.05072954 39.56217957 -0.07990932 C43.12419458 -0.09828142 46.68602688 -0.09797701 50.24807739 -0.0922718 C51.95127433 -0.09211876 53.65448379 -0.09814951 55.3576355 -0.11056328 C57.74151136 -0.12549351 60.12397975 -0.11478327 62.5078125 -0.09765625 C63.20617218 -0.10732422 63.90453186 -0.11699219 64.62405396 -0.12695312 C70.95313479 -0.03205627 74.26726635 2.3942245 78.59655762 6.77404785 C81.21471644 12.50846554 80.81068518 18.2745823 80.77148438 24.48413086 C80.77690874 25.9235454 80.78403317 27.36295438 80.79272461 28.80235291 C80.81092385 32.70117555 80.80390473 36.5995737 80.79120827 40.49840355 C80.78106286 44.58354184 80.79047822 48.66864442 80.79675293 52.75378418 C80.80402487 59.61334745 80.79445361 66.47273831 80.77539062 73.33227539 C80.75362265 81.25654114 80.76067435 89.1803952 80.78269625 97.10465097 C80.80086325 103.91503622 80.80340224 110.72529771 80.79294157 117.53569937 C80.78671375 121.6002893 80.7858513 125.66468588 80.79908752 129.72926331 C80.81066446 133.55108928 80.80258728 137.37238581 80.7795105 141.19415474 C80.77423316 142.59455551 80.77572056 143.99500103 80.78456116 145.39538383 C80.86104 158.74314388 80.86104 158.74314388 76.25390625 163.40405273 C71.01743674 168.1660691 66.14444021 167.99170235 59.41845703 167.96923828 C58.33803131 167.98106644 57.25760559 167.99289459 56.1444397 168.00508118 C52.57915852 168.03793144 49.01464124 168.04092516 45.44921875 168.04077148 C42.96588835 168.05108768 40.48256096 168.06215094 37.99923706 168.07392883 C32.79579828 168.09335766 27.59262828 168.09678349 22.38916016 168.09033203 C15.72841829 168.08433539 9.06957264 168.12857044 2.40904427 168.18622112 C-2.71948414 168.2232308 -7.84767695 168.22812202 -12.97632217 168.22394753 C-15.43148777 168.22681714 -17.88666719 168.24087366 -20.34170151 168.26642418 C-23.77937383 168.29844236 -27.21417515 168.28582629 -30.65185547 168.26220703 C-31.66094971 168.28108978 -32.67004395 168.29997253 -33.7097168 168.31942749 C-40.18077712 168.21391845 -43.55048666 166.76282308 -48.24083328 162.28431416 C-52.492702 156.97319034 -52.02857523 150.01476511 -51.94140625 143.52905273 C-51.93857635 142.71911865 -51.93574646 141.90918457 -51.93283081 141.07470703 C-51.9217409 138.5176644 -51.89665827 135.96098739 -51.87109375 133.40405273 C-51.86104945 131.65796409 -51.85192615 129.91186988 -51.84375 128.16577148 C-51.82183841 123.91172689 -51.78738757 119.65795154 -51.74609375 115.40405273 C-52.35340332 115.36159424 -52.96071289 115.31913574 -53.58642578 115.27539062 C-59.83905616 114.75603924 -65.60872891 113.61026837 -71.62109375 111.84155273 C-72.52384033 111.57761719 -73.42658691 111.31368164 -74.35668945 111.04174805 C-99.98709301 103.32966906 -125.13389502 90.92551203 -144.74609375 72.40405273 C-144.72514648 72.95867187 -144.70419922 73.51329102 -144.68261719 74.0847168 C-144.59925827 76.60764296 -144.54737507 79.13027922 -144.49609375 81.65405273 C-144.44582031 82.9630957 -144.44582031 82.9630957 -144.39453125 84.29858398 C-144.29562633 90.7768561 -144.29562633 90.7768561 -146.578125 93.95483398 C-149.40911329 95.84726039 -151.33987271 96.33453802 -154.74609375 96.40405273 C-158.27515442 94.79993425 -159.57382283 93.66245912 -161.74609375 90.40405273 C-162.12431517 87.74363809 -162.40048437 85.15640436 -162.59765625 82.48217773 C-162.69329361 81.31486115 -162.69329361 81.31486115 -162.79086304 80.1239624 C-162.9242096 78.47676437 -163.05338861 76.82922444 -163.17871094 75.18139648 C-163.36936998 72.67669793 -163.57216733 70.17322466 -163.77734375 67.66967773 C-163.90566529 66.06556829 -164.0332916 64.46140305 -164.16015625 62.85717773 C-164.24917709 61.74430389 -164.24917709 61.74430389 -164.33999634 60.60894775 C-165.35720663 47.12627727 -165.35720663 47.12627727 -161.74609375 42.40405273 C-154.28662569 38.67431871 -140.98366432 41.66011163 -132.87109375 42.27905273 C-131.26705688 42.3966394 -131.26705688 42.3966394 -129.63061523 42.51660156 C-114.73003488 43.73010241 -114.73003488 43.73010241 -110.74609375 47.09155273 C-109.30965534 50.41331656 -109.29888364 52.82637183 -109.74609375 56.40405273 C-111.6131788 58.76902713 -113.06670806 60.06435989 -115.74609375 61.40405273 C-118.12011876 61.47521655 -120.49610052 61.48814358 -122.87109375 61.46655273 C-124.15242188 61.4575293 -125.43375 61.44850586 -126.75390625 61.43920898 C-128.23503906 61.42180664 -128.23503906 61.42180664 -129.74609375 61.40405273 C-107.33245619 81.05822235 -80.10695822 90.96987777 -51.74609375 98.40405273 C-51.75053497 97.79541382 -51.7549762 97.1867749 -51.759552 96.55969238 C-51.80394765 90.2002193 -51.83402741 83.84079056 -51.85595703 77.48120117 C-51.86598765 75.11074026 -51.87961535 72.74029163 -51.89697266 70.36987305 C-51.92135018 66.954152 -51.93260654 63.53859519 -51.94140625 60.12280273 C-51.95172882 59.07040405 -51.96205139 58.01800537 -51.97268677 56.93371582 C-51.97389694 48.91917434 -51.85787814 41.83537192 -45.9765625 35.77514648 C-45.17138184 34.93322754 -44.36620117 34.09130859 -43.53662109 33.22387695 C-42.61574707 32.29333496 -41.69487305 31.36279297 -40.74609375 30.40405273 C-39.68864264 29.31270976 -38.6322117 28.22037762 -37.57666016 27.12719727 C-34.69434985 24.154643 -31.78405321 21.21134955 -28.86108398 18.27880859 C-27.04403721 16.45191733 -25.23793832 14.61461184 -23.43164062 12.77709961 C-22.26237626 11.60131517 -21.09247707 10.42616162 -19.921875 9.25170898 C-19.12478874 8.43610252 -19.12478874 8.43610252 -18.31159973 7.60401917 C-17.80054184 7.09596237 -17.28948395 6.58790558 -16.76293945 6.06445312 C-16.32375687 5.62162491 -15.88457428 5.17879669 -15.43208313 4.72254944 C-10.54638535 0.90178017 -6.06564645 -0.03909934 0 0 Z M2.25390625 17.40405273 C1.92390625 26.31405273 1.59390625 35.22405273 1.25390625 44.40405273 C-2.74609375 50.40405273 -2.74609375 50.40405273 -10.74609375 53.40405273 C-18.66609375 53.73405273 -26.58609375 54.06405273 -34.74609375 54.40405273 C-34.74609375 86.41405273 -34.74609375 118.42405273 -34.74609375 151.40405273 C-2.40609375 151.40405273 29.93390625 151.40405273 63.25390625 151.40405273 C63.25390625 107.18405273 63.25390625 62.96405273 63.25390625 17.40405273 C43.12390625 17.40405273 22.99390625 17.40405273 2.25390625 17.40405273 Z M-15.74609375 30.40405273 C-16.79625388 31.54439282 -17.81199571 32.71661678 -18.80859375 33.90405273 C-19.63037109 34.87858398 -19.63037109 34.87858398 -20.46875 35.87280273 C-20.89027344 36.37811523 -21.31179688 36.88342773 -21.74609375 37.40405273 C-19.43609375 37.40405273 -17.12609375 37.40405273 -14.74609375 37.40405273 C-14.74609375 35.09405273 -14.74609375 32.78405273 -14.74609375 30.40405273 C-15.07609375 30.40405273 -15.40609375 30.40405273 -15.74609375 30.40405273 Z " fill="#000000" transform="translate(278.74609375,343.595947265625)"/>
<path d="M0 0 C15.16547872 11.77320058 24.0889071 28.53372017 26.6875 47.5234375 C28.63308601 66.76312139 22.72389597 85.50229512 11.04296875 100.83203125 C4.98551238 108.01903159 -2.58884615 114.08348558 -11.03125 118.3046875 C-11.60681673 120.24774059 -11.60681673 120.24774059 -11.92578125 122.6171875 C-12.0738623 123.51937012 -12.22194336 124.42155273 -12.37451172 125.35107422 C-12.52936035 126.3257666 -12.68420898 127.30045898 -12.84375 128.3046875 C-14.54304148 138.2480345 -16.80748425 147.74993998 -20.03125 157.3046875 C-20.36745361 158.30508057 -20.36745361 158.30508057 -20.71044922 159.32568359 C-28.57042802 182.29545933 -40.88555993 202.44915424 -56.03125 221.3046875 C-54.16919922 221.21767578 -54.16919922 221.21767578 -52.26953125 221.12890625 C-50.62764186 221.08199512 -48.98571168 221.03649641 -47.34375 220.9921875 C-46.11881836 220.9293457 -46.11881836 220.9293457 -44.86914062 220.86523438 C-40.4605425 220.7759915 -38.61512627 220.86453462 -34.984375 223.6015625 C-33.03125 226.3046875 -33.03125 226.3046875 -32.46875 229.8671875 C-33.10996189 233.78570461 -33.92624219 234.93026976 -37.03125 237.3046875 C-40.12067461 238.84939981 -43.45628614 238.78645153 -46.85546875 239.05859375 C-47.63509476 239.12376694 -48.41472076 239.18894012 -49.2179718 239.25608826 C-50.87130615 239.39333713 -52.52481145 239.52853957 -54.1784668 239.66186523 C-56.69171027 239.86500197 -59.20425174 240.07552923 -61.71679688 240.28710938 C-63.32548421 240.41971591 -64.93420718 240.55189091 -66.54296875 240.68359375 C-67.2880217 240.74607803 -68.03307465 240.80856232 -68.80070496 240.87294006 C-80.99734229 241.84411761 -80.99734229 241.84411761 -84.90625 239.8046875 C-88.81955459 235.20079974 -88.17836714 228.81815794 -87.76409912 223.03779602 C-87.67204193 221.94207527 -87.67204193 221.94207527 -87.578125 220.82421875 C-87.48679291 219.66039925 -87.48679291 219.66039925 -87.39361572 218.47306824 C-87.2631986 216.84669297 -87.12852197 215.22065406 -86.98974609 213.5949707 C-86.78101709 211.11441958 -86.59494807 208.63282613 -86.41015625 206.15039062 C-86.28001517 204.56238719 -86.14855049 202.97449154 -86.015625 201.38671875 C-85.96235046 200.65016556 -85.90907593 199.91361237 -85.85418701 199.15473938 C-85.35270381 193.63165712 -83.93600128 190.20943878 -80.03125 186.3046875 C-76.13852614 185.86400178 -73.788508 185.89223285 -70.3203125 187.78125 C-67.4561487 190.93867289 -67.50369074 192.5758516 -67.59179688 196.69921875 C-67.63369141 197.47652344 -67.67558594 198.25382813 -67.71875 199.0546875 C-67.75258789 200.24384766 -67.75258789 200.24384766 -67.78710938 201.45703125 C-67.84584529 203.4070637 -67.93552346 205.35612062 -68.03125 207.3046875 C-49.17387458 184.52039659 -34.04364825 155.05212023 -31.03125 125.3046875 C-31.94003906 125.40007812 -32.84882813 125.49546875 -33.78515625 125.59375 C-53.10845226 127.2981638 -71.80116553 123.92316156 -87.03125 111.3046875 C-87.88332031 110.61375 -88.73539062 109.9228125 -89.61328125 109.2109375 C-103.45162574 97.42656019 -112.4624765 80.50246005 -114.03125 62.3046875 C-115.16761807 42.51525337 -109.61687378 23.48969681 -96.5234375 8.41796875 C-70.55046647 -18.70195684 -30.24574869 -22.36748833 0 0 Z M-83.03125 19.3046875 C-93.01777833 31.51044434 -98.39975405 45.46914058 -97.03125 61.3046875 C-94.43448164 77.73633942 -85.83641838 90.98978854 -72.453125 100.7734375 C-60.4308443 108.37462142 -46.05614027 110.84915862 -32.125 108.125 C-22.75166893 105.63964706 -15.25854025 101.7491378 -8.03125 95.3046875 C-7.41636719 94.78261719 -6.80148437 94.26054687 -6.16796875 93.72265625 C4.69865455 83.81981329 9.30998835 70.27633465 10.0234375 55.9453125 C9.82815996 42.94540773 4.86245415 28.45861812 -4.25390625 18.8828125 C-16.34759549 8.14467964 -29.7813312 1.64883513 -46.12109375 2.0625 C-60.04523127 3.22128728 -73.48941944 8.87818391 -83.03125 19.3046875 Z " fill="#000000" transform="translate(465.03125,172.6953125)"/>
<path d="M0 0 C11.04380873 8.24790779 16.97147163 19.64652998 20.21875 32.90625 C20.30125 33.875625 20.38375 34.845 20.46875 35.84375 C20.53191406 36.51019531 20.59507812 37.17664063 20.66015625 37.86328125 C21.3866698 51.99514165 16.43362563 64.68785475 7.3671875 75.3046875 C-3.05504114 86.38981407 -15.09996946 91.04155487 -30.09375 92.09375 C-44.67095575 91.81124601 -56.78575438 86.2456252 -67.2421875 76.3203125 C-77.91659347 64.77155246 -81.48656568 51.85175032 -80.91015625 36.47265625 C-80.05056776 23.28241902 -74.3167939 12.13936123 -64.84375 3.03125 C-46.03948245 -12.93949778 -20.14518679 -13.6616784 0 0 Z M-57.78125 21.15625 C-63.32025649 29.66258139 -64.65662884 37.76174783 -63.53125 47.84375 C-61.4775322 56.55686041 -56.19463186 64.62964565 -48.78125 69.71875 C-40.31381755 74.47037714 -31.06146166 76.1459014 -21.65625 73.71875 C-12.53671154 70.75282108 -4.88415411 65.08745926 -0.3125 56.57421875 C4.37775499 46.4734196 4.2418399 38.58168287 0.7890625 28.06640625 C-2.63747071 19.70282667 -8.54760542 13.96390499 -16.53125 9.84375 C-32.8966666 3.25683958 -46.40018401 9.45904329 -57.78125 21.15625 Z " fill="#000000" transform="translate(260.53125,49.15625)"/>
<path d="M0 0 C0.82780975 -0.01283524 1.65561951 -0.02567047 2.5085144 -0.03889465 C3.40434235 -0.04628159 4.30017029 -0.05366852 5.22314453 -0.0612793 C6.14306183 -0.06935104 7.06297913 -0.07742279 8.01077271 -0.08573914 C9.95931105 -0.09958162 11.90787366 -0.11030304 13.85644531 -0.11816406 C16.83721765 -0.13538975 19.81688459 -0.17927542 22.79736328 -0.22338867 C24.6892822 -0.2335144 26.58121055 -0.24203088 28.47314453 -0.2487793 C29.36492401 -0.26628738 30.25670349 -0.28379547 31.17550659 -0.30183411 C34.99418713 -0.28844049 37.27863482 -0.27324751 40.54199219 1.81884766 C42.38047247 4.83172194 42.4975567 6.81089268 42.51220703 10.33325195 C42.51994141 12.1140918 42.51994141 12.1140918 42.52783203 13.9309082 C42.51236328 15.16711914 42.49689453 16.40333008 42.48095703 17.67700195 C42.49642578 18.91321289 42.51189453 20.14942383 42.52783203 21.4230957 C42.52267578 22.61032227 42.51751953 23.79754883 42.51220703 25.02075195 C42.50769531 26.10549805 42.50318359 27.19024414 42.49853516 28.30786133 C41.86450252 31.82255545 40.72903892 32.97289146 37.98095703 35.17700195 C34.74709576 36.79393259 31.20293847 36.36136863 27.64892578 36.38012695 C26.40578362 36.38867706 26.40578362 36.38867706 25.13752747 36.3973999 C23.3814929 36.40685443 21.62544056 36.41338568 19.86938477 36.41723633 C17.18946107 36.42692601 14.5103095 36.45793785 11.83056641 36.48950195 C10.12419075 36.49603369 8.41780961 36.50128349 6.71142578 36.50512695 C5.51274117 36.52364716 5.51274117 36.52364716 4.2898407 36.5425415 C-0.28052431 36.5243493 -3.3604247 36.22005136 -7.01904297 33.17700195 C-10.08547658 28.73157017 -9.34845765 23.49142633 -9.33154297 18.30200195 C-9.34765625 17.32102539 -9.36376953 16.34004883 -9.38037109 15.3293457 C-9.38404381 9.8863791 -9.17775767 5.83437692 -6.01904297 1.17700195 C-3.76587738 0.05041916 -2.5010223 0.03374442 0 0 Z M7.98095703 17.17700195 C7.98095703 17.83700195 7.98095703 18.49700195 7.98095703 19.17700195 C13.59095703 19.17700195 19.20095703 19.17700195 24.98095703 19.17700195 C24.98095703 18.51700195 24.98095703 17.85700195 24.98095703 17.17700195 C19.37095703 17.17700195 13.76095703 17.17700195 7.98095703 17.17700195 Z " fill="#000000" transform="translate(52.01904296875,313.822998046875)"/>
<path d="M0 0 C0.73367798 -0.00511093 1.46735596 -0.01022186 2.2232666 -0.01548767 C4.65039208 -0.0293957 7.07723392 -0.02842581 9.50439453 -0.02612305 C11.19206854 -0.03000977 12.87974157 -0.03434439 14.56741333 -0.03910828 C18.10649789 -0.04657342 21.64548271 -0.04627743 25.18457031 -0.04101562 C29.71636522 -0.03522543 34.24775083 -0.05213951 38.77947807 -0.0753603 C42.26594423 -0.09010548 45.75231205 -0.09096819 49.23880386 -0.08785057 C50.90933161 -0.08836355 52.5798649 -0.09359692 54.2503624 -0.10366249 C56.58905206 -0.11602283 58.92694769 -0.10923781 61.265625 -0.09765625 C62.29757492 -0.10912186 62.29757492 -0.10912186 63.35037231 -0.12081909 C67.64436884 -0.07390507 70.34089907 0.65760568 73.76220703 3.2746582 C75.32691936 6.40408286 75.45922661 9.88548044 74.76220703 13.2746582 C73.21325684 15.3717041 73.21325684 15.3717041 70.76220703 17.2746582 C68.07754861 17.66954186 65.80219686 17.82248597 63.11962891 17.79223633 C62.3549379 17.79924561 61.59024689 17.80625488 60.80238342 17.81347656 C58.2782037 17.83106171 55.75514788 17.81943269 53.23095703 17.8059082 C51.47505478 17.80860299 49.71915398 17.81248529 47.96325684 17.81750488 C44.28460471 17.82340061 40.60634129 17.81483476 36.92773438 17.79614258 C32.21299043 17.77335277 27.49915725 17.78647548 22.78444672 17.81043243 C19.15900819 17.82488852 15.53378549 17.82028534 11.90834045 17.80992126 C10.17000724 17.80725344 8.43165442 17.8105257 6.69334412 17.81983948 C4.2632967 17.83000227 1.83472284 17.81450952 -0.59521484 17.79223633 C-1.3132579 17.80033325 -2.03130096 17.80843018 -2.77110291 17.81677246 C-6.14735748 17.75945804 -7.94096917 17.50150366 -10.65686035 15.42590332 C-12.71928697 12.61946796 -13.1668257 10.75205436 -13.23779297 7.2746582 C-10.30324686 0.81865676 -6.62428238 -0.02371496 0 0 Z " fill="#000000" transform="translate(262.23779296875,403.725341796875)"/>
<path d="M0 0 C0.76469101 -0.00700928 1.52938202 -0.01401855 2.31724548 -0.02124023 C4.84142521 -0.03882538 7.36448103 -0.02719636 9.88867188 -0.01367188 C11.64457413 -0.01636666 13.40047493 -0.02024896 15.15637207 -0.02526855 C18.83502419 -0.03116428 22.51328761 -0.02259843 26.19189453 -0.00390625 C30.90663848 0.01888356 35.62047166 0.00576085 40.33518219 -0.01819611 C43.96062072 -0.0326522 47.58584341 -0.02804901 51.21128845 -0.01768494 C52.94962166 -0.01501712 54.68797448 -0.01828937 56.42628479 -0.02760315 C58.85633221 -0.03776594 61.28490607 -0.02227319 63.71484375 0 C64.79190834 -0.01214539 64.79190834 -0.01214539 65.89073181 -0.02453613 C69.3150251 0.03359378 71.06773933 0.29174917 73.80407715 2.42492676 C75.95837988 5.32718309 75.86778407 7.12018536 75.68554688 10.61523438 C75.22854219 13.26477347 74.32060315 14.69981769 72.35742188 16.51757812 C68.80667608 17.70116006 65.96042136 17.65917967 62.21142578 17.67871094 C61.12553917 17.68615829 61.12553917 17.68615829 60.01771545 17.6937561 C57.62312875 17.70835966 55.22860829 17.7151765 52.83398438 17.72070312 C51.16873167 17.72645582 49.50347899 17.73221354 47.83822632 17.73797607 C44.3462493 17.74848075 40.85429528 17.75432698 37.36230469 17.7578125 C32.89106962 17.76329781 28.42013899 17.78732871 23.9489994 17.81578445 C20.50887162 17.83442116 17.06881704 17.83961697 13.62864304 17.84114838 C11.98043528 17.84417283 10.33222875 17.85219439 8.68407059 17.86533356 C6.37654793 17.8824169 4.06976752 17.88050862 1.76220703 17.87402344 C-0.20611588 17.87949188 -0.20611588 17.87949188 -2.21420288 17.8850708 C-5.86502545 17.49373366 -7.72956618 16.70048429 -10.64257812 14.51757812 C-12.57121652 11.97528206 -12.65160103 10.73412795 -12.51757812 7.51757812 C-10.54048182 0.73896221 -6.48662876 -0.07314567 0 0 Z " fill="#000000" transform="translate(261.642578125,463.482421875)"/>
<path d="M0 0 C0.74328552 -0.0065712 1.48657104 -0.0131424 2.25238037 -0.01991272 C4.71732683 -0.03965705 7.18221233 -0.05131088 9.6472168 -0.0612793 C10.4886492 -0.06535482 11.3300816 -0.06943035 12.19701195 -0.07362938 C16.6507073 -0.09449511 21.10437179 -0.10879455 25.55810547 -0.11816406 C30.15836954 -0.12922873 34.75814992 -0.16362756 39.35824299 -0.20333576 C42.89530842 -0.22948159 46.43225827 -0.23785408 49.96941185 -0.24144554 C51.66508437 -0.24631691 53.36075154 -0.25794659 55.05632973 -0.27648354 C57.43117204 -0.30083228 59.80475858 -0.29991831 62.1796875 -0.29296875 C63.2280201 -0.31218384 63.2280201 -0.31218384 64.29753113 -0.33178711 C69.0428833 -0.28123913 71.47074949 0.79476927 74.78393555 4.17700195 C75.44799805 6.39575195 75.44799805 6.39575195 75.40893555 8.67700195 C75.42827148 9.8062207 75.42827148 9.8062207 75.44799805 10.95825195 C74.4448819 14.30984003 72.69166024 15.29822595 69.78393555 17.17700195 C67.12392619 17.56404601 64.88083377 17.7255312 62.22729492 17.69458008 C61.48357132 17.70158936 60.73984772 17.70859863 59.97358704 17.71582031 C57.52456907 17.73337045 55.07671447 17.72178905 52.62768555 17.70825195 C50.9204486 17.71094775 49.21321315 17.7148309 47.50598145 17.71984863 C43.93165437 17.72573961 40.35772772 17.71719388 36.78344727 17.69848633 C32.20670447 17.67569672 27.63089997 17.68882199 23.05419159 17.71277618 C19.52993731 17.72724516 16.00590471 17.72262319 12.48164368 17.71226501 C10.79437651 17.70960075 9.10708908 17.71285693 7.41984558 17.72218323 C5.05954852 17.73236734 2.70076106 17.71682381 0.34057617 17.69458008 C-0.70068672 17.70672546 -0.70068672 17.70672546 -1.76298523 17.71911621 C-5.23215324 17.65868761 -7.1556077 17.21481504 -10.12194824 15.35949707 C-13.0234392 12.33555322 -13.28885619 10.32613068 -13.21606445 6.17700195 C-9.50787616 0.29504811 -6.53001565 0.02490717 0 0 Z " fill="#000000" transform="translate(262.216064453125,433.822998046875)"/>
<path d="M0 0 C1.12535156 0.15855469 1.12535156 0.15855469 2.2734375 0.3203125 C3.40652344 0.44019531 3.40652344 0.44019531 4.5625 0.5625 C7.59387723 1.84544242 8.22100933 3.51351394 9.6484375 6.4453125 C10.03320312 9.62744141 10.03320312 9.62744141 10.0546875 13.171875 C10.07660156 14.450625 10.09851563 15.729375 10.12109375 17.046875 C10.13735114 19.06574665 10.14851647 21.08461007 10.15966797 23.10351562 C10.17535511 25.0639323 10.20852766 27.02418454 10.2421875 28.984375 C10.24927734 30.15178223 10.25636719 31.31918945 10.26367188 32.52197266 C10.68796513 35.7456322 11.21501436 36.44770269 13.6484375 38.4453125 C14.046875 40.6015625 14.046875 40.6015625 14.0234375 42.9453125 C14.03503906 44.10546875 14.03503906 44.10546875 14.046875 45.2890625 C13.55593785 47.94589884 12.6036834 48.65057186 10.6484375 50.4453125 C10.1534375 51.6209375 9.6584375 52.7965625 9.1484375 54.0078125 C7.6484375 57.4453125 7.6484375 57.4453125 4.6484375 59.4453125 C2.76125 59.2596875 2.76125 59.2596875 0.8359375 59.0703125 C-4.75093465 58.86881875 -8.79279199 61.64641214 -13.30200195 64.60009766 C-17.1686869 67.065762 -19.77058103 68.03094934 -24.3515625 67.4453125 C-27.76796095 65.4713934 -29.07424662 64.25992791 -30.3515625 60.5078125 C-30.3515625 56.6185412 -29.88138952 55.42157958 -27.3515625 52.4453125 C-13.19198803 41.4453125 -13.19198803 41.4453125 -7.3515625 41.4453125 C-7.37774658 40.38094971 -7.40393066 39.31658691 -7.4309082 38.2199707 C-7.52161026 34.25989923 -7.57888339 30.29991899 -7.6262207 26.33911133 C-7.65131964 24.62704005 -7.68540679 22.91507546 -7.72875977 21.20336914 C-7.78961989 18.73817605 -7.81781682 16.27440265 -7.83984375 13.80859375 C-7.86565018 13.04694412 -7.8914566 12.28529449 -7.91804504 11.50056458 C-7.92017209 7.4432683 -7.52717943 5.66597141 -4.96801758 2.45043945 C-2.3515625 0.4453125 -2.3515625 0.4453125 0 0 Z " fill="#000000" transform="translate(420.3515625,182.5546875)"/>
<path d="M0 0 C0.84783051 -0.01283524 1.69566101 -0.02567047 2.56918335 -0.03889465 C3.48688507 -0.04628159 4.40458679 -0.05366852 5.35009766 -0.0612793 C6.292211 -0.06935104 7.23432434 -0.07742279 8.20498657 -0.08573914 C10.20060381 -0.09958225 12.19624476 -0.11030338 14.19189453 -0.11816406 C17.24508411 -0.13539042 20.29719474 -0.17927585 23.35009766 -0.22338867 C25.28758968 -0.23351431 27.22509092 -0.24203081 29.16259766 -0.2487793 C30.53307755 -0.27504143 30.53307755 -0.27504143 31.9312439 -0.30183411 C38.2702324 -0.28012191 38.2702324 -0.28012191 41.46386719 2.07861328 C43.00197276 4.34309039 43.43152718 5.46551252 43.38916016 8.17700195 C43.39947266 8.83700195 43.40978516 9.49700195 43.42041016 10.17700195 C42.6013822 13.26040133 41.4670982 14.2653414 38.88916016 16.17700195 C35.67305464 16.77335059 32.49576552 16.7134921 29.23291016 16.6730957 C28.29362671 16.67455093 27.35434326 16.67600616 26.38659668 16.67750549 C24.40288182 16.67584725 22.41915401 16.6642943 20.43554688 16.64355469 C17.3999972 16.6146053 14.36619468 16.62294627 11.33056641 16.63598633 C9.40217251 16.62974858 7.47378412 16.62135736 5.54541016 16.6105957 C4.63803101 16.61353134 3.73065186 16.61646698 2.79577637 16.61949158 C-3.43553645 16.5262499 -3.43553645 16.5262499 -6.65576172 14.86083984 C-9.02176656 12.12286411 -9.04977363 9.71884211 -9.11083984 6.17700195 C-6.89577529 1.32495579 -5.19759464 0.06846036 0 0 Z " fill="#000000" transform="translate(294.11083984375,374.822998046875)"/>
</svg>
