<?xml version="1.0" encoding="UTF-8"?>
<svg version="1.1" xmlns="http://www.w3.org/2000/svg" width="512" height="512">
<path d="M0 0 C1.07527429 -0.00594224 2.15054858 -0.01188449 3.25840694 -0.0180068 C6.86792546 -0.03537472 10.47731127 -0.03839675 14.08686829 -0.04138184 C16.67233565 -0.05063863 19.25780028 -0.06068801 21.84326172 -0.07147217 C28.8723316 -0.09860958 35.90137862 -0.11068377 42.93049216 -0.11949348 C47.32186919 -0.12502352 51.71323744 -0.13349919 56.10460854 -0.14250183 C68.26975673 -0.16688379 80.4348979 -0.1874828 92.60007 -0.19425201 C93.37832814 -0.19469115 94.15658629 -0.19513028 94.95842801 -0.19558272 C95.73851919 -0.19601927 96.51861037 -0.19645583 97.32234067 -0.19690561 C98.90302956 -0.19779254 100.48371846 -0.19868566 102.06440735 -0.19958496 C102.84847904 -0.20002782 103.63255072 -0.20047068 104.44038216 -0.20092696 C117.14013926 -0.20882004 129.83966664 -0.24372054 142.53933503 -0.29030401 C155.58667393 -0.3377753 168.63389767 -0.36265773 181.6813243 -0.36498785 C189.00346347 -0.36681896 196.32530332 -0.37826227 203.64735985 -0.41462708 C210.53640092 -0.44872141 217.42486593 -0.45190166 224.31396675 -0.43434906 C226.83988846 -0.43280809 229.36584066 -0.441497 231.89168549 -0.46126556 C235.34586364 -0.48671037 238.798032 -0.47495168 242.25219727 -0.45410156 C243.74420427 -0.47827078 243.74420427 -0.47827078 245.26635283 -0.50292826 C255.11058676 -0.36437858 262.05229607 4.39879086 268.90571594 11.22546387 C269.59811623 11.90735023 269.59811623 11.90735023 270.30450439 12.60301208 C271.79452077 14.07573704 273.26978151 15.56222532 274.74433899 17.05041504 C275.79365983 18.09703312 276.84357311 19.14305752 277.89404297 20.18852234 C280.07961385 22.36823761 282.2578933 24.55491413 284.43110657 26.74694824 C287.19899967 29.53765672 289.98451004 32.30997619 292.77575397 35.07730579 C294.94249399 37.22950496 297.09951087 39.39124801 299.25382042 41.55588341 C300.27662483 42.58133079 301.30233845 43.60388596 302.33115578 44.62330055 C303.77353077 46.05536857 305.20223216 47.49990553 306.62837219 48.94812012 C307.43982193 49.76275223 308.25127167 50.57738434 309.08731079 51.41670227 C315.73513751 59.49759653 317.17060963 65.73369288 317.01118469 76.14440918 C317.01191483 77.40393402 317.01264496 78.66345886 317.01339722 79.96115112 C317.01482223 83.38855934 316.98558377 86.81507906 316.95052743 90.24228215 C316.9191092 93.83367011 316.9163211 97.42508212 316.91040039 101.0165863 C316.89490702 107.80572234 316.85394051 114.59445215 316.80365294 121.38340992 C316.74761822 129.11739213 316.72023764 136.85139452 316.69517577 144.58552945 C316.6430199 160.48421553 316.55516652 176.38249712 316.44355774 192.28088379 C317.60113586 192.26275635 318.75871399 192.24462891 319.95137024 192.22595215 C321.49042878 192.21128886 323.02949161 192.19707091 324.56855774 192.18322754 C325.32910461 192.1701355 326.08965149 192.15704346 326.87324524 192.14355469 C337.58899369 192.07138505 345.72013412 195.90786124 353.44355774 203.28088379 C365.23035531 215.627846 365.02758511 228.99167444 364.96113586 245.10119629 C364.96656216 247.31154846 364.97368765 249.52189701 364.9823761 251.73223877 C365.00055187 257.71156499 364.99356555 263.69061394 364.98085976 269.66994476 C364.97070234 275.94016748 364.98013304 282.21036713 364.98640442 288.48059082 C364.99413781 299.68197281 364.98174073 310.88325345 364.96136707 322.08461118 C364.94349822 332.2223632 364.946603 342.35993195 364.96504211 352.49768066 C364.98649135 364.29575554 364.99439332 376.09374125 364.98259306 387.89183617 C364.97637077 394.12786633 364.97548777 400.36377051 364.98873901 406.59979248 C365.00033016 412.4637223 364.99221187 418.32730749 364.96916199 424.19120026 C364.96389237 426.33773477 364.96535858 428.4842985 364.97421265 430.63082123 C365.03071549 445.72561921 364.39293526 457.81113981 353.44355774 469.28088379 C342.50825467 479.72006725 330.75762663 480.87315459 316.32588196 480.78881836 C314.60005608 480.79343304 312.87423413 480.79978975 311.14842033 480.80772734 C306.42854405 480.82436588 301.70899289 480.81619927 296.98911572 480.80378246 C291.89018786 480.79471183 286.79131492 480.80871168 281.69239807 480.81970215 C271.71252635 480.83747046 261.7327751 480.83365489 251.75289869 480.82205158 C243.64064007 480.81301091 235.52841517 480.81179602 227.41615295 480.81614685 C226.2607183 480.81675978 225.10528364 480.81737271 223.91483581 480.81800422 C221.56744972 480.81928315 219.22006364 480.82058 216.87267756 480.82189459 C194.87128793 480.83329544 172.869965 480.82019442 150.8685863 480.79869312 C131.99836109 480.78082261 113.1282343 480.78392685 94.25801086 480.80236816 C72.33430168 480.82378359 50.41065094 480.83219685 28.48693275 480.81991911 C26.14827602 480.81864494 23.80961928 480.81738746 21.47096252 480.81614685 C19.74505443 480.8152212 19.74505443 480.8152212 17.98427951 480.81427684 C9.88359413 480.81082597 1.78294587 480.81664665 -6.31773376 480.82606506 C-16.19238474 480.83729386 -26.06690856 480.83422639 -35.94154501 480.81294209 C-40.97786805 480.80244362 -46.01397922 480.79828941 -51.0503006 480.8115387 C-55.66430649 480.82349323 -60.27790493 480.81684964 -64.89187407 480.79562849 C-66.55727098 480.79117539 -68.2227026 480.79339953 -69.88807702 480.80313164 C-83.48564498 480.87647237 -94.37569126 478.99974817 -104.55644226 469.28088379 C-113.62086044 459.78568138 -116.16685224 449.58109499 -116.06437683 436.71887207 C-116.07373677 434.89106799 -116.07373677 434.89106799 -116.08328581 433.02633858 C-116.09639913 429.67443775 -116.09179079 426.32344456 -116.07934093 422.97160053 C-116.07024119 419.34507065 -116.08428442 415.71861657 -116.09526062 412.09210205 C-116.11299822 404.99983064 -116.10922719 397.90772906 -116.09761006 390.81545115 C-116.08855719 385.04872659 -116.08735973 379.28204945 -116.09170532 373.51531982 C-116.09231825 372.69292852 -116.09293119 371.87053721 -116.09356269 371.02322495 C-116.09484166 369.35227885 -116.09613852 367.68133277 -116.09745306 366.01038671 C-116.10884491 350.36120133 -116.09576708 334.71210985 -116.07425159 319.06293988 C-116.05638187 305.65051481 -116.05948637 292.23822824 -116.07792664 278.82580566 C-116.09935803 263.23061533 -116.10774641 247.63550719 -116.09547758 232.04030418 C-116.09420345 230.37568539 -116.09294597 228.71106658 -116.09170532 227.04644775 C-116.09108822 226.22753559 -116.09047112 225.40862343 -116.08983532 224.56489575 C-116.08638922 218.80860419 -116.09219476 213.05236499 -116.10162354 207.29608154 C-116.11287016 200.27603998 -116.10974774 193.2561772 -116.08850056 186.23615599 C-116.07802576 182.65799597 -116.07380671 179.08013348 -116.08709717 175.50197601 C-116.10131413 171.61544951 -116.08427913 167.72940464 -116.06437683 163.84289551 C-116.07329972 162.72293749 -116.0822226 161.60297947 -116.09141588 160.44908333 C-115.97726477 148.92376307 -112.55536814 139.65995664 -104.55644226 131.28088379 C-94.70712563 121.87841706 -84.32002 119.65941147 -71.01347351 119.89025879 C-69.1390583 119.89874847 -69.1390583 119.89874847 -67.22677612 119.90740967 C-63.94351846 119.92586165 -60.66108381 119.96164108 -57.37809753 120.00622559 C-54.0125167 120.04753109 -50.64681419 120.06549503 -47.28105164 120.08557129 C-40.7058667 120.12944216 -34.13122161 120.19620587 -27.55644226 120.28088379 C-27.56532471 119.00825684 -27.57420715 117.73562988 -27.58335876 116.42443848 C-27.66452081 104.41860583 -27.72444444 92.41282902 -27.76369095 80.40678406 C-27.78454644 74.23465522 -27.81282748 68.06274824 -27.85820007 61.89074707 C-27.90172957 55.9320254 -27.9255947 49.97351686 -27.93595123 44.01464844 C-27.94332977 41.74369961 -27.95773834 39.47276216 -27.97936249 37.2019043 C-28.00849012 34.01573678 -28.01239424 30.83044474 -28.01054382 27.64416504 C-28.02492493 26.70980118 -28.03930603 25.77543732 -28.05412292 24.8127594 C-28.00957857 17.70291715 -26.31413782 12.42783658 -21.59159851 7.03869629 C-20.94062195 6.49986816 -20.28964539 5.96104004 -19.61894226 5.40588379 C-18.97054382 4.85158691 -18.32214539 4.29729004 -17.65409851 3.72619629 C-11.97389226 -0.18753986 -6.67940962 -0.01150815 0 0 Z M-9.55644226 19.28088379 C-11.88843654 23.14128174 -11.80357727 26.8239959 -11.79695129 31.26008606 C-11.79866333 31.94873749 -11.80037537 32.63738892 -11.80213928 33.34690857 C-11.80544183 35.65484057 -11.7944156 37.9624804 -11.78349304 40.27038574 C-11.78288022 41.95306228 -11.78314761 43.63573933 -11.78422356 45.31841564 C-11.78467487 49.82240545 -11.77308754 54.32628888 -11.75900269 58.8302536 C-11.74760844 63.05741204 -11.74707621 67.28454468 -11.74565125 71.51171875 C-11.73515876 83.87228784 -11.70723644 96.23283716 -11.68144226 108.59338379 C-11.64019226 136.21025879 -11.59894226 163.82713379 -11.55644226 192.28088379 C91.40355774 192.28088379 194.36355774 192.28088379 300.44355774 192.28088379 C300.44355774 152.68088379 300.44355774 113.08088379 300.44355774 72.28088379 C284.93355774 71.95088379 269.42355774 71.62088379 253.44355774 71.28088379 C244.39740389 66.75780687 244.39740389 66.75780687 242.06855774 63.84338379 C241.37633118 63.01000488 241.37633118 63.01000488 240.67012024 62.15979004 C237.29405383 56.98817238 237.11320386 52.25637162 237.02949524 46.26135254 C237.00044601 44.97349602 237.00044601 44.97349602 236.97080994 43.65962219 C236.91124218 40.92930905 236.8647204 38.19895322 236.81855774 35.46838379 C236.78035695 33.61224606 236.74130399 31.75612567 236.70137024 29.90002441 C236.60555947 25.36045235 236.52144453 20.82079732 236.44355774 16.28088379 C205.97112169 16.2124493 175.49869972 16.15935647 145.02620485 16.1276878 C141.42883147 16.12393567 137.83145824 16.1200527 134.23408508 16.11608887 C133.5179114 16.11530194 132.80173772 16.114515 132.0638618 16.11370423 C120.46694304 16.10064951 108.87006889 16.07699531 97.2731766 16.0494254 C85.37411983 16.02137302 73.47508643 16.00470789 61.57599795 15.9986183 C54.89228086 15.99487096 48.20864498 15.98548434 41.52495956 15.96369362 C35.23611871 15.94335601 28.94742088 15.93704453 22.65855026 15.94156075 C20.34865543 15.94073433 18.03875589 15.9347526 15.72888947 15.92326736 C12.57788748 15.9083662 9.42742719 15.91192182 6.27641296 15.92012024 C4.90188715 15.90701245 4.90188715 15.90701245 3.49959314 15.89363986 C-1.54303657 15.92916078 -5.30744754 16.25134397 -9.55644226 19.28088379 Z M252.44355774 21.28088379 C252.35616783 25.6557571 252.30303374 30.03040457 252.25605774 34.40588379 C252.23092102 35.64338379 252.2057843 36.88088379 252.17988586 38.15588379 C252.1702179 39.35471191 252.16054993 40.55354004 252.15058899 41.78869629 C252.13487854 42.88842773 252.11916809 43.98815918 252.10298157 45.12121582 C252.50466128 48.84776695 253.37997094 51.15335219 255.44355774 54.28088379 C259.16742936 56.49907303 262.56850278 56.5166663 266.83808899 56.47619629 C268.04013977 56.46975098 269.24219055 56.46330566 270.48066711 56.45666504 C271.72654602 56.43990723 272.97242493 56.42314941 274.25605774 56.40588379 C275.52127258 56.39686035 276.78648743 56.38783691 278.09004211 56.37854004 C281.20807338 56.35500773 284.32571871 56.32212924 287.44355774 56.28088379 C283.42018384 51.45836024 279.21552536 46.90447204 274.76777649 42.47229004 C274.15714859 41.86070541 273.54652069 41.24912079 272.91738892 40.6190033 C271.64047389 39.3414134 270.36231781 38.06506276 269.08296204 36.78991699 C267.11539208 34.82776123 265.15329042 32.86024859 263.19160461 30.89221191 C261.94648291 29.64775003 260.70105158 28.40359785 259.45527649 27.15979004 C258.86679428 26.5692836 258.27831207 25.97877716 257.67199707 25.37037659 C255.42300208 22.57667208 255.42300208 22.57667208 252.44355774 21.28088379 Z M-93.80644226 145.71838379 C-100.06513223 153.39876052 -99.70392311 162.0956381 -99.69015503 171.57173157 C-99.69242059 172.71390269 -99.69468614 173.8560738 -99.69702035 175.03285617 C-99.70335391 178.862694 -99.70253139 182.69249638 -99.70170593 186.52233887 C-99.70415441 189.26720819 -99.7080721 192.01207503 -99.71188354 194.75694275 C-99.72018301 201.44076477 -99.72293807 208.12457798 -99.72349592 214.80840472 C-99.72397142 220.24249191 -99.72602784 225.67657619 -99.72919655 231.11066246 C-99.73800121 246.52413203 -99.74261622 261.93759464 -99.74186607 277.35106675 C-99.74182612 278.18166858 -99.74178616 279.01227041 -99.741745 279.86804199 C-99.74170411 280.69966033 -99.74166323 281.53127866 -99.74162111 282.38809755 C-99.7412147 295.86435568 -99.75078358 309.34058587 -99.76488336 322.81683592 C-99.7792534 336.66085324 -99.7861532 350.50485693 -99.78528959 364.3488819 C-99.78495783 372.11854876 -99.78769541 379.88818632 -99.79846764 387.65784645 C-99.8075809 394.27324135 -99.8097411 400.88859366 -99.80295821 407.50399212 C-99.79969715 410.87726603 -99.80071197 414.25039173 -99.80831146 417.62366867 C-99.81602642 421.28554702 -99.8113896 424.94721136 -99.80368042 428.60908508 C-99.80882398 429.66824231 -99.81396755 430.72739955 -99.81926697 431.81865245 C-99.77591057 441.14809354 -98.89729797 450.00475187 -92.55644226 457.28088379 C-85.31208718 462.98298359 -78.65802892 464.07987804 -69.55644226 463.28088379 C-62.82600526 461.50196357 -58.53010499 456.78882185 -54.55644226 451.28088379 C-51.30714548 445.07768085 -51.4105251 438.23668335 -51.42514038 431.3952179 C-51.42302467 430.51172171 -51.42090895 429.62822552 -51.41872913 428.71795672 C-51.41274731 425.76341531 -51.41372799 422.80891684 -51.41459656 419.85437012 C-51.41156383 417.73342822 -51.40804206 415.61248697 -51.40406799 413.49154663 C-51.39618697 408.92609904 -51.39103706 404.36065924 -51.38777733 399.79520607 C-51.38185936 392.57081851 -51.36531126 385.34648002 -51.34643555 378.12211609 C-51.34009835 375.64706519 -51.33377273 373.17201427 -51.32745838 370.69696331 C-51.32429257 369.45753172 -51.32112676 368.21810014 -51.31786501 366.94111001 C-51.27581793 350.12525878 -51.24281672 333.30943058 -51.23051453 316.49353027 C-51.22212788 305.14628814 -51.19961537 293.79916773 -51.16115886 282.45198649 C-51.14142018 276.45062124 -51.12898648 270.44943788 -51.13399315 264.4480381 C-51.13864774 258.80002781 -51.12478946 253.1523621 -51.09698105 247.50442123 C-51.09008323 245.43691196 -51.08992745 243.36936696 -51.09718132 241.3018589 C-51.14016301 227.66953621 -50.72457966 216.32694538 -41.63066101 205.35900879 C-37.54725697 201.26791473 -32.72911032 197.86721782 -27.55644226 195.28088379 C-27.55644226 175.81088379 -27.55644226 156.34088379 -27.55644226 136.28088379 C-35.29081726 136.23963379 -43.02519226 136.19838379 -50.99394226 136.15588379 C-54.62994446 136.12857178 -54.62994446 136.12857178 -58.33940125 136.10070801 C-60.28544392 136.09486048 -62.23148907 136.08976554 -64.17753601 136.08557129 C-65.16789856 136.07533936 -66.15826111 136.06510742 -67.17863464 136.05456543 C-77.99242067 136.05188044 -86.27357698 137.36870179 -93.80644226 145.71838379 Z M-29.80644226 217.71838379 C-35.52195536 224.73219882 -35.706332 232.46550444 -35.68774414 241.16654968 C-35.68985985 242.05004587 -35.69197557 242.93354206 -35.6941554 243.84381086 C-35.70013722 246.79835226 -35.69915654 249.75285074 -35.69828796 252.70739746 C-35.70132069 254.82833936 -35.70484246 256.9492806 -35.70881653 259.07022095 C-35.71669756 263.63566853 -35.72184746 268.20110833 -35.72510719 272.76656151 C-35.73102516 279.99094906 -35.74757327 287.21528756 -35.76644897 294.43965149 C-35.77278617 296.91470239 -35.77911179 299.38975331 -35.78542614 301.86480427 C-35.78859195 303.10423586 -35.79175776 304.34366744 -35.79501951 305.62065756 C-35.83706659 322.4365088 -35.8700678 339.25233699 -35.88237 356.0682373 C-35.89075664 367.41547944 -35.91326916 378.76259985 -35.95172566 390.10978109 C-35.97146434 396.11114633 -35.98389804 402.1123297 -35.97889137 408.11372948 C-35.97423678 413.76173977 -35.98809506 419.40940548 -36.01590347 425.05734634 C-36.02280129 427.12485562 -36.02295707 429.19240062 -36.0157032 431.25990868 C-35.95258001 451.28042733 -35.95258001 451.28042733 -40.55644226 460.28088379 C-41.2238501 461.61384628 -41.89061929 462.94712894 -42.55644226 464.28088379 C4.04398759 464.3266583 50.64441507 464.36190152 97.24486297 464.38301445 C102.74607181 464.38551587 108.24728061 464.38810451 113.74848938 464.39074707 C114.84368421 464.39127169 115.93887903 464.39179631 117.06726158 464.39233683 C134.80210371 464.4010402 152.53693287 464.41680981 170.27176731 464.43518938 C188.46839965 464.45389031 206.66502519 464.46500092 224.86166674 464.46906078 C236.09057258 464.47180543 247.31944177 464.4804753 258.54833633 464.49671672 C266.2476812 464.50728597 273.94700712 464.51048454 281.64635872 464.50788654 C286.08890837 464.50660517 290.53139399 464.50857405 294.97393227 464.51929474 C299.0435172 464.52904363 303.11299516 464.52950805 307.18258507 464.52268158 C308.65245499 464.52183814 310.12233164 464.5243613 311.59218835 464.53065015 C326.46695696 464.76635571 326.46695696 464.76635571 339.44355774 458.28088379 C347.3446133 450.3229861 348.5990365 442.76665969 348.57727051 431.72343445 C348.57953606 430.8752791 348.58180162 430.02712375 348.58413583 429.15326673 C348.5904531 426.31843178 348.58964793 423.48364491 348.58882141 420.64880371 C348.59181432 418.61328571 348.59521716 416.57776828 348.59899902 414.54225159 C348.60782985 409.01738236 348.61017676 403.49252863 348.61081481 397.96765304 C348.61152584 394.51450359 348.61366117 391.06135808 348.61631203 387.60820961 C348.62556245 375.55728531 348.6296473 363.50637207 348.62886047 351.45544434 C348.62825978 340.22879029 348.63881083 329.00218432 348.65460414 317.77554244 C348.66768721 308.13119696 348.67304405 298.48686718 348.67240506 288.84251291 C348.6721503 283.08492964 348.67498961 277.32738909 348.68558311 271.56981468 C348.69527695 266.15338059 348.69533441 260.73702994 348.68806648 255.32059288 C348.68702224 253.33608376 348.68937398 251.35156941 348.69542694 249.36706924 C348.70317258 246.65104343 348.69848507 243.93530395 348.6907959 241.21928406 C348.69851124 240.05077063 348.69851124 240.05077063 348.70638245 238.85865086 C348.65099278 229.96067287 347.34511624 222.14743116 340.80293274 215.65197754 C334.06778051 209.5756989 327.4790973 208.15850183 318.48297405 208.15224934 C317.30615714 208.14902489 316.12934022 208.14580044 314.91686219 208.14247829 C312.99124844 208.14480119 312.99124844 208.14480119 311.0267334 208.14717102 C309.64203575 208.14530196 308.25733863 208.14300088 306.87264234 208.1403057 C303.07263911 208.13419301 299.27265791 208.13432067 295.47265089 208.13550007 C291.37233795 208.13570421 287.27203206 208.13018405 283.17172241 208.1254425 C275.14034641 208.11713833 267.10897775 208.11438777 259.07759782 208.11383013 C252.54892638 208.11335486 246.02025736 208.11129958 239.49158669 208.1081295 C220.97921577 208.0993236 202.46685065 208.09471003 183.95447763 208.09545998 C182.45766726 208.09551991 182.45766726 208.09551991 180.93061829 208.09558105 C179.93152553 208.09562194 178.93243277 208.09566282 177.90306447 208.09570494 C161.71086724 208.0961114 145.51869326 208.08654163 129.32650276 208.07244269 C112.69813522 208.05807826 96.06977902 208.05117254 79.44140512 208.05203646 C70.10678234 208.05236841 60.77218394 208.04962243 51.43756676 208.03885841 C43.49001405 208.02975255 35.54249677 208.02757888 27.5949411 208.03436784 C23.54120123 208.03763259 19.48752933 208.03769133 15.43379593 208.02901459 C11.71972399 208.02114672 8.00577391 208.02258393 4.29170493 208.03129872 C2.31829415 208.03355754 0.34487957 208.0260073 -1.6285165 208.01805907 C-12.89119748 208.06178102 -21.88526721 208.93828614 -29.80644226 217.71838379 Z " fill="#000000" transform="translate(131.5564422607422,15.7191162109375)"/>
<path d="M0 0 C0.97051306 -0.00453111 1.94102612 -0.00906223 2.94094867 -0.01373065 C6.1958441 -0.02639978 9.45057274 -0.02475264 12.70549011 -0.02310181 C15.03804744 -0.02908549 17.37060279 -0.03589066 19.70315552 -0.04345703 C26.04204797 -0.06114069 32.38088645 -0.06581342 38.71980119 -0.0670886 C44.01056766 -0.06898698 49.30132153 -0.07634383 54.59208316 -0.08343279 C66.36144436 -0.09907673 78.13078217 -0.10476991 89.90015284 -0.10342209 C90.60612898 -0.10334218 91.31210513 -0.10326227 92.03947449 -0.10317993 C92.74631481 -0.10309817 93.45315514 -0.10301641 94.18141486 -0.10293217 C105.63443388 -0.10211942 117.08732134 -0.12125475 128.54030231 -0.14945666 C140.30619773 -0.17819998 152.07202901 -0.19199615 163.83796042 -0.19026911 C170.44120559 -0.18975905 177.04430188 -0.19546683 183.64751625 -0.21662521 C189.85851182 -0.2359831 196.06921613 -0.23614854 202.28022194 -0.22159195 C204.55863876 -0.21949972 206.8370737 -0.22422929 209.11545944 -0.23631287 C212.22843851 -0.25175222 215.34041168 -0.24246511 218.45336914 -0.22705078 C219.80236769 -0.24248147 219.80236769 -0.24248147 221.17861873 -0.25822389 C228.13947711 -0.18217726 233.38782006 1.61279486 238.65934753 6.23226929 C239.19817566 6.88324585 239.73700378 7.53422241 240.29216003 8.20492554 C240.84645691 8.85332397 241.40075378 9.50172241 241.97184753 10.16976929 C246.451281 16.67100111 246.09179732 23.6388347 245.41716003 31.26742554 C243.73630421 37.92701887 238.95337681 42.45290001 233.41716003 46.26742554 C228.65992747 48.78071679 224.0787655 48.55277897 218.83432007 48.53485107 C217.37855048 48.54164774 217.37855048 48.54164774 215.8933714 48.54858172 C212.63847597 48.56125085 209.38374733 48.55960371 206.12882996 48.55795288 C203.79627263 48.56393656 201.46371728 48.57074174 199.13116455 48.57830811 C192.79227209 48.59599176 186.45343362 48.60066449 180.11451888 48.60193968 C174.82375241 48.60383806 169.53299854 48.61119491 164.24223691 48.61828387 C152.47287571 48.63392781 140.7035379 48.63962098 128.93416723 48.63827316 C128.22819108 48.63819325 127.52221494 48.63811334 126.79484558 48.63803101 C126.08800526 48.63794924 125.38116493 48.63786748 124.6529052 48.63778324 C113.19988618 48.6369705 101.74699873 48.65610582 90.29401775 48.68430774 C78.52812234 48.71305105 66.76229106 48.72684723 54.99635965 48.72512019 C48.39311448 48.72461013 41.79001819 48.7303179 35.18680382 48.75147629 C28.97580825 48.77083418 22.76510394 48.77099961 16.55409813 48.75644302 C14.2756813 48.7543508 11.99724637 48.75908036 9.71886063 48.77116394 C6.60588156 48.78660329 3.49390839 48.77731618 0.38095093 48.76190186 C-0.51838144 48.77218898 -1.4177138 48.78247611 -2.34429866 48.79307497 C-9.30515704 48.71702833 -14.55349999 46.92205621 -19.82502747 42.30258179 C-20.36385559 41.65160522 -20.90268372 41.00062866 -21.45783997 40.32992554 C-22.01213684 39.6815271 -22.56643372 39.03312866 -23.13752747 38.36508179 C-27.61696094 31.86384997 -27.25747725 24.89601637 -26.58283997 17.26742554 C-24.90198414 10.6078322 -20.11905675 6.08195107 -14.58283997 2.26742554 C-9.8256074 -0.24586571 -5.24444543 -0.0179279 0 0 Z M-8.58283997 19.26742554 C-10.00325817 22.10826195 -9.89736269 24.12219831 -9.58283997 27.26742554 C-7.50674246 30.34004984 -5.93861761 31.14721849 -2.42658997 32.33383179 C2.60373938 32.24692569 3.97364694 30.57313383 7.36442566 27.07211304 C8.021203 26.35281616 8.67798035 25.63351929 9.35466003 24.89242554 C10.03850769 24.18086304 10.72235535 23.46930054 11.42692566 22.73617554 C14.69738726 19.88308578 14.69738726 19.88308578 16.41716003 16.26742554 C13.37494938 16.18609911 10.33493623 16.1267718 7.29216003 16.07992554 C6.43622253 16.05478882 5.58028503 16.0296521 4.69841003 16.00375366 C-0.49156624 15.94386932 -4.1083012 16.3153736 -8.58283997 19.26742554 Z M26.41716003 31.26742554 C26.41716003 31.59742554 26.41716003 31.92742554 26.41716003 32.26742554 C39.56277599 34.17329457 39.56277599 34.17329457 51.97868347 30.81137085 C56.76982765 26.96993251 60.96480978 22.35225022 64.41716003 17.26742554 C64.41716003 16.93742554 64.41716003 16.60742554 64.41716003 16.26742554 C46.94674877 14.04747884 36.64833232 16.19835273 26.41716003 31.26742554 Z M74.41716003 31.26742554 C74.41716003 31.59742554 74.41716003 31.92742554 74.41716003 32.26742554 C87.56277599 34.17329457 87.56277599 34.17329457 99.97868347 30.81137085 C104.76982765 26.96993251 108.96480978 22.35225022 112.41716003 17.26742554 C112.41716003 16.93742554 112.41716003 16.60742554 112.41716003 16.26742554 C94.94674877 14.04747884 84.64833232 16.19835273 74.41716003 31.26742554 Z M122.41716003 31.26742554 C122.41716003 31.59742554 122.41716003 31.92742554 122.41716003 32.26742554 C135.56277599 34.17329457 135.56277599 34.17329457 147.97868347 30.81137085 C152.76982765 26.96993251 156.96480978 22.35225022 160.41716003 17.26742554 C160.41716003 16.93742554 160.41716003 16.60742554 160.41716003 16.26742554 C142.94674877 14.04747884 132.64833232 16.19835273 122.41716003 31.26742554 Z M172.43278503 27.88851929 C170.33177603 30.75482098 170.33177603 30.75482098 170.41716003 32.26742554 C177.57041083 32.34359745 184.7235567 32.39607674 191.87712097 32.43222046 C194.30977792 32.44729088 196.74240777 32.46775076 199.17497253 32.4937439 C202.67504064 32.53020294 206.17474893 32.54716974 209.67497253 32.56039429 C210.75956757 32.57587814 211.8441626 32.591362 212.96162415 32.60731506 C218.5005477 32.60854481 222.69069635 32.52857646 227.41716003 29.26742554 C228.83757824 26.42658912 228.73168276 24.41265276 228.41716003 21.26742554 C226.18509572 18.41961935 224.86723005 17.41744888 221.41716003 16.26742554 C193.75848043 12.95126874 193.75848043 12.95126874 172.43278503 27.88851929 Z " fill="#000000" transform="translate(178.5828399658203,415.7325744628906)"/>
<path d="M0 0 C4.6584178 0.56529363 8.16310333 2.61584112 12.1015625 5.0078125 C12.77867279 5.41152069 13.45578308 5.81522888 14.15341187 6.23117065 C16.31474559 7.52234373 18.46977615 8.82365991 20.625 10.125 C22.05040281 10.97719581 23.47618084 11.82876434 24.90234375 12.6796875 C28.31986512 14.72273551 31.72495532 16.78531274 35.12365723 18.85949707 C36.90201544 19.94044176 38.68804008 21.00758736 40.47558594 22.07324219 C41.48137695 22.68586914 42.48716797 23.29849609 43.5234375 23.9296875 C44.39661621 24.45546387 45.26979492 24.98124023 46.16943359 25.52294922 C46.77352051 26.01037598 47.37760742 26.49780273 48 27 C48 30.93974955 46.52210525 32.82936093 44.5 36.1875 C43.8503125 37.27417969 43.200625 38.36085938 42.53125 39.48046875 C41.77328125 40.72763672 41.77328125 40.72763672 41 42 C35.9738891 41.46323088 32.37760591 39.05581499 28.1875 36.4375 C27.49462891 36.01275391 26.80175781 35.58800781 26.08789062 35.15039062 C24.38783049 34.10690544 22.69334524 33.05434704 21 32 C20.9906543 32.648479 20.98130859 33.29695801 20.97167969 33.96508789 C20.54788678 57.42950399 16.76873789 77.7908622 1 96 C0.10474609 97.18916016 0.10474609 97.18916016 -0.80859375 98.40234375 C-9.00864069 108.12254199 -20.26012742 114.54544315 -32 119 C-33.11117187 119.433125 -34.22234375 119.86625 -35.3671875 120.3125 C-55.70569018 126.95364373 -78.12019367 124.14829349 -96.9375 114.75 C-99.30588783 113.52390924 -101.65454389 112.26981329 -104 111 C-103.09238938 109.24528614 -102.17349289 107.49640736 -101.25 105.75 C-100.48429688 104.28820312 -100.48429688 104.28820312 -99.703125 102.796875 C-98.05180119 100.08506801 -96.33508701 98.13203597 -94 96 C-93.26136719 96.39832031 -92.52273437 96.79664063 -91.76171875 97.20703125 C-75.75633588 105.56562383 -57.91991839 108.43323347 -40.3125 102.9375 C-33.56547434 100.60785866 -27.65891806 97.33205994 -22 93 C-21.14921875 92.35417969 -20.2984375 91.70835937 -19.421875 91.04296875 C-7.37306553 81.08237319 0.6814907 66.7448635 2.29541016 51.14453125 C2.76382362 44.76839334 2.95492192 38.39224866 3 32 C2.34 32 1.68 32 1 32 C0.72148193 32.73371826 0.44296387 33.46743652 0.15600586 34.22338867 C-1.62608606 38.50379657 -4.04052364 42.35295756 -6.4375 46.3125 C-6.92798828 47.14845703 -7.41847656 47.98441406 -7.92382812 48.84570312 C-8.40142578 49.63525391 -8.87902344 50.42480469 -9.37109375 51.23828125 C-9.80349365 51.96055908 -10.23589355 52.68283691 -10.68139648 53.42700195 C-11.11653564 53.94609131 -11.5516748 54.46518066 -12 55 C-15.93974955 55 -17.82936093 53.52210525 -21.1875 51.5 C-22.27417969 50.8503125 -23.36085938 50.200625 -24.48046875 49.53125 C-25.31191406 49.0259375 -26.14335937 48.520625 -27 48 C-26.4192938 43.62353189 -24.80930336 40.65121638 -22.5 36.9140625 C-22.14791977 36.3393924 -21.79583954 35.76472229 -21.43309021 35.17263794 C-20.29552917 33.31913912 -19.1478616 31.47213361 -18 29.625 C-17.22065552 28.35887824 -16.44209188 27.09227552 -15.66430664 25.82519531 C-14.13868461 23.34094557 -12.60992271 20.85867726 -11.07861328 18.37792969 C-8.49990588 14.187303 -5.95942205 9.97496873 -3.4375 5.75 C-2.89319336 4.84048584 -2.89319336 4.84048584 -2.33789062 3.91259766 C-1.5577878 2.60888036 -0.7787294 1.30453814 0 0 Z " fill="#000000" transform="translate(348,277)"/>
<path d="M0 0 C-0.64743667 3.82990706 -2.45311237 6.5283898 -4.5625 9.75 C-5.20316406 10.73484375 -5.84382812 11.7196875 -6.50390625 12.734375 C-7.24447266 13.85585938 -7.24447266 13.85585938 -8 15 C-12.49978286 14.04647458 -16.53907063 12.09347034 -20.734375 10.25390625 C-36.46760451 4.21279779 -54.68853438 5.21208875 -70 12 C-73.95381552 14.02463489 -77.47507391 16.30157056 -81 19 C-81.85078125 19.64582031 -82.7015625 20.29164063 -83.578125 20.95703125 C-95.62693447 30.91762681 -103.6814907 45.2551365 -105.29541016 60.85546875 C-105.76382362 67.23160666 -105.95492192 73.60775134 -106 80 C-105.34 80 -104.68 80 -104 80 C-103.72148193 79.26628174 -103.44296387 78.53256348 -103.15600586 77.77661133 C-101.37391394 73.49620343 -98.95947636 69.64704244 -96.5625 65.6875 C-96.07201172 64.85154297 -95.58152344 64.01558594 -95.07617188 63.15429688 C-94.59857422 62.36474609 -94.12097656 61.57519531 -93.62890625 60.76171875 C-93.19650635 60.03944092 -92.76410645 59.31716309 -92.31860352 58.57299805 C-91.88346436 58.05390869 -91.4483252 57.53481934 -91 57 C-87.06025045 57 -85.17063907 58.47789475 -81.8125 60.5 C-80.72582031 61.1496875 -79.63914062 61.799375 -78.51953125 62.46875 C-77.68808594 62.9740625 -76.85664063 63.479375 -76 64 C-76.5807062 68.37646811 -78.19069664 71.34878362 -80.5 75.0859375 C-80.85208023 75.6606076 -81.20416046 76.23527771 -81.56690979 76.82736206 C-82.70447083 78.68086088 -83.8521384 80.52786639 -85 82.375 C-85.77934448 83.64112176 -86.55790812 84.90772448 -87.33569336 86.17480469 C-88.86131539 88.65905443 -90.39007729 91.14132274 -91.92138672 93.62207031 C-94.50009412 97.812697 -97.04057795 102.02503127 -99.5625 106.25 C-99.92537109 106.85634277 -100.28824219 107.46268555 -100.66210938 108.08740234 C-101.4422122 109.39111964 -102.2212706 110.69546186 -103 112 C-107.6584178 111.43470637 -111.16310333 109.38415888 -115.1015625 106.9921875 C-115.77867279 106.58847931 -116.45578308 106.18477112 -117.15341187 105.76882935 C-119.31474559 104.47765627 -121.46977615 103.17634009 -123.625 101.875 C-125.05040281 101.02280419 -126.47618084 100.17123566 -127.90234375 99.3203125 C-131.31986512 97.27726449 -134.72495532 95.21468726 -138.12365723 93.14050293 C-139.90201544 92.05955824 -141.68804008 90.99241264 -143.47558594 89.92675781 C-144.98427246 89.00781738 -144.98427246 89.00781738 -146.5234375 88.0703125 C-147.39661621 87.54453613 -148.26979492 87.01875977 -149.16943359 86.47705078 C-149.77352051 85.98962402 -150.37760742 85.50219727 -151 85 C-151 81.06025045 -149.52210525 79.17063907 -147.5 75.8125 C-146.8503125 74.72582031 -146.200625 73.63914062 -145.53125 72.51953125 C-145.0259375 71.68808594 -144.520625 70.85664063 -144 70 C-138.9738891 70.53676912 -135.37760591 72.94418501 -131.1875 75.5625 C-130.14819336 76.19961914 -130.14819336 76.19961914 -129.08789062 76.84960938 C-127.38783049 77.89309456 -125.69334524 78.94565296 -124 80 C-123.9906543 79.351521 -123.98130859 78.70304199 -123.97167969 78.03491211 C-123.54785125 54.56852864 -119.76646999 34.21027284 -104 16 C-103.278125 15.01 -102.55625 14.02 -101.8125 13 C-76.13267171 -16.98741239 -32.42813519 -16.37505834 0 0 Z " fill="#000000" transform="translate(331,251)"/>
<path d="M0 0 C92.4 0 184.8 0 280 0 C280 5.28 280 10.56 280 16 C187.6 16 95.2 16 0 16 C0 10.72 0 5.44 0 0 Z " fill="#000000" transform="translate(136,176)"/>
<path d="M0 0 C92.4 0 184.8 0 280 0 C280 5.28 280 10.56 280 16 C187.6 16 95.2 16 0 16 C0 10.72 0 5.44 0 0 Z " fill="#000000" transform="translate(136,136)"/>
<path d="M0 0 C76.56 0 153.12 0 232 0 C232 5.28 232 10.56 232 16 C155.44 16 78.88 16 0 16 C0 10.72 0 5.44 0 0 Z " fill="#000000" transform="translate(136,96)"/>
<path d="M0 0 C71.28 0 142.56 0 216 0 C216 5.28 216 10.56 216 16 C144.72 16 73.44 16 0 16 C0 10.72 0 5.44 0 0 Z " fill="#000000" transform="translate(136,56)"/>
</svg>
