<?xml version="1.0" encoding="UTF-8"?>
<svg version="1.1" xmlns="http://www.w3.org/2000/svg" width="512" height="512">
<path d="M0 0 C1.48603099 -0.00978594 2.97204712 -0.0220997 4.45803833 -0.03672791 C8.46640148 -0.0681607 12.47385765 -0.06191939 16.48228312 -0.04664826 C19.83728154 -0.03745698 23.19211717 -0.04722403 26.54710567 -0.05698699 C34.46319836 -0.07983767 42.37885483 -0.07238444 50.29492188 -0.04492188 C58.44670212 -0.01709124 66.597385 -0.03651673 74.74907315 -0.07979757 C81.76598873 -0.1156138 88.78256667 -0.12411218 95.79956043 -0.11040515 C99.98280305 -0.1023779 104.16543083 -0.10407177 108.34860611 -0.13126564 C112.28082314 -0.1554719 116.21151548 -0.14533875 120.14362717 -0.10927773 C121.58188856 -0.10165348 123.02027084 -0.10581186 124.45845032 -0.12295151 C136.64575259 -0.25615983 136.64575259 -0.25615983 141.74681091 4.14526367 C142.87147843 5.33560546 143.97074657 6.55065077 145.03857422 7.79223633 C146.15381483 8.8813646 147.27625924 9.96322421 148.40942383 11.03369141 C149.50590071 12.12372877 150.59968018 13.21648537 151.69091797 14.31176758 C152.27651993 14.89641281 152.86212189 15.48105804 153.46546936 16.0834198 C154.68580755 17.3030846 155.90491262 18.52398443 157.12280273 19.74609375 C158.99267175 21.62138196 160.86790321 23.49119098 162.74365234 25.3605957 C163.93472883 26.55233198 165.12549562 27.74437788 166.31591797 28.93676758 C166.87625229 29.49507767 167.43658661 30.05338776 168.01390076 30.62861633 C171.5652279 34.2016943 173.15565159 35.93441403 173.19247437 40.94734192 C173.20107483 41.81793747 173.20967529 42.68853302 173.21853638 43.58551025 C173.2249263 45.0216568 173.2249263 45.0216568 173.23144531 46.48681641 C173.2396228 47.49344833 173.24780029 48.50008026 173.25622559 49.53721619 C173.2811013 52.8787272 173.29760045 56.22019571 173.31201172 59.56176758 C173.3173354 60.70107916 173.32265907 61.84039074 173.32814407 63.01422691 C173.35488403 69.0434947 173.37425699 75.07274171 173.38867188 81.10205078 C173.40532946 87.33676135 173.45011472 93.57094432 173.50104332 99.80545521 C173.53466008 104.59324263 173.5462432 109.38090393 173.55189896 114.16879845 C173.5586259 116.46735355 173.57388512 118.76589995 173.59778976 121.06434059 C173.62932604 124.27982518 173.62949505 127.49387471 173.62207031 130.70947266 C173.64667831 132.13651016 173.64667831 132.13651016 173.67178345 133.59237671 C173.62838396 138.17861477 173.56122642 140.13242892 170.63150024 143.83097839 C168.42791962 145.49774017 166.30074937 147.06201863 163.91357422 148.44848633 C163.13594727 148.90650635 162.35832031 149.36452637 161.55712891 149.83642578 C160.72600586 150.31684326 159.89488281 150.79726074 159.03857422 151.29223633 C157.23050143 152.35731766 155.4232344 153.42376781 153.61669922 154.49145508 C152.69050781 155.03721191 151.76431641 155.58296875 150.81005859 156.14526367 C146.43604546 158.74454949 142.11072379 161.42035843 137.78857422 164.10473633 C136.94125732 164.62962646 136.09394043 165.1545166 135.22094727 165.6953125 C130.28373501 168.7590762 125.36211228 171.84665075 120.44873047 174.94848633 C119.35012695 175.64031006 118.25152344 176.33213379 117.11962891 177.04492188 C114.97064198 178.39919456 112.82407901 179.75732267 110.68017578 181.11962891 C109.71176758 181.72959717 108.74335938 182.33956543 107.74560547 182.96801758 C106.88427002 183.51369385 106.02293457 184.05937012 105.13549805 184.62158203 C103.03857422 185.79223633 103.03857422 185.79223633 101.03857422 185.79223633 C101.04967728 186.87614655 101.06078033 187.96005676 101.07221985 189.07681274 C101.17404181 199.34422669 101.24875219 209.61153679 101.29763508 219.87934303 C101.32361215 225.15683839 101.35879052 230.43392274 101.41577148 235.71118164 C101.47051839 240.81408034 101.50008392 245.91658635 101.51296043 251.01975632 C101.52212431 252.95642647 101.54001703 254.89307769 101.5672245 256.8295784 C101.73828749 269.52197761 101.31371889 280.87951932 94.03857422 291.79223633 C93.84236082 294.51738135 93.75854006 297.13760436 93.77294922 299.86254883 C93.77103577 300.65821259 93.76912231 301.45387634 93.76715088 302.27365112 C93.76578972 303.95986242 93.76948137 305.64608422 93.77783203 307.33227539 C93.78844809 309.88688405 93.7779788 312.44077579 93.76513672 314.99536133 C93.76645998 316.63859203 93.76902581 318.28182228 93.77294922 319.92504883 C93.76687653 321.05524948 93.76687653 321.05524948 93.76068115 322.20828247 C93.83575449 330.9061159 95.03669221 338.83169219 101.45654297 345.19848633 C109.29029643 352.12602153 118.0301817 351.92694188 127.95654297 351.96801758 C130.11996409 351.99122166 132.28337558 352.01533923 134.44677734 352.0402832 C137.83234067 352.07530205 141.21754953 352.10470243 144.60327148 352.11816406 C147.8881247 352.13375482 151.17196243 352.17403555 154.45654297 352.21801758 C155.45276169 352.21610916 156.44898041 352.21420074 157.47538757 352.2122345 C168.70654885 352.40499942 177.89307111 356.01628346 186.03857422 363.79223633 C194.84708375 373.01936809 197.66431723 382.64267956 197.50927734 395.15698242 C197.0410695 406.9842114 192.49020472 415.6333074 183.97216797 423.76489258 C173.75145447 432.37662077 162.93152901 433.40460828 150.03076172 433.32348633 C148.49536902 433.32619021 146.959978 433.33008002 145.42459106 433.33508301 C142.21892873 433.34094673 139.01371516 433.33252457 135.80810547 433.3137207 C131.75057688 433.29104899 127.69411401 433.30399836 123.63662529 433.32801056 C120.46703465 433.34265422 117.2976851 433.33777715 114.12808609 433.32749939 C112.63494865 433.32487685 111.14178749 433.3279393 109.64867783 433.3374176 C82.85603278 433.47011897 59.18114189 423.65097681 40.03857422 404.79223633 C18.60288289 383.39233079 12.62604743 358.02952867 12.57568359 328.8137207 C12.58285491 325.48848177 12.59378665 322.1633303 12.61230469 318.83813477 C12.63728059 314.2508937 12.62557466 309.66470721 12.60498047 305.07739258 C12.62970177 303.29897728 12.62970177 303.29897728 12.65492249 301.4846344 C12.60804431 293.64693346 10.99079112 288.50514154 7.03857422 281.79223633 C4.31929631 274.91062813 4.59057584 267.65974093 4.41357422 260.35473633 C4.37490234 259.05084961 4.33623047 257.74696289 4.29638672 256.40356445 C4.20250721 253.19992634 4.11682268 249.99628801 4.03857422 246.79223633 C-9.24681225 254.54786623 -22.39657711 262.4672437 -35.33935547 270.78344727 C-38.1163268 272.51048603 -39.80181451 272.92079455 -43.04924011 272.93940735 C-44.33345604 272.9501403 -44.33345604 272.9501403 -45.64361572 272.96109009 C-47.05619659 272.96512344 -47.05619659 272.96512344 -48.49731445 272.96923828 C-49.48788345 272.97580948 -50.47845245 272.98238068 -51.4990387 272.989151 C-54.79249139 273.00893035 -58.08589816 273.02056327 -61.37939453 273.03051758 C-63.06963965 273.03663087 -63.06963965 273.03663087 -64.79403114 273.04286766 C-70.76999352 273.06375834 -76.7459328 273.07804126 -82.72192383 273.08740234 C-88.86589179 273.09841105 -95.00949197 273.132738 -101.1533308 273.17257404 C-105.89863201 273.1988704 -110.64384783 273.2071062 -115.38921547 273.21068382 C-117.65157844 273.2155243 -119.91393826 273.22706483 -122.17622948 273.24572182 C-144.58712453 273.41890001 -164.13560027 270.05608467 -180.88476562 253.9921875 C-194.69360037 240.19987614 -202.72628953 223.77961334 -203.96142578 204.12036133 C-203.96142578 200.15931675 -203.69249398 196.29157573 -203.27392578 192.35473633 C-203.20858643 191.69965088 -203.14324707 191.04456543 -203.07592773 190.36962891 C-202.23190012 183.61330675 -200.06529397 177.24637098 -197.96142578 170.79223633 C-198.80439209 169.95450684 -199.6473584 169.11677734 -200.51586914 168.25366211 C-203.63622974 165.15137185 -206.75330401 162.0457976 -209.86938477 158.93920898 C-211.21972353 157.59390577 -212.57095753 156.24950052 -213.9230957 154.90600586 C-215.86400405 152.97719705 -217.80169313 151.04520502 -219.73876953 149.11254883 C-220.34607407 148.51040558 -220.9533786 147.90826233 -221.5790863 147.28787231 C-225.9069177 142.96062412 -227.0345731 141.08652143 -227.48486328 134.96020508 C-226.31595849 130.1188457 -221.84714864 127.61266841 -217.83642578 125.13598633 C-216.21544913 124.18120588 -214.59018022 123.23368733 -212.96142578 122.29223633 C-211.15073436 121.22587776 -209.34086331 120.1581252 -207.53173828 119.08911133 C-206.60522461 118.54319336 -205.67871094 117.99727539 -204.72412109 117.43481445 C-200.39333621 114.85991867 -196.1140641 112.2041977 -191.83642578 109.54223633 C-190.07740889 108.44963112 -188.31829182 107.35718717 -186.55908203 106.26489258 C-185.65432129 105.70302246 -184.74956055 105.14115234 -183.81738281 104.56225586 C-178.64377334 101.35583864 -173.45857149 98.16826639 -168.27392578 94.97973633 C-167.18257324 94.30845703 -166.0912207 93.63717773 -164.96679688 92.94555664 C-162.74191147 91.57714934 -160.51697635 90.20882289 -158.29199219 88.84057617 C-152.8477501 85.49229945 -147.40463688 82.14218874 -141.96142578 78.79223633 C-139.79476471 77.45889391 -137.62809803 76.12556058 -135.46142578 74.79223633 C-134.38892578 74.13223633 -133.31642578 73.47223633 -132.21142578 72.79223633 C-111.62809245 60.12556966 -91.04475911 47.45890299 -70.46142578 34.79223633 C-69.38763672 34.13143066 -68.31384766 33.470625 -67.20751953 32.78979492 C-65.05391846 31.46452687 -62.90027306 30.13933085 -60.74658203 28.81420898 C-55.72256378 25.72291533 -50.69895847 22.63095773 -45.67700195 19.53631592 C-43.33497858 18.09317224 -40.99269383 16.65045311 -38.65039062 15.20776367 C-37.02074287 14.20378005 -35.39146787 13.19919146 -33.76220703 12.19458008 C-32.75544922 11.57454102 -31.74869141 10.95450195 -30.71142578 10.31567383 C-29.40431641 9.51009033 -29.40431641 9.51009033 -28.07080078 8.68823242 C-27.04470703 8.06255371 -26.01861328 7.436875 -24.96142578 6.79223633 C-24.31292223 6.30720107 -23.66441868 5.82216581 -22.9962635 5.32243252 C-15.54527906 0.12843299 -8.8505129 -0.07196058 0 0 Z M-26.05319118 27.40667439 C-28.48057287 29.16918707 -31.01491526 30.71641523 -33.59423828 32.24536133 C-35.09247695 33.17629791 -36.58988991 34.10856486 -38.08642578 35.04223633 C-39.84533443 36.13501578 -41.60445954 37.22744688 -43.36376953 38.31958008 C-44.72091064 39.16238525 -44.72091064 39.16238525 -46.10546875 40.0222168 C-51.27907822 43.22863402 -56.46428007 46.41620627 -61.64892578 49.60473633 C-62.74027832 50.27601562 -63.83163086 50.94729492 -64.95605469 51.63891602 C-67.18094009 53.00732331 -69.40587522 54.37564977 -71.63085938 55.74389648 C-77.07510146 59.09217321 -82.51821468 62.44228392 -87.96142578 65.79223633 C-90.12808686 67.12557875 -92.29475353 68.45891207 -94.46142578 69.79223633 C-95.53392578 70.45223633 -96.60642578 71.11223633 -97.71142578 71.79223633 C-109.62809245 79.12556966 -121.54475911 86.45890299 -133.46142578 93.79223633 C-134.53521484 94.45304199 -135.60900391 95.11384766 -136.71533203 95.79467773 C-138.86893311 97.11994578 -141.0225785 98.44514181 -143.17626953 99.77026367 C-148.20028778 102.86155733 -153.22389309 105.95351492 -158.24584961 109.04815674 C-160.58787298 110.49130041 -162.93015773 111.93401955 -165.27246094 113.37670898 C-166.90210869 114.38069261 -168.53138369 115.38528119 -170.16064453 116.38989258 C-171.67078125 117.31995117 -171.67078125 117.31995117 -173.21142578 118.26879883 C-174.65001953 119.15486816 -174.65001953 119.15486816 -176.11767578 120.05883789 C-179.78589682 122.29478993 -183.48602682 124.47513525 -187.19580078 126.64135742 C-188.06978516 127.21104248 -188.06978516 127.21104248 -188.96142578 127.79223633 C-188.96142578 128.12223633 -188.96142578 128.45223633 -188.96142578 128.79223633 C-174.83484054 129.07448601 -160.7087018 129.28429231 -146.57986069 129.41398239 C-140.01708074 129.47626973 -133.45621167 129.56057035 -126.89453125 129.69750977 C-120.54655811 129.82914055 -114.20040727 129.89990264 -107.8511734 129.93076324 C-105.44474895 129.95271713 -103.03840975 129.99558306 -100.63277435 130.06099701 C-84.10824004 130.49193013 -73.30720185 128.02853565 -59.86966038 118.17779827 C-57.44227869 116.41528559 -54.9079363 114.86805743 -52.32861328 113.33911133 C-50.83037461 112.40817474 -49.33296166 111.47590779 -47.83642578 110.54223633 C-46.07751713 109.44945688 -44.31839202 108.35702578 -42.55908203 107.26489258 C-41.65432129 106.70302246 -40.74956055 106.14115234 -39.81738281 105.56225586 C-34.64377334 102.35583864 -29.45857149 99.16826639 -24.27392578 95.97973633 C-23.18257324 95.30845703 -22.0912207 94.63717773 -20.96679688 93.94555664 C-18.74191147 92.57714934 -16.51697635 91.20882289 -14.29199219 89.84057617 C-8.8477501 86.49229945 -3.40463688 83.14218874 2.03857422 79.79223633 C4.20523529 78.45889391 6.37190197 77.12556058 8.53857422 75.79223633 C9.61107422 75.13223633 10.68357422 74.47223633 11.78857422 73.79223633 C29.66357422 62.79223633 29.66357422 62.79223633 47.53857422 51.79223633 C48.61236328 51.13143066 49.68615234 50.470625 50.79248047 49.78979492 C52.94608154 48.46452687 55.09972694 47.13933085 57.25341797 45.81420898 C62.27743622 42.72291533 67.30104153 39.63095773 72.32299805 36.53631592 C74.66502142 35.09317224 77.00730617 33.65045311 79.34960938 32.20776367 C80.97925713 31.20378005 82.60853213 30.19919146 84.23779297 29.19458008 C85.24455078 28.57454102 86.25130859 27.95450195 87.28857422 27.31567383 C88.24763672 26.72496094 89.20669922 26.13424805 90.19482422 25.52563477 C93.86304526 23.28968272 97.56317526 21.10933741 101.27294922 18.94311523 C102.14693359 18.37343018 102.14693359 18.37343018 103.03857422 17.79223633 C103.03857422 17.46223633 103.03857422 17.13223633 103.03857422 16.79223633 C88.91198898 16.50998665 74.78585024 16.30018035 60.65700912 16.17049026 C54.09422918 16.10820293 47.53336011 16.02390231 40.97167969 15.88696289 C34.62370655 15.7553321 28.27755571 15.68457001 21.92832184 15.65370941 C19.52189738 15.63175552 17.11555818 15.58888959 14.70992279 15.52347565 C-1.81461152 15.09254253 -12.61564972 17.555937 -26.05319118 27.40667439 Z M125.55419922 23.05395508 C124.99145294 23.39578827 124.42870667 23.73762146 123.84890747 24.08981323 C121.99405812 25.21749696 120.14126759 26.34851455 118.28857422 27.47973633 C117.00038318 28.26425484 115.71213404 29.04867796 114.42382812 29.83300781 C105.37549959 35.34626752 96.35647399 40.90596761 87.35498047 46.49536133 C81.36363355 50.21467381 75.35779215 53.91031537 69.35107422 57.60473633 C68.25907715 58.27641846 67.16708008 58.94810059 66.04199219 59.64013672 C63.81775492 61.00813239 61.59347082 62.37605192 59.36914062 63.74389648 C53.92489854 67.09217321 48.48178532 70.44228392 43.03857422 73.79223633 C40.87191314 75.12557875 38.70524647 76.45891207 36.53857422 77.79223633 C35.46607422 78.45223633 34.39357422 79.11223633 33.28857422 79.79223633 C-13.83642578 108.79223633 -13.83642578 108.79223633 -60.96142578 137.79223633 C-55.13513674 144.95024858 -48.52312728 151.31815398 -41.96142578 157.79223633 C-31.8309193 153.09761137 -22.42300051 147.34467077 -12.89111328 141.56079102 C-7.58012551 138.35472473 -2.23832941 135.2006703 3.10107422 132.04223633 C4.25222674 131.36080825 5.40334959 130.67933006 6.55444336 129.99780273 C8.8864155 128.61719411 11.21854478 127.23685149 13.55078125 125.85668945 C18.09654401 123.16635624 22.64066869 120.47326039 27.18457031 117.77978516 C29.40972277 116.46118229 31.63530471 115.14330388 33.86132812 113.82617188 C39.14524989 110.6987241 44.42475335 107.56466588 49.69088745 104.40737915 C52.18366866 102.91338651 54.67865681 101.42310197 57.17382812 99.93310547 C58.36488128 99.22044199 59.55484532 98.50595479 60.74365234 97.78955078 C62.38998827 96.79758188 64.04036804 95.8123338 65.69091797 94.82739258 C66.6292749 94.26415283 67.56763184 93.70091309 68.53442383 93.12060547 C70.75330493 91.94356227 72.58499198 91.24929378 75.03857422 90.79223633 C76.18838796 92.56048775 77.33329344 94.33193154 78.47607422 96.10473633 C79.43320312 97.58393555 79.43320312 97.58393555 80.40966797 99.09301758 C82.03857422 101.79223633 82.03857422 101.79223633 83.03857422 104.79223633 C82.31234863 105.06664551 81.58612305 105.34105469 80.83789062 105.6237793 C78.15464142 106.74378895 75.75452399 108.01633528 73.24951172 109.48754883 C72.32187012 110.03032471 71.39422852 110.57310059 70.43847656 111.13232422 C69.44025879 111.72134521 68.44204102 112.31036621 67.41357422 112.91723633 C66.36250488 113.53397217 65.31143555 114.15070801 64.22851562 114.78613281 C60.82900089 116.78332894 57.43295106 118.7863265 54.03857422 120.79223633 C52.91322266 121.45723145 51.78787109 122.12222656 50.62841797 122.80737305 C43.82322799 126.83208428 37.02362863 130.86615577 30.22509766 134.90209961 C25.49987302 137.70494125 20.76941806 140.49889342 16.03857422 143.29223633 C13.35374028 144.87849148 10.66903833 146.46496979 7.984375 148.05151367 C5.88131495 149.29424682 3.77810868 150.53673252 1.67480469 151.77905273 C-1.30593475 153.53978976 -4.28586909 155.30188366 -7.26538086 157.06469727 C-8.95591252 158.06451191 -10.64713146 159.0631642 -12.33837891 160.06176758 C-14.41471481 161.29069653 -16.48126465 162.5363878 -18.5352478 163.80232239 C-21.96142578 165.79223633 -21.96142578 165.79223633 -25.38577271 167.30375671 C-29.32014754 169.20303511 -31.8414128 170.71213336 -34.96142578 173.79223633 C-36.77453243 179.61318097 -36.48594272 185.16023387 -36.23095703 191.19848633 C-36.20668058 192.89091909 -36.18818959 194.58344383 -36.17521667 196.27600098 C-36.12580009 200.71069889 -35.99834184 205.13977529 -35.85406494 209.57226562 C-35.72057043 214.10314871 -35.66160008 218.63494955 -35.59619141 223.16723633 C-35.45716752 232.04469385 -35.23560135 240.91799607 -34.96142578 249.79223633 C-32.74841097 248.53449169 -30.53621906 247.27533547 -28.32446289 246.01538086 C-27.70539818 245.66373367 -27.08633347 245.31208649 -26.44850922 244.94978333 C-20.70792485 241.67702889 -15.10645245 238.20227726 -9.52392578 234.66723633 C-1.4775963 229.60467723 6.59722136 224.59624318 14.72607422 219.66723633 C22.81799536 214.75863996 30.88282332 209.80948112 38.92529297 204.8203125 C45.84984198 200.52536355 52.78556052 196.24883624 59.72607422 191.97973633 C61.36346558 190.97257568 61.36346558 190.97257568 63.03393555 189.94506836 C65.25858246 188.57683301 67.48327343 187.20866929 69.70800781 185.84057617 C75.1522499 182.49229945 80.59536312 179.14218874 86.03857422 175.79223633 C88.20523529 174.45889391 90.37190197 173.12556058 92.53857422 171.79223633 C93.61107422 171.13223633 94.68357422 170.47223633 95.78857422 169.79223633 C105.53857422 163.79223633 105.53857422 163.79223633 108.79345703 161.78930664 C110.94393721 160.46588444 113.09432893 159.14231849 115.24462891 157.81860352 C120.3034902 154.7046309 125.36321513 151.59208997 130.42614746 148.48474121 C132.80756342 147.02303568 135.18846868 145.56049944 137.56933594 144.09790039 C139.2421793 143.0707242 140.91575707 142.04474436 142.58935547 141.01879883 C143.60900391 140.39231445 144.62865234 139.76583008 145.67919922 139.12036133 C146.57155273 138.57283203 147.46390625 138.02530273 148.38330078 137.46118164 C149.25954102 136.91042969 150.13578125 136.35967773 151.03857422 135.79223633 C152.06110794 135.26371567 153.08364166 134.73519501 154.13716125 134.19065857 C157.36697197 132.00606247 157.36697197 132.00606247 157.92832947 128.17658997 C158.02161347 126.70218826 158.08204256 125.22548406 158.11645508 123.74853516 C158.15748856 122.93954773 158.19852203 122.1305603 158.24079895 121.29705811 C158.36426645 118.61447046 158.43917993 115.93389751 158.50341797 113.24926758 C158.54196994 111.86182626 158.54196994 111.86182626 158.58130074 110.44635582 C158.7124546 105.52880766 158.80319149 100.61224891 158.86450195 95.69335938 C158.92167508 91.66575829 159.05246856 87.65181949 159.25415039 83.62890625 C161.07535496 57.27671196 161.07535496 57.27671196 149.71290302 34.56073666 C144.36213766 29.01979174 138.44966187 24.06266048 132.03857422 19.79223633 C129.83413573 19.79223633 127.327708 21.97445803 125.55419922 23.05395508 Z M-197.96142578 144.79223633 C-193.58770017 149.90917034 -193.58770017 149.90917034 -188.96142578 154.79223633 C-185.77468616 153.38922486 -183.63921172 151.71458561 -181.21142578 149.22973633 C-180.59783203 148.60969727 -179.98423828 147.9896582 -179.35205078 147.35083008 C-177.85046652 146.01600669 -177.85046652 146.01600669 -177.96142578 144.79223633 C-184.56142578 144.79223633 -191.16142578 144.79223633 -197.96142578 144.79223633 Z M-83.96142578 144.79223633 C-83.13642578 145.74098633 -82.31142578 146.68973633 -81.46142578 147.66723633 C-80.91357422 148.3143457 -80.36572266 148.96145508 -79.80126953 149.62817383 C-78.56150012 151.08641641 -77.30311614 152.52901116 -76.02783203 153.95629883 C-61.45717962 170.94119189 -58.389856 191.02504809 -59.96142578 212.79223633 C-61.82463477 228.36826917 -69.92735686 241.56847689 -80.73876953 252.49926758 C-82.98279099 254.58378396 -82.98279099 254.58378396 -83.96142578 256.79223633 C-73.07142578 256.79223633 -62.18142578 256.79223633 -50.96142578 256.79223633 C-50.32132864 246.32418621 -49.81129775 235.86965977 -49.51068497 225.38625717 C-49.36617126 220.51436479 -49.17161872 215.65682579 -48.84912109 210.79321289 C-46.88431261 185.769298 -46.88431261 185.769298 -57.14306641 163.80981445 C-67.85698761 151.35046962 -67.85698761 151.35046962 -81.87091064 144.5055542 C-82.56078064 144.6001593 -83.25065063 144.6947644 -83.96142578 144.79223633 Z M-171.17626953 161.81567383 C-181.24016842 172.20795329 -186.98629476 186.5041954 -186.95703125 200.96362305 C-186.25269697 217.57632419 -179.85537619 231.42540694 -167.83642578 243.04223633 C-160.34747486 249.35008754 -150.63799287 254.17947515 -140.96142578 255.79223633 C-140.23181641 255.9237207 -139.50220703 256.05520508 -138.75048828 256.19067383 C-126.4603433 257.98050077 -115.15288625 254.66293839 -103.96142578 249.79223633 C-103.96142578 249.46223633 -103.96142578 249.13223633 -103.96142578 248.79223633 C-104.76064453 248.76645508 -105.55986328 248.74067383 -106.38330078 248.71411133 C-121.35658674 247.94084304 -132.88315716 243.47258687 -143.27392578 232.47973633 C-153.65835083 220.16527672 -155.2095619 206.31572981 -153.96142578 190.79223633 C-151.70999424 178.29476904 -144.08251018 168.20555916 -133.96142578 160.79223633 C-124.28007613 154.96563539 -115.12023359 153.42988249 -103.96142578 152.79223633 C-123.57636398 136.24951736 -154.57918263 146.65290308 -171.17626953 161.81567383 Z M-131.96142578 180.79223633 C-137.91826753 189.5645008 -138.77003543 197.25753314 -137.96142578 207.79223633 C-135.77764763 217.03897696 -130.80244477 223.22361866 -122.83642578 228.16723633 C-117.56705955 231.23692943 -113.8028038 231.92094696 -107.71142578 231.85473633 C-106.09494141 231.84120117 -106.09494141 231.84120117 -104.44580078 231.82739258 C-103.62595703 231.81579102 -102.80611328 231.80418945 -101.96142578 231.79223633 C-103.61847286 230.68753828 -105.29018996 229.60123999 -107.01220703 228.60083008 C-114.89991209 223.81916432 -119.54855108 217.74498408 -121.96142578 208.79223633 C-122.95681654 197.72719483 -122.0277865 189.01137626 -115.83642578 179.54223633 C-112.49916027 176.35006932 -108.99461983 174.22821725 -104.97314453 171.99145508 C-104.30927734 171.59571289 -103.64541016 171.1999707 -102.96142578 170.79223633 C-102.96142578 170.46223633 -102.96142578 170.13223633 -102.96142578 169.79223633 C-114.72129785 168.98737816 -124.01478049 171.75071991 -131.96142578 180.79223633 Z M-104.33642578 192.41723633 C-106.54050471 196.99493872 -106.75858969 200.79776044 -105.96142578 205.79223633 C-103.63173647 210.63082181 -100.80001126 213.46254702 -95.96142578 215.79223633 C-90.96694989 216.58940023 -87.16412818 216.37131526 -82.58642578 214.16723633 C-79.00234865 210.92449988 -76.36607337 208.32747736 -75.57861328 203.39379883 C-75.32258659 197.71000639 -76.02515647 194.14284978 -79.96142578 189.79223633 C-84.31203924 185.85596701 -87.87919584 185.15339714 -93.56298828 185.40942383 C-98.49666682 186.19688392 -101.09368933 188.8331592 -104.33642578 192.41723633 Z M79.16357422 199.07348633 C78.3561377 199.57783203 77.54870117 200.08217773 76.71679688 200.60180664 C75.39107666 201.43856934 75.39107666 201.43856934 74.03857422 202.29223633 C72.12999764 203.4853888 70.22112987 204.67807559 68.31201172 205.87036133 C67.2959082 206.50651367 66.27980469 207.14266602 65.23291016 207.7980957 C60.84072342 210.54002335 56.43538715 213.26009399 52.02246094 215.96850586 C49.78335333 217.3509001 47.55311645 218.7477668 45.33203125 220.15893555 C40.67237906 223.09741075 36.24678661 225.87059379 31.05419922 227.75317383 C25.05771508 230.030893 25.05771508 230.030893 21.03857422 234.79223633 C18.0121062 249.83286529 18.77475396 270.53537951 27.34716797 283.56958008 C32.22232687 289.97596672 38.17952905 293.88895736 46.03857422 295.79223633 C55.84120396 296.89517285 64.04078539 295.8753871 72.25341797 290.28442383 C80.74492612 283.48489216 83.79847419 275.35063605 85.03857422 264.79223633 C85.29014768 259.47311954 85.27308178 254.16575466 85.23388672 248.84301758 C85.23014755 247.33416432 85.22730486 245.8253086 85.22531128 244.31645203 C85.21774584 240.3824673 85.19816004 236.44863484 85.17590332 232.51470947 C85.15529039 228.48549457 85.14627683 224.4562546 85.13623047 220.42700195 C85.11490599 212.54867757 85.08085792 204.67047599 85.03857422 196.79223633 C82.43359583 196.79223633 81.36715218 197.68716942 79.16357422 199.07348633 Z M29.03857422 307.79223633 C28.60064356 340.80210189 29.96307478 369.90291719 54.03857422 394.79223633 C74.97489205 414.91019646 102.08718094 417.16035997 129.6862793 417.05297852 C132.99464912 417.04217568 136.30248555 417.05297475 139.61083984 417.06567383 C141.7417004 417.0643534 143.87256063 417.06179343 146.00341797 417.05786133 C147.46617409 417.06393402 147.46617409 417.06393402 148.95848083 417.07012939 C158.42365561 417.00587626 166.70131781 416.16789026 173.66748047 409.15161133 C179.18238781 403.03870199 180.50628897 398.0110568 180.35498047 389.80004883 C179.63674247 382.97235423 176.25163467 378.15665903 171.03857422 373.79223633 C163.29773153 368.29753744 155.21415775 368.65468475 146.02294922 368.61645508 C143.86278325 368.59325474 141.70262697 368.56913731 139.54248047 368.54418945 C136.16790269 368.509155 132.79368251 368.47975668 129.41894531 368.46630859 C126.14068274 368.45072066 122.86343838 368.41044748 119.58544922 368.36645508 C118.09582672 368.3693177 118.09582672 368.3693177 116.57611084 368.37223816 C105.48260707 368.18119413 95.9881357 364.65180278 88.03857422 356.79223633 C78.89257503 346.04479759 77.57646896 335.95287066 77.35107422 322.22973633 C77.31783474 320.82540892 77.28333917 319.42111066 77.24755859 318.0168457 C77.16557627 314.60872325 77.09626077 311.20084207 77.03857422 307.79223633 C76.36310547 307.99719727 75.68763672 308.2021582 74.99169922 308.41333008 C74.09966797 308.68274414 73.20763672 308.9521582 72.28857422 309.22973633 C71.40685547 309.49657227 70.52513672 309.7634082 69.61669922 310.03833008 C56.77876384 313.79245361 43.32170268 312.86865842 31.03857422 307.79223633 C30.37857422 307.79223633 29.71857422 307.79223633 29.03857422 307.79223633 Z " fill="#000000" transform="translate(242.96142578125,15.207763671875)"/>
<path d="M0 0 C18.18461578 -0.09256127 36.36915084 -0.16396057 54.55395126 -0.20724869 C62.99731206 -0.22788158 71.44052388 -0.25601595 79.88378906 -0.30175781 C87.24220447 -0.34160347 94.600512 -0.36742753 101.9590323 -0.37635398 C105.85604089 -0.38157263 109.75274083 -0.39385306 113.64965057 -0.42292023 C117.31700451 -0.45005371 120.98392241 -0.45844936 124.65136719 -0.45243073 C126.6402136 -0.4540573 128.62901242 -0.47559095 130.61773682 -0.49768066 C131.80121704 -0.49218201 132.98469727 -0.48668335 134.20404053 -0.48101807 C135.2327615 -0.48470524 136.26148247 -0.48839241 137.3213768 -0.49219131 C140.83142172 0.15277197 141.96558005 1.07913525 144 4 C144.50336456 7.10473633 144.50336456 7.10473633 144.50793457 10.83203125 C144.51417453 11.51866348 144.5204145 12.20529572 144.52684355 12.91273499 C144.54279568 15.21300621 144.53016168 17.51222097 144.51757812 19.8125 C144.5229983 21.46175759 144.53012037 23.11101034 144.53881836 24.76025391 C144.55706725 29.23960216 144.5499778 33.71858225 144.53730202 38.19793701 C144.52718243 42.88327026 144.5365648 47.56857177 144.54284668 52.25390625 C144.55012613 60.12245347 144.5405276 67.99085057 144.52148438 75.859375 C144.49971504 84.95945771 144.5067662 94.05918196 144.52879 103.15925598 C144.54693554 110.96913219 144.54950647 118.77890042 144.53903532 126.58879089 C144.53279573 131.25472897 144.53197752 135.9204985 144.54518127 140.58642578 C144.55672689 144.97288817 144.54873787 149.35888794 144.52560425 153.74530029 C144.52031022 155.35617301 144.5218428 156.96708458 144.53065491 158.57794189 C144.5415674 160.77514501 144.5279014 162.97086074 144.50793457 165.16796875 C144.50642647 166.39797607 144.50491837 167.6279834 144.50336456 168.89526367 C144 172 144 172 142.39525604 174.39525604 C139.17582955 176.5521675 137.03339451 176.5031952 133.16796875 176.50793457 C132.48133652 176.51417453 131.79470428 176.5204145 131.08726501 176.52684355 C128.78699379 176.54279568 126.48777903 176.53016168 124.1875 176.51757812 C122.53824241 176.5229983 120.88898966 176.53012037 119.23974609 176.53881836 C114.76039784 176.55706725 110.28141775 176.5499778 105.80206299 176.53730202 C101.11672974 176.52718243 96.43142823 176.5365648 91.74609375 176.54284668 C83.87754653 176.55012613 76.00914943 176.5405276 68.140625 176.52148438 C59.04054229 176.49971504 49.94081804 176.5067662 40.84074402 176.52879 C33.03086781 176.54693554 25.22109958 176.54950647 17.41120911 176.53903532 C12.74527103 176.53279573 8.0795015 176.53197752 3.41357422 176.54518127 C-0.97288817 176.55672689 -5.35888794 176.54873787 -9.74530029 176.52560425 C-11.35617301 176.52031022 -12.96708458 176.5218428 -14.57794189 176.53065491 C-16.77514501 176.5415674 -18.97086074 176.5279014 -21.16796875 176.50793457 C-22.39797607 176.50642647 -23.6279834 176.50491837 -24.89526367 176.50336456 C-28.59689145 175.90322721 -29.78783688 174.98009029 -32 172 C-32.45410156 168.97558594 -32.45410156 168.97558594 -32.390625 165.484375 C-32.37773437 164.23398437 -32.36484375 162.98359375 -32.3515625 161.6953125 C-32.31804687 160.39335937 -32.28453125 159.09140625 -32.25 157.75 C-32.23195313 156.43257812 -32.21390625 155.11515625 -32.1953125 153.7578125 C-32.14816882 150.50489844 -32.07642616 147.25235783 -32 144 C-26.72 144 -21.44 144 -16 144 C-16 149.28 -16 154.56 -16 160 C31.52 160 79.04 160 128 160 C128 112.48 128 64.96 128 16 C85.76 16 43.52 16 0 16 C0 10.72 0 5.44 0 0 Z " fill="#000000" transform="translate(352,320)"/>
<path d="M0 0 C5.82485779 3.51996782 10.54466582 8.98962934 12.5625 15.5 C13.36764105 23.33608208 13.68710392 31.11922577 8.5625 37.5 C3.75801361 42.54521222 -0.59927055 46.10562995 -7.70703125 46.8359375 C-16.22326573 46.92983204 -22.11345494 46.6177288 -28.40234375 40.62890625 C-34.7841668 33.72505269 -35.91792252 28.29832071 -35.7421875 18.9453125 C-35.04689797 11.08319245 -31.38995981 6.95041296 -25.53515625 1.9453125 C-18.47077988 -2.92213491 -7.84396301 -3.47595223 0 0 Z M-16.8125 17.125 C-18.92456506 20.21186432 -19.04945145 21.8282913 -18.4375 25.5 C-16.9375 28 -16.9375 28 -14.4375 29.5 C-10.7657913 30.11195145 -9.14936432 29.98706506 -6.0625 27.875 C-3.95043494 24.78813568 -3.82554855 23.1717087 -4.4375 19.5 C-5.9375 17 -5.9375 17 -8.4375 15.5 C-12.1092087 14.88804855 -13.72563568 15.01293494 -16.8125 17.125 Z " fill="#000000" transform="translate(307.4375,257.5)"/>
<path d="M0 0 C2.96829766 1.7809786 4.12793803 4.66681846 5.60546875 7.67578125 C5.92128906 8.29130859 6.23710937 8.90683594 6.5625 9.54101562 C7.33908764 11.05889146 8.09892436 12.58531659 8.85546875 14.11328125 C-5.84453125 24.11328125 -5.84453125 24.11328125 -9.14453125 24.11328125 C-13.10453125 17.18328125 -13.10453125 17.18328125 -17.14453125 10.11328125 C-14.2684305 7.2371805 -11.67878899 5.44032791 -8.20703125 3.36328125 C-7.16675781 2.7290625 -6.12648438 2.09484375 -5.0546875 1.44140625 C-2.14453125 0.11328125 -2.14453125 0.11328125 0 0 Z " fill="#000000" transform="translate(348.14453125,86.88671875)"/>
</svg>
