<svg width="28" height="24" viewBox="0 0 28 24" fill="none" xmlns="http://www.w3.org/2000/svg">
<g id="Layer_1" clip-path="url(#clip0_56_83)">
<path id="Vector" d="M10.8718 21.0829C10.6732 20.6301 10.6682 20.4169 11.0332 20.1239C11.778 19.5245 11.9344 18.672 11.5099 17.7636C11.3366 17.3963 11.0582 17.0982 10.7155 16.9131C10.3728 16.7279 9.98384 16.6655 9.60566 16.7349C9.22748 16.8043 8.87998 17.002 8.61412 17.2988C8.34826 17.5956 8.17804 17.9761 8.12841 18.3843C8.01173 19.3353 8.40896 20.0466 9.1935 20.5581C9.39956 20.6913 9.86134 20.4995 9.77941 21.3573C7.51518 20.353 5.40488 21.4319 3.24492 21.7676C2.99665 22.5028 3.29458 23.2035 2.96438 23.8402C2.85876 23.8838 2.74879 23.9142 2.63666 23.9307C-0.00246041 24.0906 -0.00245921 24.0906 2.34984e-05 21.2268V13.6077C1.05269 13.3626 2.02343 13.4559 2.97927 13.5278C3.4063 14.5135 2.62425 15.8455 3.47582 16.4449C4.14367 16.9138 5.19633 16.7326 6.07024 16.8978C8.19048 17.3 8.33944 17.1802 8.33696 14.8651V11.9827C7.50773 11.2847 6.24155 12.4409 5.88653 11.1062C5.6606 10.2511 5.84432 9.27074 5.84432 8.39695C5.68791 8.30371 5.62087 8.22912 5.54887 8.22645C3.51553 8.12256 3.62726 8.11723 3.49319 5.86082C3.27719 2.20581 5.90142 -0.069252 8.88564 1.20732e-05C14.7548 0.141204 20.6313 0.0373102 26.5129 0.0479662C26.9548 0.0479662 27.4265 -0.093225 28.0025 0.356992C27.4364 2.02732 26.8605 3.75892 26.2646 5.47987C25.3137 8.20248 25.3063 8.19981 22.5803 8.19715H20.9864V11.6604H11.4826C11.7035 13.717 11.0804 15.6564 12.1529 17.5505C12.8679 18.8265 12.2745 20.052 10.8718 21.0829ZM26.925 1.07627C26.4285 0.740607 25.9567 0.879134 25.5148 0.879134C20.0529 0.879134 14.5909 0.985696 9.12894 0.831184C5.61591 0.732616 3.5354 3.2128 4.49124 7.37397C6.70582 7.37397 8.93777 7.37397 11.1672 7.37397C11.4978 7.38744 11.8246 7.29467 12.1057 7.10757C13.3471 6.26042 14.7548 5.78889 15.9688 4.87514C16.6808 4.36173 17.5308 4.11454 18.387 4.17184C20.6214 4.25443 22.8558 4.19582 25.0903 4.20381C25.5123 4.20381 25.9121 4.2411 26.0834 3.67101C26.349 2.79721 26.6445 1.93674 26.925 1.07627ZM6.60402 10.8159H20.1149V8.2744H6.63382C6.42261 9.10505 6.41235 9.97978 6.60402 10.8159ZM13.4662 7.37131H23.1488C25.0108 7.37131 25.2194 7.15286 25.3659 5.01367C23.5063 5.01367 21.6418 5.16285 19.8021 4.97637C17.4113 4.73928 15.5244 5.74627 13.4662 7.37131ZM0.851591 14.4043V23.0703C1.37048 23.1342 1.80992 23.2061 2.28908 23.0063V14.3776C1.75778 14.2791 1.32082 14.2205 0.851591 14.4043ZM3.1332 17.2601V20.8325C4.69234 20.7659 6.06776 20.2997 7.50773 20.0173C7.41091 19.2687 7.33147 18.632 7.23961 17.9154C5.85674 17.8408 4.60297 17.2308 3.1332 17.2601ZM9.15874 11.8335V15.8615H10.6484V11.7749C10.1071 11.7163 9.66273 11.639 9.15874 11.8335Z" fill="#353535"/>
</g>
<defs>
<clipPath id="clip0_56_83">
<rect width="28" height="24" fill="white"/>
</clipPath>
</defs>
</svg>
