<svg width="24" height="24" viewBox="0 0 24 24" fill="none" xmlns="http://www.w3.org/2000/svg">
<g id="Frame 6">
<path id="Union" fill-rule="evenodd" clip-rule="evenodd" d="M11.3275 0.0268074C9.33116 0.171011 7.39456 0.771967 5.66692 1.78337C5.6098 1.88698 5.5265 1.8846 5.39442 1.82029L5.5503 1.675C5.57772 1.59823 5.6053 1.52146 5.63289 1.44465L5.63293 1.44454L5.63297 1.44443C5.71193 1.22462 5.79101 1.00448 5.86683 0.783022C5.94894 0.55199 5.99415 0.293566 5.68715 0.194722C5.38014 0.0958785 5.25758 0.319766 5.16952 0.551989C4.89583 1.27129 4.62691 1.99257 4.36274 2.71584C4.21994 3.10764 4.33775 3.32081 4.78279 3.33391C5.4143 3.35277 6.04208 3.38285 6.66908 3.41289L6.6695 3.41291C6.83393 3.42078 6.9983 3.42866 7.16268 3.43633C7.43399 3.44942 7.72314 3.45181 7.71719 3.08501C7.71124 2.73727 7.42328 2.71226 7.15316 2.71226H5.89301C5.90576 2.64848 5.93173 2.58808 5.96924 2.53496C6.00674 2.48183 6.05496 2.43716 6.11077 2.40382C8.38832 1.01525 10.8753 0.434091 13.5051 0.842567C17.865 1.5178 20.9863 3.9234 22.532 8.0677C24.0777 12.212 23.2829 16.0443 20.4472 19.4431C20.4093 19.4882 20.3689 19.5313 20.3286 19.5744L20.3286 19.5745C20.2741 19.6327 20.2197 19.6909 20.1712 19.7539C20.1402 19.7865 20.116 19.8251 20.1002 19.8673C20.0844 19.9094 20.0772 19.9543 20.0791 19.9993C20.081 20.0443 20.0919 20.0885 20.1112 20.1292C20.1305 20.1699 20.1578 20.2063 20.1914 20.2362C20.3627 20.4053 20.5496 20.3898 20.7114 20.2207C20.9042 20.0207 21.0957 19.8194 21.2695 19.6038C23.6863 16.5897 24.4871 13.1742 23.7196 9.40387C22.5701 3.75072 17.0702 -0.373332 11.3275 0.0268074ZM18.852 18.2663L18.838 18.2652C18.8061 18.2627 18.7703 18.2599 18.7289 18.2569L18.7301 18.2522V8.38923C18.7301 6.73389 18.7301 6.73389 17.0725 6.73389C16.2741 6.73508 16.2681 6.73865 16.2681 7.52345V17.5793C16.2681 17.6268 16.2707 17.6749 16.2734 17.7235C16.2826 17.893 16.2921 18.0695 16.1932 18.2546C16.1198 18.2567 16.0455 18.2613 15.9705 18.2659C15.7088 18.2822 15.4378 18.299 15.1603 18.2129C15.1603 17.433 15.162 16.6544 15.1637 15.8769V15.8766C15.1672 14.3248 15.1706 12.7773 15.1603 11.2319C15.1585 10.9579 15.1631 10.7273 15.167 10.5333V10.5333C15.1772 10.0288 15.1824 9.77125 15.0562 9.63955C14.9247 9.50225 14.6503 9.50172 14.09 9.50064H14.09C13.9041 9.50029 13.6867 9.49987 13.4325 9.49437C12.8625 9.48127 12.6733 9.6742 12.6733 10.2482C12.6892 12.4397 12.6825 14.6264 12.6758 16.8127L12.6733 17.6317C12.6733 17.6786 12.6773 17.7266 12.6813 17.7752C12.695 17.9414 12.7094 18.1157 12.5686 18.2843C12.4469 18.2643 12.3222 18.2699 12.1943 18.2757C11.9945 18.2847 11.7866 18.294 11.569 18.2069V17.6115C11.569 17.1367 11.5683 16.6616 11.5676 16.1863V16.1857V16.1851V16.1849C11.5657 14.9354 11.5638 13.6844 11.575 12.4347C11.5786 11.9869 11.4382 11.7642 10.9622 11.7904C10.5464 11.8118 10.1297 11.8118 9.71392 11.7904C9.25698 11.769 9.07968 11.9547 9.0892 12.4216C9.10528 13.2684 9.1021 14.1153 9.09892 14.9622L9.09892 14.9629C9.09763 15.3067 9.09634 15.6505 9.09634 15.9942V18.2831C8.92546 18.2693 8.76307 18.274 8.60546 18.2786C8.32954 18.2866 8.06826 18.2942 7.80168 18.201C7.80168 17.8389 7.80038 17.4786 7.79909 17.1195L7.79908 17.1192C7.79591 16.2393 7.79276 15.3668 7.80882 14.4949C7.81834 14.0221 7.64104 13.8471 7.18053 13.8816C6.82422 13.9126 6.46589 13.9126 6.10958 13.8816C5.5503 13.828 5.33254 14.015 5.35396 14.6104C5.38247 15.4578 5.37671 16.3064 5.37082 17.1749V17.1749V17.175V17.175C5.36836 17.5392 5.36586 17.907 5.36586 18.2796C5.26237 18.2796 5.16503 18.2797 5.07275 18.2798C4.9019 18.2801 4.74843 18.2803 4.60549 18.2796C4.38535 18.2784 4.2021 18.3415 4.18782 18.5951C4.17354 18.8702 4.35084 18.981 4.59835 18.9965C4.70386 19.0012 4.8099 18.9997 4.91577 18.9981H4.91583H4.91589H4.91602C4.96886 18.9973 5.02166 18.9965 5.07433 18.9965H18.9884L19.0132 18.9964C19.2682 18.9956 19.5425 18.9947 19.5667 18.6487C19.5919 18.2762 19.3188 18.2767 19.061 18.2771L19.0336 18.2772C18.9808 18.2764 18.9279 18.2722 18.852 18.2663ZM17.0368 18.245V7.48296H17.9686V18.245H17.0368ZM13.4384 18.251V10.2827C13.6915 10.2087 13.9334 10.2247 14.1966 10.2421L14.1967 10.2421C14.2553 10.246 14.315 10.2499 14.3761 10.253V18.2319C14.1006 18.3096 13.8123 18.2841 13.4941 18.2559H13.4941L13.4384 18.251ZM9.84957 18.245V12.5561C10.1641 12.4987 10.4861 12.4959 10.8015 12.5478V18.245H9.84957ZM6.13219 18.2462V14.639H7.02108V18.2462H6.13219ZM18.1019 21.3211C17.9749 21.3122 17.8509 21.3042 17.729 21.2965C17.4624 21.2795 17.2059 21.2631 16.9512 21.2378C16.7203 21.2151 16.5121 21.1365 16.5323 20.8448C16.5525 20.553 16.7536 20.503 16.9976 20.5209C17.196 20.5351 17.3944 20.549 17.5928 20.5629C18.1261 20.6004 18.6593 20.6379 19.1918 20.6804C19.5762 20.7114 19.7083 20.9186 19.581 21.289C19.4381 21.7096 19.2986 22.132 19.1591 22.5543L19.159 22.5545C19.0754 22.8077 18.9917 23.0609 18.9074 23.3135C18.8313 23.541 18.698 23.7208 18.4315 23.6303C18.1649 23.5398 18.1459 23.3528 18.2113 23.1003C18.2376 22.9983 18.2762 22.8992 18.3153 22.7989C18.3986 22.5854 18.484 22.3665 18.4565 22.1024C17.0331 22.9762 15.4545 23.5666 13.8073 23.8411C7.75052 24.8878 1.51164 20.6471 0.280049 14.5843C-0.486276 10.8127 0.316937 7.39725 2.72896 4.37953C2.80392 4.28665 2.88008 4.19614 2.96694 4.10801C2.98816 4.08461 3.00957 4.05999 3.03127 4.03503C3.21165 3.82762 3.41253 3.59664 3.694 3.84006C3.9701 4.07884 3.77001 4.30119 3.58974 4.50151L3.58974 4.50151C3.56412 4.52998 3.5389 4.558 3.51551 4.58556C-1.71073 10.7341 0.759597 20.0481 8.31813 22.624C11.6571 23.7613 14.8628 23.3849 17.9008 21.5736C17.9655 21.5317 18.0272 21.4851 18.0852 21.4343C18.0909 21.4293 18.0919 21.4178 18.0941 21.3924V21.3924C18.0956 21.3755 18.0976 21.3525 18.1019 21.3211ZM9.83187 4.39005C9.89046 4.48219 9.94985 4.57556 10.009 4.67129C9.95183 4.70893 9.89604 4.74593 9.84116 4.78233C9.72939 4.85647 9.62138 4.9281 9.51284 4.99759C9.08745 5.26594 8.66253 5.53506 8.2376 5.80419C6.99363 6.59205 5.74959 7.37996 4.49365 8.14868C4.04147 8.42616 3.98792 8.66553 4.29493 9.0883C4.52679 9.40696 4.73163 9.74578 4.93667 10.0849C5.0389 10.254 5.14118 10.4232 5.24689 10.59C5.67571 11.2665 5.67764 11.2652 6.33347 10.8541L6.33688 10.852C8.13449 9.72383 9.94479 8.5905 11.7678 7.45201C11.836 7.5586 11.9012 7.66306 11.9651 7.76543C12.1096 7.99704 12.2474 8.21795 12.3985 8.42854C12.6555 8.78343 12.9375 8.7739 13.1124 8.37495C13.7728 6.87562 14.4118 5.36796 15.0461 3.85791C15.1734 3.5447 15.0865 3.30534 14.6974 3.28747C14.3553 3.27135 14.0132 3.25496 13.6711 3.23858C12.3711 3.17631 11.0711 3.11405 9.77106 3.06597C9.34863 3.05049 9.21059 3.30891 9.41407 3.6888C9.53726 3.92682 9.68198 4.15438 9.83187 4.39005ZM10.6159 4.24495L10.4172 3.92222H14.2191C13.9381 4.57714 13.6722 5.19797 13.4118 5.80568C13.1761 6.35604 12.945 6.89565 12.7114 7.4401C11.8791 6.5084 11.8784 6.50883 10.8101 7.18241L10.8075 7.18406L5.9085 10.2554L4.94107 8.74413L8.39191 6.56718C9.044 6.15593 9.69609 5.74547 10.3482 5.3358C11.0181 4.91542 11.0205 4.90589 10.6159 4.24495Z" fill="#0C0E0F"/>
</g>
</svg>
