<svg width="16" height="23" viewBox="0 0 16 23" fill="none" xmlns="http://www.w3.org/2000/svg">
<g id="Union">
<mask id="path-1-inside-1_56_92" fill="white">
<path fill-rule="evenodd" clip-rule="evenodd" d="M4.72167 -0.00336933H5.13961H7.33376H7.75169V0.35466V1.89776L7.77926 1.89991C7.81218 1.90247 7.84907 1.90534 7.89067 1.9087C8.21256 1.9347 8.68928 1.98349 9.18062 2.17776C9.87276 2.45142 10.3501 2.67806 10.7612 2.92621C11.1717 3.17394 11.5042 3.43608 11.9065 3.76573L12.2153 4.01877L11.9131 4.27762L9.82343 6.06777L9.49325 6.35062L9.20155 6.03826C8.93982 5.75799 8.47071 5.53248 7.93502 5.36859C7.41728 5.21018 6.89441 5.12647 6.57464 5.09798C5.32171 5.06578 4.99844 5.37846 4.93977 5.51771C4.87686 5.66702 4.97282 5.93954 5.31355 6.11386C8.18292 6.9657 9.83562 7.76638 10.8117 8.57866C11.8159 9.41439 12.0743 10.2382 12.2381 11.0333L12.2445 11.0642V11.0955C12.2445 11.151 12.2431 11.206 12.2405 11.2605C12.7747 11.6581 13.3044 12.2447 13.7072 12.8857L13.8117 15.0339H12.14C12.2797 14.1959 12.015 13.5043 11.6567 12.9994C11.3648 13.4428 10.9829 13.8329 10.5541 14.1682C10.0603 14.5545 9.49898 14.873 8.92767 15.1234H15.4834V17.4505H4.19926V15.3788C2.22386 14.9528 0.828185 14.1514 0.253772 13.6817L0 13.4742L0.194605 13.2241L1.86634 11.0759L2.12283 10.7464L2.47976 10.9982C3.13546 11.4608 4.04866 11.8237 4.84935 12.0487C5.24715 12.1605 5.60393 12.2345 5.87186 12.27C5.88001 12.2711 5.88804 12.2722 5.89594 12.2732C5.91198 12.2752 5.92752 12.2771 5.94257 12.2788C5.95744 12.2804 5.97182 12.282 5.98571 12.2834C6.44818 11.7042 6.9942 11.219 7.50899 10.9541C7.44707 10.807 7.24148 10.6438 6.80979 10.5468C4.20829 9.96222 2.68405 9.1274 1.81168 8.24575C0.933149 7.35787 0.751311 6.45854 0.751311 5.8146C0.751311 4.68335 1.50309 3.79514 2.37116 3.14987C3.13957 2.57867 4.03894 2.16652 4.72167 1.9082V0.35466V-0.00336933ZM10.2293 9.09228C10.9102 9.65896 11.1732 10.2032 11.3284 10.785C11.2116 10.7539 11.0985 10.7375 10.9907 10.7375L10.7817 12.1696C10.8722 12.2229 10.9757 12.2948 11.0846 12.3842C10.8335 12.8603 10.4512 13.2791 9.99055 13.6394C9.16067 14.2885 8.09623 14.7301 7.16867 14.9457C7.14963 14.9461 7.13062 14.9464 7.11164 14.9468C6.9147 13.4903 7.93665 12.4914 8.48307 12.1696L8.34743 11.24C8.36149 11.1688 8.36762 11.0974 8.36537 11.0261C8.34446 10.3611 7.64724 9.99467 7.02186 9.85414C4.52458 9.29301 3.17553 8.5167 2.4493 7.78274C1.72924 7.05501 1.58718 6.33426 1.58718 5.8146C1.58718 4.9767 2.14143 4.26869 2.91898 3.6907C3.69432 3.11436 4.64123 2.70695 5.29824 2.47604L5.55754 2.38491V2.14481V0.712689H6.91582V2.14481C6.91582 2.31444 7.02823 2.43385 7.1424 2.49767C7.23462 2.54922 7.33371 2.56973 7.3924 2.57995C7.48936 2.59683 7.61777 2.60664 7.73418 2.61553L7.73485 2.61558L7.73611 2.61568L7.78396 2.61936L7.8122 2.62159C8.11404 2.64597 8.47318 2.68669 8.83035 2.82791C9.4965 3.0913 9.92472 3.29727 10.2798 3.51157C10.5369 3.66679 10.762 3.83006 11.0177 4.03205L9.52947 5.30693C9.14538 5.02765 8.66339 4.83108 8.21615 4.69424C7.61999 4.51185 7.02214 4.41666 6.64396 4.38426L6.62994 4.38306L6.61585 4.38267C5.28941 4.34602 4.41334 4.65804 4.15355 5.2746C3.89954 5.87747 4.36058 6.47996 4.93664 6.75413L4.96859 6.76933L5.00314 6.77956C7.85725 7.6242 9.38115 8.38647 10.2293 9.09228ZM5.55445 12.9492L5.46142 14.8619C3.36875 14.6081 1.82716 13.8531 1.09491 13.3581L2.31618 11.7888C3.02198 12.2089 3.86433 12.5255 4.58878 12.7291C4.93838 12.8274 5.26934 12.9018 5.55445 12.9492ZM4.19926 17.9876H15.4834V20.3148H4.19926V17.9876ZM15.4834 20.6728H9.84135H4.19926V23H10.5541H15.4834V20.6728Z"/>
</mask>
<path d="M23.9964 -1C23.9035 -0.508706 23.9035 -0.508713 23.9035 -0.50872C23.9035 -0.508723 23.9034 -0.50873 23.9034 -0.508734C23.9034 -0.508744 23.9033 -0.508753 23.9033 -0.508763C23.9032 -0.508781 23.9031 -0.5088 23.903 -0.508819C23.9028 -0.508857 23.9026 -0.508894 23.9024 -0.508932C23.902 -0.509008 23.9016 -0.509084 23.9012 -0.509161C23.9004 -0.509315 23.8996 -0.509471 23.8988 -0.509629C23.8972 -0.509945 23.8956 -0.51027 23.894 -0.510604C23.8908 -0.511273 23.8876 -0.511981 23.8844 -0.512731C23.8779 -0.514229 23.8713 -0.515916 23.8645 -0.517828L24.1355 -1.48041C24.1264 -1.48296 24.118 -1.48509 24.1104 -1.48686C24.1065 -1.48776 24.1028 -1.48856 24.0993 -1.4893C24.0976 -1.48967 24.0959 -1.49002 24.0942 -1.49035C24.0934 -1.49051 24.0926 -1.49068 24.0918 -1.49083C24.0913 -1.49091 24.0909 -1.49099 24.0905 -1.49107C24.0903 -1.4911 24.0901 -1.49114 24.0899 -1.49118C24.0898 -1.4912 24.0897 -1.49122 24.0896 -1.49124C24.0896 -1.49125 24.0895 -1.49126 24.0895 -1.49127C24.0895 -1.49127 24.0894 -1.49128 24.0894 -1.49128C24.0894 -1.49129 24.0893 -1.49129 23.9964 -1ZM4.72167 -0.00336933V-1.00337H3.72167V-0.00336933H4.72167ZM7.75169 -0.00336933H8.75169V-1.00337H7.75169V-0.00336933ZM7.75169 1.89776H6.75169V2.82294L7.67407 2.89475L7.75169 1.89776ZM7.77926 1.89991L7.70164 2.89689L7.70181 2.89691L7.77926 1.89991ZM7.89067 1.9087L7.97119 0.911943L7.97117 0.911942L7.89067 1.9087ZM9.18062 2.17776L9.54831 1.24781L9.54831 1.24781L9.18062 2.17776ZM10.7612 2.92621L11.278 2.07007L11.2779 2.07006L10.7612 2.92621ZM11.9065 3.76573L11.2726 4.53922L11.2726 4.53922L11.9065 3.76573ZM12.2153 4.01877L12.8658 4.77821L13.7722 4.00174L12.8491 3.24528L12.2153 4.01877ZM11.9131 4.27762L11.2625 3.51819V3.51819L11.9131 4.27762ZM9.82343 6.06777L10.474 6.8272V6.8272L9.82343 6.06777ZM9.49325 6.35062L8.76239 7.03314L9.41627 7.73334L10.1438 7.11005L9.49325 6.35062ZM9.20155 6.03826L9.93242 5.35574L9.93242 5.35574L9.20155 6.03826ZM7.93502 5.36859L8.22758 4.41234L7.93502 5.36859ZM6.57464 5.09798L6.66338 4.10192L6.63191 4.09912L6.60033 4.09831L6.57464 5.09798ZM4.93977 5.51771L5.86131 5.906L5.86132 5.90599L4.93977 5.51771ZM5.31355 6.11386L4.85809 7.00411L4.94036 7.04621L5.02895 7.07251L5.31355 6.11386ZM10.8117 8.57866L11.4514 7.81001L10.8117 8.57866ZM12.2381 11.0333L13.2176 10.8316L13.2175 10.8316L12.2381 11.0333ZM12.2445 11.0642H13.2445V10.9623L13.2239 10.8625L12.2445 11.0642ZM12.2405 11.2605L11.2417 11.2118L11.2157 11.7443L11.6434 12.0626L12.2405 11.2605ZM13.7072 12.8857L14.7061 12.8371L14.6933 12.5754L14.5539 12.3535L13.7072 12.8857ZM13.8117 15.0339V16.0339H14.8615L14.8105 14.9853L13.8117 15.0339ZM12.14 15.0339L11.1536 14.8694L10.9594 16.0339H12.14V15.0339ZM11.6567 12.9994L12.4723 12.4208L11.6258 11.2278L10.8215 12.4496L11.6567 12.9994ZM10.5541 14.1682L11.1702 14.9559L11.1702 14.9559L10.5541 14.1682ZM8.92767 15.1234L8.52636 14.2074L8.92767 16.1234V15.1234ZM15.4834 15.1234H16.4834V14.1234H15.4834V15.1234ZM15.4834 17.4505V18.4505H16.4834V17.4505H15.4834ZM4.19926 17.4505H3.19926V18.4505H4.19926V17.4505ZM4.19926 15.3788H5.19926V14.5714L4.41005 14.4012L4.19926 15.3788ZM0.253772 13.6817L0.886798 12.9076L0.886798 12.9076L0.253772 13.6817ZM0 13.4742L-0.789187 12.86L-1.38869 13.6304L-0.633026 14.2483L0 13.4742ZM0.194605 13.2241L-0.594581 12.61L-0.594582 12.61L0.194605 13.2241ZM1.86634 11.0759L2.65552 11.6901L2.65553 11.6901L1.86634 11.0759ZM2.12283 10.7464L2.6993 9.92924L1.91964 9.37919L1.33364 10.1322L2.12283 10.7464ZM2.47976 10.9982L1.90328 11.8153L1.90329 11.8153L2.47976 10.9982ZM4.84935 12.0487L5.11993 11.086L5.11991 11.086L4.84935 12.0487ZM5.87186 12.27L5.7405 13.2614L5.74095 13.2614L5.87186 12.27ZM5.89594 12.2732L5.77052 13.2653L5.77057 13.2653L5.89594 12.2732ZM5.94257 12.2788L6.05541 11.2851L6.05511 11.2851L5.94257 12.2788ZM5.98571 12.2834L5.88669 13.2784L6.42783 13.3323L6.76716 12.9073L5.98571 12.2834ZM7.50899 10.9541L7.96645 11.8434L8.79 11.4197L8.43065 10.5661L7.50899 10.9541ZM6.80979 10.5468L6.59056 11.5224L6.59056 11.5224L6.80979 10.5468ZM1.81168 8.24575L1.10084 8.9491H1.10084L1.81168 8.24575ZM2.37116 3.14987L1.77458 2.34731L1.77458 2.34731L2.37116 3.14987ZM4.72167 1.9082L5.07554 2.8435L5.72167 2.59904V1.9082H4.72167ZM11.3284 10.785L11.0712 11.7513L12.7397 12.1954L12.2946 10.5272L11.3284 10.785ZM10.2293 9.09228L9.58962 9.86094L10.2293 9.09228ZM10.9907 10.7375V9.73751H10.126L10.0011 10.5931L10.9907 10.7375ZM10.7817 12.1696L9.79218 12.0252L9.69515 12.6903L10.2742 13.0313L10.7817 12.1696ZM11.0846 12.3842L11.9691 12.8507L12.3497 12.1293L11.7194 11.6115L11.0846 12.3842ZM9.99055 13.6394L9.37445 12.8517L9.37445 12.8518L9.99055 13.6394ZM7.16867 14.9457L7.19076 15.9454L7.29421 15.9431L7.395 15.9197L7.16867 14.9457ZM7.11164 14.9468L6.12066 15.0808L6.23981 15.962L7.12891 15.9466L7.11164 14.9468ZM8.48307 12.1696L8.99056 13.0313L9.56962 12.6902L9.47259 12.0252L8.48307 12.1696ZM8.34743 11.24L7.36636 11.0464L7.33314 11.2147L7.35791 11.3844L8.34743 11.24ZM8.36537 11.0261L7.36587 11.0575L7.36587 11.0575L8.36537 11.0261ZM7.02186 9.85414L7.24109 8.87847L7.24109 8.87847L7.02186 9.85414ZM2.4493 7.78274L1.73846 8.4861H1.73846L2.4493 7.78274ZM2.91898 3.6907L2.3224 2.88815L2.3224 2.88815L2.91898 3.6907ZM5.29824 2.47604L5.62981 3.41947L5.62982 3.41947L5.29824 2.47604ZM5.55754 2.38491L5.88912 3.32833L6.55754 3.09341V2.38491H5.55754ZM5.55754 0.712689V-0.287311H4.55754V0.712689H5.55754ZM6.91582 0.712689H7.91582V-0.287311H6.91582V0.712689ZM7.1424 2.49767L6.65446 3.37055L6.65451 3.37058L7.1424 2.49767ZM7.3924 2.57995L7.56397 1.59477L7.56389 1.59476L7.3924 2.57995ZM7.73418 2.61553L7.65804 3.61264L7.66172 3.6129L7.73418 2.61553ZM7.73485 2.61558L7.8128 1.61861L7.8073 1.61821L7.73485 2.61558ZM7.73611 2.61568L7.65815 3.61264L7.65951 3.61274L7.73611 2.61568ZM7.78396 2.61936L7.86286 1.62247L7.86057 1.6223L7.78396 2.61936ZM7.8122 2.62159L7.89271 1.62484L7.89109 1.62471L7.8122 2.62159ZM8.83035 2.82791L8.46266 3.75786H8.46266L8.83035 2.82791ZM10.2798 3.51157L10.7965 2.65543L10.7965 2.65542L10.2798 3.51157ZM11.0177 4.03205L11.6682 4.79148L12.5911 4.00086L11.6376 3.24743L11.0177 4.03205ZM9.52947 5.30693L8.94137 6.11572L9.5802 6.58024L10.18 6.06637L9.52947 5.30693ZM8.21615 4.69424L7.92359 5.65049L8.21615 4.69424ZM6.64396 4.38426L6.55857 5.38061L6.55861 5.38061L6.64396 4.38426ZM6.62994 4.38306L6.71532 3.38671L6.68644 3.38424L6.65747 3.38344L6.62994 4.38306ZM6.61585 4.38267L6.58822 5.38229L6.58831 5.38229L6.61585 4.38267ZM4.15355 5.2746L3.23202 4.88632L3.23201 4.88633L4.15355 5.2746ZM4.93664 6.75413L4.5069 7.65708L4.50695 7.65711L4.93664 6.75413ZM4.96859 6.76933L4.5389 7.67231L4.60964 7.70597L4.68477 7.72821L4.96859 6.76933ZM5.00314 6.77956L4.71932 7.73844L4.71937 7.73845L5.00314 6.77956ZM5.46142 14.8619L5.34101 15.8547L6.40802 15.9841L6.46024 14.9105L5.46142 14.8619ZM5.55445 12.9492L6.55327 12.9978L6.5965 12.1088L5.71854 11.9628L5.55445 12.9492ZM1.09491 13.3581L0.305719 12.744L-0.350942 13.5878L0.534861 14.1866L1.09491 13.3581ZM2.31618 11.7888L2.82767 10.9295L2.06913 10.478L1.52699 11.1746L2.31618 11.7888ZM4.58878 12.7291L4.85935 11.7664L4.85935 11.7664L4.58878 12.7291ZM15.4834 17.9876H16.4834V16.9876H15.4834V17.9876ZM4.19926 17.9876V16.9876H3.19926V17.9876H4.19926ZM15.4834 20.3148V21.3148H16.4834V20.3148H15.4834ZM4.19926 20.3148H3.19926V21.3148H4.19926V20.3148ZM4.19926 20.6728V19.6728H3.19926V20.6728H4.19926ZM15.4834 20.6728H16.4834V19.6728H15.4834V20.6728ZM4.19926 23H3.19926V24H4.19926V23ZM15.4834 23V24H16.4834V23H15.4834ZM5.13961 -1.00337H4.72167V0.996631H5.13961V-1.00337ZM7.33376 -1.00337H5.13961V0.996631H7.33376V-1.00337ZM7.75169 -1.00337H7.33376V0.996631H7.75169V-1.00337ZM8.75169 0.35466V-0.00336933H6.75169V0.35466H8.75169ZM8.75169 1.89776V0.35466H6.75169V1.89776H8.75169ZM7.85688 0.902928L7.82931 0.900781L7.67407 2.89475L7.70164 2.89689L7.85688 0.902928ZM7.97117 0.911942C7.92788 0.908445 7.88961 0.90547 7.85671 0.902915L7.70181 2.89691C7.73474 2.89947 7.77026 2.90223 7.81016 2.90545L7.97117 0.911942ZM9.54831 1.24781C8.91247 0.996409 8.31216 0.939489 7.97119 0.911943L7.81014 2.90545C8.11296 2.92991 8.46609 2.97057 8.81294 3.10771L9.54831 1.24781ZM11.2779 2.07006C10.8015 1.7825 10.2684 1.5325 9.54831 1.24781L8.81294 3.10771C9.47715 3.37033 9.89862 3.57361 10.2445 3.78235L11.2779 2.07006ZM12.5403 2.99225C12.1325 2.65812 11.7536 2.35716 11.278 2.07007L10.2445 3.78235C10.5897 3.99072 10.8758 4.21404 11.2726 4.53922L12.5403 2.99225ZM12.8491 3.24528L12.5403 2.99225L11.2726 4.53922L11.5814 4.79226L12.8491 3.24528ZM12.5637 5.03706L12.8658 4.77821L11.5647 3.25934L11.2625 3.51819L12.5637 5.03706ZM10.474 6.8272L12.5637 5.03706L11.2625 3.51819L9.17284 5.30833L10.474 6.8272ZM10.1438 7.11005L10.474 6.8272L9.17285 5.30833L8.84267 5.59118L10.1438 7.11005ZM8.47069 6.72079L8.76239 7.03314L10.2241 5.6681L9.93242 5.35574L8.47069 6.72079ZM7.64246 6.32483C8.13538 6.47564 8.39392 6.63858 8.47069 6.72079L9.93242 5.35574C9.48572 4.87741 8.80603 4.58932 8.22758 4.41234L7.64246 6.32483ZM6.4859 6.09403C6.74606 6.11721 7.19966 6.18936 7.64246 6.32483L8.22758 4.41234C7.6349 4.23101 7.04276 4.13572 6.66338 4.10192L6.4859 6.09403ZM5.86132 5.90599C5.74722 6.1768 5.56861 6.21424 5.65969 6.18018C5.7419 6.14943 5.99593 6.08344 6.54895 6.09765L6.60033 4.09831C5.90041 4.08032 5.36635 4.15457 4.95902 4.30693C4.56058 4.45596 4.191 4.71938 4.01823 5.12944L5.86132 5.90599ZM5.76901 5.22361C5.75148 5.21463 5.80384 5.23628 5.85493 5.33074C5.89392 5.40285 5.98096 5.62204 5.86131 5.906L4.01824 5.12942C3.83568 5.56269 3.93924 5.99279 4.09567 6.28207C4.26418 6.59369 4.53489 6.83876 4.85809 7.00411L5.76901 5.22361ZM11.4514 7.81001C10.3153 6.86459 8.50287 6.01755 5.59815 5.15521L5.02895 7.07251C7.86297 7.91386 9.35594 8.66817 10.172 9.34732L11.4514 7.81001ZM13.2175 10.8316C13.0283 9.91308 12.694 8.84415 11.4514 7.81001L10.172 9.34732C10.9378 9.98462 11.1203 10.5634 11.2587 11.2351L13.2175 10.8316ZM13.2239 10.8625L13.2176 10.8316L11.2587 11.235L11.265 11.2659L13.2239 10.8625ZM13.2445 11.0955V11.0642H11.2445V11.0955H13.2445ZM13.2393 11.3091C13.2427 11.2383 13.2445 11.1671 13.2445 11.0955H11.2445C11.2445 11.1349 11.2435 11.1736 11.2417 11.2118L13.2393 11.3091ZM14.5539 12.3535C14.094 11.6219 13.4834 10.939 12.8376 10.4583L11.6434 12.0626C12.066 12.3772 12.5147 12.8676 12.8606 13.4178L14.5539 12.3535ZM14.8105 14.9853L14.7061 12.8371L12.7084 12.9343L12.8129 15.0824L14.8105 14.9853ZM12.14 16.0339H13.8117V14.0339H12.14V16.0339ZM10.8412 13.5781C11.0833 13.9193 11.2405 14.3485 11.1536 14.8694L13.1264 15.1983C13.319 14.0433 12.9467 13.0894 12.4723 12.4208L10.8412 13.5781ZM11.1702 14.9559C11.6662 14.568 12.1289 14.1008 12.492 13.5493L10.8215 12.4496C10.6008 12.7848 10.2996 13.0978 9.93805 13.3806L11.1702 14.9559ZM9.32899 16.0393C9.96263 15.7617 10.5991 15.4026 11.1702 14.9559L9.93805 13.3806C9.52138 13.7065 9.03532 13.9844 8.52636 14.2074L9.32899 16.0393ZM15.4834 14.1234H8.92767V16.1234H15.4834V14.1234ZM16.4834 17.4505V15.1234H14.4834V17.4505H16.4834ZM4.19926 18.4505H15.4834V16.4505H4.19926V18.4505ZM3.19926 15.3788V17.4505H5.19926V15.3788H3.19926ZM-0.379253 14.4558C0.329611 15.0355 1.87383 15.9003 3.98846 16.3563L4.41005 14.4012C2.57389 14.0053 1.32676 13.2673 0.886798 12.9076L-0.379253 14.4558ZM-0.633026 14.2483L-0.379253 14.4558L0.886798 12.9076L0.633026 12.7001L-0.633026 14.2483ZM-0.594582 12.61L-0.789187 12.86L0.789187 14.0883L0.983793 13.8383L-0.594582 12.61ZM1.07715 10.4618L-0.594581 12.61L0.983792 13.8383L2.65552 11.6901L1.07715 10.4618ZM1.33364 10.1322L1.07715 10.4618L2.65553 11.6901L2.91201 11.3605L1.33364 10.1322ZM3.05623 10.1811L2.6993 9.92924L1.54635 11.5635L1.90328 11.8153L3.05623 10.1811ZM5.11991 11.086C4.3744 10.8765 3.58197 10.552 3.05622 10.1811L1.90329 11.8153C2.68896 12.3696 3.72291 12.7709 4.57878 13.0114L5.11991 11.086ZM6.00323 11.2787C5.79241 11.2508 5.48302 11.1881 5.11993 11.086L4.57876 13.0114C5.01127 13.133 5.41546 13.2183 5.7405 13.2614L6.00323 11.2787ZM6.02137 11.2811C6.0154 11.2803 6.00921 11.2795 6.00278 11.2787L5.74095 13.2614C5.75081 13.2627 5.76067 13.264 5.77052 13.2653L6.02137 11.2811ZM6.05511 11.2851C6.04457 11.2839 6.03332 11.2826 6.02132 11.2811L5.77057 13.2653C5.79065 13.2678 5.81047 13.2702 5.83004 13.2724L6.05511 11.2851ZM6.08473 11.2883C6.07545 11.2873 6.06567 11.2863 6.05541 11.2851L5.82974 13.2724C5.84921 13.2746 5.86819 13.2766 5.88669 13.2784L6.08473 11.2883ZM7.05153 10.0649C6.37348 10.4137 5.72377 11.0088 5.20426 11.6594L6.76716 12.9073C7.17259 12.3996 7.61491 12.0242 7.96645 11.8434L7.05153 10.0649ZM6.59056 11.5224C6.72812 11.5534 6.77311 11.5829 6.76462 11.5775C6.75965 11.5744 6.65787 11.5097 6.58734 11.3421L8.43065 10.5661C8.17568 9.9605 7.55507 9.6893 7.02902 9.5711L6.59056 11.5224ZM1.10084 8.9491C2.15848 10.018 3.8884 10.9153 6.59056 11.5224L7.02902 9.5711C4.52817 9.00916 3.20962 8.23681 2.52252 7.5424L1.10084 8.9491ZM-0.248689 5.8146C-0.248689 6.67237 0.00489862 7.8415 1.10084 8.9491L2.52252 7.5424C1.8614 6.87424 1.75131 6.24471 1.75131 5.8146H-0.248689ZM1.77458 2.34731C0.817353 3.05887 -0.248689 4.20664 -0.248689 5.8146H1.75131C1.75131 5.16006 2.18884 4.53142 2.96774 3.95242L1.77458 2.34731ZM4.36781 0.972908C3.63983 1.24834 2.64606 1.6995 1.77458 2.34731L2.96774 3.95242C3.63308 3.45784 4.43804 3.08469 5.07554 2.8435L4.36781 0.972908ZM3.72167 0.35466V1.9082H5.72167V0.35466H3.72167ZM3.72167 -0.00336933V0.35466H5.72167V-0.00336933H3.72167ZM12.2946 10.5272C12.0941 9.77591 11.7316 9.04155 10.869 8.32363L9.58962 9.86094C10.0888 10.2764 10.2522 10.6305 10.3622 11.0428L12.2946 10.5272ZM10.9907 11.7375C10.998 11.7375 11.024 11.7388 11.0712 11.7513L11.5856 9.81861C11.3993 9.76905 11.1991 9.73751 10.9907 9.73751V11.7375ZM11.7712 12.314L11.9802 10.8819L10.0011 10.5931L9.79218 12.0252L11.7712 12.314ZM11.7194 11.6115C11.5747 11.4927 11.4288 11.3902 11.2892 11.308L10.2742 13.0313C10.3156 13.0556 10.3768 13.0969 10.4499 13.157L11.7194 11.6115ZM10.6066 14.4271C11.1481 14.0036 11.6364 13.4817 11.9691 12.8507L10.2001 11.9177C10.0307 12.239 9.75436 12.5546 9.37445 12.8517L10.6066 14.4271ZM7.395 15.9197C8.43173 15.6788 9.63814 15.1846 10.6066 14.4271L9.37445 12.8518C8.6832 13.3924 7.76072 13.7814 6.94234 13.9716L7.395 15.9197ZM7.12891 15.9466C7.14936 15.9463 7.16998 15.9459 7.19076 15.9454L7.14658 13.9459C7.12927 13.9463 7.11188 13.9466 7.09437 13.9469L7.12891 15.9466ZM7.97559 11.308C7.25084 11.7348 5.84767 13.0619 6.12066 15.0808L8.10262 14.8128C7.98173 13.9187 8.62247 13.2481 8.99056 13.0313L7.97559 11.308ZM7.35791 11.3844L7.49355 12.314L9.47259 12.0252L9.33695 11.0956L7.35791 11.3844ZM7.36587 11.0575C7.36564 11.0501 7.36644 11.0459 7.36636 11.0464L9.3285 11.4337C9.35654 11.2916 9.3696 11.1447 9.36488 10.9946L7.36587 11.0575ZM6.80262 10.8298C7.02846 10.8806 7.21268 10.9623 7.31833 11.042C7.36638 11.0782 7.37864 11.0993 7.37719 11.0969C7.37228 11.0887 7.36629 11.071 7.36587 11.0575L9.36488 10.9947C9.34219 10.2732 8.94063 9.76032 8.52226 9.44493C8.11772 9.13997 7.64064 8.96825 7.24109 8.87847L6.80262 10.8298ZM1.73846 8.4861C2.64988 9.40722 4.20454 10.246 6.80262 10.8298L7.24109 8.87847C4.84462 8.33999 3.70117 7.62618 3.16014 7.07939L1.73846 8.4861ZM0.587177 5.8146C0.587177 6.54873 0.801374 7.53903 1.73846 8.4861L3.16014 7.07939C2.6571 6.57099 2.58718 6.11978 2.58718 5.8146H0.587177ZM2.3224 2.88815C1.45415 3.53356 0.587177 4.50116 0.587177 5.8146H2.58718C2.58718 5.45223 2.82872 5.00382 3.51556 4.49325L2.3224 2.88815ZM4.96667 1.53261C4.26418 1.7795 3.21188 2.22695 2.3224 2.88815L3.51556 4.49326C4.17675 4.00176 5.01827 3.6344 5.62981 3.41947L4.96667 1.53261ZM5.22596 1.44148L4.96666 1.53262L5.62982 3.41947L5.88912 3.32833L5.22596 1.44148ZM4.55754 2.14481V2.38491H6.55754V2.14481H4.55754ZM4.55754 0.712689V2.14481H6.55754V0.712689H4.55754ZM6.91582 -0.287311H5.55754V1.71269H6.91582V-0.287311ZM7.91582 2.14481V0.712689H5.91582V2.14481H7.91582ZM7.63035 1.6248C7.67669 1.6507 7.74041 1.69661 7.79869 1.77781C7.86311 1.86755 7.91582 1.99577 7.91582 2.14481H5.91582C5.91582 2.80756 6.35783 3.20473 6.65446 3.37055L7.63035 1.6248ZM7.56389 1.59476C7.55236 1.59275 7.55449 1.59269 7.56244 1.59503C7.56935 1.59706 7.59473 1.60489 7.63029 1.62477L6.65451 3.37058C6.89925 3.50737 7.13564 3.55029 7.22091 3.56513L7.56389 1.59476ZM7.81031 1.61843C7.67767 1.60831 7.60319 1.6016 7.56397 1.59477L7.22083 3.56512C7.37554 3.59206 7.55787 3.60498 7.65804 3.61263L7.81031 1.61843ZM7.8073 1.61821L7.80663 1.61816L7.66172 3.6129L7.66239 3.61295L7.8073 1.61821ZM7.81406 1.61872L7.8128 1.61862L7.65689 3.61254L7.65815 3.61264L7.81406 1.61872ZM7.86057 1.6223L7.81271 1.61862L7.65951 3.61274L7.70736 3.61642L7.86057 1.6223ZM7.89109 1.62471L7.86286 1.62247L7.70507 3.61624L7.7333 3.61847L7.89109 1.62471ZM9.19804 1.89796C8.69593 1.69943 8.21268 1.65068 7.89271 1.62484L7.73168 3.61834C8.0154 3.64126 8.25043 3.67395 8.46266 3.75786L9.19804 1.89796ZM10.7965 2.65542C10.3761 2.40171 9.89208 2.17237 9.19804 1.89796L8.46266 3.75786C9.10093 4.01022 9.4733 4.19284 9.76305 4.36772L10.7965 2.65542ZM11.6376 3.24743C11.3624 3.0299 11.1016 2.83954 10.7965 2.65543L9.76304 4.36771C9.97233 4.49404 10.1617 4.63022 10.3977 4.81666L11.6376 3.24743ZM10.18 6.06637L11.6682 4.79148L10.3671 3.27261L8.87888 4.5475L10.18 6.06637ZM7.92359 5.65049C8.3216 5.77226 8.68487 5.92921 8.94137 6.11572L10.1176 4.49814C9.60589 4.12609 9.00518 3.88989 8.50871 3.738L7.92359 5.65049ZM6.55861 5.38061C6.87558 5.40777 7.40308 5.49124 7.92359 5.65049L8.50871 3.738C7.83689 3.53245 7.16869 3.42555 6.72931 3.38791L6.55861 5.38061ZM6.54455 5.37941L6.55857 5.38061L6.72935 3.38791L6.71532 3.38671L6.54455 5.37941ZM6.58831 5.38229L6.6024 5.38268L6.65747 3.38344L6.64338 3.38305L6.58831 5.38229ZM5.07509 5.66289C5.0613 5.69563 5.06971 5.61607 5.32396 5.52438C5.58195 5.43133 5.99613 5.36593 6.58822 5.38229L6.64347 3.38305C5.90912 3.36276 5.22205 3.43504 4.64545 3.64299C4.06511 3.85228 3.50559 4.23702 3.23202 4.88632L5.07509 5.66289ZM5.36638 5.85118C5.30234 5.8207 5.24184 5.781 5.1913 5.7371C5.1403 5.69281 5.10888 5.65252 5.09224 5.62468C5.076 5.5975 5.07947 5.59212 5.08138 5.60889C5.08384 5.63063 5.07939 5.65269 5.0751 5.66288L3.23201 4.88633C2.95754 5.53776 3.09095 6.17455 3.37541 6.65058C3.648 7.10676 4.07065 7.44946 4.5069 7.65708L5.36638 5.85118ZM5.39828 5.86636L5.36633 5.85115L4.50695 7.65711L4.5389 7.67231L5.39828 5.86636ZM5.28697 5.82068L5.25242 5.81046L4.68477 7.72821L4.71932 7.73844L5.28697 5.82068ZM10.869 8.32363C9.86023 7.48418 8.17585 6.67562 5.28692 5.82067L4.71937 7.73845C7.53864 8.57279 8.90207 9.28876 9.58962 9.86094L10.869 8.32363ZM6.46024 14.9105L6.55327 12.9978L4.55563 12.9006L4.4626 14.8134L6.46024 14.9105ZM0.534861 14.1866C1.38977 14.7645 3.08064 15.5805 5.34101 15.8547L5.58182 13.8692C3.65685 13.6358 2.26455 12.9418 1.65495 12.5297L0.534861 14.1866ZM1.52699 11.1746L0.305719 12.744L1.88409 13.9723L3.10536 12.4029L1.52699 11.1746ZM4.85935 11.7664C4.18865 11.5779 3.43481 11.2909 2.82767 10.9295L1.80469 12.6481C2.60915 13.1269 3.54001 13.4731 4.31822 13.6918L4.85935 11.7664ZM5.71854 11.9628C5.47438 11.9222 5.17921 11.8563 4.85935 11.7664L4.31821 13.6918C4.69754 13.7984 5.06431 13.8814 5.39036 13.9357L5.71854 11.9628ZM15.4834 16.9876H4.19926V18.9876H15.4834V16.9876ZM16.4834 20.3148V17.9876H14.4834V20.3148H16.4834ZM4.19926 21.3148H15.4834V19.3148H4.19926V21.3148ZM3.19926 17.9876V20.3148H5.19926V17.9876H3.19926ZM5.19926 23V20.6728H3.19926V23H5.19926ZM14.4834 20.6728V23H16.4834V20.6728H14.4834ZM4.19926 21.6728H9.84135V19.6728H4.19926V21.6728ZM9.84135 21.6728H15.4834V19.6728H9.84135V21.6728ZM15.4834 22H10.5541V24H15.4834V22ZM10.5541 22H4.19926V24H10.5541V22Z" fill="black" mask="url(#path-1-inside-1_56_92)"/>
</g>
</svg>
