<svg width="101" height="29" viewBox="0 0 101 29" fill="none" xmlns="http://www.w3.org/2000/svg">
<g id="Group 3">
<g id="PROCG">
<path id="Union" fill-rule="evenodd" clip-rule="evenodd" d="M62.4315 18.8415C63.6523 20.258 65.2272 20.9663 67.1563 20.9663C69.0854 20.9663 70.6604 20.258 71.8812 18.8415C73.102 17.425 73.7124 15.412 73.7124 12.8026C73.7124 10.1933 73.102 8.18029 71.8812 6.76377C70.6604 5.34724 69.0854 4.63898 67.1563 4.63898C65.2272 4.63898 63.6523 5.34724 62.4315 6.76377C61.22 8.18029 60.6142 10.1933 60.6142 12.8026C60.6142 15.412 61.22 17.425 62.4315 18.8415ZM70.4274 17.6114C69.6446 18.8229 68.5542 19.4286 67.1563 19.4286C65.7584 19.4286 64.6634 18.8229 63.8713 17.6114C63.0792 16.3999 62.6831 14.797 62.6831 12.8026C62.6831 10.8083 63.0792 9.20541 63.8713 7.99391C64.6634 6.78241 65.7584 6.17665 67.1563 6.17665C68.5542 6.17665 69.6446 6.78241 70.4274 7.99391C71.2195 9.20541 71.6156 10.8083 71.6156 12.8026C71.6156 14.797 71.2195 16.3999 70.4274 17.6114ZM85.2729 17.192H87.1181V17.2899C87.1181 17.8956 86.9085 18.5153 86.4891 19.1491C86.0697 19.7734 85.5012 20.2301 84.7837 20.519C84.0661 20.8172 83.218 20.9663 82.2395 20.9663C80.2825 20.9663 78.6796 20.286 77.4308 18.9254C76.1913 17.5648 75.5716 15.5239 75.5716 12.8026C75.5716 10.1001 76.1913 8.0638 77.4308 6.69387C78.6702 5.32394 80.2778 4.63898 82.2535 4.63898C83.2227 4.63898 84.0661 4.78809 84.7837 5.0863C85.5012 5.3752 86.0697 5.84116 86.4891 6.48419C86.9085 7.1179 87.1181 7.72831 87.1181 8.31542V8.41328H85.2729V8.31542C85.2729 7.94265 85.1518 7.58386 84.9095 7.23905C84.6765 6.88492 84.341 6.61932 83.903 6.44225C83.465 6.26519 82.9384 6.17665 82.3234 6.17665C80.7484 6.17665 79.5742 6.80104 78.8007 8.04982C78.0272 9.28929 77.6405 10.8736 77.6405 12.8026C77.6405 14.7504 78.0272 16.344 78.8007 17.5834C79.5835 18.8136 80.7531 19.4286 82.3094 19.4286C83.3811 19.4286 84.1406 19.2096 84.588 18.7716C85.0446 18.3243 85.2729 17.8304 85.2729 17.2899V17.192ZM100.37 19.8061C98.7393 20.5796 97.1829 20.9663 95.7012 20.9663C94.1635 20.9663 92.9147 20.6634 91.9548 20.0577C91.0043 19.4426 90.2448 18.5619 89.6763 17.4157C89.1078 16.2601 88.8236 14.783 88.8236 12.9844C88.8236 10.9528 89.0938 9.37316 89.6343 8.24553C90.1749 7.1179 90.9344 6.23723 91.9129 5.60352C92.8914 4.96049 94.0517 4.63898 95.3937 4.63898C96.3163 4.63898 97.155 4.78809 97.9099 5.0863C98.6647 5.3752 99.2611 5.81786 99.6991 6.4143C100.146 7.00141 100.37 7.58386 100.37 8.16166V8.27349H98.5249V8.16166C98.5249 7.80752 98.3851 7.47669 98.1056 7.16916C97.8353 6.86162 97.4765 6.61932 97.0292 6.44225C96.5819 6.26519 96.074 6.17665 95.5055 6.17665C94.0051 6.17665 92.8588 6.76377 92.0667 7.93799C91.2839 9.11222 90.8925 10.7291 90.8925 12.7887C90.8925 14.8389 91.2978 16.4605 92.1086 17.6533C92.9194 18.8369 94.0563 19.4286 95.5195 19.4286C96.3862 19.4286 97.388 19.2236 98.5249 18.8136V14.4242H95.0582V12.8865H100.37V19.8061ZM50.829 20.505H48.816V5.10027H53.5828C54.757 5.10027 55.6377 5.26802 56.2248 5.60351C56.8119 5.93901 57.2779 6.42827 57.6227 7.0713C57.9675 7.71432 58.1399 8.40861 58.1399 9.15415C58.1399 9.75058 58.0234 10.3284 57.7904 10.8875C57.5575 11.4374 57.2313 11.9359 56.8119 12.3833C56.3926 12.8306 55.7449 13.2267 54.8689 13.5715C55.195 13.7579 55.442 13.9349 55.6097 14.1027C55.7775 14.2704 55.9778 14.5407 56.2108 14.9134C56.4531 15.2769 56.6628 15.6217 56.8399 15.9479L59.2862 20.505H56.9936L54.8689 16.4511C54.347 15.4726 53.676 14.6152 52.8559 13.879H50.829V20.505ZM50.829 12.3413H52.786C53.6061 12.3413 54.2305 12.2155 54.6592 11.9639C55.0879 11.7123 55.428 11.3442 55.6796 10.8596C55.9313 10.3657 56.0571 9.84377 56.0571 9.29394C56.0571 8.80934 55.9545 8.37599 55.7495 7.9939C55.5538 7.61181 55.2649 7.29496 54.8828 7.04334C54.5007 6.7824 53.8484 6.65193 52.9258 6.65193H50.829V12.3413ZM36.9619 20.505H38.9749V14.4242H40.876C42.8237 14.4242 44.2868 13.9349 45.2654 12.9564C46.2532 11.9779 46.7471 10.7664 46.7471 9.3219C46.7471 8.46452 46.5747 7.71432 46.2299 7.0713C45.8944 6.42827 45.3865 5.93901 44.7062 5.60351C44.0352 5.26802 42.8843 5.10027 41.2534 5.10027H36.9619V20.505ZM40.3168 12.8865H38.9749V6.65193H41.2954C42.6373 6.65193 43.532 6.90355 43.9793 7.40679C44.436 7.91003 44.6643 8.57636 44.6643 9.40577C44.6643 10.3563 44.3847 11.1764 43.8255 11.8661C43.2664 12.5464 42.0968 12.8865 40.3168 12.8865Z" fill="black"/>
</g>
<g id="Proactive Controls Governor">
<path id="Union_2" fill-rule="evenodd" clip-rule="evenodd" d="M75.3952 27.1523H75.1052V24.6347H75.3952V27.1523ZM82.8757 27.0426C82.6194 27.1641 82.3748 27.2249 82.1419 27.2249C81.9003 27.2249 81.704 27.1773 81.5532 27.0821C81.4038 26.9854 81.2844 26.847 81.1951 26.6669C81.1057 26.4853 81.0611 26.2531 81.0611 25.9705C81.0611 25.6512 81.1035 25.4029 81.1885 25.2257C81.2734 25.0485 81.3928 24.9101 81.5466 24.8105C81.7004 24.7095 81.8827 24.6589 82.0936 24.6589C82.2386 24.6589 82.3704 24.6824 82.4891 24.7292C82.6077 24.7746 82.7014 24.8442 82.7703 24.9379C82.8406 25.0302 82.8757 25.1217 82.8757 25.2126V25.2301H82.5857V25.2126C82.5857 25.1569 82.5637 25.1049 82.5198 25.0566C82.4773 25.0082 82.4209 24.9702 82.3506 24.9423C82.2803 24.9145 82.2005 24.9006 82.1112 24.9006C81.8754 24.9006 81.6952 24.9929 81.5708 25.1774C81.4477 25.3619 81.3862 25.616 81.3862 25.9397C81.3862 26.2619 81.4499 26.5168 81.5773 26.7042C81.7048 26.8902 81.8834 26.9832 82.1134 26.9832C82.2496 26.9832 82.407 26.951 82.5857 26.8866V26.1968H82.0409V25.9551H82.8757V27.0426ZM84.1778 26.97C84.3389 27.1238 84.5337 27.2007 84.7622 27.2007C84.9892 27.2007 85.1825 27.1238 85.3421 26.97C85.5033 26.8147 85.5838 26.5848 85.5838 26.2802C85.5838 25.977 85.5033 25.7485 85.3421 25.5947C85.1825 25.4395 84.9892 25.3619 84.7622 25.3619C84.5337 25.3619 84.3389 25.4395 84.1778 25.5947C84.0182 25.7485 83.9383 25.977 83.9383 26.2802C83.9383 26.5848 84.0182 26.8147 84.1778 26.97ZM85.1378 26.7723C85.0426 26.8968 84.9174 26.959 84.7622 26.959C84.6055 26.959 84.4795 26.8968 84.3843 26.7723C84.2891 26.6478 84.2415 26.4838 84.2415 26.2802C84.2415 26.0781 84.2891 25.9148 84.3843 25.7903C84.4795 25.6658 84.6055 25.6035 84.7622 25.6035C84.9174 25.6035 85.0426 25.6658 85.1378 25.7903C85.233 25.9148 85.2806 26.0781 85.2806 26.2802C85.2806 26.4838 85.233 26.6478 85.1378 26.7723ZM90.6352 26.7042H90.3452V26.7196C90.3452 26.7811 90.3151 26.8367 90.2551 26.8865C90.1965 26.9348 90.1035 26.959 89.9761 26.959C89.7989 26.959 89.6597 26.899 89.5587 26.7789C89.4591 26.6573 89.4093 26.5035 89.4093 26.3175H90.6461V26.2209C90.6461 26.0041 90.6147 25.8357 90.5517 25.7156C90.4902 25.594 90.4052 25.5047 90.2968 25.4476C90.1899 25.3904 90.0706 25.3619 89.9387 25.3619C89.6985 25.3619 89.5023 25.4505 89.35 25.6277C89.1977 25.8034 89.1215 26.0253 89.1215 26.2934C89.1215 26.5555 89.1933 26.7723 89.3368 26.9436C89.4818 27.115 89.6868 27.2007 89.9519 27.2007C90.0823 27.2007 90.198 27.1802 90.299 27.1392C90.4001 27.0967 90.4814 27.0359 90.5429 26.9568C90.6044 26.8763 90.6352 26.7972 90.6352 26.7196V26.7042ZM90.3671 26.1H89.4269C89.4562 25.9433 89.5162 25.8218 89.607 25.7353C89.6993 25.6475 89.7996 25.6035 89.908 25.6035C89.9988 25.6035 90.0786 25.6218 90.1474 25.6585C90.2163 25.6951 90.2697 25.7522 90.3078 25.8298C90.3474 25.906 90.3671 25.9843 90.3671 26.0649V26.1ZM92.0559 27.1523H91.7659V25.4102H92.0559V25.7178C92.1042 25.6284 92.1562 25.5596 92.2118 25.5113C92.269 25.4629 92.3297 25.4263 92.3942 25.4014C92.4586 25.3751 92.5238 25.3619 92.5897 25.3619C92.6497 25.3619 92.7017 25.3707 92.7457 25.3882V25.6892C92.6768 25.6555 92.6043 25.6387 92.5282 25.6387C92.4183 25.6387 92.3122 25.687 92.2096 25.7837C92.1071 25.8789 92.0559 26.048 92.0559 26.2912V27.1523ZM93.7204 27.1523H94.0104V26.2956C94.0104 26.1301 94.0339 26.0026 94.0807 25.9133C94.1276 25.8225 94.1891 25.7522 94.2653 25.7024C94.3429 25.6526 94.4242 25.6277 94.5091 25.6277C94.5794 25.6277 94.6446 25.6467 94.7046 25.6848C94.7662 25.7214 94.8072 25.772 94.8277 25.8364C94.8482 25.9008 94.8584 26.0114 94.8584 26.1681V27.1523H95.1484V26.0429C95.1484 25.8525 95.1242 25.7141 95.0759 25.6277C95.029 25.5398 94.9617 25.4739 94.8738 25.43C94.7874 25.3846 94.69 25.3619 94.5816 25.3619C94.504 25.3619 94.4337 25.3736 94.3707 25.397C94.3077 25.4205 94.247 25.4549 94.1884 25.5003C94.1313 25.5457 94.0719 25.616 94.0104 25.7112V25.4102H93.7204V27.1523ZM97.0436 27.2007C96.8151 27.2007 96.6203 27.1238 96.4592 26.97C96.2996 26.8147 96.2198 26.5848 96.2198 26.2802C96.2198 25.977 96.2996 25.7485 96.4592 25.5947C96.6203 25.4395 96.8151 25.3619 97.0436 25.3619C97.2706 25.3619 97.4639 25.4395 97.6236 25.5947C97.7847 25.7485 97.8652 25.977 97.8652 26.2802C97.8652 26.5848 97.7847 26.8147 97.6236 26.97C97.4639 27.1238 97.2706 27.2007 97.0436 27.2007ZM97.0436 26.959C97.1988 26.959 97.3241 26.8968 97.4193 26.7723C97.5145 26.6478 97.562 26.4838 97.562 26.2802C97.562 26.0781 97.5145 25.9148 97.4193 25.7903C97.3241 25.6658 97.1988 25.6035 97.0436 25.6035C96.8869 25.6035 96.7609 25.6658 96.6657 25.7903C96.5705 25.9148 96.5229 26.0781 96.5229 26.2802C96.5229 26.4838 96.5705 26.6478 96.6657 26.7723C96.7609 26.8968 96.8869 26.959 97.0436 26.959ZM99.2508 27.1523H98.9608V25.4102H99.2508V25.7178C99.2991 25.6284 99.3511 25.5596 99.4067 25.5113C99.4639 25.4629 99.5246 25.4263 99.5891 25.4014C99.6535 25.3751 99.7187 25.3619 99.7846 25.3619C99.8447 25.3619 99.8966 25.3707 99.9406 25.3882V25.6892C99.8717 25.6555 99.7993 25.6387 99.7231 25.6387C99.6133 25.6387 99.5071 25.687 99.4045 25.7837C99.302 25.8789 99.2508 26.048 99.2508 26.2912V27.1523ZM87.1956 27.1523L86.486 25.4102H86.7979L87.3581 26.7767L87.9271 25.4102H88.2171L87.4856 27.1523H87.1956ZM76.7588 26.6932H76.4688V26.6976C76.4688 26.7972 76.4966 26.885 76.5522 26.9612C76.6094 27.0359 76.6848 27.0945 76.7785 27.137C76.8737 27.1794 76.9931 27.2007 77.1366 27.2007C77.3636 27.2007 77.5357 27.145 77.6529 27.0337C77.7715 26.9209 77.8308 26.7818 77.8308 26.6163C77.8308 26.546 77.8191 26.4845 77.7957 26.4318C77.7723 26.379 77.7364 26.3336 77.688 26.2956C77.6529 26.2692 77.6177 26.248 77.5826 26.2318C77.5474 26.2157 77.4596 26.1872 77.319 26.1462L77.2157 26.1176L77.0773 26.0781C76.9821 26.0502 76.914 26.0195 76.873 25.9858C76.8335 25.9521 76.8137 25.9082 76.8137 25.854C76.8137 25.7837 76.8444 25.7244 76.906 25.676C76.9689 25.6277 77.0583 25.6035 77.174 25.6035C77.2721 25.6035 77.3505 25.6204 77.409 25.6541C77.4676 25.6863 77.4969 25.7317 77.4969 25.7903V25.7969H77.7891V25.7903C77.7891 25.6819 77.743 25.5838 77.6507 25.4959C77.5599 25.4065 77.4061 25.3619 77.1894 25.3619C76.9711 25.3619 76.8064 25.4139 76.695 25.5179C76.5837 25.6218 76.5281 25.7427 76.5281 25.8803C76.5281 26.0751 76.6431 26.215 76.873 26.2999L77.0729 26.3615L77.1718 26.3922L77.319 26.4383C77.4654 26.4823 77.5387 26.5577 77.5387 26.6646C77.5387 26.7437 77.5013 26.8126 77.4266 26.8711C77.3519 26.9297 77.2553 26.959 77.1366 26.959C77.0004 26.959 76.903 26.9348 76.8444 26.8865C76.7873 26.8367 76.7588 26.7737 76.7588 26.6976V26.6932ZM72.6036 26.97C72.7647 27.1238 72.9595 27.2007 73.188 27.2007C73.415 27.2007 73.6083 27.1238 73.768 26.97C73.9291 26.8147 74.0096 26.5848 74.0096 26.2802C74.0096 25.977 73.9291 25.7485 73.768 25.5947C73.6083 25.4395 73.415 25.3619 73.188 25.3619C72.9595 25.3619 72.7647 25.4395 72.6036 25.5947C72.444 25.7485 72.3642 25.977 72.3642 26.2802C72.3642 26.5848 72.444 26.8147 72.6036 26.97ZM73.5637 26.7723C73.4685 26.8968 73.3433 26.959 73.188 26.959C73.0313 26.959 72.9053 26.8968 72.8101 26.7723C72.715 26.6478 72.6674 26.4838 72.6674 26.2802C72.6674 26.0781 72.715 25.9148 72.8101 25.7903C72.9053 25.6658 73.0313 25.6035 73.188 25.6035C73.3433 25.6035 73.4685 25.6658 73.5637 25.7903C73.6589 25.9148 73.7065 26.0781 73.7065 26.2802C73.7065 26.4838 73.6589 26.6478 73.5637 26.7723ZM70.7831 27.1523H70.4931V25.4102H70.7831V25.7178C70.8315 25.6284 70.8834 25.5596 70.9391 25.5113C70.9962 25.4629 71.057 25.4263 71.1214 25.4014C71.1859 25.3751 71.2511 25.3619 71.317 25.3619C71.377 25.3619 71.429 25.3707 71.4729 25.3882V25.6892C71.4041 25.6555 71.3316 25.6387 71.2554 25.6387C71.1456 25.6387 71.0394 25.687 70.9369 25.7837C70.8344 25.8789 70.7831 26.048 70.7831 26.2912V27.1523ZM69.4196 27.1501V26.9063C69.3039 26.9414 69.2175 26.959 69.1603 26.959C69.0886 26.959 69.0271 26.9451 68.9758 26.9172C68.9245 26.8894 68.8872 26.8455 68.8638 26.7854C68.8403 26.7254 68.8286 26.6185 68.8286 26.4647V25.6518H69.3361V25.4102H68.8286V24.9972H68.5364V25.4102H68.2355V25.6518H68.5364V26.5482C68.5364 26.7298 68.5591 26.8623 68.6045 26.9458C68.6499 27.0278 68.7158 27.0908 68.8022 27.1347C68.8901 27.1787 68.9883 27.2006 69.0966 27.2006C69.1713 27.2006 69.279 27.1838 69.4196 27.1501ZM66.0612 27.1523H65.7713V25.4102H66.0612V25.7112C66.1228 25.616 66.1821 25.5457 66.2392 25.5003C66.2978 25.4549 66.3586 25.4205 66.4215 25.397C66.4845 25.3736 66.5548 25.3619 66.6324 25.3619C66.7408 25.3619 66.8382 25.3846 66.9246 25.43C67.0125 25.4739 67.0799 25.5398 67.1267 25.6277C67.1751 25.7141 67.1992 25.8525 67.1992 26.0429V27.1523H66.9092V26.1681C66.9092 26.0114 66.899 25.9008 66.8785 25.8364C66.858 25.772 66.817 25.7214 66.7555 25.6848C66.6954 25.6467 66.6302 25.6277 66.5599 25.6277C66.475 25.6277 66.3937 25.6526 66.3161 25.7024C66.2399 25.7522 66.1784 25.8225 66.1315 25.9133C66.0847 26.0026 66.0612 26.1301 66.0612 26.2956V27.1523ZM63.2696 26.97C63.4307 27.1238 63.6255 27.2007 63.854 27.2007C64.081 27.2007 64.2743 27.1238 64.434 26.97C64.5951 26.8147 64.6756 26.5848 64.6756 26.2802C64.6756 25.977 64.5951 25.7485 64.434 25.5947C64.2743 25.4395 64.081 25.3619 63.854 25.3619C63.6255 25.3619 63.4307 25.4395 63.2696 25.5947C63.11 25.7485 63.0302 25.977 63.0302 26.2802C63.0302 26.5848 63.11 26.8147 63.2696 26.97ZM64.2297 26.7723C64.1345 26.8968 64.0092 26.959 63.854 26.959C63.6973 26.959 63.5713 26.8968 63.4761 26.7723C63.3809 26.6478 63.3333 26.4838 63.3333 26.2802C63.3333 26.0781 63.3809 25.9148 63.4761 25.7903C63.5713 25.6658 63.6973 25.6035 63.854 25.6035C64.0092 25.6035 64.1345 25.6658 64.2297 25.7903C64.3249 25.9148 64.3725 26.0781 64.3725 26.2802C64.3725 26.4838 64.3249 26.6478 64.2297 26.7723ZM61.7523 26.6317H62.0423V26.6471C62.0423 26.7423 62.0094 26.8397 61.9435 26.9393C61.8776 27.0374 61.7882 27.1092 61.6755 27.1546C61.5627 27.2015 61.4294 27.2249 61.2756 27.2249C60.9681 27.2249 60.7162 27.118 60.5199 26.9042C60.3251 26.6903 60.2277 26.3696 60.2277 25.9419C60.2277 25.5172 60.3251 25.1972 60.5199 24.9819C60.7147 24.7666 60.9673 24.6589 61.2778 24.6589C61.4301 24.6589 61.5627 24.6824 61.6755 24.7292C61.7882 24.7746 61.8776 24.8479 61.9435 24.9489C62.0094 25.0485 62.0423 25.1444 62.0423 25.2367V25.2521H61.7523V25.2367C61.7523 25.1781 61.7333 25.1217 61.6952 25.0676C61.6586 25.0119 61.6059 24.9702 61.5371 24.9423C61.4682 24.9145 61.3855 24.9006 61.2888 24.9006C61.0413 24.9006 60.8568 24.9987 60.7352 25.195C60.6136 25.3898 60.5528 25.6387 60.5528 25.9419C60.5528 26.248 60.6136 26.4985 60.7352 26.6933C60.8582 26.8866 61.042 26.9832 61.2866 26.9832C61.455 26.9832 61.5744 26.9488 61.6447 26.88C61.7165 26.8097 61.7523 26.7321 61.7523 26.6471V26.6317ZM56.9624 26.7042H56.6724V26.7196C56.6724 26.7811 56.6424 26.8367 56.5823 26.8865C56.5237 26.9348 56.4307 26.959 56.3033 26.959C56.1261 26.959 55.987 26.899 55.8859 26.7789C55.7863 26.6573 55.7365 26.5035 55.7365 26.3175H56.9734V26.2209C56.9734 26.0041 56.9419 25.8357 56.8789 25.7156C56.8174 25.594 56.7324 25.5047 56.6241 25.4476C56.5172 25.3904 56.3978 25.3619 56.266 25.3619C56.0258 25.3619 55.8295 25.4505 55.6772 25.6277C55.5249 25.8034 55.4487 26.0253 55.4487 26.2934C55.4487 26.5555 55.5205 26.7723 55.664 26.9436C55.809 27.115 56.0141 27.2007 56.2792 27.2007C56.4095 27.2007 56.5252 27.1802 56.6263 27.1392C56.7273 27.0967 56.8086 27.0359 56.8701 26.9568C56.9316 26.8763 56.9624 26.7972 56.9624 26.7196V26.7042ZM56.6944 26.1H55.7541C55.7834 25.9433 55.8434 25.8218 55.9342 25.7353C56.0265 25.6475 56.1268 25.6035 56.2352 25.6035C56.326 25.6035 56.4058 25.6218 56.4747 25.6585C56.5435 25.6951 56.597 25.7522 56.635 25.8298C56.6746 25.906 56.6944 25.9843 56.6944 26.0649V26.1ZM53.5227 27.1523L52.8131 25.4102H53.1251L53.6853 26.7767L54.2543 25.4102H54.5443L53.8127 27.1523H53.5227ZM51.8252 25.4103H51.5352V27.1524H51.8252V25.4103ZM51.5352 24.7314V25.0236H51.8252V24.7314H51.5352ZM50.4617 26.9063V27.1501C50.3211 27.1838 50.2134 27.2006 50.1387 27.2006C50.0304 27.2006 49.9322 27.1787 49.8444 27.1347C49.7579 27.0908 49.692 27.0278 49.6466 26.9458C49.6012 26.8623 49.5785 26.7298 49.5785 26.5482V25.6518H49.2776V25.4102H49.5785V24.9972H49.8707V25.4102H50.3782V25.6518H49.8707V26.4647C49.8707 26.6185 49.8824 26.7254 49.9059 26.7854C49.9293 26.8455 49.9667 26.8894 50.0179 26.9172C50.0692 26.9451 50.1307 26.959 50.2025 26.959C50.2596 26.959 50.346 26.9414 50.4617 26.9063ZM48.3138 26.7042H48.0216V26.7196C48.0216 26.784 47.9931 26.8404 47.936 26.8887C47.8788 26.9356 47.7888 26.959 47.6657 26.959C47.5207 26.959 47.3984 26.9056 47.2989 26.7986C47.2007 26.6917 47.1517 26.5189 47.1517 26.2802C47.1517 26.0429 47.2007 25.8708 47.2989 25.7639C47.3984 25.657 47.5207 25.6035 47.6657 25.6035C47.7888 25.6035 47.8796 25.6277 47.9381 25.676C47.9967 25.7229 48.0246 25.7786 48.0216 25.843V25.8584H48.3138V25.843C48.3138 25.7537 48.2838 25.6724 48.2237 25.5991C48.1652 25.5244 48.0883 25.4666 47.9931 25.4256C47.8993 25.3831 47.7851 25.3619 47.6504 25.3619C47.3941 25.3619 47.1963 25.4432 47.0572 25.6057C46.9181 25.7683 46.8485 25.9931 46.8485 26.2802C46.8485 26.5687 46.9181 26.7942 47.0572 26.9568C47.1963 27.1194 47.3941 27.2007 47.6504 27.2007C47.7851 27.2007 47.8993 27.1794 47.9931 27.137C48.0883 27.0945 48.1652 27.0344 48.2237 26.9568C48.2838 26.8777 48.3138 26.7986 48.3138 26.7196V26.7042ZM45.5223 27.1524C45.4915 27.0586 45.4762 26.9781 45.4762 26.9107C45.3487 27.0367 45.2404 27.1165 45.151 27.1502C45.0617 27.1838 44.9753 27.2007 44.8918 27.2007C44.7541 27.2007 44.6355 27.1582 44.5359 27.0733C44.4363 26.9883 44.3865 26.8719 44.3865 26.724C44.3865 26.5555 44.4561 26.4259 44.5952 26.3351C44.7358 26.2428 44.9775 26.163 45.3202 26.0957L45.4762 26.0671V25.8694C45.4762 25.7625 45.4403 25.6878 45.3685 25.6453C45.2968 25.6014 45.2103 25.5794 45.1093 25.5794C44.9892 25.5794 44.8947 25.6065 44.8259 25.6607C44.7585 25.7134 44.7248 25.7749 44.7248 25.8452V25.8694H44.4107V25.8474C44.4107 25.7698 44.4429 25.69 44.5073 25.6079C44.5732 25.5259 44.6597 25.4644 44.7666 25.4234C44.875 25.3809 44.9929 25.3597 45.1203 25.3597C45.2477 25.3597 45.3634 25.3795 45.4674 25.419C45.5714 25.4586 45.6468 25.512 45.6937 25.5794C45.742 25.6468 45.7662 25.7727 45.7662 25.9572V26.6339C45.7662 26.7086 45.7676 26.7869 45.7706 26.869C45.7749 26.9495 45.794 27.044 45.8277 27.1524H45.5223ZM45.4762 26.2736L45.3883 26.2934C45.0939 26.3651 44.9057 26.434 44.8237 26.4999C44.7417 26.5643 44.7007 26.6412 44.7007 26.7306C44.7007 26.776 44.7124 26.8184 44.7358 26.858C44.7607 26.8975 44.7973 26.9283 44.8457 26.9502C44.894 26.9722 44.9416 26.9832 44.9885 26.9832C45.069 26.9832 45.1481 26.9598 45.2257 26.9129C45.3048 26.8646 45.3663 26.8009 45.4103 26.7218C45.4542 26.6427 45.4762 26.5504 45.4762 26.445V26.2736ZM41.9442 26.97C42.1053 27.1238 42.3001 27.2007 42.5286 27.2007C42.7556 27.2007 42.9489 27.1238 43.1086 26.97C43.2697 26.8147 43.3502 26.5848 43.3502 26.2802C43.3502 25.977 43.2697 25.7485 43.1086 25.5947C42.9489 25.4395 42.7556 25.3619 42.5286 25.3619C42.3001 25.3619 42.1053 25.4395 41.9442 25.5947C41.7846 25.7485 41.7048 25.977 41.7048 26.2802C41.7048 26.5848 41.7846 26.8147 41.9442 26.97ZM42.9043 26.7723C42.8091 26.8968 42.6839 26.959 42.5286 26.959C42.3719 26.959 42.2459 26.8968 42.1507 26.7723C42.0555 26.6478 42.0079 26.4838 42.0079 26.2802C42.0079 26.0781 42.0555 25.9148 42.1507 25.7903C42.2459 25.6658 42.3719 25.6035 42.5286 25.6035C42.6839 25.6035 42.8091 25.6658 42.9043 25.7903C42.9995 25.9148 43.0471 26.0781 43.0471 26.2802C43.0471 26.4838 42.9995 26.6478 42.9043 26.7723ZM40.1237 27.1523H39.8337V25.4102H40.1237V25.7178C40.172 25.6284 40.224 25.5596 40.2797 25.5113C40.3368 25.4629 40.3976 25.4263 40.462 25.4014C40.5264 25.3751 40.5916 25.3619 40.6575 25.3619C40.7176 25.3619 40.7696 25.3707 40.8135 25.3882V25.6892C40.7447 25.6555 40.6722 25.6387 40.596 25.6387C40.4862 25.6387 40.38 25.687 40.2775 25.7837C40.1749 25.8789 40.1237 26.048 40.1237 26.2912V27.1523ZM37.2509 27.1524H37.5672V26.1968H37.866C38.1721 26.1968 38.402 26.1199 38.5558 25.9661C38.7111 25.8123 38.7887 25.6219 38.7887 25.3949C38.7887 25.2601 38.7616 25.1422 38.7074 25.0412C38.6547 24.9401 38.5748 24.8632 38.4679 24.8105C38.3625 24.7578 38.1816 24.7314 37.9253 24.7314H37.2509V27.1524ZM37.7781 25.9551H37.5672V24.9753H37.9319C38.1428 24.9753 38.2834 25.0148 38.3537 25.0939C38.4255 25.173 38.4613 25.2777 38.4613 25.4081C38.4613 25.5575 38.4174 25.6863 38.3295 25.7947C38.2417 25.9016 38.0578 25.9551 37.7781 25.9551Z" fill="#FB1A20"/>
</g>
<path id="Union_3" fill-rule="evenodd" clip-rule="evenodd" d="M12.8717 28.6114L13.0545 28.6897L13.2216 28.6218C13.4722 28.5383 19.7383 26.3869 26.0045 17.9955L26.1089 17.8597V2.64343L18.5791 1.01424L17.4094 0.742695C16.4786 0.494912 15.5334 0.304827 14.5792 0.173523C13.2427 0.0753922 11.8991 0.193537 10.6002 0.523389L0 2.64343V17.8388L0.0783268 17.9641C3.25845 22.6441 7.6921 26.3339 12.8717 28.6114ZM13.0545 27.5722C8.23084 25.3528 4.08539 21.8886 1.04436 17.536V3.49459L10.8039 1.56775C11.9955 1.25529 13.2303 1.14063 14.4591 1.22833C15.3693 1.34408 16.2711 1.5185 17.1588 1.75051L17.266 1.77664C17.6366 1.86703 18.0026 1.95627 18.3598 2.03248L25.0646 3.48936V17.5151C19.5921 24.7316 14.0988 27.1545 13.0545 27.5722ZM12.8664 26.1833L13.0544 26.2669L13.2737 26.1833C13.4878 26.1102 18.6209 24.3296 23.8426 17.4055L23.9471 17.2645V4.64867L23.5346 4.55991L22.5163 4.33536L21.4041 4.09517C20.8819 3.98029 20.3597 3.86542 19.8375 3.76098L17.66 3.2858C17.4367 3.23897 17.2109 3.18468 16.9825 3.12979L16.9825 3.12979L16.9825 3.12978L16.9825 3.12977L16.9824 3.12977C16.8798 3.1051 16.7767 3.08032 16.6731 3.05604L16.01 2.89416C15.4674 2.76416 14.9184 2.66306 14.3651 2.59129C14.1175 2.55888 13.8681 2.54318 13.6184 2.5443C12.7656 2.57278 11.9176 2.68295 11.0858 2.87327L10.5636 2.97249L7.83265 3.52077L2.21401 4.64867V17.2645L2.30278 17.3794C2.85702 18.2259 3.47499 19.0289 4.15129 19.7814C4.28112 19.9154 4.41176 20.0542 4.54578 20.1966L4.54597 20.1968L4.54609 20.1969C4.75157 20.4153 4.96501 20.6421 5.19565 20.8728C5.99441 21.6748 6.84383 22.4248 7.73866 23.1181C8.11462 23.4106 8.52192 23.703 8.97622 24.0163C9.94153 24.6803 10.9557 25.2703 12.0101 25.7812C12.2921 25.9222 12.5792 26.0528 12.8664 26.1833ZM3.25533 15.9987L15.4125 3.84155C15.0046 3.75048 14.5923 3.68001 14.1771 3.63044C13.9607 3.60233 13.7426 3.58837 13.5244 3.58865C13.3582 3.59444 13.1922 3.60375 13.0265 3.61659L3.24704 13.3961L3.25533 15.9987ZM7.28066 4.66284L3.23213 8.71138L3.22181 5.47373L7.28066 4.66284ZM19.2436 4.71L19.5608 4.77922L20.968 5.07943L5.91369 20.1287L5.91103 20.126C5.54551 19.771 5.21654 19.4107 4.91889 19.0817L4.89675 19.0569L19.2436 4.71ZM22.8505 9.98009V7.89141L8.40735 22.3346C8.74845 22.6023 9.12306 22.8667 9.54017 23.1547C9.56702 23.1731 9.59391 23.1915 9.62084 23.2098L22.8505 9.98009ZM22.8505 14.6797V16.9303C18.4381 22.7526 14.0152 24.763 13.0701 25.139C12.916 25.0696 12.7619 24.9974 12.6078 24.9224L22.8505 14.6797Z" fill="#FB1A20"/>
<path id="Vector" d="M31.6364 0H29.8788V29H31.6364V0Z" fill="black"/>
</g>
</svg>
