<svg width="24" height="24" viewBox="0 0 24 24" fill="none" xmlns="http://www.w3.org/2000/svg">
<path id="Union" fill-rule="evenodd" clip-rule="evenodd" d="M21.7682 5.25929C21.7597 5.93565 21.4186 6.38187 21.0873 6.81517C20.9861 6.94755 20.8858 7.07872 20.7962 7.21487C20.0343 8.3674 20.2722 8.93065 21.6418 9.15187C21.7327 9.16667 21.8249 9.18006 21.9175 9.19351L21.9175 9.19352C22.3131 9.25103 22.7154 9.30951 23.0543 9.48275C23.7048 9.81364 24.0857 10.349 23.9835 11.1818C23.927 11.6242 23.9403 12.0754 23.9537 12.5287C23.9606 12.7611 23.9675 12.9941 23.9649 13.2266C23.9538 14.0129 23.5839 14.5074 22.7885 14.6487C22.5024 14.6989 22.2162 14.7543 21.9309 14.8096C21.7306 14.8483 21.5307 14.887 21.3315 14.9238C20.3632 15.1209 20.1086 15.7603 20.6717 16.5968C20.8262 16.8274 20.988 17.0533 21.15 17.2793C21.257 17.4286 21.364 17.578 21.469 17.7289C21.915 18.374 21.8946 19.0023 21.3464 19.573C20.9885 19.9458 20.6207 20.3102 20.2531 20.6743L20.2531 20.6743L20.2527 20.6747C20.0266 20.8986 19.8007 21.1225 19.5771 21.3482C18.9898 21.9412 18.4081 21.9765 17.7502 21.5192C17.4315 21.3293 17.1271 21.1162 16.8396 20.8816C15.8564 19.9522 14.9681 20.3463 14.7377 21.8111C14.7074 22.2004 14.6338 22.5851 14.5183 22.9581C14.2786 23.5696 13.9125 24.0046 13.1858 23.9991C12.8558 23.9991 12.5257 23.9966 12.1956 23.9941H12.1954C11.5348 23.9891 10.874 23.9842 10.2123 23.9991C9.66775 24.0158 9.45959 23.8132 9.41871 23.2666C9.34435 22.5915 9.22829 21.9216 9.07118 21.2609C8.90949 20.4578 8.25345 20.1622 7.56024 20.5935C7.2911 20.7599 7.03103 20.9408 6.77141 21.1214L6.77136 21.1214L6.77131 21.1215C6.5756 21.2576 6.38015 21.3935 6.18126 21.523C5.55682 21.9449 4.96582 21.8948 4.42687 21.365C3.8334 20.7763 3.24241 20.1852 2.6539 19.5915C2.05547 18.993 2.0406 18.3554 2.52194 17.6806C2.58909 17.5864 2.65688 17.4925 2.72472 17.3986C2.96479 17.0663 3.20554 16.733 3.42144 16.3793C3.81172 15.7473 3.50879 15.0781 2.77655 14.9089C2.64501 14.8775 2.51201 14.8534 2.37893 14.8292L2.37892 14.8292C2.29954 14.8148 2.22012 14.8004 2.14096 14.7844C3.54474e-06 14.3624 0 14.3624 0 12.1354V11.4848C0 9.74486 0.395855 9.31359 2.15025 9.14443C3.65561 8.99943 3.96969 8.37484 3.13895 7.16654C3.06053 7.05222 2.98099 6.93865 2.9015 6.82515L2.90147 6.82511C2.8039 6.68579 2.7064 6.54658 2.61115 6.40624C1.97928 5.47678 2.0183 5.01949 2.797 4.21643C3.27277 3.7294 3.75348 3.24732 4.23916 2.7702C4.51941 2.50202 4.88769 2.34507 5.27518 2.32865C5.66267 2.31223 6.04289 2.43746 6.34481 2.68097C6.5023 2.76595 6.66492 2.84107 6.83173 2.9059C8.56196 3.88555 8.91878 3.70709 9.24773 1.6976C9.49491 0.210465 9.73279 0.00226772 11.2344 0.000408803C11.4513 0.000408803 11.6682 0.00144219 11.885 0.00247525C12.3185 0.00454039 12.7516 0.00660421 13.184 0.000408803C14.0389 -0.0163215 14.457 0.481868 14.6354 1.23659C14.7006 1.51212 14.7411 1.79397 14.7817 2.0761L14.7817 2.07613L14.7817 2.07614C14.8071 2.25273 14.8325 2.42943 14.864 2.60475C15.0369 3.57139 15.7152 3.85023 16.5497 3.29255C16.6675 3.21383 16.7832 3.13171 16.8989 3.04966L16.899 3.0496C17.3703 2.71511 17.8401 2.38168 18.449 2.28316C18.7724 2.22925 19.053 2.19207 19.302 2.43559C19.6519 2.78548 20.0017 3.13209 20.3515 3.47869L20.3515 3.47875C20.7451 3.86869 21.1386 4.25864 21.5322 4.65328C21.6117 4.73218 21.6738 4.82687 21.7145 4.93125C21.7551 5.03563 21.7734 5.14739 21.7682 5.25929ZM10.1045 23.302H12.3346C13.8846 23.302 13.9088 23.302 14.1039 21.7089C14.3158 19.9615 15.5907 19.0618 17.2484 20.363C18.5861 21.4063 18.6106 21.3819 19.7449 20.2472L19.7555 20.2366L19.7639 20.2282C21.2758 18.7159 21.2921 18.6997 20.0696 16.9221C19.8615 16.6534 19.7386 16.3284 19.7168 15.9892C19.6949 15.6499 19.7751 15.3119 19.9469 15.0186C20.2833 14.3587 20.9115 14.2416 21.5173 14.2137C23.0599 14.1431 23.2884 13.9516 23.2903 12.4645V12.1856C23.2908 12.0792 23.2915 11.9782 23.2921 11.8822C23.299 10.8215 23.3019 10.3821 23.0837 10.1688C22.9295 10.018 22.6647 9.98022 22.2126 9.91578C21.9476 9.878 21.6181 9.83104 21.2088 9.74672C19.8168 9.46044 19.2927 8.25958 20.0937 7.06244C20.2416 6.84161 20.3964 6.62562 20.5513 6.40955L20.5513 6.40954C20.6846 6.22364 20.8179 6.03769 20.9468 5.84857C21.1085 5.61062 21.2423 5.34294 21.0081 5.08641C20.8391 4.90189 20.675 4.70653 20.5103 4.51054L20.5103 4.51053C19.9832 3.88317 19.4508 3.24947 18.7371 2.94494C18.2487 2.73731 17.8485 3.09699 17.4407 3.46357C17.2277 3.65495 17.0127 3.84822 16.782 3.96362C16.7506 3.97931 16.7216 3.9997 16.6929 4.01984L16.6929 4.01985C16.6706 4.0355 16.6486 4.051 16.6258 4.064C16.4109 4.18085 16.1723 4.24744 15.9279 4.25878C15.6836 4.27012 15.4398 4.22591 15.215 4.12948C14.9901 4.03305 14.7901 3.8869 14.6298 3.70202C14.4696 3.51714 14.3533 3.29834 14.2898 3.06205C14.1759 2.58096 14.0896 2.09374 14.0314 1.6028C13.9497 0.939162 13.643 0.608273 12.9331 0.654746C12.2844 0.691925 11.6341 0.691925 10.9854 0.654746C10.3331 0.619427 10.0078 0.900123 9.92979 1.53773C9.90083 1.7761 9.85186 2.0118 9.80287 2.24762L9.80286 2.24765C9.77009 2.40539 9.7373 2.56318 9.71049 2.72187C9.5042 3.94318 8.18469 4.79084 6.93394 3.83722C6.70212 3.66052 6.50802 3.50505 6.34197 3.37205C5.8756 2.9985 5.63053 2.80221 5.39279 2.8107C5.12952 2.82011 4.87522 3.08064 4.33933 3.62965C4.21365 3.75841 4.07248 3.90303 3.91208 4.064C3.75827 4.21825 3.62134 4.35185 3.50083 4.46942C3.0532 4.90617 2.83224 5.12176 2.81447 5.35296C2.79715 5.57836 2.97294 5.81859 3.3201 6.29302C3.4256 6.4372 3.54693 6.60301 3.68348 6.79661C4.72051 8.27074 4.27262 9.43442 2.51079 9.77088C2.4517 9.78253 2.39434 9.79934 2.33705 9.81614C2.2754 9.83422 2.21382 9.85227 2.15025 9.86383L2.14485 9.86486C1.40861 10.0048 1.03828 10.0752 0.852006 10.2988C0.663474 10.5252 0.663474 10.9086 0.663474 11.68V12.0518C0.663474 13.8772 0.663475 13.8772 2.49964 14.2081C2.57368 14.2218 2.64771 14.239 2.72389 14.2566C2.772 14.2678 2.82097 14.2791 2.87133 14.2899C4.20571 14.5948 4.65918 15.7399 3.89907 16.8924C2.6762 18.7513 2.6762 18.7513 4.22616 20.3054C4.25892 20.3381 4.29324 20.3693 4.32756 20.4005C4.38476 20.4525 4.44197 20.5045 4.49192 20.5638C5.01043 21.1902 5.5531 21.3389 6.20728 20.7236C6.51498 20.4655 6.84597 20.2365 7.19599 20.0395C8.24231 19.3722 9.42615 19.8537 9.68448 21.0638C9.77691 21.5156 9.85977 21.9703 9.94603 22.4437L9.94605 22.4438L9.94609 22.444C9.99683 22.7225 10.0487 23.0074 10.1045 23.302ZM12.0094 5.98055C15.2004 5.98055 18.0755 8.73733 18.0123 12.022C17.9472 15.3365 15.5089 18.1174 11.844 18.0394C8.14195 17.9613 5.9378 15.0391 5.94895 11.9365C5.95575 11.1474 6.11793 10.3673 6.4262 9.64085C6.73448 8.9144 7.18282 8.25582 7.74562 7.70272C8.30842 7.14963 8.97464 6.71286 9.70623 6.41737C10.4378 6.12187 11.2205 5.97344 12.0094 5.98055ZM11.9035 17.3311C14.9867 17.3311 17.3562 15.0056 17.3376 11.983C17.3353 11.279 17.1944 10.5823 16.9229 9.93273C16.6514 9.28318 16.2546 8.69347 15.7553 8.19729C15.256 7.7011 14.6638 7.30815 14.0126 7.04087C13.3615 6.77359 12.664 6.63722 11.9602 6.63954C11.2563 6.64185 10.5598 6.78282 9.9104 7.05438C9.261 7.32595 8.67143 7.72279 8.17537 8.22226C7.6793 8.72172 7.28645 9.31403 7.01924 9.96536C6.75202 10.6167 6.61569 11.3143 6.61801 12.0183C6.61801 15.0205 9.02658 17.398 11.9035 17.3311ZM10.8256 14.6729C11.3348 14.9647 11.7399 15.29 11.8775 15.8942C12.1926 15.7906 12.2276 15.5841 12.2594 15.3965C12.2802 15.2742 12.2995 15.16 12.3941 15.0874C12.5129 14.9962 12.6512 14.9311 12.7895 14.8659C12.9304 14.7996 13.0713 14.7332 13.1914 14.6394C13.9627 14.0408 13.9701 13.0463 13.2918 12.3176C13.117 12.1247 12.9059 11.9683 12.6705 11.8573C12.4351 11.7463 12.1802 11.6829 11.9202 11.6707C11.3181 11.6187 10.8312 11.3324 10.794 10.6576C10.7642 10.1204 11.1266 9.81736 11.6043 9.65935C12.2213 9.45859 12.684 9.69281 13.0353 10.2022C13.0814 10.269 13.1112 10.3479 13.1411 10.4271C13.2077 10.6033 13.2747 10.7806 13.5222 10.8267C14.0012 10.4161 13.7488 10.0991 13.4947 9.78001C13.4451 9.7178 13.3955 9.65551 13.3512 9.59243C13.2327 9.42479 13.0446 9.31482 12.8562 9.20474C12.51 9.00234 12.163 8.79957 12.2473 8.23728C12.2659 8.10715 12.0986 8.05139 11.9685 8.05139C11.8384 8.05139 11.6767 8.11273 11.6953 8.23728C11.7824 8.79205 11.4385 8.97792 11.0876 9.16764C10.9964 9.21695 10.9047 9.26652 10.82 9.32289C10.5851 9.47577 10.3981 9.69197 10.2807 9.94654C10.1633 10.2011 10.1203 10.4837 10.1565 10.7617C10.229 11.6558 10.8219 12.1745 12.015 12.3269C12.5558 12.3957 12.9591 12.628 13.1301 13.1523C13.2602 13.5519 13.0706 13.8791 12.7695 14.1356C12.6196 14.2571 12.4434 14.3419 12.255 14.3834C12.0666 14.4249 11.8711 14.4219 11.684 14.3746C11.497 14.3274 11.3235 14.2371 11.1774 14.1111C11.0313 13.9851 10.9166 13.8267 10.8423 13.6486C10.8163 13.5898 10.8006 13.5227 10.7849 13.4557C10.7321 13.2302 10.6796 13.0063 10.2383 13.1095C10.0562 13.762 10.2532 14.3382 10.8256 14.6729Z" fill="#2C2829"/>
</svg>
