<?xml version="1.0" encoding="UTF-8"?>
<svg version="1.1" xmlns="http://www.w3.org/2000/svg" width="512" height="512">
<path d="M0 0 C0.72015289 -0.00570007 1.44030579 -0.01140015 2.18228149 -0.01727295 C3.70711803 -0.02672335 5.23197499 -0.03325709 6.75683594 -0.03710938 C9.08565062 -0.04680873 11.41358026 -0.0778274 13.7421875 -0.109375 C15.22395309 -0.11590587 16.705725 -0.12115601 18.1875 -0.125 C18.88241547 -0.1373468 19.57733093 -0.1496936 20.29330444 -0.16241455 C23.35291155 -0.14837296 25.44245696 0.04540993 28.14013672 1.54296875 C30.40023733 3.90810943 30.69925456 6.29989469 31.4765625 9.453125 C33.41622228 14.92333269 35.41831585 17.21350117 40.49902344 19.66308594 C48.34724067 23.02487412 48.34724067 23.02487412 56.7265625 22.203125 C57.8403125 21.6875 58.9540625 21.171875 60.1015625 20.640625 C64.28990592 18.9797302 67.37362491 17.89715412 71.7265625 19.203125 C75.39737797 21.89099542 78.54222356 24.99372717 81.67456055 28.27294922 C83.16214026 29.82611801 84.68156832 31.3415653 86.20898438 32.85546875 C94.41913219 41.20233169 94.41913219 41.20233169 94.7265625 47.203125 C93.6953125 50.2734375 93.6953125 50.2734375 92.2265625 53.328125 C90.27211304 57.05951485 90.27211304 57.05951485 89.93359375 61.109375 C90.19527344 61.8003125 90.45695312 62.49125 90.7265625 63.203125 C91.18095703 64.91628906 91.18095703 64.91628906 91.64453125 66.6640625 C94.06556305 74.86795505 94.06556305 74.86795505 100.16796875 80.4140625 C102.64764767 81.51008507 105.08163345 82.302831 107.6796875 83.125 C110.7265625 84.203125 110.7265625 84.203125 112.7265625 87.203125 C112.94597917 89.76956247 113.05451417 92.2250534 113.0625 94.79296875 C113.0691568 95.53390274 113.0758136 96.27483673 113.08267212 97.03822327 C113.09278944 98.60415161 113.09748942 100.17012299 113.09716797 101.73608398 C113.10154092 104.12881649 113.13786517 106.51970327 113.17578125 108.91210938 C113.18164977 110.43488954 113.18561893 111.95767844 113.1875 113.48046875 C113.20187103 114.19412094 113.21624207 114.90777313 113.23104858 115.64305115 C113.19964484 119.06613582 112.98520708 120.87143868 110.85229492 123.60668945 C108.525152 125.35438528 106.38252235 126.41986424 103.6640625 127.453125 C102.80683594 127.78828125 101.94960938 128.1234375 101.06640625 128.46875 C98.7265625 129.203125 98.7265625 129.203125 95.7265625 129.203125 C95.62859375 129.76 95.530625 130.316875 95.4296875 130.890625 C94.44836212 135.89876833 93.07907563 139.90638951 90.43359375 144.28125 C88.64585373 149.1407422 91.97265953 154.22825337 93.984375 158.60546875 C94.93812628 161.94359824 94.65084559 163.85712498 93.7265625 167.203125 C91.48287106 169.37479496 91.48287106 169.37479496 88.73777771 171.50831604 C83.629864 176.40604805 82.61361168 180.41831274 82.45490158 187.21037495 C82.45212231 189.5817164 82.4992055 191.94925043 82.54711914 194.32006836 C82.54498545 196.0376746 82.53840384 197.75528015 82.52774048 199.47285461 C82.51102105 204.11425086 82.55505655 208.75330643 82.60948873 213.39433742 C82.65525242 218.2658748 82.64172305 223.13723265 82.63389587 228.00892639 C82.62746097 237.23589936 82.66920854 246.46194488 82.73061508 255.68869168 C82.83873651 272.20061721 82.86051427 288.7128162 82.87115759 305.2250548 C82.87673585 311.01268792 82.90186303 316.79980959 82.94389069 322.58728969 C82.96784018 326.19658568 82.97983392 329.80586039 82.98935318 333.41522026 C82.99648543 335.07963706 83.00882694 336.74404161 83.02697182 338.40837479 C83.18939199 353.65362058 81.04480574 366.35625313 70.7265625 378.203125 C72.09358938 381.37462735 73.52651588 383.07849816 76.2265625 385.203125 C96.71666412 402.64940717 109.04995261 429.89892414 112.7265625 456.203125 C113.05728179 462.69602209 113.05728179 462.69602209 110.8515625 466.078125 C107.42991222 469.49977528 105.14592869 469.31947112 100.38543701 469.32754517 C99.04971649 469.32215225 99.04971649 469.32215225 97.68701172 469.31665039 C96.75037689 469.31679642 95.81374207 469.31694244 94.84872437 469.3170929 C91.74287628 469.31639444 88.63708765 469.30860515 85.53125 469.30078125 C83.38176506 469.29891683 81.2322797 469.29749304 79.08279419 469.29649353 C73.41761101 469.29267022 67.75245335 469.28284151 62.08728027 469.27178955 C56.30949244 469.26157144 50.5317005 469.25699505 44.75390625 469.25195312 C33.4114471 469.24121909 22.06900692 469.22414489 10.7265625 469.203125 C10.78457031 470.44449219 10.84257812 471.68585938 10.90234375 472.96484375 C10.94925488 474.60673314 10.99475359 476.24866332 11.0390625 477.890625 C11.08095703 478.70724609 11.12285156 479.52386719 11.16601562 480.36523438 C11.18212891 481.16123047 11.19824219 481.95722656 11.21484375 482.77734375 C11.25411987 483.86921997 11.25411987 483.86921997 11.29418945 484.9831543 C10.32952846 488.75591232 8.9307614 489.97102049 5.7265625 492.203125 C1.57903017 492.95300757 -2.52560416 492.87276743 -6.73048401 492.83131409 C-8.64988663 492.84195567 -8.64988663 492.84195567 -10.60806507 492.85281223 C-14.15797356 492.87175601 -17.70719398 492.85948957 -21.2570852 492.8420893 C-25.08604927 492.82872949 -28.91491171 492.84414729 -32.74386597 492.85591125 C-40.24372478 492.87430214 -47.74332329 492.8657662 -55.24317402 492.84782303 C-61.33714732 492.83380536 -67.43104989 492.82990243 -73.52503777 492.8332653 C-74.82532136 492.83398147 -74.82532136 492.83398147 -76.1518733 492.8347121 C-77.91278372 492.83573841 -79.67369413 492.83679377 -81.43460452 492.83787786 C-97.00943367 492.84644772 -112.58413701 492.82976011 -128.15893555 492.80004883 C-143.27878096 492.77120575 -158.39844516 492.76412985 -173.51831055 492.77954102 C-189.97660839 492.79629338 -206.43482016 492.80034764 -222.89312023 492.78283066 C-224.64729781 492.78098623 -226.4014754 492.7791515 -228.155653 492.77732658 C-229.01878173 492.77641449 -229.88191045 492.7755024 -230.7711946 492.77456268 C-236.85981771 492.76895165 -242.94839888 492.77226968 -249.03701973 492.77887154 C-256.45413222 492.78659448 -263.87106618 492.77988962 -271.28814263 492.7546965 C-275.07398526 492.74217772 -278.8595496 492.73608348 -282.64540291 492.74723816 C-286.7449863 492.75908938 -290.8438349 492.74006768 -294.94337463 492.7177887 C-296.14617949 492.72602946 -297.34898434 492.73427023 -298.58823782 492.74276072 C-299.68342134 492.73171303 -300.77860485 492.72066534 -301.90697575 492.70928288 C-302.85356621 492.70809139 -303.80015667 492.70689991 -304.77543169 492.70567232 C-308.05324743 492.0462433 -309.24524219 490.81626667 -311.2734375 488.203125 C-311.68450516 485.49967318 -311.85862564 483.2099262 -311.83984375 480.5078125 C-311.84604233 479.76032745 -311.85224091 479.01284241 -311.85862732 478.2427063 C-311.86572149 476.66084084 -311.86255833 475.07890066 -311.84985352 473.49707031 C-311.83609772 471.10597468 -311.86992135 468.7188834 -311.90820312 466.328125 C-311.95164929 457.51258673 -311.39418231 450.72104922 -306.2734375 443.203125 C-305.6959375 442.295625 -305.1184375 441.388125 -304.5234375 440.453125 C-297.10630133 433.03598883 -287.28738877 428.5886929 -276.77397156 428.08287048 C-275.89682999 428.08509109 -275.01968842 428.08731171 -274.1159668 428.08959961 C-273.11530685 428.08967514 -272.11464691 428.08975067 -271.08366394 428.08982849 C-270.0157814 428.09498978 -268.94789886 428.10015106 -267.84765625 428.10546875 C-266.74492874 428.1068837 -265.64220123 428.10829865 -264.50605774 428.10975647 C-260.99098983 428.11534496 -257.47598609 428.12789541 -253.9609375 428.140625 C-251.57487071 428.14564148 -249.18880293 428.15020413 -246.80273438 428.15429688 C-240.95959093 428.16445886 -235.11658587 428.18403668 -229.2734375 428.203125 C-229.2734375 415.663125 -229.2734375 403.123125 -229.2734375 390.203125 C-234.6397644 390.2345459 -234.6397644 390.2345459 -240.11450195 390.26660156 C-251.95684478 390.33298756 -263.79920077 390.37731097 -275.641675 390.41037369 C-282.81923765 390.43094768 -289.99662328 390.45896857 -297.17407227 390.50488281 C-303.43421928 390.54490977 -309.694238 390.57059529 -315.95450944 390.57947898 C-319.26548724 390.58466718 -322.57601533 390.59889073 -325.88689613 390.62604523 C-329.59449313 390.65523417 -333.30133913 390.65907436 -337.0090332 390.65722656 C-338.09157379 390.67160767 -339.17411438 390.68598877 -340.28945923 390.70080566 C-352.31604108 390.6362772 -362.66829397 386.42605408 -371.43359375 378.16796875 C-378.127483 371.07369734 -383.3803366 362.7107417 -383.41045189 352.7335825 C-383.41552643 351.83840272 -383.42060097 350.94322295 -383.42582929 350.02091652 C-383.42632705 349.04146173 -383.42682481 348.06200694 -383.42733765 347.0528717 C-383.4317199 346.0091534 -383.43610215 344.9654351 -383.4406172 343.89008898 C-383.45400664 340.38123263 -383.46018448 336.87240141 -383.46630859 333.36352539 C-383.47420958 330.85203945 -383.48247853 328.34055465 -383.49108887 325.82907104 C-383.51504919 318.28296912 -383.53023895 310.73686844 -383.54314893 303.1907405 C-383.54686277 301.05780259 -383.55083587 298.92486532 -383.5549016 296.79192805 C-383.58014426 283.53537218 -383.60218878 270.27881523 -383.61462975 257.02224064 C-383.61755926 253.95257119 -383.62052095 250.88290178 -383.62353516 247.81323242 C-383.62428121 247.05031647 -383.62502726 246.28740051 -383.62579592 245.50136589 C-383.63843634 233.15603311 -383.67164244 220.81084479 -383.71333699 208.46557946 C-383.75583226 195.77873989 -383.77933367 183.0919741 -383.78455031 170.40506357 C-383.78795625 163.28684605 -383.79961415 156.1688541 -383.83265305 149.05070686 C-383.86370929 142.34885317 -383.86902799 135.64745997 -383.85726929 128.94552231 C-383.85704894 126.49181466 -383.86532113 124.03808857 -383.88292313 121.58444405 C-383.99524973 105.0186179 -383.87085392 91.83880199 -371.58984375 79.35546875 C-361.68023067 70.14771696 -352.00183776 66.57094643 -338.43464661 66.72210693 C-337.29410393 66.71868923 -336.15356125 66.71527153 -334.97845668 66.71175027 C-331.18435077 66.70519972 -327.39096376 66.72710175 -323.59692383 66.74902344 C-320.86626747 66.75238511 -318.13562479 66.74969269 -315.40496826 66.74725342 C-309.54028292 66.74516331 -303.67577657 66.75763646 -297.81113625 66.78020477 C-289.33204432 66.81281265 -280.85303831 66.82314074 -272.37389048 66.82815674 C-258.61468987 66.83689566 -244.8555845 66.86347302 -231.09643555 66.90136719 C-217.73641433 66.93812369 -204.37641905 66.9664176 -191.01635742 66.98339844 C-190.19184961 66.98444933 -189.36734179 66.98550023 -188.51784889 66.98658296 C-184.38123829 66.99180339 -180.24462751 66.99685815 -176.10801661 67.00183058 C-141.82975505 67.0432489 -107.55160658 67.11365895 -73.2734375 67.203125 C-71.52195146 61.71991292 -71.04870483 59.36072314 -73.6484375 54.140625 C-75.72209754 49.92122583 -76.81895692 46.93745425 -76.2734375 42.203125 C-75.234375 40.359375 -75.234375 40.359375 -73.6484375 38.703125 C-72.71064453 37.71119141 -72.71064453 37.71119141 -71.75390625 36.69921875 C-70.52607422 35.46365234 -70.52607422 35.46365234 -69.2734375 34.203125 C-68.10282356 33.00655055 -66.93225433 31.80993236 -65.76171875 30.61328125 C-63.27867457 28.09367455 -60.79168278 25.57829354 -58.28515625 23.08203125 C-57.48791138 22.28647827 -57.48791138 22.28647827 -56.67456055 21.47485352 C-53.87652431 18.93521756 -51.26428987 18.88497645 -47.5625 18.8984375 C-44.16190666 19.3510762 -41.44124766 20.80122442 -38.44921875 22.42578125 C-33.67948488 24.12986929 -29.04557218 21.42549589 -24.5859375 19.640625 C-18.48873495 17.203125 -18.48873495 17.203125 -16.2734375 17.203125 C-16.01820313 16.22472656 -16.01820313 16.22472656 -15.7578125 15.2265625 C-14.26676449 9.84927235 -12.75820728 5.5871902 -9.2734375 1.203125 C-6.30200958 -0.28258896 -3.25952856 0.01981876 0 0 Z M1.7265625 17.203125 C1.0046875 19.12125 0.2828125 21.039375 -0.4609375 23.015625 C-2.27701594 27.84120486 -3.54735413 30.03113775 -8.2734375 32.203125 C-10.5485132 33.06098451 -12.84202503 33.8709797 -15.1484375 34.640625 C-19.06126777 35.98426079 -22.6344647 37.22547128 -26.0859375 39.515625 C-30.28200785 41.73707401 -33.61665134 41.92842975 -38.2734375 41.203125 C-40.26171875 40.484375 -40.26171875 40.484375 -42.0859375 39.640625 C-44.98728662 38.02326732 -44.98728662 38.02326732 -47.20703125 38.359375 C-49.95739877 39.48239841 -51.48177554 41.12187994 -53.5234375 43.265625 C-54.22984375 43.99910156 -54.93625 44.73257813 -55.6640625 45.48828125 C-56.46070313 46.33712891 -56.46070313 46.33712891 -57.2734375 47.203125 C-56.79612912 48.6620676 -56.31652708 50.12025996 -55.8359375 51.578125 C-55.56910156 52.39023437 -55.30226563 53.20234375 -55.02734375 54.0390625 C-54.32164021 56.21344299 -54.32164021 56.21344299 -53.2734375 58.203125 C-52.76914256 63.34989983 -54.06925044 66.34253101 -56.5234375 70.828125 C-59.00951236 75.43194456 -60.77972277 79.66066018 -62.0859375 84.765625 C-63.13575031 88.2084609 -63.72277247 89.78017724 -66.59765625 91.98828125 C-69.12244801 93.25252004 -71.61564819 94.25756534 -74.2734375 95.203125 C-76.2534375 96.193125 -76.2534375 96.193125 -78.2734375 97.203125 C-78.2734375 101.823125 -78.2734375 106.443125 -78.2734375 111.203125 C-76.3553125 111.945625 -74.4371875 112.688125 -72.4609375 113.453125 C-68.22215971 115.09394221 -65.53582495 116.18265937 -63.2734375 120.203125 C-62.42023619 122.38842126 -61.63436187 124.60059553 -60.8984375 126.828125 C-59.35908027 131.32922426 -57.70944525 135.51185559 -55.4609375 139.703125 C-53.53136466 143.45846455 -52.4529024 145.91810839 -53.2734375 150.203125 C-54.30340235 152.53798555 -55.38654778 154.80597748 -56.59375 157.0546875 C-57.49959423 159.18745399 -57.49959423 159.18745399 -56.59765625 161.23828125 C-54.25951889 164.7075529 -51.61090572 167.66548576 -48.2734375 170.203125 C-44.86205592 170.37369408 -42.9904219 169.06685823 -39.8984375 167.578125 C-35.49634418 165.90836547 -33.80733882 165.93957873 -29.2734375 167.203125 C-26.30083389 168.6116552 -23.39353502 170.11715729 -20.484375 171.65234375 C-16.36618162 173.64130089 -12.16681656 174.92210295 -7.76953125 176.1484375 C-3.928095 177.77157958 -2.78398924 180.07615462 -1.10546875 183.78125 C-0.16145833 186.25520833 0.78255208 188.72916667 1.7265625 191.203125 C6.6765625 191.203125 11.6265625 191.203125 16.7265625 191.203125 C17.1390625 189.223125 17.5515625 187.243125 17.9765625 185.203125 C19.85881759 180.15999838 21.35171741 178.04019697 26.23046875 175.69921875 C30.50893429 173.9353321 34.88004785 172.48386061 39.28588867 171.07397461 C42.35556424 169.97869275 45.14679716 168.54056112 47.98681641 166.95117188 C51.10847994 165.60893541 53.54553189 166.3355712 56.7265625 167.203125 C57.96319624 167.72752032 59.19257405 168.26935901 60.4140625 168.828125 C64.15603505 170.40565675 64.15603505 170.40565675 67.7265625 169.203125 C69.92805735 167.3636647 69.92805735 167.3636647 71.9765625 165.140625 C72.68296875 164.40714844 73.389375 163.67367187 74.1171875 162.91796875 C74.64828125 162.35207031 75.179375 161.78617188 75.7265625 161.203125 C75.2934375 160.25953125 75.2934375 160.25953125 74.8515625 159.296875 C70.35609076 148.93231515 70.35609076 148.93231515 71.7265625 143.203125 C73.04503853 140.20698677 74.53124121 137.36585644 76.11328125 134.5 C77.83260389 130.98642056 78.72714248 127.6028269 79.7265625 123.828125 C81.12925733 119.5872015 82.25915766 117.14002935 86.15234375 114.984375 C89.58746529 113.40047995 93.09123925 112.23616679 96.7265625 111.203125 C96.7265625 106.583125 96.7265625 101.963125 96.7265625 97.203125 C93.601875 95.8728125 93.601875 95.8728125 90.4140625 94.515625 C85.52695503 92.43497529 82.9450087 91.09634336 80.7265625 86.203125 C79.86870299 83.9280493 79.0587078 81.63453747 78.2890625 79.328125 C76.94065455 75.40548369 75.68420582 71.80579136 73.4140625 68.328125 C71.33139726 64.47133753 70.94383096 61.44041211 71.7265625 57.203125 C72.8647207 53.77393284 74.21983138 50.48564637 75.7265625 47.203125 C74.37454465 45.66182465 72.99392872 44.14557528 71.6015625 42.640625 C70.83585938 41.79371094 70.07015625 40.94679688 69.28125 40.07421875 C66.84311937 37.88528077 66.84311937 37.88528077 63.671875 38.30078125 C61.14461129 39.07504905 59.05974425 39.99764776 56.7265625 41.203125 C49.7984094 42.65580226 44.84606559 40.05990775 38.86328125 36.78125 C35.68614895 35.18279241 32.6389238 34.18402301 29.2265625 33.203125 C25.39780234 31.98511003 23.9613291 31.45506965 21.1640625 28.453125 C19.52080771 24.73794025 18.05115164 21.0444335 16.7265625 17.203125 C11.7765625 17.203125 6.8265625 17.203125 1.7265625 17.203125 Z M-361.1015625 93.24609375 C-367.02577142 101.37031229 -367.57675075 110.53391047 -367.52740479 120.33581543 C-367.53052477 121.30510593 -367.53364475 122.27439643 -367.53685927 123.27305937 C-367.54478341 126.49395194 -367.5385375 129.71465318 -367.53222656 132.93554688 C-367.5349389 135.25574351 -367.5385012 137.57593928 -367.54284668 139.89613342 C-367.55194398 146.17909174 -367.54843737 152.46198419 -367.54208851 158.74494362 C-367.53701477 165.32927245 -367.54172378 171.91359575 -367.54486084 178.4979248 C-367.54912838 190.26137644 -367.54252513 202.02480044 -367.53234217 213.78824729 C-367.52340753 224.43908721 -367.52495984 235.08988352 -367.53417969 245.74072266 C-367.54489937 258.12986737 -367.54885788 270.51898431 -367.54295516 282.90813303 C-367.53984178 289.45878044 -367.53940879 296.00939786 -367.54602814 302.56004333 C-367.55181761 308.71933917 -367.54777532 314.87855289 -367.53623962 321.03783989 C-367.53360162 323.29445192 -367.53434341 325.55107089 -367.53876495 327.80768013 C-367.54425577 330.89535735 -367.53734344 333.98277382 -367.52740479 337.07043457 C-367.53186623 337.9566397 -367.53632767 338.84284484 -367.54092431 339.75590467 C-367.47879505 349.75411333 -366.1481958 358.5871137 -359.2734375 366.203125 C-353.63723648 370.85274664 -348.89125087 373.31313611 -341.55681038 373.34851933 C-340.13136428 373.35890628 -340.13136428 373.35890628 -338.67712128 373.36950308 C-337.11557952 373.37331926 -337.11557952 373.37331926 -335.52249146 373.37721252 C-334.41414188 373.38371148 -333.30579231 373.39021043 -332.16385639 373.39690632 C-328.4362305 373.41734506 -324.70861553 373.43053272 -320.98095703 373.44360352 C-318.99296049 373.45315058 -317.00496393 373.4627036 -315.01696976 373.47273196 C-305.56343186 373.52028715 -296.10986062 373.55297313 -286.65625 373.58203125 C-285.90962984 373.58433883 -285.16300969 373.58664641 -284.39376467 373.58902392 C-269.55784421 373.63448309 -254.72190876 373.67297879 -239.88594246 373.69975376 C-236.6248078 373.70574252 -233.36367335 373.71182821 -230.10253906 373.71801758 C-229.29203558 373.71955056 -228.4815321 373.72108354 -227.64646791 373.72266298 C-214.53220205 373.74834755 -201.41825852 373.80520351 -188.30415823 373.87448288 C-174.82744133 373.94508705 -161.35089068 373.98520819 -147.87399185 373.99650329 C-140.31237443 374.00364619 -132.75131665 374.02424502 -125.18988419 374.07953072 C-118.74644705 374.1266097 -112.30365388 374.14618497 -105.86005099 374.13064922 C-102.57675232 374.12357764 -99.2951086 374.13351274 -96.01196861 374.17022705 C-81.43665459 374.3246333 -71.17877937 374.06597478 -59.2734375 365.203125 C-56.52120702 363.83602561 -53.78028329 362.79061398 -50.8984375 361.703125 C-50.24617188 361.45304687 -49.59390625 361.20296875 -48.921875 360.9453125 C-47.37627122 360.35434635 -45.82547312 359.77698691 -44.2734375 359.203125 C-45.65544663 355.97145719 -47.14148658 354.28797123 -49.8984375 352.140625 C-55.3305344 347.55945767 -60.82409286 341.36224791 -63.18882084 334.57628822 C-64.99869011 332.04103971 -64.99869011 332.04103971 -67.40523517 331.74334979 C-70.41005007 331.55966148 -73.37862467 331.5490609 -76.38902283 331.58407593 C-77.54849271 331.57783695 -78.70796259 331.57159797 -79.90256792 331.56516993 C-83.12645269 331.55280175 -86.34938494 331.56287877 -89.57320726 331.58223104 C-93.04773389 331.59763422 -96.52215949 331.58421742 -99.99668884 331.57414246 C-106.01920767 331.56051212 -112.0414992 331.56484494 -118.06400871 331.58097458 C-126.77592201 331.60401896 -135.48760701 331.59674434 -144.19952781 331.58144338 C-158.33901128 331.55715721 -172.47842182 331.55297192 -186.61791992 331.56347656 C-187.46450877 331.56410039 -188.31109762 331.56472421 -189.18334068 331.56536694 C-190.89677845 331.56663825 -192.61021623 331.56791249 -194.323654 331.56918965 C-195.59789992 331.57013822 -195.59789992 331.57013822 -196.89788818 331.57110596 C-197.74813457 331.5717441 -198.59838095 331.57238225 -199.47439238 331.57303973 C-208.91578917 331.5798442 -218.35718493 331.58183666 -227.79858398 331.58203125 C-228.64384095 331.58205408 -229.48909791 331.58207691 -230.35996871 331.58210044 C-244.44457126 331.58203124 -258.52914607 331.57001112 -272.61373526 331.55107176 C-281.30551995 331.54009661 -289.99715966 331.54095643 -298.68893731 331.5570115 C-304.64270714 331.56746397 -310.59641857 331.56771661 -316.55019229 331.55989335 C-319.98765526 331.55579849 -323.42493271 331.55677242 -326.86237335 331.57082558 C-330.58535936 331.58361529 -334.30788451 331.57820823 -338.03086853 331.56820679 C-339.12220012 331.57646496 -340.21353171 331.58472314 -341.33793396 331.59323156 C-342.3333324 331.58685851 -343.32873084 331.58048547 -344.35429287 331.5739193 C-345.21387236 331.57473106 -346.07345185 331.57554282 -346.95907921 331.57637918 C-349.82293846 331.1145028 -351.18085591 330.18752985 -353.2734375 328.203125 C-354.56610283 324.325129 -354.41807492 320.65504271 -354.41387939 316.61334229 C-354.41685052 315.72550356 -354.41982164 314.83766483 -354.4228828 313.9229219 C-354.4315823 310.93590984 -354.43307911 307.9489378 -354.43457031 304.96191406 C-354.43919762 302.82507237 -354.44422216 300.6882315 -354.44961548 298.5513916 C-354.46275033 292.73723539 -354.46918661 286.92309074 -354.47362614 281.108922 C-354.47655525 277.47774156 -354.48065976 273.84656429 -354.48513031 270.21538544 C-354.49880839 258.85802927 -354.5084734 247.50068034 -354.5123322 236.14331651 C-354.51681319 223.02607354 -354.53436177 209.90893477 -354.5633328 196.79172349 C-354.58493978 186.65745271 -354.59503597 176.52321126 -354.59637332 166.38891768 C-354.59742209 160.33398801 -354.60334533 154.27915624 -354.62119293 148.22425079 C-354.63765642 142.52795284 -354.63983741 136.83182655 -354.63105392 131.13551331 C-354.63028262 129.04534699 -354.63463856 126.95517152 -354.64451218 124.86502838 C-354.65720704 122.01009485 -354.65136808 119.15577157 -354.64093018 116.30084229 C-354.64898658 115.47505181 -354.65704298 114.64926133 -354.66534352 113.79844689 C-354.62037956 108.53455413 -353.72701804 104.88356917 -351.2734375 100.203125 C-347.60770234 96.65563936 -343.8697075 96.0820007 -338.90813828 96.0644598 C-338.03629198 96.05898536 -337.16444568 96.05351091 -336.2661798 96.04787058 C-335.31287599 96.04689247 -334.35957218 96.04591436 -333.37738037 96.04490662 C-332.36124169 96.03996864 -331.345103 96.03503066 -330.29817224 96.02994305 C-326.88335347 96.01454931 -323.46855354 96.00620231 -320.05371094 95.99780273 C-317.60980055 95.98822569 -315.16589183 95.97821571 -312.72198486 95.96780396 C-307.45530496 95.94634309 -302.18862767 95.92790244 -296.92192841 95.91219902 C-289.30716104 95.88948929 -281.69242137 95.86134799 -274.07767752 95.83187974 C-261.72334672 95.78421737 -249.3690046 95.74094951 -237.01464844 95.70043945 C-225.01333739 95.66107764 -213.0120364 95.61964976 -201.01074219 95.57543945 C-199.90115617 95.57135304 -199.90115617 95.57135304 -198.76915428 95.56718408 C-195.05818702 95.55350449 -191.34721991 95.53978424 -187.63625288 95.52604377 C-156.84866853 95.41210027 -126.06106307 95.30535933 -95.2734375 95.203125 C-95.15226562 94.58824219 -95.03109375 93.97335938 -94.90625 93.33984375 C-94.73867188 92.53160156 -94.57109375 91.72335938 -94.3984375 90.890625 C-94.15480469 89.68986328 -94.15480469 89.68986328 -93.90625 88.46484375 C-93.2734375 86.203125 -93.2734375 86.203125 -91.2734375 83.203125 C-122.96875876 83.15747906 -154.66407065 83.12209493 -186.35941711 83.10099434 C-190.10313685 83.09849299 -193.84685653 83.09590434 -197.59057617 83.09326172 C-198.70851552 83.09247479 -198.70851552 83.09247479 -199.8490395 83.09167196 C-211.90950792 83.08297436 -223.96995724 83.06720794 -236.03041434 83.04881941 C-248.40974245 83.03010241 -260.78906057 83.01900447 -273.16840225 83.01494801 C-280.80430822 83.01220669 -288.44016018 83.00355496 -296.07604951 82.98729207 C-301.9357406 82.97544943 -307.79540411 82.97421821 -313.6551075 82.97690964 C-316.05565345 82.9763598 -318.45620147 82.9723867 -320.85673523 82.96471405 C-324.13795827 82.95474168 -327.41895152 82.95716463 -330.70018005 82.96261597 C-331.64670155 82.95679028 -332.59322306 82.9509646 -333.56842703 82.94496238 C-344.40294376 82.99350607 -353.6074105 84.87121875 -361.1015625 93.24609375 Z M-338.2734375 112.203125 C-338.2734375 179.193125 -338.2734375 246.183125 -338.2734375 315.203125 C-249.8334375 315.203125 -161.3934375 315.203125 -70.2734375 315.203125 C-70.2734375 308.933125 -70.2734375 302.663125 -70.2734375 296.203125 C-67.57944265 278.92986393 -59.14372041 263.72524119 -45.1015625 253.0859375 C-29.41882663 242.64522108 -11.81896568 238.33610284 6.859375 241.89453125 C18.18395818 244.67335608 27.27524976 249.45218733 36.7265625 256.203125 C36.7265625 234.423125 36.7265625 212.643125 36.7265625 190.203125 C33.22968167 193.70000583 32.10104586 195.0090621 30.4765625 199.328125 C30.14140625 200.19695312 29.80625 201.06578125 29.4609375 201.9609375 C28.62281031 204.12666898 28.62281031 204.12666898 28.7265625 206.203125 C25.21731975 207.37287258 22.00999836 207.40249639 18.35546875 207.44140625 C17.6367308 207.449478 16.91799286 207.45754974 16.17747498 207.46586609 C14.65862422 207.47968047 13.13974276 207.49041444 11.62084961 207.49829102 C9.30067319 207.51553869 6.98190985 207.55944852 4.66210938 207.60351562 C3.18490629 207.61364038 1.70769112 207.62215717 0.23046875 207.62890625 C-0.46130966 207.64641434 -1.15308807 207.66392242 -1.86582947 207.68196106 C-5.23261418 207.66682388 -6.97460176 207.43312011 -9.67602539 205.35400391 C-11.60397564 202.75806294 -12.3387144 200.35410591 -13.2734375 197.265625 C-14.76859485 193.41758681 -15.61309301 191.62614404 -19.12109375 189.37890625 C-22.14271846 188.15630476 -25.15774518 187.15454686 -28.2734375 186.203125 C-28.98757813 185.83058594 -29.70171875 185.45804687 -30.4375 185.07421875 C-33.51976361 183.61178304 -36.02176741 184.48665532 -39.2734375 185.203125 C-40.4284375 185.71875 -41.5834375 186.234375 -42.7734375 186.765625 C-46.92342722 188.47008506 -48.844358 189.10395473 -53.2734375 188.203125 C-56.95742933 185.55214439 -60.07924196 182.41624911 -63.2734375 179.203125 C-64.65595703 177.87474609 -64.65595703 177.87474609 -66.06640625 176.51953125 C-74.99621081 167.84744111 -74.99621081 167.84744111 -75.578125 162.296875 C-75.23004974 158.76257231 -74.13442183 156.77780371 -72.3984375 153.703125 C-70.56597609 149.61964553 -70.11239894 147.84997444 -71.20703125 143.453125 C-72.63934576 139.90120494 -74.41448239 136.55010682 -76.2734375 133.203125 C-76.65822266 132.10484375 -76.65822266 132.10484375 -77.05078125 130.984375 C-79.02054971 128.11468037 -82.1200267 127.35557634 -85.2734375 126.203125 C-91.78651597 123.82284331 -91.78651597 123.82284331 -93.6484375 121.453125 C-94.48631017 118.4367834 -94.83071078 115.30221201 -95.2734375 112.203125 C-175.4634375 112.203125 -255.6534375 112.203125 -338.2734375 112.203125 Z M53.7265625 184.203125 C53.65687515 196.79072446 53.60365624 209.37827757 53.57112598 221.96603107 C53.55550857 227.81181493 53.53434214 233.65746624 53.50024414 239.50317383 C53.46751059 245.15067526 53.44968 250.79804964 53.44193077 256.44563866 C53.43641233 258.59407741 53.42563647 260.74250966 53.40937233 262.89089394 C53.23664138 278.29331701 53.23664138 278.29331701 56.7265625 293.203125 C59.64773214 311.49474431 55.32689165 329.06720269 44.7265625 344.203125 C40.64755887 349.55387341 36.35387753 353.52814376 30.7265625 357.203125 C32.44095011 360.63190023 36.48983914 361.29996897 39.9140625 362.640625 C44.9664545 364.64349139 49.90007055 366.68595934 54.7265625 369.203125 C56.01533233 367.90823275 57.2816588 366.59099647 58.5390625 365.265625 C59.24675781 364.53472656 59.95445312 363.80382812 60.68359375 363.05078125 C66.68807701 354.68124339 66.14085427 345.19581757 66.06713867 335.31030273 C66.06629128 333.71293656 66.06676974 332.11556923 66.06846619 330.51820374 C66.06932317 326.20472093 66.05174575 321.89149091 66.03074431 317.57806659 C66.0119278 313.06174693 66.01022316 308.5454208 66.00666809 304.02906799 C65.9973622 295.48698082 65.9727682 286.94500951 65.94261962 278.40297323 C65.90903019 268.67382452 65.8925782 258.94467013 65.87753332 249.21547782 C65.84621729 229.21129392 65.79287741 209.20722086 65.7265625 189.203125 C61.7665625 187.553125 57.8065625 185.903125 53.7265625 184.203125 Z M-42.9765625 273.2890625 C-51.73241711 284.39768076 -55.56741627 297.12910902 -54.2734375 311.203125 C-51.16705172 325.86190761 -44.38288563 337.26305035 -31.9375 345.62890625 C-20.42831249 352.42978978 -7.06944295 354.24639193 6.00390625 351.51953125 C8.70808415 350.58451421 11.18214491 349.50982749 13.7265625 348.203125 C14.58636719 347.76742187 15.44617188 347.33171875 16.33203125 346.8828125 C27.52021013 340.68784507 35.55388392 331.42689391 39.5390625 319.203125 C43.16375617 305.3300415 41.6143254 293.18277852 34.765625 280.5 C27.95924381 269.49504651 18.7873955 262.23685818 6.4140625 258.265625 C-12.2745464 253.9175527 -29.8636733 259.46623981 -42.9765625 273.2890625 Z M-84.64599609 404.72314453 C-96.30833939 418.31705002 -104.3229682 434.5003092 -107.2734375 452.203125 C-40.9434375 452.203125 25.3865625 452.203125 93.7265625 452.203125 C93.09214904 445.9821181 93.09214904 445.9821181 91.52734375 440.30859375 C91.29104248 439.66889648 91.05474121 439.02919922 90.8112793 438.37011719 C90.55644775 437.71688477 90.30161621 437.06365234 90.0390625 436.390625 C89.63651245 435.34696777 89.63651245 435.34696777 89.22583008 434.28222656 C79.07674535 408.59059437 59.34816201 388.84669316 34.34985352 377.47436523 C-7.10650523 359.66576165 -54.72002229 371.58207144 -84.64599609 404.72314453 Z M-212.2734375 390.203125 C-212.2734375 402.743125 -212.2734375 415.283125 -212.2734375 428.203125 C-180.9234375 428.203125 -149.5734375 428.203125 -117.2734375 428.203125 C-114.6334375 422.593125 -111.9934375 416.983125 -109.2734375 411.203125 C-106.341911 406.7266048 -103.4705348 402.46042811 -100.2734375 398.203125 C-98.2934375 395.563125 -96.3134375 392.923125 -94.2734375 390.203125 C-133.2134375 390.203125 -172.1534375 390.203125 -212.2734375 390.203125 Z M-290.2734375 451.265625 C-290.8303125 451.77222656 -291.3871875 452.27882813 -291.9609375 452.80078125 C-297.74558952 458.98140648 -294.2734375 465.3855133 -294.2734375 475.203125 C-199.2334375 475.203125 -104.1934375 475.203125 -6.2734375 475.203125 C-6.2734375 473.223125 -6.2734375 471.243125 -6.2734375 469.203125 C-6.85212208 469.19981485 -7.43080666 469.19650471 -8.02702713 469.19309425 C-22.10687046 469.11187842 -36.18660756 469.01979065 -50.2663002 468.91559792 C-57.07513431 468.86547335 -63.88395638 468.81903045 -70.69287109 468.78125 C-77.26111277 468.74479463 -83.82922946 468.69808568 -90.39736176 468.64506149 C-92.90601055 468.62649722 -95.4146874 468.61139683 -97.92337799 468.59978104 C-101.4311519 468.5829536 -104.93862496 468.55392647 -108.44628906 468.52197266 C-110.00966759 468.51873238 -110.00966759 468.51873238 -111.60462952 468.51542664 C-113.03907661 468.49868141 -113.03907661 468.49868141 -114.50250244 468.4815979 C-115.33211613 468.47606714 -116.16172981 468.47053638 -117.01648331 468.46483803 C-119.52650056 468.17378019 -121.13938223 467.5428335 -123.2734375 466.203125 C-124.53648337 463.67703326 -124.40629737 461.89981944 -124.3984375 459.078125 C-124.40101563 458.16804688 -124.40359375 457.25796875 -124.40625 456.3203125 C-124.24644658 452.5696323 -123.75456096 448.92645684 -123.2734375 445.203125 C-143.19708335 445.1329723 -163.12070405 445.08010616 -183.0444479 445.04768848 C-192.29586865 445.03223477 -201.54721256 445.0111739 -210.79858398 444.97680664 C-218.86424518 444.94685844 -226.9298507 444.92753913 -234.99556595 444.92085952 C-239.26434572 444.91695643 -243.53296625 444.90781493 -247.80169487 444.88593483 C-251.82440424 444.86548393 -255.84688965 444.85930848 -259.86964607 444.86380196 C-261.34136805 444.86298059 -262.81309796 444.85706629 -264.28477478 444.84550858 C-278.31887159 444.66814615 -278.31887159 444.66814615 -290.2734375 451.265625 Z " fill="#000000" transform="translate(391.2734375,9.796875)"/>
<path d="M0 0 C0.82450653 -0.00953201 1.64901306 -0.01906403 2.49850464 -0.02888489 C3.38603424 -0.02797348 4.27356384 -0.02706207 5.18798828 -0.02612305 C6.10411896 -0.03040817 7.02024963 -0.0346933 7.96414185 -0.03910828 C9.90251845 -0.04485178 11.84091661 -0.04535169 13.77929688 -0.04101562 C16.74012224 -0.03786116 19.69994313 -0.0612953 22.66064453 -0.08666992 C24.54475786 -0.08894351 26.42887386 -0.08964613 28.31298828 -0.08862305 C29.63820999 -0.10243767 29.63820999 -0.10243767 30.99020386 -0.11653137 C35.70791107 -0.08116158 39.18300307 0.00714646 42.88330078 3.2746582 C44.7980041 7.10619528 45.13431837 10.24413586 45.13726807 14.49890137 C45.14572754 16.37893608 45.14572754 16.37893608 45.15435791 18.29695129 C45.15046966 19.67819272 45.14637334 21.05943357 45.14208984 22.44067383 C45.14480112 23.90126215 45.14836282 25.3618491 45.15270996 26.82243347 C45.16181998 30.78312476 45.15829544 34.74371174 45.15195179 38.70440483 C45.14688463 42.85140131 45.15158524 46.99838891 45.15472412 51.14538574 C45.15836167 58.10922853 45.1535702 65.07302889 45.14404297 72.03686523 C45.13315882 80.08542421 45.13668454 88.13388185 45.14769578 96.18243837 C45.15677466 103.09552009 45.15805099 110.00857133 45.15281844 116.92165709 C45.14970205 121.04933553 45.14928032 125.17696635 45.15589142 129.30464172 C45.16167298 133.18539989 45.15765317 137.06602754 45.14610291 140.94677162 C45.14346066 142.37017411 45.14421399 143.7935876 45.14862823 145.2169857 C45.154102 147.16145813 45.14601743 149.10595459 45.13726807 151.05041504 C45.13613699 152.68192631 45.13613699 152.68192631 45.13498306 154.3463974 C44.80682517 158.16443288 43.80243173 160.87056797 41.71295738 164.06250763 C38.86073988 165.95210652 35.91656571 165.69424769 32.60879517 165.66906738 C31.86246964 165.67515849 31.11614411 165.68124959 30.34720266 165.68752527 C27.83906245 165.70421321 25.3314267 165.69937133 22.82324219 165.69458008 C21.02797414 165.70191712 19.23271082 165.71050227 17.43745422 165.72024536 C12.55517887 165.74250992 7.67307204 165.74538954 2.79075289 165.74349785 C-1.28239467 165.74337836 -5.35550625 165.75193367 -9.42864382 165.76027536 C-19.03725168 165.77952766 -28.64577266 165.78238679 -38.25439453 165.77563477 C-48.1718688 165.76899398 -58.08897113 165.79185567 -68.00636995 165.8289485 C-76.51601414 165.85962303 -85.02553856 165.87100792 -93.53523695 165.86711168 C-98.61990209 165.86504166 -103.70427796 165.87056225 -108.78889084 165.89500427 C-113.5709871 165.91723144 -118.35247802 165.91542726 -123.1345768 165.89507675 C-124.89017136 165.89165941 -126.64580634 165.89678689 -128.40134621 165.91106033 C-130.79768234 165.92919991 -133.19195334 165.91654575 -135.58822632 165.89611816 C-136.28365929 165.90863601 -136.97909226 165.92115386 -137.69559896 165.93405104 C-141.4717431 165.86499749 -143.04851354 165.32859285 -146.04754639 162.95636749 C-148.6941235 159.526292 -148.82361702 156.79303465 -148.76367188 152.6262207 C-148.77681427 151.49600494 -148.77681427 151.49600494 -148.79022217 150.34295654 C-148.8121642 147.86126502 -148.7976836 145.38136668 -148.78076172 142.8996582 C-148.78413139 141.16999979 -148.78898527 139.44034368 -148.79525757 137.71069336 C-148.8026218 134.08920706 -148.79193835 130.46833823 -148.76855469 126.84692383 C-148.74006661 122.20947116 -148.75647307 117.57346528 -148.78641701 112.93606567 C-148.80450248 109.3654494 -148.79872635 105.79517502 -148.78577805 102.22454834 C-148.78244746 100.51495186 -148.78651893 98.80532414 -148.79817581 97.09576416 C-148.81090593 94.70404093 -148.79148134 92.31464588 -148.76367188 89.9230957 C-148.77379303 89.2195697 -148.78391418 88.5160437 -148.79434204 87.79119873 C-148.71349965 84.03006428 -148.17595134 82.35176134 -145.85922241 79.33706665 C-143.0636682 77.23477827 -141.99998794 76.64564438 -138.58935547 76.62768555 C-137.29276001 76.60404434 -137.29276001 76.60404434 -135.9699707 76.57992554 C-135.04901611 76.59004669 -134.12806152 76.60016785 -133.17919922 76.6105957 C-132.22150635 76.60581207 -131.26381348 76.60102844 -130.27709961 76.59609985 C-128.25649367 76.59270419 -126.23583254 76.60188325 -124.21533203 76.62280273 C-121.12651811 76.6495731 -118.04133792 76.62304368 -114.95263672 76.59106445 C-112.98648288 76.59436861 -111.0203313 76.60077497 -109.05419922 76.6105957 C-108.13324463 76.60047455 -107.21229004 76.59035339 -106.26342773 76.57992554 C-104.96683228 76.60356674 -104.96683228 76.60356674 -103.64404297 76.62768555 C-102.88857178 76.63166351 -102.13310059 76.63564148 -101.35473633 76.63973999 C-97.85709433 77.63200084 -96.33172636 79.44878467 -94.11669922 82.2746582 C-93.51542664 85.38154602 -93.51542664 85.38154602 -93.54907227 88.90087891 C-93.54834213 89.5453447 -93.547612 90.18981049 -93.54685974 90.85380554 C-93.55032531 92.9702261 -93.58912894 95.08440668 -93.62841797 97.20043945 C-93.63774998 98.67301735 -93.64486426 100.14561083 -93.64985657 101.61820984 C-93.66889648 105.48360474 -93.71796933 109.34805187 -93.77337646 113.21307373 C-93.82463509 117.16120585 -93.84738459 121.10949197 -93.87255859 125.05786133 C-93.92609307 132.79727459 -94.01400201 140.53571255 -94.11669922 148.2746582 C-89.16669922 148.2746582 -84.21669922 148.2746582 -79.11669922 148.2746582 C-79.12558167 146.99536942 -79.13446411 145.71608063 -79.14361572 144.39802551 C-79.22467158 132.34710947 -79.28465038 120.29624866 -79.32394791 108.24512196 C-79.34483031 102.04936685 -79.37316049 95.85383166 -79.41845703 89.65820312 C-79.46189056 83.68004377 -79.4858314 77.70209607 -79.49620819 71.72379112 C-79.50360397 69.4419897 -79.51804601 67.16019997 -79.53961945 64.87848854 C-79.56861951 61.68452467 -79.57265654 58.49143744 -79.57080078 55.29736328 C-79.58518188 54.35221359 -79.59956299 53.4070639 -79.61437988 52.43327332 C-79.58786744 48.22143635 -79.48419488 45.88630924 -77.27581787 42.21073914 C-73.14489115 38.5065386 -68.53579827 39.09808027 -63.28466797 39.0715332 C-61.9806176 39.06298309 -61.9806176 39.06298309 -60.65022278 39.05426025 C-58.8102032 39.04481543 -56.97016674 39.03827832 -55.13012695 39.03442383 C-52.32521778 39.02473084 -49.52104543 38.9937081 -46.71630859 38.9621582 C-44.92659939 38.95562653 -43.13688496 38.9503767 -41.34716797 38.9465332 C-40.09530952 38.928013 -40.09530952 38.928013 -38.81816101 38.90911865 C-33.84868213 38.92798044 -30.41664661 39.49897269 -26.11669922 42.2746582 C-24.96067066 44.58671531 -24.99334572 45.89125445 -24.9964447 48.46340942 C-24.99438271 49.78014145 -24.99438271 49.78014145 -24.99227905 51.12347412 C-24.99767197 52.5714035 -24.99767197 52.5714035 -25.00317383 54.04858398 C-25.0030278 55.06324738 -25.00288177 56.07791077 -25.00273132 57.12332153 C-25.00342994 60.48889274 -25.01122 63.85440912 -25.01904297 67.2199707 C-25.02090733 69.54881764 -25.02233115 71.87766498 -25.02333069 74.20651245 C-25.02715446 80.34516476 -25.03698356 86.48379353 -25.04803467 92.62243652 C-25.0582518 98.88280926 -25.06282896 105.14318579 -25.06787109 111.40356445 C-25.07860593 123.6939394 -25.09568068 135.98429685 -25.11669922 148.2746582 C-20.16669922 148.2746582 -15.21669922 148.2746582 -10.11669922 148.2746582 C-10.12669197 145.64162468 -10.12669197 145.64162468 -10.1368866 142.95539856 C-10.19764316 126.43074132 -10.24282582 109.9061111 -10.27213573 93.38136768 C-10.28760553 84.88538439 -10.30869719 76.38948447 -10.34301758 67.89355469 C-10.37291651 60.48861835 -10.3922734 53.08374238 -10.3989647 45.67874736 C-10.40287614 41.75773341 -10.4120708 37.8368922 -10.43388939 33.91593361 C-10.4542624 30.22482482 -10.46053142 26.53395982 -10.45602226 22.84280014 C-10.45724019 20.84343608 -10.47337807 18.84409853 -10.48995972 16.84480286 C-10.48583572 15.65153381 -10.48171173 14.45826477 -10.47746277 13.22883606 C-10.48022815 12.19366254 -10.48299353 11.15848902 -10.4858427 10.0919466 C-10.05279408 6.78693671 -9.08884474 4.94318839 -7.11669922 2.2746582 C-4.06316784 0.23897062 -3.43786225 0.02186631 0 0 Z M6.88330078 17.2746582 C6.88330078 60.5046582 6.88330078 103.7346582 6.88330078 148.2746582 C13.81330078 148.2746582 20.74330078 148.2746582 27.88330078 148.2746582 C27.88330078 105.0446582 27.88330078 61.8146582 27.88330078 17.2746582 C20.95330078 17.2746582 14.02330078 17.2746582 6.88330078 17.2746582 Z M-62.11669922 56.2746582 C-62.11669922 86.6346582 -62.11669922 116.9946582 -62.11669922 148.2746582 C-55.51669922 148.2746582 -48.91669922 148.2746582 -42.11669922 148.2746582 C-42.11669922 117.9146582 -42.11669922 87.5546582 -42.11669922 56.2746582 C-48.71669922 56.2746582 -55.31669922 56.2746582 -62.11669922 56.2746582 Z M-131.11669922 94.2746582 C-131.11669922 112.0946582 -131.11669922 129.9146582 -131.11669922 148.2746582 C-124.51669922 148.2746582 -117.91669922 148.2746582 -111.11669922 148.2746582 C-111.11669922 130.4546582 -111.11669922 112.6346582 -111.11669922 94.2746582 C-117.71669922 94.2746582 -124.31669922 94.2746582 -131.11669922 94.2746582 Z " fill="#000000" transform="translate(224.11669921875,140.725341796875)"/>
<path d="M0 0 C12.29246622 9.34978755 20.78323528 20.24618833 23.88671875 35.66015625 C26.01450018 51.53822336 22.83375718 66.48576965 13.296875 79.48046875 C3.04753415 91.59999343 -10.23830832 97.80280043 -25.82421875 99.5625 C-41.04303085 100.29889413 -54.20897264 95.5720326 -65.69921875 85.75 C-75.66770479 76.56643412 -82.28703341 64.20294986 -83.03515625 50.5234375 C-83.38771278 33.43311542 -79.35932557 19.72759211 -67.51171875 7 C-49.6121691 -9.84486238 -20.92830292 -14.06944734 0 0 Z M-59.01171875 23.5 C-65.23061859 32.54252289 -66.89804361 41.91114017 -65.69921875 52.75 C-63.56917006 62.49276709 -58.43203045 70.39169506 -50.26171875 76.125 C-40.71369455 81.95721106 -31.48911776 83.87159867 -20.46484375 81.53125 C-10.70272049 78.77358806 -3.13165675 73.50812039 2.09375 64.7421875 C6.77031725 55.7000836 9.13658544 46.93151381 6.546875 36.80078125 C3.04597608 26.73741299 -3.01260006 17.52323116 -12.63671875 12.375 C-29.51296831 4.91114012 -47.29128984 9.27221565 -59.01171875 23.5 Z " fill="#000000" transform="translate(429.69921875,68.25)"/>
</svg>
