<svg width="28" height="24" viewBox="0 0 28 24" fill="none" xmlns="http://www.w3.org/2000/svg">
<path id="Union" fill-rule="evenodd" clip-rule="evenodd" d="M26.1807 12.9903C26.9871 12.0986 27.3496 12.5461 27.7008 12.9794C27.8014 13.1036 27.901 13.2266 28.0099 13.3166L25.173 16.2209C24.6623 15.6135 24.1161 15.0376 23.5373 14.4964C22.6189 13.7233 22.4849 13.0681 23.6564 12.3853C23.7996 12.3731 23.8645 12.4922 23.9331 12.6179C24.019 12.7755 24.1105 12.9432 24.3688 12.8748C26.3097 12.0615 22.3062 4.59116 18.8834 2.89175C14.9494 0.93129 11.1568 1.29276 7.58514 3.87575C7.35426 4.05 7.14013 4.23877 6.90953 4.44205C6.80794 4.53161 6.70315 4.62399 6.59232 4.71918L5.43569 3.60716C8.37196 0.745533 11.8716 -0.554749 15.7511 0.203331C23.0955 1.6492 26.2576 7.26201 26.1807 12.9903ZM5.25698 10.8315L4.24678 11.685C4.15518 11.7185 4.09596 11.6179 4.02658 11.5001C3.93994 11.3531 3.83745 11.179 3.63621 11.2055C1.98565 11.6222 5.55234 19.3863 8.20566 20.7443C12.8496 23.1214 16.3393 23.0838 20.4 20.1544C20.6471 19.9692 20.874 19.7677 21.1205 19.5488L21.1206 19.5487C21.2082 19.4708 21.2984 19.3908 21.3928 19.3085L22.5693 20.4305C19.0547 23.6938 15.066 24.7681 10.5413 23.4628C5.32897 21.9567 2.66573 18.219 1.75978 11.2482C0.86376 11.9134 0.409538 11.2984 0 10.6859L2.76252 7.93976L5.25698 10.8315ZM18.7002 18.3137C18.9025 18.2967 19.0979 18.2316 19.2706 18.1236V8.22593C19.9756 8.75387 20.1948 8.40793 20.4316 8.03411C20.5 7.92625 20.5698 7.81607 20.6531 7.72389C20.103 7.50078 19.7336 7.10135 19.3671 6.70519C19.0822 6.3971 18.799 6.09099 18.4342 5.87136L17.3818 6.97083C17.3413 7.01344 17.2986 7.05579 17.2556 7.09842C16.9771 7.37464 16.6869 7.66248 16.9127 8.11046C17.1168 8.5155 17.4534 8.42308 17.8092 8.3254C17.9077 8.29837 18.0076 8.27095 18.1065 8.25354V18.2215C18.2945 18.2991 18.4979 18.3307 18.7002 18.3137ZM13.4502 11.4967C12.7528 11.7477 12.2911 11.6649 12.023 10.9771C12.1863 10.8099 12.3431 10.6023 12.5014 10.3927C12.9206 9.83762 13.3507 9.26813 13.9417 9.39568C14.3137 9.47781 14.6172 9.82278 14.9417 10.1916C15.2321 10.5216 15.5393 10.8707 15.9273 11.0675C15.6791 11.6825 15.2497 11.7779 14.6441 11.5017V18.0784C14.3196 18.3872 14.0025 18.3375 13.6405 18.2809L13.6404 18.2808C13.5816 18.2716 13.5216 18.2622 13.4602 18.2542L13.4502 11.4967ZM7.3841 12.8848C7.65712 13.5651 8.11133 13.6304 8.82368 13.3367V18.1713C8.93025 18.1695 9.0323 18.1762 9.13033 18.1825C9.4433 18.2029 9.71536 18.2205 9.96295 17.9529V13.4622C10.0661 13.478 10.1697 13.5158 10.2716 13.5528C10.5572 13.6568 10.8291 13.7557 11.0377 13.3543C11.236 12.9755 11.0217 12.7621 10.812 12.5533C10.7646 12.5061 10.7174 12.459 10.6753 12.4104C10.3894 12.0843 10.0946 11.766 9.79306 11.4405C9.64438 11.2801 9.49409 11.1178 9.34244 10.952C8.61211 11.5107 7.95417 12.1601 7.3841 12.8848Z" fill="#262324"/>
</svg>
