<svg width="24" height="24" viewBox="0 0 24 24" fill="none" xmlns="http://www.w3.org/2000/svg">
<g id="Group 9">
<path id="Vector" d="M12.7952 14.2225C12.6216 13.8091 12.4264 13.4069 12.2106 13.0178C11.8192 12.3908 12.0455 11.9622 12.4769 11.5148C12.9084 11.0674 13.2612 10.6098 13.9536 11.0616C15.3544 11.9781 15.5995 12.0896 16.0442 10.1074C16.2599 9.14159 16.919 9.35733 17.5182 9.31679C18.0708 9.27914 18.3771 9.50792 18.5249 10.1059C18.9656 11.8913 19.0682 12.0983 20.6261 11.0616C21.3198 10.5997 21.6687 11.0833 22.0908 11.522C22.5129 11.9608 22.7566 12.3561 22.3891 12.97C22.2147 13.2779 22.0586 13.5976 21.9217 13.9271C21.7033 14.4107 21.8271 14.764 22.2972 14.9508C22.5036 15.0334 22.7206 15.0884 22.9323 15.1593C23.9789 15.5097 23.9377 15.5126 23.9909 16.7101C24.0256 17.4804 23.7832 17.896 23.0868 18.0248C22.8279 18.0898 22.5738 18.1754 22.3265 18.2811C21.8058 18.465 21.7073 18.8357 21.9377 19.3425C22.0442 19.6076 22.1697 19.8633 22.3132 20.107C22.7299 20.7456 22.5795 21.2234 22.0735 21.7316C21.2745 22.5266 21.2972 22.5555 20.3105 21.9792C20.1161 21.8648 19.9217 21.7476 19.7233 21.6419C19.2919 21.4116 19.0042 21.6143 18.8218 22.0386C18.7517 22.2408 18.6939 22.4479 18.6487 22.6583C18.2905 23.9195 17.9057 24.1642 16.6967 23.905C16.5534 23.8829 16.4197 23.814 16.3132 23.7075C16.2066 23.601 16.1324 23.4619 16.1001 23.3085C15.9923 22.8914 15.8751 22.4759 15.7393 22.069C15.5755 21.5781 15.2759 21.3986 14.8192 21.6578C14.5756 21.7736 14.3402 21.9086 14.1148 22.0618C13.5129 22.5381 13.0495 22.4035 12.5635 21.8171C11.8564 20.9657 11.8271 20.9932 12.3318 19.9608C12.4357 19.7465 12.5435 19.5365 12.6394 19.3193C12.8671 18.801 12.7233 18.4505 12.224 18.2753C11.9767 18.1694 11.7226 18.0837 11.4636 18.0191C10.7526 17.8902 10.5409 17.4399 10.5675 16.6898C10.6101 15.5314 10.5755 15.5314 11.5915 15.1839C11.8245 15.1043 12.0535 15.0116 12.2892 14.9523C12.6567 14.8567 12.678 14.5208 12.7952 14.2225ZM12.6873 12.3604C12.8924 12.7948 13.0615 13.1568 13.2359 13.5188C13.718 14.5164 13.409 15.3533 12.437 15.6777C12.184 15.7617 11.9337 15.8703 11.6754 15.9282C11.3837 15.9919 11.3118 16.1628 11.2679 16.4712C11.1347 17.4254 11.8564 17.34 12.3198 17.5079C13.433 17.9133 13.7419 18.6663 13.2 19.7856C13.0349 20.1258 12.8711 20.4676 12.6993 20.8238L13.4144 21.6042C13.7073 21.4406 14.0069 21.2857 14.2932 21.1061C14.7193 20.8397 15.0921 20.663 15.6447 20.8875C16.3105 21.1553 16.3718 21.7171 16.5315 22.2732C16.8138 23.2505 16.8098 23.252 17.7299 23.0971C18.2626 22.4209 17.919 21.3305 18.9283 20.8904C19.9377 20.4502 20.3931 21.4609 21.2106 21.5535L21.8991 20.8657C21.6647 20.3763 21.4583 19.9521 21.2546 19.5249C21.1751 19.3518 21.1302 19.1623 21.1227 18.969C21.1152 18.7756 21.1452 18.5827 21.211 18.4029C21.2767 18.223 21.3766 18.0603 21.5041 17.9253C21.6316 17.7903 21.7839 17.686 21.951 17.6194C22.2208 17.5097 22.4976 17.4216 22.7792 17.3559C23.2026 17.2719 23.3198 17.033 23.3371 16.5667C23.3558 16.0484 23.0708 15.9876 22.7539 15.8688C22.1627 15.6343 21.4889 15.6531 21.1986 14.7611C20.9803 14.0907 21.2812 13.7027 21.4969 13.235C21.9284 12.2967 21.9417 12.3039 21.1907 11.6828C20.3917 11.7812 19.9257 12.7861 18.9164 12.3271C17.907 11.8681 18.2772 10.7213 17.718 10.0914C16.8058 10.0379 16.8058 10.0379 16.5475 10.9602C16.5222 11.0529 16.4943 11.1441 16.4676 11.2353C16.1174 12.4458 15.4024 12.7572 14.3651 12.1562L13.4077 11.6075L12.6873 12.3604Z" fill="#363F56"/>
<path id="Vector_2" d="M9.41174 10.8705C8.64343 11.231 7.8658 11.2397 6.99496 10.8705C7.18271 12.359 6.32918 12.8513 5.2879 13.1481C4.58085 13.3494 3.87379 13.5535 3.15741 13.7273C2.56886 13.8648 2.14942 14.2037 1.91906 14.806C1.53824 15.8066 1.15342 16.8057 0.791238 17.8149C0.575525 18.4187 0.771259 18.7184 1.37712 18.7488C1.70868 18.7662 2.0429 18.7488 2.37445 18.7619C2.59816 18.7705 2.77392 18.8864 2.76593 19.1499C2.75794 19.4134 2.57686 19.5047 2.3465 19.5018C1.94703 19.5018 1.54756 19.5249 1.14809 19.4887C0.29856 19.4091 -0.208763 18.6011 0.0828478 17.7338C0.474326 16.5827 0.897759 15.4431 1.36247 14.3253C1.69669 13.5217 2.34383 13.109 3.13744 12.9686C3.9235 12.8222 4.69645 12.6022 5.44769 12.3112C6.41174 11.9448 6.66207 10.8183 5.9124 10.0422C5.31054 9.42104 5.03624 8.57108 4.49163 7.90357C4.27892 7.63562 4.1351 7.31128 4.07477 6.96343C4.01444 6.61557 4.03974 6.25656 4.14809 5.92276C4.24529 5.61 4.08418 5.50574 3.92572 5.33633C3.27725 4.64565 3.28391 4.0433 3.95501 3.35697C4.5116 2.78792 5.0642 2.22611 5.5875 1.61072C6.62612 0.38864 8.05888 -0.103668 9.6168 0.0179612C9.85149 0.0325444 10.0804 0.102842 10.2874 0.223915C10.4945 0.344989 10.6746 0.513899 10.8152 0.718775C11.2986 1.40221 11.7779 2.09579 12.2306 2.80964C12.6954 3.54665 12.7753 4.32855 12.3239 5.11335C12.2614 5.20741 12.2229 5.3177 12.2122 5.4331C12.2014 5.54851 12.2188 5.66495 12.2626 5.77072C12.5942 6.75968 12.24 7.55027 11.6701 8.34086C11.1786 9.00727 10.7242 9.70498 10.3092 10.4303C9.84583 11.2628 10.1295 11.8782 10.9337 12.2648C11.1574 12.3705 11.4437 12.4531 11.3332 12.8064C11.2 13.2118 10.9244 13.0496 10.6674 12.9512C9.7686 12.621 9.55156 12.2735 9.41174 10.8705ZM8.18671 10.4085C9.20668 10.4245 10.4197 9.43552 10.8006 8.28149C10.9004 7.97887 10.9497 7.7023 11.3065 7.52131C11.7753 7.2795 11.8831 6.30212 11.5063 5.94158C11.1654 5.61289 11.2639 5.40873 11.4903 5.11045C11.8778 4.59932 12.1228 4.02592 11.7366 3.39751C11.2559 2.6185 10.7433 1.86267 10.2267 1.11262C10.1328 0.992117 10.0156 0.895632 9.88348 0.830055C9.75136 0.764477 9.60756 0.731424 9.46234 0.733255C8.17339 0.646377 6.97898 1.08801 6.14543 2.07117C5.63211 2.68539 5.08848 3.26881 4.51693 3.81887C4.02026 4.2938 4.03757 4.50955 4.57951 4.93525C4.68604 5.01923 4.80588 5.08004 4.92039 5.15534C5.22399 5.35081 5.33318 5.53615 5.02292 5.87932C4.61547 6.32819 4.70202 7.28095 5.20668 7.54882C5.51028 7.70954 5.55288 7.92529 5.63544 8.19606C6.00295 9.39353 7.16274 10.3941 8.18671 10.4085Z" fill="#363F56"/>
<path id="Vector_3" d="M9.14671 18.7459C9.87906 18.7459 10.6114 18.756 11.3411 18.7459C11.6167 18.7459 11.8671 18.8125 11.8671 19.1238C11.8671 19.4351 11.6128 19.5075 11.3345 19.5061C9.84977 19.496 8.36508 19.5061 6.87906 19.5061C6.63139 19.5061 6.34644 19.5191 6.34644 19.134C6.34644 18.7488 6.62606 18.7575 6.87906 18.7575L9.14671 18.7459Z" fill="#363F56"/>
<path id="Vector_4" d="M8.56622 13.8011C8.56622 14.1385 8.56622 14.4773 8.56622 14.8147C8.56622 15.0667 8.48633 15.2491 8.23333 15.2491C8.18836 15.253 8.14316 15.2462 8.10079 15.2294C8.05841 15.2125 8.01987 15.186 7.98778 15.1515C7.9557 15.117 7.93081 15.0754 7.91482 15.0296C7.89883 14.9837 7.89211 14.9346 7.89512 14.8857C7.8818 14.1617 7.8818 13.4377 7.89512 12.7137C7.89261 12.6647 7.89964 12.6157 7.91575 12.5698C7.93186 12.524 7.95669 12.4823 7.98861 12.4476C8.02053 12.4129 8.05883 12.3859 8.101 12.3684C8.14317 12.3509 8.18826 12.3432 8.23333 12.3459C8.49165 12.3459 8.56755 12.5356 8.56622 12.7803C8.56533 13.124 8.56533 13.4642 8.56622 13.8011Z" fill="#363F56"/>
<path id="Vector_5" d="M4.84454 19.1296C4.84865 19.1773 4.84303 19.2254 4.82808 19.2705C4.81314 19.3156 4.78925 19.3565 4.75809 19.3904C4.72694 19.4243 4.68929 19.4502 4.64785 19.4665C4.6064 19.4827 4.56217 19.4889 4.51831 19.4844C4.47421 19.4882 4.42986 19.4817 4.3883 19.4652C4.34673 19.4488 4.30891 19.4227 4.27744 19.3889C4.24597 19.3551 4.22158 19.3143 4.20592 19.2693C4.19027 19.2243 4.18374 19.1762 4.18675 19.1282C4.18487 19.0803 4.19215 19.0325 4.20814 18.9878C4.22414 18.9432 4.2485 18.9026 4.27967 18.8687C4.31084 18.8348 4.34814 18.8083 4.38922 18.7909C4.4303 18.7735 4.47426 18.7656 4.51831 18.7676C4.56224 18.7655 4.60609 18.7735 4.64701 18.791C4.68793 18.8085 4.72499 18.8353 4.75577 18.8694C4.78655 18.9036 4.81037 18.9444 4.82566 18.9892C4.84096 19.0341 4.84739 19.0819 4.84454 19.1296Z" fill="#363F56"/>
<path id="Vector_6" d="M17.2199 19.5018C16.523 19.4692 15.8658 19.1398 15.3903 18.5848C14.9148 18.0298 14.6591 17.2936 14.6785 16.5354C14.6979 15.7771 14.9908 15.0576 15.494 14.5321C15.9972 14.0067 16.6702 13.7176 17.3677 13.7273C17.7199 13.7322 18.0677 13.8131 18.3909 13.9655C18.714 14.1179 19.0061 14.3387 19.25 14.615C19.494 14.8912 19.685 15.2175 19.8119 15.5748C19.9389 15.9321 19.9992 16.3132 19.9894 16.6961C19.9796 17.079 19.8999 17.4559 19.7548 17.805C19.6098 18.154 19.4025 18.4682 19.1447 18.7293C18.887 18.9904 18.5841 19.1932 18.2537 19.3258C17.9232 19.4584 17.5718 19.5182 17.2199 19.5018ZM17.3158 18.7517C17.7028 18.7443 18.0791 18.6126 18.3974 18.3732C18.7158 18.1339 18.9619 17.7975 19.105 17.4064C19.248 17.0153 19.2815 16.587 19.2012 16.1752C19.121 15.7635 18.9306 15.3868 18.654 15.0924C18.3774 14.798 18.0269 14.5991 17.6466 14.5208C17.2663 14.4424 16.8732 14.4881 16.5168 14.652C16.1603 14.8159 15.8563 15.0908 15.6431 15.442C15.4299 15.7933 15.3169 16.2052 15.3185 16.6261C15.3204 16.9082 15.3737 17.1872 15.4753 17.4468C15.577 17.7063 15.725 17.9414 15.9107 18.1384C16.0965 18.3354 16.3163 18.4904 16.5575 18.5944C16.7986 18.6985 17.0564 18.7495 17.3158 18.7445V18.7517Z" fill="#363F56"/>
</g>
</svg>
