<?xml version="1.0" encoding="UTF-8"?>
<svg version="1.1" xmlns="http://www.w3.org/2000/svg" width="1080" height="1080">
<path d="M0 0 C1.90607903 -0.00418264 3.81215556 -0.00966521 5.71822757 -0.01631981 C10.90878396 -0.03067118 16.09918019 -0.02656222 21.28974497 -0.019153 C26.90611962 -0.0143979 32.52246077 -0.02695179 38.13882446 -0.03717041 C49.1235156 -0.05431811 60.10814944 -0.05520679 71.09285048 -0.04995751 C80.02629919 -0.04590701 88.95973103 -0.04736979 97.89317894 -0.05270576 C99.16731805 -0.05345419 100.44145715 -0.05420261 101.75420653 -0.05497371 C104.34307983 -0.05650528 106.93195313 -0.05804362 109.52082642 -0.05958868 C126.88818741 -0.06940873 144.25553745 -0.07359039 161.62289906 -0.06596279 C162.30095386 -0.06566562 162.97900866 -0.06536844 163.67761057 -0.06506227 C169.18266188 -0.06261373 174.68771312 -0.06000194 180.19276435 -0.05737813 C201.65797349 -0.04727872 223.12310438 -0.05563014 244.58830261 -0.07887268 C268.74799916 -0.10499099 292.90763458 -0.11773152 317.06734961 -0.11068493 C329.84340481 -0.10719893 342.61939579 -0.10938385 355.39544106 -0.12693596 C366.27136103 -0.1416931 377.14717154 -0.14224754 388.02308945 -0.12486505 C393.56485804 -0.11638158 399.10643139 -0.11414038 404.64818954 -0.1295166 C409.73426389 -0.14345302 414.81997738 -0.13848661 419.90603133 -0.11927737 C421.73291842 -0.11554432 423.55983504 -0.11836019 425.3866956 -0.12888902 C457.57224748 -0.30099992 486.11670448 9.84046395 509.5743866 32.36424255 C533.31641709 56.01347032 541.6129156 86.42457785 541.68581179 119.17502385 C541.683825 120.5092691 541.68174558 121.8435142 541.67958355 123.17775917 C541.68093313 124.6333642 541.68271867 126.08896887 541.68489578 127.54457289 C541.68959458 131.52564337 541.68813432 135.50669079 541.68561801 139.48776235 C541.6839776 143.82618453 541.68813185 148.16460192 541.69152719 152.50302255 C541.69667077 160.10068124 541.6981002 167.69833355 541.69707108 175.2959938 C541.69554443 186.59438946 541.69971171 197.89277807 541.7049457 209.19117236 C541.71461199 230.545793 541.71742967 251.90041123 541.71800276 273.25503381 C541.71846246 289.74722098 541.72052163 306.23940722 541.72370338 322.73159409 C541.72460094 327.48040942 541.72549075 332.22922476 541.72637826 336.9780401 C541.72659931 338.15863936 541.72682036 339.33923862 541.7270481 340.55561362 C541.7332015 373.75953164 541.73714875 406.96344932 541.73670483 440.16736794 C541.73668925 441.41899608 541.73667367 442.67062422 541.73665762 443.96018049 C541.73657451 450.30382224 541.73647547 456.647464 541.73637291 462.99110575 C541.73634299 464.88088025 541.73634299 464.88088025 541.73631247 466.80883202 C541.73627203 469.3565545 541.73623024 471.90427698 541.73618708 474.45199945 C541.73557434 514.08925473 541.74308092 553.72650145 541.75675964 593.36375427 C541.77212457 637.90542613 541.78072562 682.44709236 541.77979642 726.98876703 C541.77972179 731.7394685 541.77967308 736.49016996 541.77964211 741.24087143 C541.77962462 742.99546053 541.77962462 742.99546053 541.77960679 744.78549587 C541.77957603 763.59806531 541.7859581 782.41062731 541.79457437 801.22319453 C541.8030566 820.13440249 541.80403632 839.04559959 541.79746505 857.9568084 C541.79377328 869.18623682 541.79559064 880.41563221 541.80540739 891.64505713 C541.81141617 899.15406924 541.81010194 906.66305748 541.80293689 914.17206851 C541.799063 918.4450792 541.79825767 922.71802606 541.80639424 926.9910322 C541.87815697 967.40825542 537.82835889 1003.02452477 508.6134491 1033.70018005 C497.22075348 1044.53826168 483.8657183 1052.61236888 469.2384491 1058.20018005 C468.17485168 1058.61711121 468.17485168 1058.61711121 467.08976746 1059.04246521 C452.83141992 1064.20759915 438.08902215 1064.82958967 423.10189819 1064.77536011 C421.19581916 1064.77954274 419.28974263 1064.78502532 417.38367063 1064.79167992 C412.19311423 1064.80603129 407.002718 1064.80192233 401.81215322 1064.79451311 C396.19577857 1064.78975801 390.57943743 1064.80231189 384.96307373 1064.81253052 C373.97838259 1064.82967822 362.99374875 1064.83056689 352.00904771 1064.82531761 C343.075599 1064.82126712 334.14216716 1064.8227299 325.20871925 1064.82806587 C323.93458015 1064.82881429 322.66044104 1064.82956272 321.34769166 1064.83033382 C318.75881836 1064.83186538 316.16994506 1064.83340373 313.58107177 1064.83494879 C296.21371079 1064.84476884 278.84636075 1064.8489505 261.47899914 1064.8413229 C260.80094434 1064.84102573 260.12288954 1064.84072855 259.42428762 1064.84042237 C253.91923631 1064.83797384 248.41418508 1064.83536205 242.90913385 1064.83273824 C221.4439247 1064.82263882 199.97879381 1064.83099025 178.51359558 1064.85423279 C154.35389903 1064.88035109 130.19426361 1064.89309163 106.03454858 1064.88604504 C93.25849338 1064.88255904 80.4825024 1064.88474396 67.70645714 1064.90229607 C56.83053717 1064.91705321 45.95472665 1064.91760765 35.07880875 1064.90022516 C29.53704016 1064.89174168 23.9954668 1064.88950048 18.45370865 1064.90487671 C13.3676343 1064.91881313 8.28192081 1064.91384672 3.19586686 1064.89463747 C1.36897978 1064.89090443 -0.45793685 1064.8937203 -2.28479741 1064.90424912 C-30.21492006 1065.05360429 -56.93081847 1057.79816045 -78.4490509 1039.38768005 C-79.24698059 1038.7225238 -80.04491028 1038.05736755 -80.86701965 1037.37205505 C-103.5465088 1017.82198379 -115.88534876 990.4024829 -118.24643681 960.77067537 C-118.60727562 954.74584276 -118.5874184 948.72285933 -118.57768536 942.68941402 C-118.57903453 941.23156364 -118.58081985 939.77371361 -118.58299759 938.31586424 C-118.58770182 934.32389738 -118.58623433 930.33195348 -118.58371982 926.33998554 C-118.58208082 921.99148981 -118.58623249 917.64299888 -118.58962899 913.2945047 C-118.59477487 905.67760852 -118.59620161 898.0607187 -118.59517288 890.44382095 C-118.59364682 879.11680346 -118.59781223 867.78979299 -118.60304751 856.46277686 C-118.61271607 835.05410756 -118.61553157 813.64544066 -118.61610457 792.23676943 C-118.61656421 775.70260562 -118.61862305 759.16844275 -118.62180519 742.63427925 C-118.62270274 737.87396703 -118.62359256 733.11365481 -118.62448007 728.35334259 C-118.62470112 727.16989365 -118.62492216 725.98644471 -118.62514991 724.76713368 C-118.63130375 691.48069611 -118.63525051 658.19425886 -118.63480663 624.9078207 C-118.63479105 623.65296082 -118.63477548 622.39810094 -118.63475942 621.10521501 C-118.63467632 614.74514933 -118.63457728 608.38508365 -118.63447472 602.02501797 C-118.63445477 600.76190008 -118.63443483 599.49878219 -118.63441428 598.197388 C-118.63437384 595.64305568 -118.63433204 593.08872336 -118.63428889 590.53439104 C-118.63367618 550.79660025 -118.64118189 511.058818 -118.65486145 471.32102966 C-118.67022636 426.66912862 -118.67882742 382.01723318 -118.67789823 337.36532933 C-118.6778236 332.60281662 -118.67777489 327.84030392 -118.67774391 323.07779121 C-118.67772643 321.31883291 -118.67772643 321.31883291 -118.6777086 319.5243401 C-118.67767784 300.66429423 -118.68406014 281.80425577 -118.69267618 262.94421209 C-118.70115842 243.98471317 -118.70213812 225.02522509 -118.69556686 206.06572532 C-118.69187502 194.80741885 -118.69369262 183.54914532 -118.7035092 172.29084235 C-118.70951785 164.76254549 -118.70820388 157.23427244 -118.7010387 149.70597667 C-118.69716469 145.42193382 -118.69635981 141.13795464 -118.70449605 136.85391634 C-118.78152911 93.45611854 -118.78152911 93.45611854 -113.9490509 78.38768005 C-113.56656189 77.1654071 -113.56656189 77.1654071 -113.17634583 75.91844177 C-103.848149 47.74690804 -83.89852575 24.8077576 -57.45491028 11.34617615 C-53.75006714 9.57582389 -49.97121651 8.04007326 -46.1365509 6.57518005 C-45.42748596 6.29722595 -44.71842102 6.01927185 -43.98786926 5.7328949 C-29.72952173 0.56776095 -14.98712396 -0.05422956 0 0 Z M-53.4490509 72.88768005 C-63.93655889 86.40313012 -66.91660804 101.49460459 -66.82936764 118.2220583 C-66.83280701 119.69476565 -66.83755773 121.16747041 -66.8434886 122.64016983 C-66.85595061 126.67341506 -66.84986984 130.70644767 -66.84065493 134.73969367 C-66.83392929 139.13282043 -66.84461919 143.52591131 -66.85305077 147.91903037 C-66.86541319 155.61416353 -66.86663193 163.30923572 -66.86050034 171.00437546 C-66.85140667 182.44750885 -66.85944342 193.89058588 -66.87079158 205.33371494 C-66.89046033 225.7724486 -66.89280548 246.21115689 -66.88759638 266.64989775 C-66.88303957 284.53803229 -66.88363792 302.42615679 -66.88943672 320.314291 C-66.89019359 322.71358718 -66.89094957 325.11288337 -66.89170467 327.51217955 C-66.89284986 331.12768826 -66.89399974 334.74319696 -66.89516391 338.35870566 C-66.90586941 371.97380439 -66.91059366 405.58889977 -66.90269375 439.20399952 C-66.90239658 440.47122315 -66.9020994 441.73844679 -66.90179322 443.04407114 C-66.89934428 453.33487677 -66.8967327 463.62568236 -66.89410909 473.91648795 C-66.88400679 514.05704769 -66.89236155 554.1975656 -66.91560364 594.33811951 C-66.94167431 639.4367925 -66.95452467 684.53544031 -66.94741589 729.63412112 C-66.94669983 734.44262135 -66.94602544 739.25112158 -66.94537544 744.05962181 C-66.94520563 745.24359557 -66.94503582 746.42756934 -66.94486087 747.64742109 C-66.94255766 765.52176045 -66.95053596 783.39607643 -66.96366692 801.27041054 C-66.97857344 821.59795856 -66.97942763 841.92545178 -66.961596 862.25299863 C-66.95202875 873.62771229 -66.95347662 885.00229815 -66.97083069 896.3770033 C-66.98131672 903.97779356 -66.97722461 911.57848643 -66.96135066 919.1792671 C-66.95271585 923.50804514 -66.95030156 927.83657269 -66.96561997 932.1653379 C-66.97944951 936.11067924 -66.97456282 940.05555681 -66.95533479 944.00087149 C-66.95162787 945.41216346 -66.9544748 946.82349362 -66.96504787 948.23475085 C-67.08095998 964.86479303 -63.01125275 982.20828976 -51.28889465 994.70799255 C-39.36678123 1005.59229993 -25.70949691 1012.7395436 -9.33260822 1012.64494896 C-8.5523087 1012.64845503 -7.77200918 1012.65196111 -6.96806422 1012.65557343 C-4.3616636 1012.66485383 -1.75548808 1012.65997283 0.85092163 1012.65510559 C2.74184628 1012.65884355 4.63276938 1012.66344565 6.52369004 1012.66883624 C11.7138574 1012.68106373 16.90396027 1012.68080605 22.09413874 1012.67844748 C27.69417286 1012.67803925 33.29418633 1012.68907909 38.89421082 1012.69856262 C49.8637371 1012.71517239 60.83324189 1012.72067217 71.8027797 1012.72178738 C80.72029204 1012.72273789 89.63779729 1012.72684836 98.55530739 1012.73318863 C119.727854 1012.74793558 140.90039551 1012.76023836 162.0729475 1012.75919151 C163.08826284 1012.75914478 163.08826284 1012.75914478 164.1240896 1012.7590971 C167.55463559 1012.75893089 170.98518159 1012.7587328 174.41572758 1012.75852768 C175.0970226 1012.75848779 175.77831762 1012.7584479 176.48025795 1012.7584068 C177.85800255 1012.75832593 179.23574715 1012.75824233 180.61349175 1012.75815602 C202.04359908 1012.75693082 223.47364309 1012.77193909 244.9037323 1012.79930115 C268.99150897 1012.83004403 293.07923316 1012.84720697 317.16703492 1012.8453747 C329.9167365 1012.8447109 342.66636667 1012.8501988 355.41605186 1012.8717308 C366.27188992 1012.88994701 377.12762421 1012.89428628 387.98347094 1012.88071196 C393.52026325 1012.87418452 399.0568565 1012.87405724 404.59362984 1012.89141846 C409.66735547 1012.90716383 414.74072446 1012.90427036 419.81444148 1012.88685019 C421.64484036 1012.88378355 423.47526596 1012.88739996 425.30563333 1012.89857034 C443.20100526 1013.00050415 459.2473281 1009.38894603 472.5509491 996.38768005 C485.7804423 982.10950751 490.03057767 965.595328 489.93126583 946.55330181 C489.9347052 945.08059446 489.93945593 943.6078897 489.9453868 942.13519028 C489.95784881 938.10194505 489.95176804 934.06891244 489.94255312 930.03566644 C489.93582748 925.64253967 489.94651738 921.2494488 489.95494896 916.85632974 C489.96731138 909.16119657 489.96853013 901.46612439 489.96239853 893.77098465 C489.95330487 882.32785126 489.96134162 870.88477423 489.97268977 859.44164516 C489.99235852 839.00291151 489.99470368 818.56420321 489.98949457 798.12546236 C489.98493776 780.23732782 489.98553611 762.34920332 489.99133492 744.46106911 C489.99209178 742.06177292 489.99284776 739.66247674 489.99360286 737.26318056 C489.99474805 733.64767185 489.99589793 730.03216314 489.9970621 726.41665444 C490.00776761 692.80155572 490.01249185 659.18646034 490.00459194 625.57136059 C490.00429477 624.30413695 490.0039976 623.03691332 490.00369142 621.73128897 C490.00124247 611.44048334 489.99863089 601.14967774 489.99600728 590.85887215 C489.98590498 550.71831241 489.99425974 510.57779451 490.01750183 470.4372406 C490.04357251 425.33856761 490.05642286 380.2399198 490.04931408 335.14123899 C490.04859802 330.33273876 490.04792363 325.52423853 490.04727364 320.7157383 C490.04701892 318.93977765 490.04701892 318.93977765 490.04675906 317.12793902 C490.04445585 299.25359966 490.05243415 281.37928368 490.06556511 263.50494957 C490.08047164 243.17740154 490.08132582 222.84990832 490.0634942 202.52236148 C490.05392694 191.14764782 490.05537481 179.77306196 490.07272889 168.39835681 C490.08321491 160.79756655 490.0791228 153.19687368 490.06324885 145.59609301 C490.05461404 141.26731497 490.05219976 136.93878742 490.06751817 132.61002221 C490.0813477 128.66468087 490.07646102 124.7198033 490.05723298 120.77448862 C490.05352607 119.36319665 490.056373 117.95186649 490.06694606 116.54060926 C490.18294415 99.8982316 486.10498248 82.58740458 474.3946991 70.06736755 C462.66288785 59.37948866 449.62843739 51.99491657 433.48258972 52.16062927 C432.72064301 52.16033722 431.95869629 52.16004517 431.17366028 52.15974426 C428.68471921 52.16112448 426.1960871 52.17662315 423.7071991 52.19236755 C421.96985538 52.19610235 420.23250955 52.19894712 418.49516296 52.20094299 C413.94464704 52.20854273 409.39426081 52.22815941 404.84379578 52.25035095 C400.19151056 52.2708886 395.53920418 52.27996158 390.8868866 52.2900238 C381.77485076 52.31140907 372.66291076 52.34550036 363.5509491 52.38768005 C363.53636658 53.28486755 363.52178406 54.18205505 363.50675964 55.10643005 C363.44531829 58.46898705 363.3710978 61.83077708 363.28849792 65.19285583 C363.25546107 66.64164287 363.22736455 68.09055204 363.20451355 69.53953552 C362.91606761 87.34953783 362.91606761 87.34953783 357.50016785 93.84861755 C356.75380066 94.48025818 356.00743347 95.1118988 355.2384491 95.76268005 C354.49981628 96.40978943 353.76118347 97.0568988 353.00016785 97.72361755 C346.9375425 101.84272185 340.85287114 101.6767298 333.79159546 101.65510559 C332.16409338 101.66190226 332.16409338 101.66190226 330.50371248 101.66883624 C326.86731514 101.68149852 323.23106722 101.67985866 319.59465027 101.6782074 C316.98770963 101.68419148 314.38077076 101.69099675 311.77383423 101.69856262 C305.42689637 101.71515857 299.07999566 101.72067153 292.73303791 101.72178738 C287.57259275 101.72273851 282.41215982 101.72685208 277.25171852 101.73318863 C262.61296961 101.75079717 247.97425 101.7600281 233.33549043 101.75852768 C232.54670653 101.75844777 231.75792264 101.75836786 230.94523621 101.75828552 C230.15548648 101.75820376 229.36573675 101.758122 228.55205522 101.75803776 C215.75474378 101.75722496 202.95755007 101.77636213 190.16027268 101.80456226 C177.0123366 101.83330591 163.86445791 101.84710174 150.71648961 101.8453747 C143.33802366 101.84471132 135.95968113 101.85018111 128.58124352 101.8717308 C121.64139242 101.89187005 114.70180588 101.89125376 107.76194191 101.87669754 C105.21626022 101.8746054 102.67056232 101.87933431 100.12490845 101.89141846 C96.64671703 101.90685868 93.16942576 101.8975696 89.69125366 101.88215637 C88.18422773 101.89758706 88.18422773 101.89758706 86.64675683 101.91332948 C79.19577016 101.84048621 73.04175393 100.26657419 67.21110535 95.45799255 C66.68387878 94.81603943 66.15665222 94.1740863 65.6134491 93.51268005 C65.06817566 92.87588318 64.52290222 92.2390863 63.96110535 91.58299255 C60.79634463 86.65613515 60.27962047 81.77742551 60.1368866 76.02049255 C60.11752045 75.34090485 60.0981543 74.66131714 60.07820129 73.96113586 C60.01889811 71.81177427 59.97222018 69.66235765 59.9259491 67.51268005 C59.88772377 66.04651215 59.84866945 64.58036562 59.8087616 63.11424255 C59.71323865 59.53891841 59.62902784 55.96343258 59.5509491 52.38768005 C49.75326843 52.29446041 39.95569555 52.22365394 30.15765953 52.18043137 C25.60662905 52.15967291 21.05590491 52.1315737 16.50505066 52.08592224 C12.10241873 52.04204066 7.70007899 52.01845499 3.29724503 52.00817108 C1.6285353 52.00085479 -0.04016083 51.98657097 -1.70874405 51.96475983 C-22.09184924 51.70923469 -39.71386343 56.85468866 -53.4490509 72.88768005 Z " fill="#000000" transform="translate(328.4490509033203,7.6123199462890625)"/>
</svg>
