<?xml version="1.0" encoding="utf-8"?><svg version="1.1" id="Layer_1" xmlns="http://www.w3.org/2000/svg" xmlns:xlink="http://www.w3.org/1999/xlink" x="0px" y="0px" viewBox="0 0 70.29 122.88" style="enable-background:new 0 0 70.29 122.88" xml:space="preserve"><g><path d="M13.26,0h43.76c3.65,0,6.98,1.49,9.38,3.88c2.4,2.4,3.89,5.73,3.89,9.38v96.36c0,3.65-1.49,6.98-3.89,9.38 c-2.39,2.39-5.73,3.88-9.38,3.88H13.26c-3.65,0-6.98-1.49-9.38-3.88C1.49,116.6,0,113.27,0,109.62V13.26 c0-3.65,1.49-6.98,3.89-9.38C6.28,1.49,9.61,0,13.26,0L13.26,0L13.26,0z M48.26,62.94c-0.06-6.08,4.96-9,5.19-9.14 c-2.82-4.13-7.22-4.7-8.79-4.76c-3.74-0.38-7.3,2.2-9.2,2.2c-1.9,0-4.83-2.15-7.93-2.09c-4.08,0.06-7.84,2.37-9.94,6.02 c-4.24,7.35-1.08,18.24,3.05,24.2c2.02,2.92,4.42,6.2,7.58,6.08c3.04-0.12,4.19-1.97,7.87-1.97c3.68,0,4.71,1.97,7.93,1.91 c3.27-0.06,5.35-2.97,7.35-5.9c2.32-3.39,3.27-6.66,3.33-6.83C54.63,72.63,48.32,70.21,48.26,62.94L48.26,62.94L48.26,62.94 L48.26,62.94z M42.22,45.09c1.68-2.03,2.81-4.85,2.5-7.67c-2.41,0.1-5.34,1.61-7.07,3.64c-1.56,1.8-2.92,4.67-2.55,7.43 C37.78,48.7,40.54,47.12,42.22,45.09L42.22,45.09L42.22,45.09z M67.09,104.67V13.69H3.18v90.96 C25.41,104.66,44.87,104.67,67.09,104.67L67.09,104.67z"/></g></svg>