<?xml version="1.0" encoding="UTF-8"?>
<svg version="1.1" xmlns="http://www.w3.org/2000/svg" width="1080" height="1080">
<path d="M0 0 C1.36779128 -0.00239264 2.73558126 -0.00565962 4.10336861 -0.0097166 C7.85924337 -0.0183222 11.61501797 -0.01451615 15.37089424 -0.00866088 C19.45812112 -0.00448672 23.54532986 -0.01189472 27.63255233 -0.01781338 C34.79516192 -0.0265763 41.95774293 -0.02788717 49.12035656 -0.02431011 C59.77152899 -0.01900487 70.42267372 -0.02509662 81.07384313 -0.03339304 C101.20316965 -0.04864092 121.3324836 -0.0503373 141.46181468 -0.04787002 C157.00497864 -0.04603799 172.54813847 -0.04779507 188.09130192 -0.05209446 C190.32367988 -0.05269686 192.55605785 -0.05329806 194.78843581 -0.05389806 C198.15234062 -0.05480531 201.51624543 -0.05571397 204.88015023 -0.05663041 C236.16000157 -0.06506119 267.43985136 -0.06939478 298.71970367 -0.06522369 C300.48884226 -0.06498913 300.48884226 -0.06498913 302.29372101 -0.06474983 C308.27163435 -0.06394403 314.24954769 -0.06309826 320.22746102 -0.06223653 C321.41471144 -0.06206544 322.60196187 -0.06189435 323.82518958 -0.06171808 C326.22609879 -0.06137142 328.627008 -0.06102289 331.02791721 -0.06067249 C368.38867283 -0.05531491 405.74940485 -0.06324625 443.11015606 -0.08170605 C485.07747391 -0.10241761 527.04477715 -0.11315038 569.0121004 -0.10913056 C573.48610222 -0.10873521 577.96010405 -0.10837366 582.43410587 -0.10803318 C583.53573238 -0.10794245 584.63735888 -0.10785172 585.77236801 -0.10775824 C602.40938741 -0.1065918 619.04639206 -0.11324407 635.68340778 -0.1238451 C654.60245693 -0.13588787 673.52147356 -0.1374667 692.44052318 -0.12505493 C703.02932295 -0.11841926 713.61804499 -0.12007371 724.20683856 -0.13364345 C731.2800349 -0.14187742 738.35317292 -0.13920408 745.42636451 -0.12766818 C749.45629255 -0.12140135 753.48606873 -0.11983777 757.51598809 -0.13153151 C761.18665007 -0.14208472 764.85703182 -0.13867687 768.5276789 -0.12442699 C770.46032679 -0.12043821 772.39298828 -0.13106838 774.32560703 -0.14240405 C791.4437198 -0.03613326 805.09874263 5.3456316 817.46342754 17.25447559 C827.04743064 28.42678805 831.80056484 41.54928198 831.71790314 56.15268898 C831.72271285 57.43168597 831.72271285 57.43168597 831.72761974 58.73652127 C831.73589647 61.58305504 831.7300036 64.42937712 831.72412395 67.27591419 C831.7271457 69.34165576 831.73103529 71.40739622 831.73571652 73.4731347 C831.74600232 79.14184096 831.74381319 84.81048402 831.73953593 90.47919548 C831.73706977 96.59589532 831.74608152 102.71257991 831.75357342 108.82927418 C831.76632558 120.8096666 831.76811926 132.79003133 831.76577315 144.77042738 C831.76393946 154.50838537 831.7657017 164.24633678 831.7699976 173.98429394 C831.7706 175.38406353 831.7712012 176.78383312 831.7718012 178.18360272 C831.77270847 180.29300851 831.77361714 182.40241431 831.77453355 184.5118201 C831.78296156 204.12080622 831.78729984 223.72978986 831.78312683 243.33877754 C831.78297046 244.07779377 831.78281408 244.81680999 831.78265296 245.57822065 C831.7818472 249.32371885 831.78100143 253.06921705 831.78013966 256.81471524 C831.77996857 257.55856259 831.77979749 258.30240994 831.77962121 259.06879811 C831.77927456 260.57303774 831.77892603 262.07727737 831.77857563 263.581517 C831.77321889 286.98545755 831.78114811 310.38936043 831.79960918 333.79329395 C831.82033379 360.09751292 831.831051 386.40170855 831.8270337 412.70593613 C831.82663836 415.51169407 831.82627681 418.31745201 831.82593632 421.12320995 C831.82584559 421.81404076 831.82575485 422.50487158 831.82566137 423.21663665 C831.8244963 433.63698257 831.83113682 444.0573049 831.84174824 454.47764492 C831.85380726 466.33149382 831.85507324 478.185289 831.84295807 490.03914324 C831.83706541 496.08614915 831.8359808 502.13305358 831.84796047 508.18005276 C831.85880547 513.7187024 831.85573218 519.25716568 831.84169879 524.79580655 C831.83904807 526.79641065 831.84143014 528.7970293 831.84943465 530.79761914 C831.91782782 549.17075393 829.61186239 565.50487859 816.39702129 579.48494434 C803.39797947 591.38103716 789.18801199 595.58267313 771.95401287 595.49498463 C770.09875424 595.4975479 770.09875424 595.4975479 768.20601565 595.50016296 C764.79438932 595.50287642 761.38299517 595.49666884 757.97139704 595.48660684 C754.28440443 595.47793703 750.59741846 595.48089499 746.91041851 595.48241138 C740.52955664 595.48345801 734.1487358 595.47720471 727.76788425 595.46593571 C718.54234987 595.44965344 709.31683524 595.44446991 700.09128804 595.44195972 C685.12198021 595.4375869 670.15269422 595.42428899 655.18339825 595.4053545 C640.64563894 595.38698503 626.10788557 595.37283375 611.570117 595.36433887 C610.67339584 595.36381343 609.77667468 595.36328798 608.85278016 595.36274661 C604.35401046 595.36013646 599.85524071 595.35760906 595.35647094 595.3551228 C558.05877439 595.33440314 520.76110267 595.29918885 483.46342754 595.25447559 C483.77010128 596.46986416 483.77010128 596.46986416 484.08297044 597.70980603 C484.35198645 598.7800075 484.62100246 599.85020898 484.89817047 600.95284081 C485.16449463 602.01059985 485.43081878 603.06835889 485.70521337 604.15817124 C486.73210874 608.35168371 487.6127782 612.56561346 488.45634747 616.79915333 C488.63234982 617.67069553 488.80835217 618.54223774 488.98968792 619.44019032 C489.56071186 622.27223173 490.12754777 625.10508954 490.69389629 627.93806934 C491.09306193 629.92678488 491.49234062 631.91547773 491.89172649 633.90414906 C492.72319477 638.04811765 493.55241115 642.19252931 494.38017559 646.33723927 C495.4408516 651.64654773 496.50858205 656.95441053 497.57813835 662.26193619 C498.40243891 666.35761152 499.22233488 670.4541593 500.04096699 674.55097103 C500.43296753 676.50928192 500.82649823 678.46728718 501.22159672 680.4249754 C501.77188053 683.15427702 502.31605217 685.88472926 502.85869122 688.61555958 C503.02229137 689.42029713 503.18589153 690.22503468 503.35444927 691.05415821 C504.09937112 694.83552193 504.66088581 698.39558295 504.46342754 702.25447559 C505.03670284 702.24559315 505.60997814 702.2367107 506.20062542 702.22755909 C512.18680597 702.13881622 518.17279854 702.07862995 524.15947247 702.03474903 C526.39132056 702.01467875 528.62311636 701.98741626 530.85478497 701.95271778 C534.06951612 701.90399888 537.28354981 701.88146044 540.49858379 701.86385059 C541.98649174 701.83288288 541.98649174 701.83288288 543.50445843 701.80128956 C549.726287 701.79929076 553.37887637 702.60290105 558.46342754 706.25447559 C561.89904936 710.02257694 561.97890205 713.91376397 561.81108379 718.81697559 C561.28533249 722.50314203 559.97528363 724.54431508 557.46342754 727.25447559 C551.5865461 731.40112047 545.0782077 730.67478825 538.18500042 730.64215565 C536.81537277 730.64633011 535.44574859 730.65180824 534.07613081 730.65847546 C530.31780966 730.6729342 526.55970773 730.66868407 522.80137455 730.66130865 C518.74607254 730.65658033 514.69081819 730.66908382 510.63553143 730.67932606 C502.69303866 730.69652588 494.75062497 730.69735164 486.80811841 730.69211315 C480.35283993 730.6880725 473.89758483 730.68951376 467.44230747 730.69486141 C466.52372154 730.69560983 465.60513561 730.69635826 464.65871374 730.69712936 C462.79263906 730.69866083 460.92656438 730.70019917 459.06048971 730.70174433 C441.55921639 730.71547359 424.05798778 730.71002863 406.55671548 730.69855911 C390.5441954 730.68862576 374.53179086 730.70156841 358.51928861 730.7254933 C342.0785024 730.7498731 325.63777003 730.75949496 309.19696611 730.75284058 C299.96634082 730.74934593 290.7358044 730.75159662 281.50519276 730.76909161 C273.64757279 730.78379956 265.79010427 730.78446745 257.93248732 730.76702069 C253.92348102 730.75849677 249.91474545 730.75639491 245.90575314 730.77167225 C242.2348264 730.78548814 238.56440312 730.78079668 234.89350574 730.76143301 C232.93849563 730.75587893 230.98346009 730.76997039 229.02849823 730.78478712 C222.28974876 730.72810189 217.90609707 730.36394374 212.46342754 726.25447559 C209.02780573 722.48637424 208.94795304 718.59518722 209.11577129 713.69197559 C209.6415226 710.00580916 210.95157146 707.96463611 213.46342754 705.25447559 C218.94366788 701.61055467 223.98968119 701.86303917 230.33061504 701.96150684 C231.36533947 701.96575169 232.4000639 701.96999653 233.46614361 701.97437 C236.75717435 701.99110564 240.0475832 702.0287491 243.33842754 702.06697559 C245.57539784 702.08202901 247.81237778 702.09571627 250.04936504 702.10799122 C255.52093688 702.14099241 260.99211813 702.19235721 266.46342754 702.25447559 C266.51424732 701.64657688 266.5650671 701.03867817 266.61742687 700.41235828 C267.16982279 694.32620127 268.08935473 688.41611778 269.30522442 682.43025684 C269.48908199 681.50541996 269.67293957 680.58058308 269.86236858 679.62772083 C270.46427035 676.60651117 271.0730405 673.58673406 271.68217754 670.56697559 C272.10467454 668.45620321 272.526829 666.34536224 272.94865704 664.23445606 C273.8299678 659.82954968 274.71453588 655.42531448 275.60161114 651.02156544 C276.7401429 645.36876903 277.87180338 639.71462391 279.00123119 634.06000233 C279.87056752 629.71025829 280.74281557 625.36110238 281.61603069 621.01213551 C282.03462453 618.92620742 282.45246291 616.8401276 282.86954021 614.75389576 C283.45070573 611.84985809 284.03561904 608.94660117 284.62163067 606.04353809 C284.79412838 605.17811893 284.96662609 604.31269978 285.14435101 603.42105579 C286.34901405 597.48330258 286.34901405 597.48330258 287.46342754 595.25447559 C286.83107732 595.25561475 286.1987271 595.25675392 285.54721475 595.2579276 C248.04460553 595.32510459 210.54200523 595.37655688 173.03934814 595.40767158 C168.53340966 595.41142357 164.02747131 595.41530655 159.52153301 595.41927052 C158.17599203 595.42045091 158.17599203 595.42045091 156.8032684 595.42165516 C142.29077105 595.43469864 127.77830945 595.45834665 113.26583329 595.48593398 C98.36769409 595.51401762 83.46957357 595.53065811 68.57140899 595.53674108 C59.38312774 595.54085138 50.19494757 595.55381975 41.00669745 595.57822499 C34.70056611 595.59411872 28.39448681 595.59886774 22.08833691 595.59497973 C18.45345274 595.59306382 14.81874485 595.59593987 11.18389225 595.61209202 C7.23373261 595.62951609 3.28379951 595.62340875 -0.66639423 595.61523914 C-1.80261557 595.62397767 -2.93883691 595.63271619 -4.1094892 595.64171952 C-19.36039786 595.55677328 -33.5288918 590.81107794 -44.76704121 580.18806934 C-55.34731418 568.62684391 -60.87929228 554.94590403 -60.79104805 539.35626221 C-60.79425453 538.50359755 -60.79746101 537.65093289 -60.80076465 536.77242991 C-60.80904139 533.92589615 -60.80314851 531.07957406 -60.79726887 528.23303699 C-60.80029061 526.16729542 -60.80418021 524.10155497 -60.80886143 522.03581649 C-60.81914723 516.36711023 -60.8169581 510.69846717 -60.81268084 505.02975571 C-60.81021468 498.91305586 -60.81922643 492.79637128 -60.82671833 486.67967701 C-60.8394705 474.69928459 -60.84126418 462.71891985 -60.83891807 450.7385238 C-60.83708438 441.00056582 -60.83884661 431.26261441 -60.84314251 421.52465725 C-60.84374491 420.12488766 -60.84434611 418.72511806 -60.84494611 417.32534847 C-60.84585338 415.21594267 -60.84676205 413.10653688 -60.84767846 410.99713109 C-60.85610647 391.38814497 -60.86044475 371.77916132 -60.85627174 352.17017365 C-60.85611537 351.43115742 -60.85595899 350.69214119 -60.85579788 349.93073054 C-60.85499211 346.18523233 -60.85414634 342.43973414 -60.85328458 338.69423594 C-60.85311349 337.9503886 -60.8529424 337.20654125 -60.85276613 336.44015308 C-60.85241947 334.93591345 -60.85207094 333.43167382 -60.85172054 331.92743419 C-60.84636381 308.52349364 -60.85429302 285.11959076 -60.8727541 261.71565723 C-60.8934787 235.41143827 -60.90419592 209.10724264 -60.90017861 182.80301505 C-60.89978328 179.99725712 -60.89942173 177.19149918 -60.89908123 174.38574123 C-60.8989905 173.69491042 -60.89889977 173.00407961 -60.89880629 172.29231453 C-60.89764122 161.87196861 -60.90428173 151.45164629 -60.91489315 141.03130627 C-60.92695217 129.17745737 -60.92821816 117.32366218 -60.91610298 105.46980795 C-60.91021032 99.42280204 -60.90912571 93.3758976 -60.92110538 87.32889843 C-60.93195038 81.79024879 -60.92887709 76.25178551 -60.9148437 70.71314464 C-60.91219298 68.71254053 -60.91457505 66.71192189 -60.92257956 64.71133205 C-60.99097274 46.33819726 -58.68500731 30.0040726 -45.47016621 16.02400684 C-32.17731203 3.85903121 -17.61305726 -0.06179053 0 0 Z M-26.16938496 37.04353809 C-31.6546851 43.90678804 -32.83979182 50.24855352 -32.79104805 58.82406235 C-32.79425453 59.66548746 -32.79746101 60.50691257 -32.80076465 61.37383541 C-32.80906788 64.19413933 -32.8031392 67.01423106 -32.79726887 69.83453846 C-32.80028939 71.87665591 -32.80417838 73.91877223 -32.80886143 75.96088654 C-32.81916278 81.57342467 -32.81695417 87.18589907 -32.81268084 92.79844248 C-32.81021752 98.85102413 -32.81922285 104.90359027 -32.82671833 110.95616627 C-32.83947804 122.81383443 -32.84126329 134.67148053 -32.83891807 146.52915245 C-32.83708542 156.16517129 -32.83884442 165.80118349 -32.84314251 175.4372015 C-32.84374491 176.821591 -32.84434611 178.20598049 -32.84494611 179.59036999 C-32.84585336 181.67650491 -32.84676203 183.76263984 -32.84767846 185.84877476 C-32.85610788 205.24413511 -32.86044374 224.63949296 -32.85627174 244.03485489 C-32.85611537 244.76600686 -32.85595899 245.49715883 -32.85579788 246.25046692 C-32.85499209 249.95623933 -32.85414632 253.66201173 -32.85328458 257.36778414 C-32.85311349 258.10376331 -32.8529424 258.83974249 -32.85276613 259.59802407 C-32.85241947 261.08635223 -32.85207094 262.57468039 -32.85172054 264.06300855 C-32.84636253 287.2249091 -32.85429608 310.38677159 -32.8727541 333.54866505 C-32.89346722 359.57083071 -32.90419819 385.5929728 -32.90017861 411.61514717 C-32.89978326 414.38940942 -32.89942172 417.16367167 -32.89908123 419.93793392 C-32.8989905 420.62102852 -32.89889977 421.30412312 -32.89880629 422.00791756 C-32.89764007 432.32215835 -32.90429042 442.63637533 -32.91489315 452.95061016 C-32.92693775 464.6794544 -32.92823401 476.40825536 -32.91610298 488.13710361 C-32.91020059 494.12284239 -32.90915246 500.10847858 -32.92110538 506.09421062 C-32.9319176 511.57228449 -32.92891648 517.05016952 -32.9148437 522.52823437 C-32.91218391 524.51133056 -32.91460329 526.49444133 -32.92257956 528.47752326 C-32.93266451 531.17159326 -32.92428163 533.8650042 -32.91130257 536.5590477 C-32.91861191 537.33018165 -32.92592126 538.1013156 -32.9334521 538.89581725 C-32.84705157 547.53936264 -29.6503731 555.08796977 -23.53657246 561.25447559 C-17.53058719 565.46700693 -12.28937674 567.3783012 -4.97065663 567.38212609 C-3.82845084 567.38514206 -2.68624504 567.38815803 -1.50942695 567.39126539 C0.37734318 567.38861119 0.37734318 567.38861119 2.30222988 567.38590336 C3.65517043 567.38755283 5.0081105 567.38963902 6.36104977 567.39212346 C10.09895101 567.39770204 13.8368294 567.39701552 17.57473348 567.39534587 C21.63374979 567.39461628 25.69275957 567.39963417 29.75177312 567.40392089 C37.81131442 567.41151091 45.8708491 567.41369446 53.93039361 567.41424994 C63.58030835 567.41516259 73.23021694 567.42182715 82.88012904 567.42859677 C106.20505212 567.44466888 129.52997456 567.45056126 152.85490219 567.45534552 C163.88473022 567.45768008 174.91455774 567.46128256 185.94438537 567.46504089 C223.68605192 567.47787698 261.42771818 567.48859651 299.16938686 567.4920435 C301.53928094 567.49226513 303.90917501 567.49248691 306.27906908 567.49270885 C308.65474861 567.49292949 311.03042814 567.49314997 313.40610766 567.49337029 C318.1722846 567.49381285 322.93846154 567.49425997 327.70463848 567.49470997 C329.47724517 567.49487405 329.47724517 567.49487405 331.2856621 567.49504146 C369.61645346 567.4986733 407.94722591 567.51459785 446.27801002 567.53790033 C486.78510787 567.56248093 527.29219491 567.57621549 567.79930043 567.57741141 C572.24353838 567.57758287 576.68777633 567.5777983 581.13201427 567.57804585 C582.22634407 567.57810161 583.32067386 567.57815738 584.44816517 567.57821484 C602.07972951 567.57936678 619.7112745 567.59040087 637.3428323 567.6049329 C655.05520974 567.61927944 672.7675623 567.62254532 690.47994396 567.61449292 C701.00957325 567.61002807 711.53912238 567.6139314 722.06874118 567.62973143 C729.09756431 567.63945442 736.12633105 567.63832891 743.15515363 567.6282952 C747.16311001 567.62288378 751.17091204 567.62225513 755.17885587 567.63480392 C758.82495679 567.64612482 762.47077746 567.64363854 766.11686857 567.63013685 C768.04609967 567.62655205 769.97534098 567.63769177 771.9045397 567.64942813 C782.00554036 567.58807885 790.09770986 565.55723842 797.46342754 558.25447559 C802.37468047 551.25229321 803.61401563 545.51477165 803.59485531 537.05403233 C803.59690794 536.21606875 803.59896058 535.37810517 803.60107541 534.51474875 C803.60675968 531.68821 803.6052864 528.86171976 803.60386944 526.03517628 C803.60645225 523.99564884 803.60946518 521.95612192 803.61287284 519.9165957 C803.62095587 514.29729644 803.62273313 508.67800995 803.62347031 503.05870557 C803.62531859 497.00402975 803.63286476 490.94936059 803.63960552 484.89468861 C803.65390738 470.95805646 803.65971648 457.02142742 803.66429747 443.08478978 C803.66663301 436.19877215 803.67023561 429.31275535 803.67399284 422.42673836 C803.68682831 398.85799005 803.69754774 375.28924219 803.70099545 351.72049046 C803.70121708 350.24087976 803.70143886 348.76126906 803.7016608 347.28165837 C803.70188144 345.79846324 803.70210192 344.3152681 803.70232224 342.83207297 C803.7027648 339.85650015 803.70321191 336.88092732 803.70366192 333.9053545 C803.70377131 333.16758498 803.7038807 332.42981547 803.70399341 331.6696893 C803.70762457 307.7439301 803.72354689 283.81820119 803.74685228 259.89245359 C803.77144369 234.60023906 803.78516795 209.30804185 803.78636336 184.01581502 C803.78653482 181.23982095 803.78675025 178.46382689 803.7869978 175.68783283 C803.78708145 174.66253168 803.78708145 174.66253168 803.78716679 173.61651737 C803.78831781 162.61279837 803.79934404 151.60911043 803.81388485 140.60540191 C803.82824528 129.54705617 803.83123671 118.4887419 803.82344487 107.43038717 C803.81953093 101.43859075 803.82050431 95.44689895 803.83450222 89.45511532 C803.84719632 83.97137505 803.84608316 78.4878185 803.83391151 73.00407866 C803.83194672 71.01887212 803.83506884 69.03365277 803.84375587 67.04846427 C803.85481154 64.35151371 803.84738589 61.65521573 803.83536434 58.95828342 C803.84295954 58.18629193 803.85055473 57.41430044 803.85838008 56.61891526 C803.77333415 47.79003432 800.38022233 40.74851865 794.46342754 34.25447559 C786.3789037 27.71805206 778.21074974 27.96498449 768.25548172 28 C766.8990435 27.99760882 765.54260659 27.99434277 764.18617234 27.9902834 C760.45252294 27.98165773 756.71897399 27.98549219 752.98532303 27.99133912 C748.92572469 27.99550602 744.8661448 27.98810941 740.80655092 27.98218662 C733.68946869 27.97341592 726.57241523 27.97211559 719.45532894 27.97568989 C708.87203686 27.98099098 698.2887727 27.9749076 687.70548366 27.96660696 C667.70575821 27.95135254 647.7060454 27.94966335 627.70631535 27.95212998 C612.26509054 27.95396135 596.82386989 27.95220633 581.38264561 27.94790554 C579.16564774 27.94730315 576.94864987 27.94670195 574.731652 27.94610194 C571.39101807 27.9451947 568.05038413 27.94428604 564.70975019 27.94336959 C533.64352462 27.93493792 502.57730062 27.93060587 471.51107407 27.93477631 C469.75373187 27.93501087 469.75373187 27.93501087 467.9608878 27.93525017 C462.02270026 27.93605598 456.08451272 27.93690175 450.14632518 27.93776347 C448.96694292 27.93793456 447.78756066 27.93810565 446.57243955 27.93828192 C444.1874418 27.93862858 441.80244406 27.93897711 439.41744632 27.93932751 C402.2987308 27.94468589 365.18003903 27.93675184 328.06132793 27.91829395 C286.37606341 27.89758964 244.6908136 27.88684819 203.00554365 27.89086944 C198.56303752 27.8912648 194.12053138 27.89162634 189.67802525 27.89196682 C188.0371898 27.89210292 188.0371898 27.89210292 186.36320617 27.89224176 C169.83229196 27.89340893 153.30139257 27.88675045 136.77048206 27.8761549 C117.97643447 27.86412121 99.1824196 27.86252282 80.38837153 27.87494507 C69.86539432 27.88158867 59.3424953 27.87990811 48.81952429 27.86635655 C41.79523796 27.85813814 34.77101047 27.86077551 27.74672896 27.87233182 C23.74141972 27.87861418 19.73626352 27.88012256 15.73096288 27.86846849 C12.08729655 27.85796392 8.44391353 27.86126219 4.80026254 27.87557301 C2.87234791 27.87958898 0.94441978 27.86889068 -0.98346594 27.85759595 C-10.67446191 27.9186508 -19.29534185 29.51169182 -26.16938496 37.04353809 Z M315.46342754 595.25447559 C311.99842754 612.53822559 308.53342754 629.82197559 304.96342754 647.62947559 C303.86707989 653.09300587 302.77073223 658.55653614 301.64116192 664.18562794 C300.66293952 669.07005238 300.66293952 669.07005238 299.6852293 673.95457935 C299.24843637 676.13546653 298.81088008 678.3162009 298.3727293 680.49681568 C297.71042417 683.79377389 297.05051897 687.09120407 296.39116192 690.38875294 C296.19442631 691.36523478 295.9976907 692.34171661 295.7949934 693.34778881 C295.61866627 694.23217947 295.44233913 695.11657013 295.26066875 696.02776051 C295.02837692 697.18645429 295.02837692 697.18645429 294.79139233 698.36855602 C294.40631741 700.2638428 294.40631741 700.2638428 294.46342754 702.25447559 C354.52342754 702.25447559 414.58342754 702.25447559 476.46342754 702.25447559 C473.5494641 686.51907299 470.63289929 670.80273323 467.47514629 655.11775684 C467.16234605 653.55671669 466.8497253 651.99564056 466.53728008 650.4345293 C465.41064077 644.81158122 464.28060403 639.18931428 463.15092754 633.56697559 C460.61405254 620.92385059 458.07717754 608.28072559 455.46342754 595.25447559 C409.26342754 595.25447559 363.06342754 595.25447559 315.46342754 595.25447559 Z " fill="#000000" transform="translate(154.53657245635986,201.7455244064331)"/>
<path d="M0 0 C12.70401097 4.05048859 21.23726122 2.89543971 33.6953125 -1.5546875 C43.739667 -4.95254914 54.31190921 -4.90705205 64.11328125 -0.7109375 C71.6573495 3.1842194 79.1267502 7.53747434 83.11328125 15.2890625 C82.60539063 15.64097656 82.0975 15.99289062 81.57421875 16.35546875 C73.20833731 22.35571705 66.08266592 29.81044971 64.11328125 40.2890625 C63.22925435 52.47703996 64.56198949 62.78273292 72.48046875 72.51171875 C77.1017753 77.54208832 82.09776905 81.09715807 88.11328125 84.2890625 C81.81183464 101.80045097 70.47578005 120.52559034 54.11328125 130.2890625 C45.02646094 133.3180026 36.40368595 131.17402177 27.890625 127.48046875 C17.43564425 122.9955614 7.42936084 125.54024843 -2.88671875 129.2890625 C-3.70011719 129.65257812 -4.51351562 130.01609375 -5.3515625 130.390625 C-11.41807842 132.5405459 -18.72653285 132.46494563 -24.7421875 130.2265625 C-27.32363602 128.75373606 -29.58059498 127.16228233 -31.88671875 125.2890625 C-32.55960937 124.74378906 -33.2325 124.19851563 -33.92578125 123.63671875 C-51.04263519 108.05424415 -62.73594893 81.00291923 -64.00952148 58.07861328 C-64.61429644 40.0750694 -62.6711742 25.12134461 -50.57421875 10.9765625 C-36.0302217 -4.29342442 -19.24809731 -6.17977148 0 0 Z " fill="#000000" transform="translate(524.88671875,435.7109375)"/>
<path d="M0 0 C1.12855637 0.71277244 2.23681107 1.45969793 3.3125 2.25 C4.199375 2.8275 5.08625 3.405 6 4 C11.46077863 9.31319002 14.40300093 15.16017294 14.60449219 22.79760742 C14.67130625 29.76933625 14.56930014 35.45602202 10.3125 41.25 C9.735 42.136875 9.1575 43.02375 8.5625 43.9375 C3.24930998 49.39827863 -2.59767294 52.34050093 -10.23510742 52.54199219 C-17.20683625 52.60880625 -22.89352202 52.50680014 -28.6875 48.25 C-30.0178125 47.38375 -30.0178125 47.38375 -31.375 46.5 C-36.83577863 41.18680998 -39.77800093 35.33982706 -39.97949219 27.70239258 C-40.04630625 20.73066375 -39.94430014 15.04397798 -35.6875 9.25 C-35.11 8.363125 -34.5325 7.47625 -33.9375 6.5625 C-25.62494489 -1.98095942 -11.06158618 -5.42443168 0 0 Z " fill="#000000" transform="translate(552.6875,676.75)"/>
<path d="M0 0 C0.8566516 10.92230787 -2.92718254 21.67232783 -10 30 C-15.56756602 35.81013633 -22.00121013 40.39086844 -30 42 C-32.33300933 42.03888349 -34.66709801 42.0448635 -37 42 C-39.1964249 33.21430039 -36.43112947 24.89873102 -31.9375 17.25 C-25.34103271 7.62610141 -12.42493419 -3.10623355 0 0 Z " fill="#000000" transform="translate(571,392)"/>
<path d="M0 0 C4.6314797 2.53420588 8.31032562 4.93097685 10 10 C10.3823833 14.66507623 10.47936179 17.04127641 8.375 21.25 C5.3809015 24.7168509 2.69192851 27.47238201 -1.953125 28.3828125 C-7.05027553 28.6746341 -10.0736905 27.39090366 -14 24 C-17.39090366 20.0736905 -18.6746341 17.05027553 -18.3828125 11.953125 C-17.47238201 7.30807149 -14.7168509 4.6190985 -11.25 1.625 C-7.27685866 -0.36157067 -4.3567644 -0.87830979 0 0 Z " fill="#000000" transform="translate(922,688)"/>
<path d="M0 0 C4.6314797 2.53420588 8.31032562 4.93097685 10 10 C10.3823833 14.66507623 10.47936179 17.04127641 8.375 21.25 C5.3809015 24.7168509 2.69192851 27.47238201 -1.953125 28.3828125 C-7.05027553 28.6746341 -10.0736905 27.39090366 -14 24 C-17.39090366 20.0736905 -18.6746341 17.05027553 -18.3828125 11.953125 C-17.47238201 7.30807149 -14.7168509 4.6190985 -11.25 1.625 C-7.27685866 -0.36157067 -4.3567644 -0.87830979 0 0 Z " fill="#000000" transform="translate(868,688)"/>
<path d="M0 0 C4.6314797 2.53420588 8.31032562 4.93097685 10 10 C10.3823833 14.66507623 10.47936179 17.04127641 8.375 21.25 C5.3809015 24.7168509 2.69192851 27.47238201 -1.953125 28.3828125 C-7.05027553 28.6746341 -10.0736905 27.39090366 -14 24 C-17.39090366 20.0736905 -18.6746341 17.05027553 -18.3828125 11.953125 C-17.47238201 7.30807149 -14.7168509 4.6190985 -11.25 1.625 C-7.27685866 -0.36157067 -4.3567644 -0.87830979 0 0 Z " fill="#000000" transform="translate(814,688)"/>
<path d="M0 0 C4.6314797 2.53420588 8.31032562 4.93097685 10 10 C10.3823833 14.66507623 10.47936179 17.04127641 8.375 21.25 C5.3809015 24.7168509 2.69192851 27.47238201 -1.953125 28.3828125 C-7.05027553 28.6746341 -10.0736905 27.39090366 -14 24 C-17.39090366 20.0736905 -18.6746341 17.05027553 -18.3828125 11.953125 C-17.47238201 7.30807149 -14.7168509 4.6190985 -11.25 1.625 C-7.27685866 -0.36157067 -4.3567644 -0.87830979 0 0 Z " fill="#000000" transform="translate(760,688)"/>
<path d="M0 0 C4.6314797 2.53420588 8.31032562 4.93097685 10 10 C10.3823833 14.66507623 10.47936179 17.04127641 8.375 21.25 C5.3809015 24.7168509 2.69192851 27.47238201 -1.953125 28.3828125 C-7.05027553 28.6746341 -10.0736905 27.39090366 -14 24 C-17.39090366 20.0736905 -18.6746341 17.05027553 -18.3828125 11.953125 C-17.47238201 7.30807149 -14.7168509 4.6190985 -11.25 1.625 C-7.27685866 -0.36157067 -4.3567644 -0.87830979 0 0 Z " fill="#000000" transform="translate(706,688)"/>
<path d="M0 0 C4.6314797 2.53420588 8.31032562 4.93097685 10 10 C10.3823833 14.66507623 10.47936179 17.04127641 8.375 21.25 C5.3809015 24.7168509 2.69192851 27.47238201 -1.953125 28.3828125 C-7.05027553 28.6746341 -10.0736905 27.39090366 -14 24 C-17.39090366 20.0736905 -18.6746341 17.05027553 -18.3828125 11.953125 C-17.47238201 7.30807149 -14.7168509 4.6190985 -11.25 1.625 C-7.27685866 -0.36157067 -4.3567644 -0.87830979 0 0 Z " fill="#000000" transform="translate(652,688)"/>
<path d="M0 0 C4.6314797 2.53420588 8.31032562 4.93097685 10 10 C10.3823833 14.66507623 10.47936179 17.04127641 8.375 21.25 C5.3809015 24.7168509 2.69192851 27.47238201 -1.953125 28.3828125 C-7.05027553 28.6746341 -10.0736905 27.39090366 -14 24 C-17.39090366 20.0736905 -18.6746341 17.05027553 -18.3828125 11.953125 C-17.47238201 7.30807149 -14.7168509 4.6190985 -11.25 1.625 C-7.27685866 -0.36157067 -4.3567644 -0.87830979 0 0 Z " fill="#000000" transform="translate(436,688)"/>
<path d="M0 0 C4.6314797 2.53420588 8.31032562 4.93097685 10 10 C10.3823833 14.66507623 10.47936179 17.04127641 8.375 21.25 C5.3809015 24.7168509 2.69192851 27.47238201 -1.953125 28.3828125 C-7.05027553 28.6746341 -10.0736905 27.39090366 -14 24 C-17.39090366 20.0736905 -18.6746341 17.05027553 -18.3828125 11.953125 C-17.47238201 7.30807149 -14.7168509 4.6190985 -11.25 1.625 C-7.27685866 -0.36157067 -4.3567644 -0.87830979 0 0 Z " fill="#000000" transform="translate(382,688)"/>
<path d="M0 0 C4.6314797 2.53420588 8.31032562 4.93097685 10 10 C10.3823833 14.66507623 10.47936179 17.04127641 8.375 21.25 C5.3809015 24.7168509 2.69192851 27.47238201 -1.953125 28.3828125 C-7.05027553 28.6746341 -10.0736905 27.39090366 -14 24 C-17.39090366 20.0736905 -18.6746341 17.05027553 -18.3828125 11.953125 C-17.47238201 7.30807149 -14.7168509 4.6190985 -11.25 1.625 C-7.27685866 -0.36157067 -4.3567644 -0.87830979 0 0 Z " fill="#000000" transform="translate(328,688)"/>
<path d="M0 0 C4.6314797 2.53420588 8.31032562 4.93097685 10 10 C10.3823833 14.66507623 10.47936179 17.04127641 8.375 21.25 C5.3809015 24.7168509 2.69192851 27.47238201 -1.953125 28.3828125 C-7.05027553 28.6746341 -10.0736905 27.39090366 -14 24 C-17.39090366 20.0736905 -18.6746341 17.05027553 -18.3828125 11.953125 C-17.47238201 7.30807149 -14.7168509 4.6190985 -11.25 1.625 C-7.27685866 -0.36157067 -4.3567644 -0.87830979 0 0 Z " fill="#000000" transform="translate(274,688)"/>
<path d="M0 0 C4.6314797 2.53420588 8.31032562 4.93097685 10 10 C10.3823833 14.66507623 10.47936179 17.04127641 8.375 21.25 C5.3809015 24.7168509 2.69192851 27.47238201 -1.953125 28.3828125 C-7.05027553 28.6746341 -10.0736905 27.39090366 -14 24 C-17.39090366 20.0736905 -18.6746341 17.05027553 -18.3828125 11.953125 C-17.47238201 7.30807149 -14.7168509 4.6190985 -11.25 1.625 C-7.27685866 -0.36157067 -4.3567644 -0.87830979 0 0 Z " fill="#000000" transform="translate(220,688)"/>
<path d="M0 0 C4.6314797 2.53420588 8.31032562 4.93097685 10 10 C10.3823833 14.66507623 10.47936179 17.04127641 8.375 21.25 C5.3809015 24.7168509 2.69192851 27.47238201 -1.953125 28.3828125 C-7.05027553 28.6746341 -10.0736905 27.39090366 -14 24 C-17.39090366 20.0736905 -18.6746341 17.05027553 -18.3828125 11.953125 C-17.47238201 7.30807149 -14.7168509 4.6190985 -11.25 1.625 C-7.27685866 -0.36157067 -4.3567644 -0.87830979 0 0 Z " fill="#000000" transform="translate(166,688)"/>
</svg>
