<?xml version="1.0" encoding="UTF-8"?>
<svg version="1.1" xmlns="http://www.w3.org/2000/svg" width="512" height="512">
<path d="M0 0 C1.20705207 -0.00445784 2.41410415 -0.00891569 3.65773356 -0.01350862 C4.99894119 -0.01341932 6.34014882 -0.01322948 7.68135643 -0.01294994 C9.10486367 -0.01624965 10.52836998 -0.01997544 11.95187509 -0.02409142 C15.86847752 -0.03410742 19.78506462 -0.03782757 23.70167804 -0.04048073 C27.92406728 -0.04438497 32.14644441 -0.05396322 36.36882591 -0.0626936 C46.56825669 -0.08245454 56.76768845 -0.0925237 66.96713358 -0.10142139 C71.77049961 -0.10580485 76.57386453 -0.11117151 81.37722969 -0.11641026 C97.34512732 -0.13342209 113.31302426 -0.14791626 129.28092957 -0.155159 C133.42452686 -0.15706888 137.56812415 -0.15898922 141.71172142 -0.16094494 C142.74158902 -0.16142868 143.77145662 -0.16191242 144.83253233 -0.16241082 C161.5156615 -0.1707111 178.19871896 -0.1960482 194.88181682 -0.22852562 C212.01072115 -0.26159899 229.13958905 -0.27960801 246.26852548 -0.28280324 C255.88549647 -0.28496806 265.50236289 -0.29371275 275.11930275 -0.31926441 C283.30954277 -0.34097519 291.49965282 -0.34901996 299.68991835 -0.33929763 C303.86738631 -0.33475404 308.04458614 -0.3366425 312.22201729 -0.35605907 C316.05044203 -0.3736995 319.8784032 -0.3726862 323.70683293 -0.35716178 C325.73926596 -0.35366668 327.7717039 -0.36980542 329.80406916 -0.38676625 C339.78095084 -0.31674855 348.14139716 1.46421912 355.60088158 8.43109608 C361.87392585 15.40825756 364.4423757 22.73745172 364.38940048 32.09103489 C364.39290656 32.87836738 364.39641263 33.66569987 364.40002495 34.47689092 C364.4093403 37.1192281 364.40441528 39.76134494 364.39955711 42.40369129 C364.40329331 44.31565189 364.4078947 46.22761097 364.41328776 48.13956761 C364.42553704 53.39705311 364.42525502 58.65447506 364.42289901 63.91197157 C364.42249133 69.580832 364.43352533 75.24967193 364.44301414 80.91852283 C364.45963578 92.02634987 364.46512422 103.13415568 364.4662389 114.24199411 C364.46718884 123.27018265 364.47129642 132.29836417 364.47764015 141.32655048 C364.49238882 162.75208433 364.50468954 184.17761125 364.50364304 205.60315037 C364.5035963 206.63094869 364.5035963 206.63094869 364.50354862 207.67951061 C364.5033824 211.15236489 364.50318432 214.62521917 364.5029792 218.09807345 C364.50293931 218.78779145 364.50289942 219.47750944 364.50285832 220.18812798 C364.50277745 221.58290616 364.50269385 222.97768435 364.50260754 224.37246253 C364.50138216 246.07074478 364.51639288 267.76896452 364.54375267 289.46722889 C364.57448079 313.84685126 364.59165938 338.22642212 364.58982623 362.60606694 C364.58916194 375.5138748 364.59467099 388.42161216 364.61618233 401.32940388 C364.6343799 412.31932376 364.63875314 423.3091412 364.62516348 434.29906961 C364.61862665 439.90635972 364.61854262 445.51345319 364.63586998 451.12072468 C364.65157386 456.2554359 364.6487643 461.38979411 364.63130172 466.52449659 C364.62822592 468.38047368 364.63188597 470.23647694 364.64302187 472.09242317 C364.7130131 484.58645559 364.08237661 494.84748391 355.13213158 504.37640858 C348.86659757 509.88322557 342.50928615 512.25431857 334.26426315 512.26844215 C333.05721108 512.2729 331.850159 512.27735784 330.60652959 512.28195077 C329.26532196 512.28186148 327.92411433 512.28167163 326.58290672 512.2813921 C325.15939948 512.2846918 323.73589318 512.2884176 322.31238806 512.29253358 C318.39578564 512.30254958 314.47919853 512.30626973 310.56258512 512.30892289 C306.34019587 512.31282712 302.11781875 512.32240537 297.89543724 512.33113575 C287.69600647 512.35089669 277.4965747 512.36096586 267.29712957 512.36986354 C262.49376354 512.37424701 257.69039862 512.37961366 252.88703346 512.38485241 C236.91913583 512.40186425 220.95123889 512.41635841 204.98333359 512.42360115 C200.83973629 512.42551104 196.69613901 512.42743137 192.55254173 512.42938709 C191.00774033 512.4301127 191.00774033 512.4301127 189.43173082 512.43085297 C172.74860166 512.43915326 156.06554419 512.46449036 139.38244633 512.49696777 C122.253542 512.53004115 105.1246741 512.54805016 87.99573767 512.55124539 C78.37876669 512.55341022 68.76190027 512.5621549 59.1449604 512.58770657 C50.95472038 512.60941734 42.76461033 512.61746211 34.5743448 512.60773978 C30.39687684 512.60319619 26.21967702 512.60508465 22.04224586 512.62450123 C18.21382112 512.64214165 14.38585995 512.64112835 10.55743022 512.62560394 C8.52499719 512.62210883 6.49255925 512.63824757 4.46019399 512.65520841 C-5.51668768 512.5851907 -13.877134 510.80422304 -21.33661842 503.83734608 C-27.60966269 496.86018459 -30.17811255 489.53099044 -30.12513733 480.17740726 C-30.13039644 478.99640853 -30.13039644 478.99640853 -30.1357618 477.79155123 C-30.14507715 475.14921406 -30.14015213 472.50709721 -30.13529396 469.86475086 C-30.13903015 467.95279026 -30.14363155 466.04083119 -30.14902461 464.12887454 C-30.16127389 458.87138905 -30.16099186 453.6139671 -30.15863585 448.35647058 C-30.15822818 442.68761015 -30.16926218 437.01877023 -30.17875099 431.34991932 C-30.19537262 420.24209228 -30.20086107 409.13428647 -30.20197575 398.02644804 C-30.20292569 388.99825951 -30.20703327 379.97007799 -30.213377 370.94189167 C-30.22812567 349.51635783 -30.24042638 328.09083091 -30.23937988 306.66529179 C-30.23934873 305.98009291 -30.23931757 305.29489403 -30.23928547 304.58893154 C-30.23911925 301.11607726 -30.23892117 297.64322298 -30.23871605 294.1703687 C-30.23867616 293.48065071 -30.23863627 292.79093272 -30.23859517 292.08031418 C-30.2385143 290.68553599 -30.2384307 289.29075781 -30.23834439 287.89597962 C-30.237119 266.19769737 -30.25212973 244.49947763 -30.27948952 222.80121326 C-30.31021764 198.42159089 -30.32739623 174.04202003 -30.32556307 149.66237521 C-30.32489879 136.75456735 -30.33040784 123.84682999 -30.35191917 110.93903828 C-30.37011674 99.94911839 -30.37448998 88.95930096 -30.36090033 77.96937254 C-30.3543635 72.36208243 -30.35427947 66.75498897 -30.37160683 61.14771748 C-30.38731071 56.01300626 -30.38450115 50.87864804 -30.36703856 45.74394557 C-30.36396277 43.88796848 -30.36762281 42.03196522 -30.37875871 40.17601898 C-30.44874995 27.68198656 -29.81811346 17.42095824 -20.86786842 7.89203358 C-14.60233442 2.38521658 -8.24502299 0.01412358 0 0 Z M150.88213158 24.82172108 C148.87955537 26.99998436 148.87955537 26.99998436 149.06963158 29.75922108 C149.9559278 32.31758511 149.9559278 32.31758511 152.44463158 33.63422108 C155.1351321 34.40201594 155.1351321 34.40201594 157.44463158 33.07172108 C159.33613143 31.23706027 159.33613143 31.23706027 159.56963158 28.63422108 C159.06399702 25.74488075 158.51292126 24.8095916 156.13213158 23.13422108 C153.06338158 22.83422108 153.06338158 22.83422108 150.88213158 24.82172108 Z M176.44463158 24.32172108 C174.95605807 26.11265407 174.95605807 26.11265407 174.63213158 28.63422108 C174.90719451 31.34221584 174.90719451 31.34221584 177.38213158 33.07172108 C180.0108112 34.3792571 180.0108112 34.3792571 182.38213158 33.63422108 C184.30915362 32.20875668 184.30915362 32.20875668 185.13213158 29.75922108 C185.39613774 26.99974855 185.39613774 26.99974855 183.38213158 24.82172108 C180.71594988 22.82208481 179.27301649 22.33137614 176.44463158 24.32172108 Z M4.13213158 57.13422108 C4.13213158 188.47422108 4.13213158 319.81422108 4.13213158 455.13422108 C111.71213158 455.13422108 219.29213158 455.13422108 330.13213158 455.13422108 C330.13213158 323.79422108 330.13213158 192.45422108 330.13213158 57.13422108 C222.55213158 57.13422108 114.97213158 57.13422108 4.13213158 57.13422108 Z M142.13213158 478.13422108 C142.13213158 481.76422108 142.13213158 485.39422108 142.13213158 489.13422108 C158.63213158 489.13422108 175.13213158 489.13422108 192.13213158 489.13422108 C192.13213158 485.50422108 192.13213158 481.87422108 192.13213158 478.13422108 C175.63213158 478.13422108 159.13213158 478.13422108 142.13213158 478.13422108 Z " fill="#000000" transform="translate(88.86786842346191,-0.13422107696533203)"/>
</svg>
