<?xml version="1.0" encoding="utf-8"?>
<!-- Uploaded to: SVG Repo, www.svgrepo.com, Generator: SVG Repo Mixer Tools -->
<svg width="800px" height="800px" viewBox="-39.15 0 334.851 334.851" xmlns="http://www.w3.org/2000/svg"><defs><style>.a{fill:#211715;}.b{fill:#ffffff;}.c{fill:#4d4544;}</style></defs><path class="a" d="M213.387,8.456V2.413l-2.4,2.4q8.753,0,17.507-.013l-2.4-2.4V8.334c0,3.089,4.8,3.094,4.8,0V2.4a2.435,2.435,0,0,0-2.4-2.4q-8.754,0-17.507.013a2.435,2.435,0,0,0-2.4,2.4V8.456c0,3.089,4.8,3.094,4.8,0Z"/><path class="a" d="M248.376,34.62h5.76l-2.4-2.4q0,8.754.013,17.507l2.4-2.4H248.5c-3.088,0-3.093,4.8,0,4.8h5.651a2.435,2.435,0,0,0,2.4-2.4q0-8.754-.013-17.507a2.435,2.435,0,0,0-2.4-2.4h-5.76c-3.089,0-3.094,4.8,0,4.8Z"/><path class="a" d="M248.376,65.623h5.76l-2.4-2.4q0,8.753.013,17.507l2.4-2.4H248.5c-3.088,0-3.093,4.8,0,4.8h5.651a2.435,2.435,0,0,0,2.4-2.4q0-8.754-.013-17.507a2.435,2.435,0,0,0-2.4-2.4h-5.76c-3.089,0-3.094,4.8,0,4.8Z"/><path class="a" d="M250.643,324.384V13.338a8,8,0,0,0-8-8H10.407a8,8,0,0,0-8,8V324.4a7.994,7.994,0,0,0,7.993,8c46.879,0,184.162,0,232.251-.012A8,8,0,0,0,250.643,324.384Z"/><path class="a" d="M253.043,324.384V14.594a17.934,17.934,0,0,0-.2-3.235c-.921-5.14-5.6-8.393-10.626-8.421-3.563-.019-7.127,0-10.691,0H19.036c-2.858,0-5.723-.059-8.58,0A10.572,10.572,0,0,0,.007,13.415c-.015.708,0,1.418,0,2.126v304.7c0,4.11-.254,8.038,2.9,11.36,2.748,2.9,6.295,3.2,10.035,3.2h68.24l49.514,0,49.039,0,42.1,0,15.851,0c2.67,0,5.663.341,8.219-.523a10.588,10.588,0,0,0,7.145-9.878c.087-3.09-4.714-3.088-4.8,0a5.718,5.718,0,0,1-2.29,4.531,7.2,7.2,0,0,1-4.582,1.069l-7.257,0-17.177,0-42.753,0-48.992,0-48.763,0H17.562c-2.275,0-4.551.018-6.826,0a5.7,5.7,0,0,1-5.929-5.607c-.035-1.973,0-3.95,0-5.923V15.1c0-.582-.011-1.165,0-1.746.059-3.414,2.782-5.6,6.039-5.62,3.533-.016,7.067,0,10.6,0H232.771c3.218,0,6.437-.03,9.654,0a5.7,5.7,0,0,1,5.818,5.7c.011.712,0,1.426,0,2.138V324.384C248.243,327.472,253.043,327.478,253.043,324.384Z"/><path class="b" d="M239.325,317.078V20.71a4,4,0,0,0-4-4H17.765a4,4,0,0,0-4,4V317.091a4,4,0,0,0,4,4c42.473,0,173.521,0,217.565-.013A4,4,0,0,0,239.325,317.078Z"/><path class="b" d="M241.325,317.078V23c0-.718.021-1.441,0-2.159a6.146,6.146,0,0,0-6.182-6.134c-3-.082-6.016,0-9.017,0H26.767c-2.948,0-5.911-.085-8.858,0a6.147,6.147,0,0,0-6.144,6.157c-.021.741,0,1.486,0,2.226V311.959a51.594,51.594,0,0,0,.057,5.807A6,6,0,0,0,15.2,322.5a9.715,9.715,0,0,0,4.288.587H127.171l45.553,0,39.755,0,15.2,0,6.4,0a7.985,7.985,0,0,0,4.329-.857,6.18,6.18,0,0,0,2.917-5.143c.13-2.573-3.871-2.566-4,0-.139,2.765-4.092,2-5.99,2H224.4l-16.534,0-40.3,0-45.659,0-44.813,0H23.656a39.548,39.548,0,0,1-6.167-.01,2.087,2.087,0,0,1-1.724-2.147c-.106-2.278,0-4.586,0-6.865V22.686c0-.63-.042-1.277,0-1.906.109-1.6,1.3-2.07,2.642-2.07H227.218c2.658,0,5.39-.182,8.045,0,2.695.186,2.062,3.629,2.062,5.523V317.078C237.325,319.651,241.325,319.656,241.325,317.078Z"/><circle class="c" cx="126.522" cy="8.855" r="2.666"/></svg>