<svg width="95" height="90" viewBox="0 0 95 90" fill="none" xmlns="http://www.w3.org/2000/svg">
<g opacity="0.66">
<path d="M80.013 39.6135H77.969C77.1112 39.6135 76.4131 38.9722 76.4131 38.1839V36.0717C76.4131 35.6757 76.1406 35.3178 75.7347 35.1812C75.4933 35.0999 75.2529 35.0082 75.0201 34.9091C74.6223 34.7398 74.1495 34.8139 73.8447 35.0941L72.2188 36.5876C71.925 36.8578 71.5341 37.0064 71.1185 37.0064C70.7027 37.0064 70.312 36.8578 70.018 36.5876L68.5726 35.2601C67.9661 34.7027 67.9661 33.7956 68.5726 33.2383L70.1987 31.7447C70.5035 31.4645 70.5844 31.0305 70.4 30.6647C70.2916 30.4491 70.1919 30.2283 70.1041 30.008C69.9551 29.6354 69.5655 29.3849 69.1345 29.3849H66.8355C65.9774 29.3849 65.2793 28.7437 65.2793 27.9554V26.0777C65.2793 25.2894 65.9774 24.6481 66.8355 24.6481H69.1345C69.5658 24.6481 69.9554 24.3977 70.1041 24.0251C70.1921 23.8045 70.2919 23.5837 70.4 23.3686C70.5844 23.0028 70.5037 22.5686 70.1987 22.2886L68.5726 20.7948C67.9661 20.2374 67.9661 19.3306 68.5726 18.773L70.018 17.4452C70.6242 16.8878 71.6121 16.8876 72.2188 17.4452L73.8447 18.939C74.1495 19.2192 74.6218 19.2935 75.0201 19.1239C75.255 19.0241 75.4954 18.9327 75.735 18.8521C76.1406 18.7155 76.4131 18.3573 76.4131 17.9614V15.8491C76.4131 15.0609 77.1112 14.4196 77.969 14.4196H80.013C80.8711 14.4196 81.5692 15.0609 81.5692 15.8491V17.9614C81.5692 18.3573 81.8418 18.7152 82.2477 18.8521C82.487 18.9327 82.7276 19.0241 82.962 19.1239C83.3603 19.2935 83.8329 19.2192 84.1377 18.939L85.7635 17.4452C86.37 16.8878 87.3579 16.8876 87.9644 17.4452L89.4098 18.773C90.0162 19.3303 90.0162 20.2372 89.4098 20.7948L87.7837 22.2886C87.4787 22.5688 87.3977 23.0028 87.5826 23.3684C87.6907 23.5837 87.7905 23.8045 87.8785 24.0251C88.0272 24.3977 88.4171 24.6481 88.8481 24.6481H91.1472C92.0052 24.6481 92.7033 25.2894 92.7033 26.0777V27.9554C92.7033 28.7437 92.0052 29.3849 91.1472 29.3849H88.8481C88.4169 29.3849 88.0275 29.6354 87.8785 30.008C87.7908 30.2281 87.691 30.4489 87.5829 30.6644C87.398 31.0303 87.4789 31.4645 87.784 31.7447L89.4101 33.2383C90.0165 33.7956 90.0165 34.7025 89.4101 35.2601L87.9646 36.5876C87.6706 36.8578 87.2799 37.0064 86.8641 37.0064C86.4485 37.0064 86.0576 36.8578 85.7638 36.5876L84.138 35.0941C83.8332 34.8139 83.3605 34.7398 82.9623 34.9091C82.7295 35.0082 82.4891 35.0996 82.2479 35.1812C81.8421 35.3178 81.5695 35.6757 81.5695 36.0717V38.1839C81.5692 38.9722 80.8711 39.6135 80.013 39.6135ZM74.5763 34.3383C74.8009 34.3383 75.028 34.3823 75.2401 34.4728C75.46 34.5663 75.687 34.6527 75.9151 34.7294C76.526 34.9353 76.9366 35.4749 76.9366 36.0717V38.1839C76.9366 38.7069 77.3998 39.1324 77.9688 39.1324H80.0128C80.5823 39.1324 81.0453 38.7069 81.0453 38.1839V36.0717C81.0453 35.4746 81.4558 34.9353 82.0667 34.7294C82.2948 34.6527 82.5218 34.5661 82.7415 34.4728C83.3383 34.219 84.0484 34.3318 84.5077 34.754L86.1335 36.2478C86.5363 36.6177 87.1917 36.6172 87.5939 36.2478L89.039 34.9202C89.4415 34.5502 89.4415 33.9484 89.039 33.5786L87.4129 32.0848C86.9531 31.6624 86.8303 31.0103 87.1068 30.4624C87.2092 30.2591 87.3032 30.0503 87.3862 29.8425C87.6101 29.281 88.1977 28.9039 88.8473 28.9039H91.1464C91.7159 28.9039 92.1789 28.4783 92.1789 27.9554V26.0777C92.1789 25.5547 91.7156 25.1292 91.1464 25.1292H88.8473C88.1974 25.1292 87.6101 24.752 87.3862 24.1908C87.3029 23.9825 87.2087 23.7739 87.1068 23.5707C86.83 23.023 86.9531 22.3708 87.4129 21.9484L89.039 20.4546C89.4412 20.0847 89.4412 19.4831 89.039 19.1131L87.5939 17.7853C87.1914 17.4153 86.536 17.4158 86.1335 17.7853L84.5077 19.2791C84.0482 19.7015 83.338 19.8143 82.7415 19.5603C82.52 19.4662 82.293 19.3796 82.067 19.3036C81.4558 19.0977 81.0453 18.5582 81.0453 17.9611V15.8489C81.0453 15.3259 80.5823 14.9004 80.0128 14.9004H77.9688C77.3995 14.9004 76.9366 15.3259 76.9366 15.8489V17.9611C76.9366 18.5582 76.526 19.0975 75.9151 19.3036C75.6889 19.3796 75.4618 19.4662 75.2401 19.5603C74.6443 19.8143 73.9339 19.7015 73.4741 19.2788L71.8483 17.785C71.4459 17.4151 70.7904 17.4156 70.388 17.785L68.9426 19.1129C68.5404 19.4828 68.5404 20.0844 68.9426 20.4544L70.5687 21.9482C71.0282 22.3704 71.1513 23.0225 70.8748 23.5707C70.7726 23.7737 70.6786 23.9823 70.5954 24.1906C70.3715 24.7518 69.7839 25.129 69.1342 25.129H66.8352C66.2657 25.129 65.8027 25.5545 65.8027 26.0774V27.9551C65.8027 28.4781 66.2659 28.9036 66.8352 28.9036H69.1342C69.7842 28.9036 70.3715 29.2808 70.5954 29.8422C70.6784 30.0501 70.7726 30.2586 70.875 30.4624C71.1513 31.0103 71.0282 31.6622 70.5687 32.0846L68.9426 33.5784C68.5401 33.9481 68.5401 34.55 68.9426 34.9199L70.388 36.2475C70.7902 36.617 71.4456 36.6172 71.8483 36.2475L73.4741 34.7537C73.77 34.4821 74.1701 34.3383 74.5763 34.3383ZM78.9913 33.6198C75.028 33.6198 71.8035 30.6577 71.8035 27.0168C71.8035 23.3758 75.0282 20.4137 78.9913 20.4137C82.9547 20.4137 86.1791 23.3758 86.1791 27.0168C86.1791 30.6577 82.9544 33.6198 78.9913 33.6198ZM78.9913 20.8948C75.3168 20.8948 72.3272 23.6412 72.3272 27.0168C72.3272 30.3924 75.3168 33.1387 78.9913 33.1387C82.6659 33.1387 85.6554 30.3924 85.6554 27.0168C85.6554 23.6412 82.6659 20.8948 78.9913 20.8948Z" fill="white"/>
<g opacity="0.84">
<path d="M76.205 73.937H73.6551C73.0524 73.937 72.5148 73.5908 72.3074 73.071C72.2113 72.8302 72.1047 72.5943 71.9882 72.3633C71.7329 71.8572 71.8403 71.2592 72.2697 70.865L74.0728 69.2083C74.6334 68.6933 74.6334 67.8584 74.0728 67.3433L72.47 65.871C71.9094 65.3559 71.0005 65.3559 70.4399 65.871L68.6368 67.5276C68.2074 67.9221 67.5567 68.0207 67.0055 67.7862C66.7541 67.6792 66.497 67.5813 66.2351 67.493C65.6692 67.3025 65.2924 66.8084 65.2924 66.2549V63.9124C65.2924 63.1841 64.6499 62.5938 63.857 62.5938H61.5901C60.7973 62.5938 60.1547 63.1841 60.1547 63.9124V66.2549C60.1547 66.8086 59.7779 67.3025 59.212 67.493C58.9499 67.5813 58.693 67.6792 58.4414 67.7862C57.8905 68.0207 57.2398 67.9221 56.8103 67.5276L55.007 65.871C54.4464 65.3559 53.5375 65.3559 52.9769 65.871L51.3741 67.3433C50.8135 67.8584 50.8135 68.6933 51.3741 69.2083L53.1774 70.865C53.6069 71.2595 53.7142 71.8572 53.4589 72.3633C53.3424 72.5943 53.2358 72.8305 53.1397 73.071C52.9321 73.5908 52.3945 73.937 51.792 73.937H49.2421C48.4492 73.937 47.8066 74.5273 47.8066 75.2557V77.3381C47.8066 78.0665 48.4492 78.6568 49.2421 78.6568H51.792C52.3948 78.6568 52.9323 79.0029 53.1397 79.5227C53.2358 79.7635 53.3424 79.9995 53.4589 80.2307C53.7142 80.7368 53.6069 81.3345 53.1774 81.729L51.3741 83.3854C50.8135 83.9004 50.8135 84.7354 51.3741 85.2504L52.9769 86.7228C53.5375 87.2378 54.4464 87.2378 55.007 86.7228L56.8103 85.0661C57.2398 84.6716 57.8905 84.573 58.4414 84.8076C58.6928 84.9146 58.9499 85.0125 59.2118 85.1008C59.7776 85.2913 60.1544 85.7854 60.1544 86.3389V88.6813C60.1544 89.4097 60.797 90 61.5899 90H63.8567C64.6496 90 65.2922 89.4097 65.2922 88.6813V86.3389C65.2922 85.7851 65.669 85.2913 66.2348 85.1008C66.497 85.0125 66.7538 84.9146 67.0052 84.8076C67.5561 84.573 68.2068 84.6716 68.6363 85.0661L70.4396 86.7228C71.0002 87.2378 71.9091 87.2378 72.4697 86.7228L74.0725 85.2504C74.6331 84.7354 74.6331 83.9004 74.0725 83.3854L72.2694 81.729C71.84 81.3345 71.7326 80.7368 71.9879 80.2307C72.1045 79.9997 72.211 79.7635 72.3071 79.5227C72.5148 79.0029 73.0524 78.6568 73.6549 78.6568H76.2048C76.9976 78.6568 77.6402 78.0665 77.6402 77.3381V75.2557C77.6405 74.5275 76.9979 73.937 76.205 73.937ZM62.7237 83.353C58.4817 83.353 55.0429 80.1939 55.0429 76.297C55.0429 72.4001 58.4817 69.241 62.7237 69.241C66.9657 69.241 70.4045 72.4001 70.4045 76.297C70.4048 80.1939 66.9659 83.353 62.7237 83.353Z" fill="white"/>
</g>
<path d="M36.3255 87.9664H34.6086C33.8647 87.9664 33.2593 87.4105 33.2593 86.7271V84.9528C33.2593 84.6362 33.0411 84.35 32.717 84.2405C32.5146 84.1727 32.3114 84.0952 32.1137 84.0111C31.795 83.8756 31.4171 83.935 31.1734 84.1587L29.8076 85.4134C29.5528 85.6477 29.2139 85.7767 28.8536 85.7767C28.4933 85.7767 28.1545 85.6477 27.8995 85.4134L26.6855 84.298C26.4307 84.064 26.2904 83.7527 26.2904 83.4217C26.2904 83.0907 26.4307 82.7795 26.6855 82.5454L28.0513 81.2907C28.2951 81.0665 28.3598 80.7197 28.2121 80.4269C28.121 80.246 28.0369 80.0598 27.962 79.8724C27.8432 79.5744 27.5316 79.374 27.187 79.374H25.2553C24.5114 79.374 23.9062 78.8179 23.9062 78.1347V76.5575C23.9062 75.8741 24.5116 75.3182 25.2553 75.3182H27.187C27.5316 75.3182 27.8429 75.118 27.9618 74.82C28.0372 74.6316 28.1212 74.445 28.2118 74.2655C28.3595 73.9728 28.2949 73.6257 28.0511 73.4017L26.6853 72.1468C26.4305 71.9127 26.2901 71.6015 26.2901 71.2705C26.2901 70.9395 26.4305 70.6282 26.6853 70.3939L27.8992 69.2785C28.4253 68.7955 29.2812 68.7955 29.8073 69.2785L31.1731 70.5334C31.4169 70.7574 31.7945 70.817 32.1134 70.6809C32.3087 70.5977 32.5117 70.5207 32.717 70.4514C33.0414 70.342 33.2593 70.0557 33.2593 69.7394V67.9649C33.2593 67.2815 33.8644 66.7256 34.6086 66.7256H36.3255C37.0694 66.7256 37.6746 67.2817 37.6746 67.9649V69.7394C37.6746 70.056 37.8924 70.342 38.2171 70.4514C38.4224 70.5207 38.6253 70.5977 38.8204 70.6809C39.1394 70.8168 39.5169 70.7572 39.7607 70.5334L41.1265 69.2785C41.6526 68.7955 42.5083 68.7955 43.0344 69.2785L44.2486 70.3939C44.5034 70.6282 44.6437 70.9395 44.6437 71.2705C44.6437 71.6015 44.5034 71.9127 44.2486 72.1468L42.8828 73.4017C42.639 73.6257 42.5743 73.9728 42.722 74.2658C42.8128 74.445 42.8969 74.6316 42.9721 74.8202C43.0912 75.118 43.4025 75.3182 43.7471 75.3182H45.6785C46.4224 75.3182 47.0276 75.8741 47.0276 76.5575V78.1347C47.0276 78.8181 46.4222 79.374 45.6785 79.374H43.7471C43.4025 79.374 43.0912 79.5744 42.9721 79.8724C42.8972 80.0593 42.8131 80.2463 42.722 80.4269C42.5743 80.7197 42.639 81.0665 42.8828 81.2907L44.2486 82.5454C44.5034 82.7797 44.6437 83.091 44.6437 83.4217C44.6437 83.7527 44.5034 84.064 44.2486 84.298L43.0344 85.4134C42.7796 85.6477 42.4408 85.7767 42.0805 85.7767C41.7201 85.7767 41.3813 85.6477 41.1265 85.4134L39.7607 84.1587C39.5169 83.9348 39.1388 83.8756 38.8204 84.0111C38.6219 84.0957 38.4187 84.1727 38.2169 84.2408C37.8927 84.35 37.6746 84.6362 37.6746 84.9528V86.7271C37.6746 87.4102 37.0694 87.9664 36.3255 87.9664ZM31.7589 83.458C31.9534 83.458 32.1498 83.496 32.3339 83.5742C32.5188 83.6529 32.7083 83.725 32.8974 83.7886C33.4271 83.9673 33.7832 84.4351 33.7832 84.9526V86.7268C33.7832 87.1449 34.1537 87.485 34.6088 87.485H36.3258C36.7809 87.485 37.1511 87.1449 37.1511 86.7268V84.9526C37.1511 84.4351 37.507 83.9673 38.0367 83.7888C38.2255 83.7253 38.4151 83.6531 38.6005 83.5742C39.1179 83.3546 39.7332 83.4525 40.1312 83.8184L41.4971 85.0731C41.8089 85.3596 42.3525 85.3596 42.6644 85.0731L43.8786 83.9577C44.0344 83.8143 44.1203 83.624 44.1203 83.4215C44.1203 83.2189 44.0344 83.0284 43.8786 82.8853L42.5128 81.6306C42.1142 81.2647 42.0074 80.6994 42.247 80.2244C42.3321 80.0555 42.4106 79.8813 42.4806 79.7067C42.6751 79.2198 43.1842 78.8927 43.7474 78.8927H45.6788C46.1339 78.8927 46.5041 78.5526 46.5041 78.1345V76.5572C46.5041 76.1392 46.1339 75.799 45.6788 75.799H43.7474C43.1842 75.799 42.6751 75.4721 42.4806 74.9855C42.4104 74.8097 42.3318 74.6355 42.2473 74.4678C42.0077 73.9925 42.1145 73.4275 42.5128 73.0614L43.8786 71.8064C44.0344 71.6631 44.1203 71.4728 44.1203 71.2705C44.1203 71.0682 44.0344 70.8774 43.8786 70.7341L42.6644 69.6186C42.3426 69.323 41.8189 69.323 41.4971 69.6186L40.1312 70.8736C39.733 71.2397 39.1176 71.3378 38.6002 71.1175C38.4182 71.04 38.2284 70.9679 38.0367 70.9029C37.507 70.7244 37.1511 70.2568 37.1511 69.7394V67.9649C37.1511 67.5468 36.7809 67.2067 36.3258 67.2067H34.6088C34.1537 67.2067 33.7832 67.5468 33.7832 67.9649V69.7394C33.7832 70.2568 33.4274 70.7244 32.8976 70.9029C32.706 70.9679 32.5161 71.0398 32.3339 71.1175C31.8165 71.3378 31.2014 71.2399 30.8031 70.8736L29.4373 69.6186C29.1155 69.323 28.5915 69.323 28.2697 69.6186L27.0558 70.7341C26.9 70.8774 26.8141 71.0679 26.8141 71.2705C26.8141 71.473 26.9 71.6633 27.0558 71.8064L28.4216 73.0614C28.8199 73.4275 28.9267 73.9925 28.6871 74.4676C28.6025 74.6353 28.524 74.8097 28.4535 74.9855C28.2595 75.4721 27.7502 75.799 27.187 75.799H25.2553C24.8002 75.799 24.4299 76.1392 24.4299 76.5572V78.1345C24.4299 78.5526 24.8002 78.8927 25.2553 78.8927H27.187C27.7502 78.8927 28.2592 79.2196 28.4535 79.7065C28.5234 79.8813 28.602 80.0555 28.6871 80.2244C28.927 80.6994 28.8201 81.2645 28.4216 81.6306L27.0558 82.8853C26.9 83.0287 26.8141 83.2192 26.8141 83.4215C26.8141 83.6238 26.9 83.8143 27.0558 83.9577L28.2697 85.0731C28.5816 85.3593 29.1252 85.3598 29.4373 85.0731L30.8031 83.8184C31.0597 83.5826 31.4062 83.458 31.7589 83.458ZM35.4672 82.9312C32.1147 82.9312 29.3873 80.4257 29.3873 77.346C29.3873 74.2663 32.1147 71.7607 35.4672 71.7607C38.8196 71.7607 41.5471 74.2663 41.5471 77.346C41.5468 80.4257 38.8194 82.9312 35.4672 82.9312ZM35.4672 72.2418C32.4035 72.2418 29.911 74.5313 29.911 77.346C29.911 80.1604 32.4035 82.4501 35.4672 82.4501C38.5308 82.4501 41.0234 80.1604 41.0234 77.346C41.0231 74.5316 38.5308 72.2418 35.4672 72.2418Z" fill="white"/>
</g>
<g opacity="0.81">
<path d="M91.8765 61.8732H88.463C88.3182 61.8732 88.2012 61.7657 88.2012 61.6326C88.2012 61.4996 88.3182 61.3921 88.463 61.3921H91.8765C92.0213 61.3921 92.1383 61.4996 92.1383 61.6326C92.1383 61.7657 92.021 61.8732 91.8765 61.8732Z" fill="white"/>
<path d="M91.8765 67.0409H88.463C88.3182 67.0409 88.2012 66.9334 88.2012 66.8004C88.2012 66.6673 88.3182 66.5598 88.463 66.5598H91.8765C92.0213 66.5598 92.1383 66.6673 92.1383 66.8004C92.1383 66.9334 92.021 67.0409 91.8765 67.0409Z" fill="white"/>
<path d="M94.2896 72.26H73.5344C73.1429 72.26 72.8242 71.9672 72.8242 71.6076V55.6668C72.8242 55.3072 73.1429 55.0146 73.5344 55.0146H94.2896C94.6811 55.0146 94.9998 55.3072 94.9998 55.6668V71.6076C94.9998 71.9672 94.6813 72.26 94.2896 72.26ZM73.5346 55.4957C73.4317 55.4957 73.3482 55.5725 73.3482 55.6668V71.6076C73.3482 71.7021 73.4317 71.7789 73.5346 71.7789H94.2899C94.3928 71.7789 94.4763 71.7021 94.4763 71.6076V55.6668C94.4763 55.5725 94.3928 55.4957 94.2899 55.4957H73.5346Z" fill="white"/>
<path opacity="0.66" d="M94.2896 72.26H73.5344C73.1429 72.26 72.8242 71.9672 72.8242 71.6076V55.6668C72.8242 55.3072 73.1429 55.0146 73.5344 55.0146H94.2896C94.6811 55.0146 94.9998 55.3072 94.9998 55.6668V71.6076C94.9998 71.9672 94.6813 72.26 94.2896 72.26ZM73.5346 55.4957C73.4317 55.4957 73.3482 55.5725 73.3482 55.6668V71.6076C73.3482 71.7021 73.4317 71.7789 73.5346 71.7789H94.2899C94.3928 71.7789 94.4763 71.7021 94.4763 71.6076V55.6668C94.4763 55.5725 94.3928 55.4957 94.2899 55.4957H73.5346Z" fill="white"/>
<path d="M91.8744 59.3654H75.6076C75.4627 59.3654 75.3457 59.2578 75.3457 59.1248C75.3457 58.9918 75.4627 58.8843 75.6076 58.8843H91.8744C92.0192 58.8843 92.1363 58.9918 92.1363 59.1248C92.1363 59.2578 92.019 59.3654 91.8744 59.3654Z" fill="white"/>
<path d="M91.8744 64.3812H75.6076C75.4627 64.3812 75.3457 64.2737 75.3457 64.1407C75.3457 64.0077 75.4627 63.9001 75.6076 63.9001H91.8744C92.0192 63.9001 92.1363 64.0077 92.1363 64.1407C92.1363 64.2735 92.019 64.3812 91.8744 64.3812Z" fill="white"/>
<path d="M84.3777 61.8734H75.6076C75.4627 61.8734 75.3457 61.7659 75.3457 61.6329C75.3457 61.4999 75.4627 61.3923 75.6076 61.3923H84.3777C84.5225 61.3923 84.6395 61.4999 84.6395 61.6329C84.6395 61.7659 84.5222 61.8734 84.3777 61.8734Z" fill="white"/>
<path d="M84.3777 67.0409H75.6076C75.4627 67.0409 75.3457 66.9334 75.3457 66.8004C75.3457 66.6673 75.4627 66.5598 75.6076 66.5598H84.3777C84.5225 66.5598 84.6395 66.6673 84.6395 66.8004C84.6395 66.9334 84.5222 67.0409 84.3777 67.0409Z" fill="white"/>
<path d="M81.5222 69.4347H75.6076C75.4627 69.4347 75.3457 69.3272 75.3457 69.1942C75.3457 69.0611 75.4627 68.9536 75.6076 68.9536H81.5222C81.667 68.9536 81.7841 69.0611 81.7841 69.1942C81.7841 69.3272 81.667 69.4347 81.5222 69.4347Z" fill="white"/>
</g>
<g opacity="0.81">
<path d="M25.4571 35.5665H21.5841C21.4396 35.5665 21.3223 35.4588 21.3223 35.326C21.3223 35.1932 21.4396 35.0854 21.5841 35.0854H25.4571C25.6017 35.0854 25.719 35.1932 25.719 35.326C25.719 35.4588 25.6017 35.5665 25.4571 35.5665Z" fill="white"/>
<path d="M25.4571 41.4292H21.5841C21.4396 41.4292 21.3223 41.3214 21.3223 41.1887C21.3223 41.0559 21.4396 40.9481 21.5841 40.9481H25.4571C25.6017 40.9481 25.719 41.0559 25.719 41.1887C25.719 41.3214 25.6017 41.4292 25.4571 41.4292Z" fill="white"/>
<path d="M28.2513 47.3493H4.58292C4.19146 47.3493 3.87305 47.0568 3.87305 46.6972V28.501C3.87305 28.1414 4.19146 27.8489 4.58292 27.8489H28.2513C28.6427 27.8489 28.9611 28.1414 28.9611 28.501V46.6972C28.9611 47.0568 28.6427 47.3493 28.2513 47.3493ZM4.58292 28.33C4.48028 28.33 4.39675 28.4067 4.39675 28.501V46.6972C4.39675 46.7915 4.48028 46.8682 4.58292 46.8682H28.2513C28.3539 46.8682 28.4374 46.7915 28.4374 46.6972V28.501C28.4374 28.4067 28.3539 28.33 28.2513 28.33H4.58292Z" fill="white"/>
<path opacity="0.66" d="M28.2513 47.3493H4.58292C4.19146 47.3493 3.87305 47.0568 3.87305 46.6972V28.501C3.87305 28.1414 4.19146 27.8489 4.58292 27.8489H28.2513C28.6427 27.8489 28.9611 28.1414 28.9611 28.501V46.6972C28.9611 47.0568 28.6427 47.3493 28.2513 47.3493ZM4.58292 28.33C4.48028 28.33 4.39675 28.4067 4.39675 28.501V46.6972C4.39675 46.7915 4.48028 46.8682 4.58292 46.8682H28.2513C28.3539 46.8682 28.4374 46.7915 28.4374 46.6972V28.501C28.4374 28.4067 28.3539 28.33 28.2513 28.33H4.58292Z" fill="white"/>
<path d="M25.4575 32.7207H7.00208C6.85754 32.7207 6.74023 32.613 6.74023 32.4802C6.74023 32.3474 6.85754 32.2396 7.00208 32.2396H25.4575C25.6021 32.2396 25.7194 32.3474 25.7194 32.4802C25.7194 32.613 25.6021 32.7207 25.4575 32.7207Z" fill="white"/>
<path d="M25.4575 38.4116H7.00208C6.85754 38.4116 6.74023 38.3039 6.74023 38.1711C6.74023 38.0383 6.85754 37.9305 7.00208 37.9305H25.4575C25.6021 37.9305 25.7194 38.0383 25.7194 38.1711C25.7194 38.3039 25.6021 38.4116 25.4575 38.4116Z" fill="white"/>
<path d="M16.9521 35.5663H7.00208C6.85754 35.5663 6.74023 35.4585 6.74023 35.3258C6.74023 35.193 6.85754 35.0852 7.00208 35.0852H16.9521C17.0966 35.0852 17.214 35.193 17.214 35.3258C17.214 35.4585 17.0966 35.5663 16.9521 35.5663Z" fill="white"/>
<path d="M16.9521 41.4292H7.00208C6.85754 41.4292 6.74023 41.3214 6.74023 41.1887C6.74023 41.0559 6.85754 40.9481 7.00208 40.9481H16.9521C17.0966 40.9481 17.214 41.0559 17.214 41.1887C17.214 41.3214 17.0966 41.4292 16.9521 41.4292Z" fill="white"/>
<path d="M13.7122 44.145H7.00208C6.85754 44.145 6.74023 44.0373 6.74023 43.9045C6.74023 43.7717 6.85754 43.6639 7.00208 43.6639H13.7125C13.857 43.6639 13.9744 43.7717 13.9744 43.9045C13.9741 44.0373 13.857 44.145 13.7122 44.145Z" fill="white"/>
</g>
<path d="M93.6443 27.4982H91.5794H83.2829H81.8747C81.3484 27.4982 80.8799 27.8513 80.7071 28.3781L80.3172 29.5664C80.1444 30.0932 79.6759 30.4463 79.1496 30.4463H62.3006C61.618 30.4463 61.0645 31.033 61.0645 31.7568V49.2814C61.0645 50.0052 61.618 50.5919 62.3006 50.5919H62.3842H91.5791H93.6441C94.373 50.5919 94.9638 50.0052 94.9638 49.2814V33.1489V30.4466V28.8089C94.9643 28.0849 94.3733 27.4982 93.6443 27.4982Z" fill="#3E479B"/>
<path d="M81.6199 30.6313L82.0363 29.443C82.2209 28.9162 82.721 28.5631 83.2829 28.5631H93.6443C94.3733 28.5631 94.964 29.1498 94.964 29.8736V31.5113V34.2136V50.3461C94.964 51.0699 94.373 51.6566 93.6443 51.6566H62.3842C61.6552 51.6566 61.0645 51.0699 61.0645 50.3461V32.8215C61.0645 32.0977 61.6555 31.511 62.3842 31.511H80.3732C80.9352 31.5113 81.4353 31.1581 81.6199 30.6313Z" fill="#6D6CD4"/>
<path opacity="0.12" d="M82.3868 31.8388L82.779 30.7188C82.9529 30.2223 83.4245 29.8894 83.9539 29.8894H93.7201C94.4072 29.8894 94.9642 30.4424 94.9642 31.1246V32.6682V35.2151V50.4211C94.9642 51.1032 94.4072 51.6563 93.7201 51.6563H64.2558C63.5687 51.6563 63.0117 51.1032 63.0117 50.4211V33.9032C63.0117 33.221 63.5687 32.668 64.2558 32.668H81.2116C81.7413 32.668 82.2126 32.3353 82.3868 31.8388Z" fill="white"/>
<path d="M91.3944 50.1792H83.6622C83.5174 50.1792 83.4004 50.0717 83.4004 49.9387C83.4004 49.8059 83.5174 49.6981 83.6622 49.6981H91.3944C91.8932 49.6981 92.2991 49.3253 92.2991 48.8668V43.2318C92.2991 43.099 92.4161 42.9912 92.5609 42.9912C92.7057 42.9912 92.8228 43.099 92.8228 43.2318V48.8668C92.8228 49.5904 92.1818 50.1792 91.3944 50.1792Z" fill="white"/>
<path d="M1.32862 47.4292H3.40693H11.7571H13.1742C13.7036 47.4292 14.1752 47.8263 14.3494 48.4191L14.7419 49.7558C14.9157 50.3485 15.3873 50.7456 15.9171 50.7456H32.8747C33.5618 50.7456 34.1188 51.4057 34.1188 52.2197V71.933C34.1188 72.747 33.5618 73.4071 32.8747 73.4071H32.7904H3.40667H1.32836C0.59466 73.4071 0 72.747 0 71.933V53.7857V50.7459V48.9035C0.00026185 48.089 0.594922 47.4292 1.32862 47.4292Z" fill="#F28393"/>
<path opacity="0.12" d="M13.4303 50.9538L13.0113 49.617C12.8257 49.0243 12.3221 48.6272 11.7568 48.6272H1.32836C0.59466 48.6272 0 49.2873 0 50.1013V51.9434V54.9834V73.1308C0 73.9448 0.59466 74.6048 1.32836 74.6048H32.7899C33.5236 74.6048 34.1182 73.9448 34.1182 73.1308V53.4177C34.1182 52.6037 33.5236 51.9436 32.7899 51.9436H14.6848C14.1195 51.9436 13.6159 51.5465 13.4303 50.9538Z" fill="white"/>
<path opacity="0.12" d="M12.6591 52.3117L12.2643 51.0517C12.0891 50.4932 11.6146 50.1189 11.0817 50.1189H1.25216C0.56062 50.1189 0 50.741 0 51.5083V53.2448V56.1102V73.2153C0 73.9826 0.56062 74.6047 1.25216 74.6047H30.9066C31.5982 74.6047 32.1588 73.9826 32.1588 73.2153V54.6342C32.1588 53.8669 31.5982 53.2448 30.9066 53.2448H13.8414C13.3088 53.2448 12.834 52.8703 12.6591 52.3117Z" fill="white"/>
<path d="M2.4199 55.8909C2.29055 55.8909 2.18555 55.7834 2.18555 55.6504V52.3114C2.18555 51.8591 2.54376 51.4913 2.98419 51.4913H7.86611C7.99547 51.4913 8.10047 51.5989 8.10047 51.7319C8.10047 51.8649 7.99547 51.9724 7.86611 51.9724H2.98445C2.80247 51.9724 2.65426 52.1245 2.65426 52.3114V55.6504C2.65426 55.7834 2.54926 55.8909 2.4199 55.8909Z" fill="white"/>
<path d="M65.8343 37.0857H32.1843C26.5964 37.0857 22.0664 32.9242 22.0664 27.7909C22.0664 22.6577 26.5964 18.4962 32.1843 18.4962H65.8341C71.4219 18.4962 75.9519 22.6577 75.9519 27.7909C75.9522 32.9242 71.4222 37.0857 65.8343 37.0857Z" fill="#C5D9FF"/>
<path d="M49.009 32.9893C56.8678 32.9893 63.2387 27.1368 63.2387 19.9173C63.2387 12.6978 56.8678 6.84521 49.009 6.84521C41.1501 6.84521 34.7793 12.6978 34.7793 19.9173C34.7793 27.1368 41.1501 32.9893 49.009 32.9893Z" fill="#599AF2"/>
<path d="M65.8343 34.347H32.1843C26.5964 34.347 22.0664 30.1856 22.0664 25.0523C22.0664 19.919 26.5964 15.7576 32.1843 15.7576H65.8341C71.4219 15.7576 75.9519 19.919 75.9519 25.0523C75.9522 30.1856 71.4222 34.347 65.8343 34.347Z" fill="#599AF2"/>
<path d="M54.6405 29.1833C61.858 26.3266 65.1881 18.6357 62.0784 12.0054C58.9686 5.37498 50.5967 2.31585 43.3791 5.17261C36.1615 8.02936 32.8315 15.7202 35.9412 22.3506C39.051 28.981 47.4229 32.0401 54.6405 29.1833Z" fill="#599AF2"/>
<g opacity="0.35">
<path d="M65.8343 34.347H32.1843C26.5964 34.347 22.0664 30.1856 22.0664 25.0523C22.0664 19.919 26.5964 15.7576 32.1843 15.7576H65.8341C71.4219 15.7576 75.9519 19.919 75.9519 25.0523C75.9522 30.1856 71.4222 34.347 65.8343 34.347Z" fill="#ECF1F7"/>
<path d="M54.6405 29.1833C61.858 26.3266 65.1881 18.6357 62.0784 12.0054C58.9686 5.37498 50.5967 2.31585 43.3791 5.17261C36.1615 8.02936 32.8315 15.7202 35.9412 22.3506C39.051 28.981 47.4229 32.0401 54.6405 29.1833Z" fill="#ECF1F7"/>
</g>
<path d="M45.686 19.125C45.5166 19.125 45.3474 19.0648 45.2191 18.9451C44.9656 18.7084 44.9691 18.3276 45.227 18.0947L49.0455 14.646L52.8039 18.0983C53.0597 18.3331 53.0597 18.7139 52.8039 18.9487C52.548 19.1837 52.1338 19.1837 51.8782 18.9487L49.0379 16.3397L46.1448 18.9523C46.0175 19.0675 45.8517 19.125 45.686 19.125Z" fill="white"/>
<path d="M49.014 23.908C48.6524 23.908 48.3594 23.6389 48.3594 23.3067V15.493C48.3594 15.1608 48.6524 14.8916 49.014 14.8916C49.3756 14.8916 49.6686 15.1608 49.6686 15.493V23.3067C49.6686 23.6389 49.3756 23.908 49.014 23.908Z" fill="white"/>
<path d="M55.2003 27.618H42.7271C41.8332 27.618 41.1055 26.9498 41.1055 26.1283V21.9654C41.1055 21.6332 41.3985 21.364 41.7601 21.364C42.1217 21.364 42.4147 21.6332 42.4147 21.9654V26.1283C42.4147 26.2866 42.5548 26.4153 42.7271 26.4153H55.2003C55.4263 26.4153 55.6104 26.2462 55.6104 26.0386V21.9656C55.6104 21.6334 55.9034 21.3643 56.265 21.3643C56.6266 21.3643 56.9196 21.6334 56.9196 21.9656V26.0386C56.9199 26.9093 56.1485 27.618 55.2003 27.618Z" fill="white"/>
<path opacity="0.36" d="M68.8067 67.4088L33.1103 78.2432C32.2373 78.5081 31.296 78.0729 31.0074 77.271L19.2135 44.4784C18.9249 43.6764 19.3988 42.8116 20.2719 42.5465L55.9682 31.7121C56.8413 31.447 57.7826 31.8824 58.0712 32.6844L69.8651 65.4767C70.1537 66.2789 69.6797 67.1437 68.8067 67.4088Z" fill="#4C65BA"/>
<path d="M66.1839 66.1951L30.4872 77.0296C29.6142 77.2947 28.6728 76.8593 28.3843 76.0573L16.5903 43.265C16.302 42.463 16.7757 41.5983 17.6487 41.3332L53.3451 30.4987C54.2181 30.2336 55.1595 30.669 55.448 31.471L67.242 64.2635C67.5305 65.0653 67.0566 65.9301 66.1839 66.1951Z" fill="white"/>
<path d="M52.6839 34.0711L20.4453 43.8557L31.0965 73.4716L63.3351 63.687L52.6839 34.0711Z" fill="#C5D9FF"/>
<path opacity="0.47" d="M30.8254 73.7231L28.4141 67.0179L31.9414 59.2073C32.4298 58.1263 33.7155 57.5726 34.9328 57.9197L41.4623 59.7827C41.8483 59.8934 42.2633 59.7476 42.4712 59.4293L47.9075 51.1177C49.062 49.3524 51.4859 48.6348 53.5451 49.4488L59.5323 51.8148L59.5875 51.969L63.8106 63.7118L63.4378 63.8249L30.8254 73.7231ZM29.2515 67.0465L31.325 72.8117L62.8185 63.2528L58.897 52.3498L53.2345 50.1118C51.5338 49.4394 49.5336 50.0324 48.5807 51.4896L43.1444 59.8012C42.7495 60.4052 41.9624 60.6816 41.2293 60.4721L34.6998 58.6091C33.8726 58.3731 32.9988 58.7493 32.6668 59.4844L29.2515 67.0465Z" fill="white"/>
<path opacity="0.47" d="M41.5882 50.6289C39.8343 50.6289 38.1972 49.6056 37.6175 47.9942C36.8948 45.9844 38.0865 43.8091 40.2742 43.1452C42.4617 42.482 44.8296 43.576 45.5526 45.5858C46.2753 47.5956 45.0836 49.7708 42.8961 50.4348C42.4625 50.5663 42.0218 50.6289 41.5882 50.6289ZM41.5827 43.6727C41.2305 43.6727 40.8731 43.7235 40.5209 43.8303C38.7445 44.3694 37.7767 46.1357 38.3638 47.7676C38.9506 49.3997 40.8739 50.2885 42.6497 49.7492C44.4261 49.2101 45.3939 47.4438 44.8069 45.8119C44.3363 44.5036 43.0066 43.6727 41.5827 43.6727Z" fill="white"/>
<path opacity="0.36" d="M79.5537 73.3127H51.6861C50.7667 73.3127 50.0215 72.6281 50.0215 71.7835V46.1831C50.0215 45.3385 50.7667 44.6539 51.6861 44.6539H79.5537C80.473 44.6539 81.2183 45.3385 81.2183 46.1831V71.7835C81.2183 72.6281 80.473 73.3127 79.5537 73.3127Z" fill="#4C65BA"/>
<path d="M77.9697 71.8582H50.1021C49.1827 71.8582 48.4375 71.1736 48.4375 70.3291V44.7286C48.4375 43.8841 49.1827 43.1995 50.1021 43.1995H77.9697C78.889 43.1995 79.6343 43.8841 79.6343 44.7286V70.3291C79.6343 71.1736 78.889 71.8582 77.9697 71.8582Z" fill="white"/>
<path opacity="0.39" d="M76.9573 45.6396H51.0742V69.4172H76.9573V45.6396Z" fill="#F7A9B4"/>
<path opacity="0.47" d="M77.3857 69.6246H50.7168V64.124L55.3259 59.2209C55.9933 58.512 57.1219 58.3884 57.9517 58.9325L62.1926 61.7154C62.4076 61.8566 62.6988 61.8448 62.8996 61.6861L68.9984 56.8643C70.3288 55.8119 72.3233 55.8256 73.6365 56.8958L77.3854 59.9493V69.6246H77.3857ZM51.5023 68.9029H76.6001V60.274L73.1154 57.4356C72.0947 56.6043 70.5451 56.5934 69.5108 57.411L63.4121 62.2328C62.9363 62.6088 62.2473 62.6381 61.7362 62.3026L57.495 59.5197C56.9973 59.1933 56.3201 59.2678 55.9203 59.6926L51.5023 64.3922V68.9029Z" fill="white"/>
<path opacity="0.47" d="M65.6107 55.4197C63.8028 55.4197 62.332 54.0687 62.332 52.4078C62.332 50.747 63.8026 49.3959 65.6107 49.3959C67.4185 49.3959 68.8893 50.747 68.8893 52.4078C68.8893 54.0687 67.4185 55.4197 65.6107 55.4197ZM65.6107 50.1175C64.2359 50.1175 63.1176 51.1449 63.1176 52.4078C63.1176 53.6706 64.2359 54.698 65.6107 54.698C66.9854 54.698 68.1037 53.6706 68.1037 52.4078C68.1037 51.1449 66.9854 50.1175 65.6107 50.1175Z" fill="white"/>
<path opacity="0.36" d="M59.6575 75.7678L43.9038 81.1903C43.0429 81.4866 42.0835 81.0856 41.7609 80.2947L35.8582 65.8227C35.5356 65.0318 35.9721 64.1504 36.8331 63.854L52.5868 58.4316C53.4477 58.1353 54.4071 58.5363 54.7297 59.3272L60.6324 73.7992C60.9547 74.5904 60.5185 75.4717 59.6575 75.7678Z" fill="#4C65BA"/>
<path d="M58.343 75.2178L42.5894 80.6402C41.7284 80.9366 40.769 80.5356 40.4464 79.7446L34.5438 65.2726C34.2212 64.4817 34.6577 63.6003 35.5187 63.304L51.2723 57.8816C52.1333 57.5852 53.0927 57.9862 53.4153 58.7771L59.3179 73.2492C59.6402 74.0403 59.2037 74.9214 58.343 75.2178Z" fill="white"/>
<path d="M51.8147 59.3742L36.1582 64.7639L42.0252 79.1467L57.6817 73.757L51.8147 59.3742Z" fill="#599AF2"/>
<path opacity="0.47" d="M41.7777 79.5152L40.3535 76.0235L41.95 72.0535C42.2035 71.4232 42.9272 71.0797 43.6334 71.2532L46.8856 72.0535C46.9885 72.0787 47.0967 72.0366 47.148 71.9505L49.6473 67.7638C50.2258 66.7949 51.5091 66.3636 52.6327 66.7593L55.7123 67.8465L58.17 73.8727L41.7777 79.5152ZM41.1917 76.0215L42.2378 78.5863L57.159 73.4501L55.1009 68.4034L52.3512 67.4328C51.5926 67.1651 50.7267 67.4566 50.3365 68.1107L47.8369 72.2971C47.6112 72.6755 47.1365 72.8622 46.6824 72.7503L43.4302 71.95C43.1186 71.8721 42.7989 72.0251 42.6871 72.3032L41.1917 76.0215Z" fill="white"/>
<path opacity="0.47" d="M46.6211 67.9085C45.7065 67.9085 44.8442 67.3942 44.5049 66.5626C44.0683 65.492 44.6612 64.2945 45.8264 63.8935C46.9911 63.4921 48.2949 64.0369 48.7319 65.1076C49.1684 66.178 48.5756 67.3755 47.4103 67.7767C47.1506 67.8662 46.8838 67.9085 46.6211 67.9085ZM46.6169 64.4831C46.4457 64.4831 46.2718 64.5108 46.1024 64.569C45.3428 64.8307 44.956 65.6113 45.2407 66.3091C45.5253 67.0069 46.375 67.362 47.1349 67.1008C47.8945 66.839 48.2812 66.0585 47.9964 65.3606C47.7754 64.8187 47.2129 64.4831 46.6169 64.4831Z" fill="white"/>
</svg>
